<svg width="80" height="80" viewBox="0 0 80 80" fill="none" xmlns="http://www.w3.org/2000/svg">
<path d="M60.4103 17.5757C60.7066 17.8719 60.7066 18.3516 60.4103 18.6479C60.1141 18.9441 59.6344 18.9441 59.3381 18.6479L49.4435 8.75367C49.1472 8.45742 49.1472 7.97773 49.4435 7.68148C49.7397 7.38523 50.2194 7.38523 50.5156 7.68148L60.4103 17.5757ZM62.568 19.7337C62.2717 19.4374 61.792 19.4374 61.4958 19.7337C61.1995 20.0299 61.1995 20.5096 61.4958 20.8059L62.525 21.8351C62.8213 22.1313 63.301 22.1313 63.5972 21.8351C63.8935 21.5388 63.8935 21.0591 63.5972 20.7629L62.568 19.7337ZM4.91642 22.2119C1.59704 18.8848 0.475946 14.0593 1.99095 9.61804C2.03355 9.49272 2.10828 9.38076 2.20766 9.29332C2.30705 9.20589 2.42762 9.14605 2.55735 9.11976C2.68705 9.0935 2.82135 9.10159 2.94696 9.14322C3.07256 9.18485 3.18511 9.25858 3.27345 9.35711C3.85313 10.0041 3.76313 9.86945 9.32438 15.4451L14.4994 14.4962L15.4545 9.32117C14.2114 8.07976 9.19751 3.0546 9.35767 3.25398C9.26117 3.16471 9.1896 3.05184 9.15001 2.92649C9.11042 2.80114 9.10417 2.66764 9.13188 2.53914C9.15924 2.41067 9.21956 2.29153 9.30693 2.19345C9.3943 2.09537 9.5057 2.02172 9.63017 1.97976C14.0863 0.47523 18.9088 1.59914 22.2156 4.91492C25.1241 7.82335 26.3644 11.9177 25.5766 15.9421L41.7461 32.1113L49.0736 24.7838L38.1389 13.849C38.0685 13.7786 38.0126 13.695 37.9745 13.603C37.9363 13.5111 37.9167 13.4125 37.9167 13.3129C37.9167 13.2133 37.9363 13.1147 37.9745 13.0227C38.0126 12.9307 38.0685 12.8472 38.1389 12.7768L49.3627 1.55304C49.433 1.4826 49.5166 1.42672 49.6086 1.38859C49.7006 1.35047 49.7992 1.33084 49.8988 1.33084C49.9983 1.33084 50.0969 1.35047 50.1889 1.38859C50.2809 1.42672 50.3645 1.4826 50.4349 1.55304L61.3695 12.4876L64.75 9.10711C64.8204 9.03666 64.904 8.98078 64.9959 8.94266C65.0879 8.90453 65.1865 8.88491 65.2861 8.88491C65.3857 8.88491 65.4843 8.90453 65.5763 8.94266C65.6683 8.98078 65.7518 9.03666 65.8222 9.10711L72.8617 16.1466C72.9322 16.217 72.9881 16.3006 73.0262 16.3926C73.0643 16.4846 73.0839 16.5832 73.0839 16.6827C73.0839 16.7823 73.0643 16.8809 73.0262 16.9729C72.9881 17.0649 72.9322 17.1484 72.8617 17.2188L69.4814 20.5991L75.4378 26.5554C75.5584 26.6756 75.6348 26.8329 75.6549 27.0019L76.713 35.9007C76.7265 36.0146 76.714 36.1301 76.6764 36.2384C76.6388 36.3468 76.5772 36.4452 76.4961 36.5263L69.1924 43.8298C69.122 43.9002 69.0384 43.9561 68.9464 43.9942C68.8544 44.0323 68.7558 44.052 68.6563 44.052C68.5567 44.052 68.4581 44.0323 68.3661 43.9942C68.2741 43.9561 68.1906 43.9002 68.1202 43.8298L57.1855 32.8951L49.8581 40.2224L64.0661 54.4301C68.0935 53.6426 72.1852 54.8837 75.0936 57.7924C78.3702 61.0615 79.5222 66.0021 78.0272 70.379C77.9848 70.5031 77.911 70.6141 77.8129 70.7011C77.7147 70.7881 77.5957 70.8482 77.4674 70.8754C77.339 70.9028 77.2057 70.8963 77.0806 70.8567C76.9554 70.817 76.8428 70.7455 76.7536 70.6491C76.198 70.0415 76.6027 70.4774 70.6938 64.5519L65.518 65.5004L64.5636 70.6832C70.1314 76.238 70.0092 76.1599 70.6508 76.7349C70.7493 76.8233 70.823 76.9359 70.8644 77.0616C70.9059 77.1873 70.9137 77.3217 70.887 77.4513C70.8606 77.581 70.8006 77.7015 70.713 77.8007C70.6254 77.9 70.5134 77.9745 70.388 78.017C65.9572 79.5219 61.1297 78.416 57.7958 75.091C54.8888 72.1837 53.6508 68.089 54.44 64.0624L40.2289 49.8513L11.633 78.4474C11.5626 78.5179 11.479 78.5737 11.387 78.6119C11.2951 78.65 11.1965 78.6696 11.0969 78.6696C10.9973 78.6696 10.8987 78.65 10.8067 78.6119C10.7147 78.5737 10.6312 78.5179 10.5608 78.4474L3.52126 71.4079C3.45082 71.3375 3.39494 71.2539 3.35681 71.1619C3.31869 71.07 3.29906 70.9714 3.29906 70.8718C3.29906 70.7722 3.31869 70.6736 3.35681 70.5816C3.39494 70.4896 3.45082 70.4061 3.52126 70.3357L32.117 41.7399L15.9439 25.5666C11.9174 26.3569 7.82345 25.1187 4.91642 22.2119ZM39.1567 48.7793L33.1894 42.8119L5.1297 70.8718L11.097 76.8391L39.1567 48.7793ZM62.4417 13.5598L68.4091 19.5269L71.2533 16.6826L65.286 10.7152L62.4417 13.5598ZM68.656 42.2215L75.163 35.7144L74.1797 27.4418L49.8988 3.16132L39.7472 13.3129L68.656 42.2215ZM42.8183 33.1832L48.7858 39.1504L56.1131 31.823L50.1458 25.8557L42.8183 33.1832ZM5.98938 21.1405C8.62313 23.7735 12.3706 24.8427 16.018 24.0005C16.1434 23.9714 16.2741 23.9747 16.3978 24.0102C16.5215 24.0456 16.6342 24.112 16.7252 24.203L55.8039 63.2818C55.8949 63.3727 55.9613 63.4853 55.9967 63.6089C56.0322 63.7326 56.0357 63.8632 56.0067 63.9885C55.1641 67.6344 56.2333 71.3838 58.867 74.0184C61.4705 76.6148 65.1269 77.6743 68.658 76.9235L63.2091 71.4738C63.1222 71.3869 63.0578 71.2802 63.0213 71.1629C62.9848 71.0456 62.9773 70.9212 62.9995 70.8004L64.1213 64.7116C64.1491 64.5605 64.2222 64.4214 64.3309 64.3127C64.4395 64.2041 64.5787 64.1311 64.7299 64.1034L70.8113 62.989C70.9322 62.9661 71.0568 62.9733 71.1743 63.0099C71.2918 63.0465 71.3985 63.1114 71.485 63.1988L76.9311 68.6526C77.6656 65.1529 76.5867 61.4246 74.0219 58.8652C71.3844 56.2274 67.6341 55.1541 63.991 55.9963C63.8657 56.0249 63.7352 56.0214 63.6116 55.9859C63.4881 55.9504 63.3756 55.8842 63.2845 55.7935L24.2133 16.7226C24.1223 16.6317 24.056 16.5191 24.0205 16.3954C23.985 16.2718 23.9816 16.1412 24.0105 16.0159C24.8516 12.3729 23.7794 8.6232 21.1427 5.98601C18.5489 3.38632 14.8903 2.32664 11.3547 3.07648L16.8089 8.5307C16.8958 8.61764 16.9602 8.72438 16.9967 8.84174C17.0332 8.9591 17.0407 9.08357 17.0184 9.20445L15.8959 15.2854C15.8681 15.4365 15.795 15.5756 15.6863 15.6841C15.5776 15.7927 15.4385 15.8657 15.2874 15.8934L9.20673 17.008C9.08595 17.0309 8.96141 17.0238 8.84404 16.9872C8.72667 16.9507 8.62007 16.8859 8.5336 16.7985L3.08313 11.3477C2.32782 14.8752 3.38813 18.533 5.98938 21.1405Z" fill="#5CE1E6"/>
</svg>
