<svg width="120" height="120" viewBox="0 0 120 120" fill="none" xmlns="http://www.w3.org/2000/svg">
<path d="M22.1943 68.5547V65.918C22.1943 62.5202 19.4397 59.7656 16.042 59.7656C12.644 59.7656 9.88965 62.5202 9.88965 65.918V81.7383C9.88965 85.136 12.6443 87.8906 16.042 87.8906C19.44 87.8906 22.1943 85.136 22.1943 81.7383V79.1016M32.7661 56.25V91.4062M57.3754 45.7031C51.5505 45.7031 46.8286 50.4251 46.8286 56.25V116.484H110.11V56.25C110.11 50.4251 105.388 45.7031 99.5629 45.7031" stroke="#5CE1E6" stroke-width="4" stroke-miterlimit="10"/>
<path d="M110.109 91.4062C110.109 73.9317 95.9435 59.7656 78.4688 59.7656C60.994 59.7656 46.8281 73.9315 46.8281 91.4062M57.375 31.6406V3.51562H99.5625V31.6406M57.375 31.6406H99.5625M57.375 31.6406C53.4919 31.6406 50.3438 34.7885 50.3438 38.6719C50.3438 42.5552 53.4916 45.7031 57.375 45.7031H99.5625C103.446 45.7031 106.594 42.5552 106.594 38.6719C106.594 34.7885 103.446 31.6406 99.5625 31.6406M71.4375 14.0625V3.51562M85.5 14.0625V3.51562" stroke="#5CE1E6" stroke-width="4" stroke-miterlimit="10"/>
</svg>
