<svg width="80" height="80" viewBox="0 0 80 80" fill="none" xmlns="http://www.w3.org/2000/svg">
<path d="M62.3409 25.9375C64.7444 25.9375 66.7897 24.1827 67.0739 21.8352C67.4189 18.985 65.2033 16.5625 62.4219 16.5625H17.5781C14.9892 16.5625 12.8906 18.6612 12.8906 21.25C12.8906 23.8388 14.9892 25.9375 17.5781 25.9375H17.6591C13.8425 40.1303 11.8731 54.7563 11.7995 69.4531H11.0938C8.50484 69.4531 6.40625 71.5519 6.40625 74.1406C6.40625 76.7294 8.50484 78.8281 11.0938 78.8281H68.9063C71.5389 78.8281 73.6647 76.6578 73.5919 74.0088C73.5219 71.4556 71.3628 69.4531 68.8086 69.4531H68.2003C68.1268 54.7563 66.1575 40.1303 62.3409 25.9375Z" stroke="#5CE1E6" stroke-width="2" stroke-miterlimit="10" stroke-linecap="round" stroke-linejoin="round"/>
<path d="M58.7968 16.5625C55.2973 9.58063 45.7762 1.17188 40.0635 1.17188C34.357 1.17188 24.358 9.59281 21.0527 16.5625" stroke="#5CE1E6" stroke-width="2" stroke-miterlimit="10" stroke-linecap="round" stroke-linejoin="round"/>
<path d="M17.5781 25.9375H22.2656M62.3409 25.9375H57.6534" stroke="#5CE1E6" stroke-width="2" stroke-miterlimit="10" stroke-linecap="round" stroke-linejoin="round"/>
<path d="M30.2285 35.8301V37.7051M49.7437 35.8301V37.7051" stroke="#5CE1E6" stroke-width="2" stroke-miterlimit="10" stroke-linecap="round" stroke-linejoin="round"/>
<path d="M40.0146 38.8223C40.0146 40.0698 39.0033 41.081 37.7558 41.081C36.5083 41.081 35.4971 40.0698 35.4971 38.8223" stroke="#5CE1E6" stroke-width="2" stroke-miterlimit="10" stroke-linecap="round"/>
<path d="M44.5321 38.8223C44.5321 40.0698 43.5209 41.081 42.2734 41.081C41.0259 41.081 40.0146 40.0698 40.0146 38.8223" stroke="#5CE1E6" stroke-width="2" stroke-miterlimit="10" stroke-linecap="round"/>
<path d="M53.0836 51.2179H61.4034M57.2267 51.3741V66.2829M26.5508 52.7665C26.5508 52.7665 23.8475 50.4941 20.6597 51.4544C17.7327 52.3362 17.3233 55.7113 19.4409 57.0919C19.4409 57.0919 21.5189 58.019 23.8236 58.8691C29.3716 60.9155 26.9817 66.2829 22.5155 66.2829C20.2789 66.2829 18.4017 65.3035 17.2656 64.0498M47.1034 51.2179V66.2702C47.27 66.2988 52.3787 66.2702 52.3787 66.2702M30.6791 66.2829L36.3359 51.4301C36.4516 51.1474 36.8516 51.1471 36.9678 51.4294L42.5733 66.283M32.4433 62.5838H40.8375" stroke="#5CE1E6" stroke-width="2" stroke-miterlimit="10" stroke-linecap="round" stroke-linejoin="round"/>
<path d="M11.7998 69.4531H14.4254M65.5751 69.4531H68.2007" stroke="#5CE1E6" stroke-width="2" stroke-miterlimit="10" stroke-linecap="round" stroke-linejoin="round"/>
</svg>
