<svg width="120" height="120" viewBox="0 0 120 120" fill="none" xmlns="http://www.w3.org/2000/svg">
<g clip-path="url(#clip0_140_1156)">
<path d="M119.626 63.128L113.678 33.984C112.514 28.6216 109.554 23.8171 105.289 20.3651C101.023 16.9131 95.7072 15.0204 90.2199 15L31.7799 15C26.293 15.02 20.9773 16.9124 16.7121 20.364C12.4468 23.8157 9.48761 28.6199 8.32385 33.982L0.59985 70.122C0.596863 70.17 0.596863 70.2181 0.59985 70.266C-0.280283 74.541 -0.181213 78.9599 0.889633 83.1912C1.96048 87.4225 3.97531 91.3565 6.78307 94.6982C9.59084 98.0399 13.1187 100.703 17.1021 102.487C21.0855 104.271 25.4211 105.13 29.7839 105H109C110.535 105 112.053 104.679 113.457 104.057C114.86 103.435 116.118 102.526 117.149 101.389C118.18 100.252 118.962 98.9112 119.444 97.4536C119.926 95.9961 120.098 94.4538 119.948 92.926C119.685 90.6584 118.733 88.5259 117.221 86.8159C115.708 85.1059 113.708 83.9004 111.49 83.362C114.657 81.1489 117.111 78.0629 118.556 74.4796C120 70.8963 120.371 66.9704 119.624 63.18C119.622 63.162 119.628 63.146 119.626 63.128ZM12.2359 34.816C13.2056 30.3482 15.6713 26.3453 19.2251 23.4694C22.779 20.5934 27.2081 19.0167 31.7799 19H90.2199C94.7891 19.016 99.2162 20.5905 102.769 23.4633C106.323 26.3362 108.789 30.3354 109.762 34.8L113.296 52.102C109.645 48.8187 104.91 47.0015 99.9999 47H28.9999C25.0688 46.9877 21.1769 47.7818 17.5649 49.3332C13.9529 50.8847 10.6974 53.1605 7.99985 56.02C7.85985 56.166 7.74385 56.326 7.59985 56.474L12.2359 34.816ZM99.9999 83H28.9999C28.0216 82.9987 27.0544 82.7926 26.1605 82.395C25.2667 81.9974 24.4659 81.4172 23.8098 80.6915C23.1537 79.9659 22.6567 79.111 22.3508 78.1817C22.045 77.2525 21.937 76.2695 22.0339 75.296C22.2754 73.5257 23.1594 71.9059 24.5176 70.745C25.8758 69.584 27.6135 68.963 29.3999 69H99.9999C100.53 69 101.039 68.7893 101.414 68.4142C101.789 68.0392 102 67.5304 102 67C102 66.4696 101.789 65.9609 101.414 65.5858C101.039 65.2107 100.53 65 99.9999 65H29.3999C26.6219 64.9706 23.9302 65.9641 21.8375 67.7912C19.7448 69.6184 18.3974 72.1515 18.0519 74.908C17.9012 76.4369 18.0721 77.9804 18.5536 79.4392C19.035 80.8981 19.8164 82.2401 20.8475 83.3789C21.8786 84.5178 23.1366 85.4283 24.5406 86.0519C25.9446 86.6755 27.4636 86.9985 28.9999 87H108.614C110.4 86.9632 112.138 87.586 113.494 88.7493C114.85 89.9126 115.73 91.5348 115.966 93.306C116.066 94.2812 115.959 95.2664 115.651 96.1971C115.343 97.1278 114.842 97.9828 114.18 98.706C113.523 99.4273 112.723 100.004 111.832 100.399C110.94 100.794 109.975 100.998 109 101H29.7839C16.2419 101.224 4.90785 90.778 4.03185 77.262C3.86451 73.8779 4.38609 70.4951 5.56497 67.3186C6.74385 64.142 8.55549 61.238 10.8901 58.7824C13.2246 56.3268 16.0335 54.3709 19.1465 53.0332C22.2594 51.6954 25.6116 51.0037 28.9999 51H99.9999C104.243 51 108.313 52.6857 111.314 55.6863C114.314 58.6869 116 62.7565 116 67C116 71.2435 114.314 75.3131 111.314 78.3137C108.313 81.3143 104.243 83 99.9999 83Z" fill="#5CE1E6"/>
<path d="M17.6882 38.02C18.2069 38.1303 18.7482 38.03 19.193 37.7412C19.6379 37.4524 19.9498 36.9987 20.0602 36.48C20.6422 33.8015 22.1211 31.4019 24.2523 29.678C26.3834 27.9542 29.0391 27.0094 31.7802 27H48.0002C48.5306 27 49.0393 26.7893 49.4144 26.4142C49.7894 26.0391 50.0002 25.5304 50.0002 25C50.0002 24.4696 49.7894 23.9609 49.4144 23.5858C49.0393 23.2107 48.5306 23 48.0002 23H31.7802C28.1236 23.0132 24.581 24.2739 21.7382 26.5737C18.8954 28.8736 16.9226 32.0748 16.1462 35.648C16.0916 35.905 16.0882 36.1702 16.1362 36.4286C16.1841 36.6869 16.2825 36.9332 16.4257 37.1535C16.5689 37.3738 16.7541 37.5637 16.9707 37.7123C17.1873 37.861 17.4311 37.9656 17.6882 38.02Z" fill="#5CE1E6"/>
<path d="M56 27C57.1046 27 58 26.1046 58 25C58 23.8954 57.1046 23 56 23C54.8954 23 54 23.8954 54 25C54 26.1046 54.8954 27 56 27Z" fill="#5CE1E6"/>
</g>
<defs>
<clipPath id="clip0_140_1156">
<rect width="120" height="120" fill="white"/>
</clipPath>
</defs>
</svg>
