<svg width="80" height="80" viewBox="0 0 80 80" fill="none" xmlns="http://www.w3.org/2000/svg">
<g clip-path="url(#clip0_376_8721)">
<path d="M36.3232 4.4947C36.3019 4.33634 36.2496 4.18373 36.1692 4.04561C36.0889 3.90748 35.9821 3.78655 35.855 3.68971C35.7279 3.59288 35.583 3.52205 35.4285 3.48127C35.274 3.44049 35.113 3.43056 34.9546 3.45205C26.9226 4.53829 19.3508 8.33 13.6339 14.1283C8.71474 19.1178 5.30366 25.4606 3.82804 32.2622L2.2682 29.5869C2.10261 29.3145 1.83667 29.1179 1.52761 29.0395C1.21855 28.9611 0.891056 29.0071 0.615602 29.1677C0.340147 29.3283 0.138743 29.5906 0.0547232 29.8982C-0.0292969 30.2058 0.0107817 30.5341 0.166336 30.8124L3.41476 36.3838C3.49981 36.5297 3.61431 36.6562 3.75097 36.7554C3.88763 36.8546 4.04345 36.9242 4.20851 36.9599C4.23538 36.9658 4.26257 36.9689 4.28976 36.973C4.30101 36.9747 4.31179 36.9774 4.32319 36.9788L4.32648 36.9789C4.37288 36.9843 4.41929 36.9874 4.46569 36.9874H4.46632L4.4696 36.9875C4.52882 36.9875 4.58694 36.9821 4.64413 36.9736C4.64851 36.973 4.65288 36.9725 4.6571 36.9718C4.71726 36.9624 4.77585 36.9485 4.83304 36.9305L4.83397 36.9302C4.96709 36.8882 5.09198 36.8236 5.20319 36.7393L10.4302 33.0327C10.5605 32.9403 10.6714 32.8232 10.7564 32.6879C10.8415 32.5527 10.899 32.402 10.9258 32.2446C10.9527 32.0871 10.9482 31.9258 10.9127 31.7701C10.8772 31.6143 10.8114 31.4671 10.719 31.3368C10.6266 31.2064 10.5094 31.0956 10.3741 31.0105C10.2389 30.9255 10.0882 30.8679 9.93072 30.8411C9.77322 30.8143 9.61198 30.8187 9.4562 30.8542C9.30043 30.8898 9.15318 30.9556 9.02286 31.048L6.13678 33.0946C7.47615 26.6212 10.6938 20.576 15.3666 15.8365C20.7072 10.4197 27.7795 6.87781 35.2807 5.86329C35.6004 5.82 35.8899 5.6515 36.0854 5.39485C36.2809 5.1382 36.3664 4.81442 36.3232 4.4947ZM36.7642 74.831L33.0336 69.5699C32.9412 69.4396 32.824 69.3287 32.6887 69.2436C32.5535 69.1586 32.4028 69.101 32.2453 69.0742C32.0878 69.0474 31.9266 69.0519 31.7708 69.0874C31.615 69.1229 31.4678 69.1887 31.3375 69.2812C31.2071 69.3736 31.0963 69.4907 31.0113 69.6259C30.9262 69.7612 30.8686 69.9118 30.8418 70.0693C30.815 70.2268 30.8195 70.388 30.855 70.5438C30.8905 70.6995 30.9563 70.8468 31.0487 70.9771L33.1414 73.9283C26.5508 72.6171 20.5622 69.4404 15.7146 64.6618C10.3525 59.3757 6.92865 52.6669 5.8135 45.2602C5.71335 44.5958 5.09475 44.1372 4.42944 44.2384C4.1104 44.2865 3.82351 44.4593 3.63187 44.7188C3.44024 44.9784 3.35956 45.3035 3.40757 45.6225C4.60179 53.5534 8.26693 60.7362 14.0068 66.3943C19.0788 71.3943 25.3192 74.7555 32.1882 76.2155L29.5876 77.7318C29.4496 77.8122 29.3288 77.9191 29.232 78.0462C29.1353 78.1734 29.0646 78.3183 29.0238 78.4728C28.9831 78.6273 28.9732 78.7883 28.9947 78.9466C29.0163 79.1049 29.0687 79.2575 29.1492 79.3955C29.2296 79.5335 29.3365 79.6544 29.4637 79.7511C29.5908 79.8478 29.7358 79.9186 29.8903 79.9593C30.0448 80 30.2058 80.0099 30.3641 79.9884C30.5224 79.9669 30.6749 79.9144 30.8129 79.8339L36.3845 76.5857C36.5303 76.5006 36.6569 76.3861 36.7561 76.2494C36.8553 76.1128 36.925 75.957 36.9607 75.7919C36.9964 75.6269 36.9974 75.4562 36.9636 75.2908C36.9297 75.1253 36.8618 74.9688 36.7642 74.831ZM79.8345 49.1873L76.586 43.6158C76.501 43.4699 76.3866 43.3433 76.2499 43.2441C76.1133 43.1449 75.9575 43.0752 75.7924 43.0395C75.6274 43.0037 75.4567 43.0027 75.2913 43.0366C75.1258 43.0704 74.9692 43.1384 74.8315 43.2361L69.5706 46.9666C69.4403 47.059 69.3294 47.1761 69.2444 47.3113C69.1593 47.4466 69.1018 47.5972 69.075 47.7547C69.0481 47.9122 69.0526 48.0734 69.0881 48.2292C69.1236 48.3849 69.1894 48.5322 69.2818 48.6625C69.3742 48.7928 69.4914 48.9037 69.6266 48.9888C69.7619 49.0738 69.9126 49.1314 70.0701 49.1582C70.2276 49.185 70.3888 49.1805 70.5446 49.145C70.7004 49.1095 70.8476 49.0437 70.9779 48.9512L73.7928 46.9552C72.4376 53.6893 69.1411 59.7821 64.1911 64.6618C58.8239 69.9526 52.0582 73.2805 44.6251 74.286C44.3088 74.3333 44.0239 74.5031 43.8319 74.7588C43.64 75.0145 43.5564 75.3355 43.5992 75.6524C43.6421 75.9693 43.8079 76.2565 44.0609 76.452C44.3139 76.6476 44.6337 76.7356 44.9512 76.6972C52.9102 75.6207 60.1539 72.0582 65.899 66.3945C71.1415 61.2265 74.6521 54.7862 76.1312 47.6662L77.7324 50.4128C77.8128 50.5509 77.9196 50.6718 78.0468 50.7685C78.1739 50.8653 78.3189 50.9361 78.4734 50.9768C78.6279 51.0175 78.7889 51.0274 78.9472 51.0058C79.1055 50.9843 79.258 50.9318 79.396 50.8512C79.5341 50.7708 79.6549 50.6639 79.7516 50.5367C79.8484 50.4096 79.9191 50.2646 79.9599 50.1101C80.0006 49.9556 80.0104 49.7946 79.9889 49.6362C79.9674 49.4779 79.9149 49.3254 79.8345 49.1873ZM76.6459 35.6258C75.6785 27.5668 71.9945 19.9323 66.2722 14.1283C61.1866 8.97015 54.6327 5.40204 47.593 3.91173L50.4136 2.26721C50.6905 2.1038 50.8915 1.83742 50.9726 1.5263C51.0537 1.21517 51.0083 0.884598 50.8464 0.606828C50.6844 0.329057 50.4191 0.126678 50.1085 0.043922C49.7978 -0.038834 49.467 0.00476301 49.1883 0.165185L43.6163 3.41392C43.4704 3.49899 43.3439 3.61349 43.2447 3.75014C43.1455 3.88679 43.0758 4.0426 43.0401 4.20765C43.0043 4.3727 43.0034 4.54337 43.0372 4.70881C43.0711 4.87425 43.139 5.03084 43.2366 5.1686L46.9671 10.4295C47.0795 10.5883 47.2285 10.7178 47.4014 10.8071C47.5743 10.8963 47.7661 10.9428 47.9607 10.9425C48.204 10.9425 48.4497 10.8697 48.6633 10.7181C48.7937 10.6257 48.9045 10.5086 48.9895 10.3733C49.0746 10.2381 49.1322 10.0874 49.159 9.92995C49.1858 9.77247 49.1813 9.61125 49.1458 9.45549C49.1103 9.29973 49.0445 9.15249 48.9521 9.02218L47.0035 6.27407C53.6118 7.65469 59.7672 10.9962 64.5395 15.8365C69.8853 21.2584 73.3268 28.3895 74.2301 35.9158C74.2468 36.0764 74.2952 36.232 74.3726 36.3737C74.4501 36.5153 74.5549 36.6401 74.681 36.7409C74.8071 36.8416 74.9521 36.9163 75.1073 36.9604C75.2626 37.0046 75.4251 37.0175 75.5853 36.9982C75.7456 36.979 75.9004 36.928 76.0408 36.8484C76.1812 36.7687 76.3044 36.6619 76.4031 36.5342C76.5018 36.4064 76.5741 36.2603 76.6158 36.1044C76.6574 35.9485 76.6677 35.7858 76.6459 35.6258ZM44.9063 47.9536C44.6451 47.7719 44.3223 47.7013 44.0091 47.7575C43.6959 47.8137 43.4178 47.9921 43.236 48.2533L38.196 55.4975L42.3321 43.5169C42.3945 43.3362 42.4127 43.1431 42.3854 42.9539C42.3581 42.7647 42.2859 42.5847 42.1749 42.429C42.064 42.2733 41.9174 42.1464 41.7475 42.0588C41.5775 41.9712 41.3891 41.9255 41.1979 41.9255H29.6826L33.0565 37.0761C33.1465 36.9468 33.2102 36.801 33.2438 36.6471C33.2775 36.4931 33.2805 36.3341 33.2526 36.179C33.2248 36.0239 33.1667 35.8758 33.0816 35.7432C32.9966 35.6105 32.8862 35.496 32.7568 35.406C32.4956 35.2243 32.1729 35.1538 31.8596 35.21C31.5464 35.2662 31.2683 35.4445 31.0865 35.7057L26.4011 42.4402C26.2759 42.6201 26.2025 42.8309 26.1886 43.0497C26.1748 43.2684 26.2212 43.4868 26.3227 43.681C26.4242 43.8753 26.577 44.0381 26.7644 44.1516C26.9519 44.2652 27.1669 44.3253 27.3861 44.3253H39.5142L33.102 62.8984C33.0395 63.0791 33.0212 63.272 33.0484 63.4613C33.0757 63.6505 33.1478 63.8304 33.2587 63.9862C33.3696 64.1419 33.5161 64.2689 33.686 64.3565C33.8559 64.4441 34.0443 64.4899 34.2354 64.4899C34.4291 64.4901 34.62 64.4433 34.7917 64.3537C34.9634 64.264 35.1108 64.1341 35.2214 63.9751L45.206 49.6237C45.296 49.4944 45.3597 49.3486 45.3933 49.1947C45.427 49.0407 45.43 48.8817 45.4021 48.7266C45.3743 48.5715 45.3162 48.4234 45.2311 48.2908C45.146 48.1581 45.0357 48.0436 44.9063 47.9536ZM53.6783 36.3185C53.5768 36.1242 53.4241 35.9614 53.2366 35.8478C53.0491 35.7342 52.8341 35.6741 52.6149 35.6741H40.4868L46.899 17.1011C46.9939 16.8271 46.9864 16.5281 46.8779 16.2593C46.7694 15.9904 46.5673 15.77 46.3088 15.6387C46.0504 15.5074 45.7531 15.4741 45.472 15.545C45.1909 15.6159 44.945 15.7862 44.7798 16.0243L34.3201 31.0583C34.1431 31.3197 34.0763 31.6403 34.134 31.9506C34.1917 32.2609 34.3694 32.536 34.6285 32.7162C34.8876 32.8965 35.2073 32.9674 35.5183 32.9136C35.8293 32.8598 36.1066 32.6856 36.2901 32.4288L41.8051 24.5018L37.669 36.4824C37.6066 36.6631 37.5884 36.8561 37.6157 37.0454C37.643 37.2346 37.7152 37.4146 37.8262 37.5703C37.9371 37.726 38.0837 37.8529 38.2537 37.9405C38.4236 38.0281 38.612 38.0738 38.8032 38.0738H50.3185L46.5158 43.5392C46.4258 43.6686 46.3622 43.8144 46.3285 43.9683C46.2949 44.1222 46.2919 44.2813 46.3197 44.4364C46.3475 44.5915 46.4057 44.7396 46.4907 44.8722C46.5758 45.0048 46.6862 45.1194 46.8155 45.2094C46.9448 45.2995 47.0906 45.3632 47.2446 45.3969C47.3985 45.4306 47.5576 45.4336 47.7128 45.4058C47.8679 45.378 48.016 45.3198 48.1486 45.2347C48.2813 45.1497 48.3959 45.0393 48.4858 44.9099L53.5999 37.5593C53.725 37.3793 53.7985 37.1686 53.8123 36.9498C53.8261 36.7311 53.7798 36.5127 53.6783 36.3185Z" fill="#5CE1E6"/>
</g>
<defs>
<clipPath id="clip0_376_8721">
<rect width="80" height="80" fill="white"/>
</clipPath>
</defs>
</svg>
