<svg width="120" height="120" viewBox="0 0 120 120" fill="none" xmlns="http://www.w3.org/2000/svg">
<path d="M50.6245 110.625C49.63 110.625 48.6761 110.23 47.9729 109.527C47.2696 108.823 46.8745 107.87 46.8745 106.875V70.8188L12.112 32.5875C10.7436 31.0795 9.8423 29.2068 9.51749 27.1966C9.19269 25.1863 9.45835 23.125 10.2822 21.2629C11.1061 19.4007 12.4528 17.8177 14.1589 16.7059C15.8649 15.5942 17.857 15.0016 19.8933 15H100.106C102.142 15.0016 104.134 15.5942 105.84 16.7059C107.546 17.8177 108.893 19.4007 109.717 21.2629C110.541 23.125 110.806 25.1863 110.482 27.1966C110.157 29.2068 109.255 31.0795 107.887 32.5875L73.1245 70.8188V91.875C73.1242 92.4367 72.9976 92.9912 72.7542 93.4975C72.5108 94.0038 72.1568 94.4489 71.7183 94.8L52.9683 109.8C52.3035 110.333 51.4768 110.624 50.6245 110.625ZM19.8933 22.5C19.3097 22.5015 18.7391 22.672 18.2505 22.991C17.7619 23.31 17.3762 23.7638 17.1401 24.2975C16.9041 24.8311 16.8277 25.4218 16.9203 25.9979C17.013 26.574 17.2706 27.111 17.662 27.5437L53.3995 66.9187C54.0118 67.5921 54.3584 68.4651 54.3745 69.375V99.075L65.6245 90V69.375C65.6223 68.4391 65.9701 67.5363 66.5995 66.8438L102.337 27.4687C102.705 27.034 102.943 26.5041 103.022 25.94C103.102 25.376 103.021 24.8009 102.787 24.2813C102.554 23.7616 102.178 23.3186 101.704 23.0034C101.229 22.6882 100.675 22.5137 100.106 22.5H19.8933Z" fill="#5CE1E6"/>
</svg>
