<svg width="80" height="80" viewBox="0 0 80 80" fill="none" xmlns="http://www.w3.org/2000/svg">
<path d="M76.2496 17.5H61.7746L62.4996 8.85375C62.514 8.68109 62.4923 8.50732 62.436 8.34348C62.3796 8.17964 62.2898 8.0293 62.1723 7.902C62.0548 7.77471 61.912 7.67324 61.7532 7.60403C61.5944 7.53483 61.4229 7.4994 61.2496 7.5H40.4384L34.5309 2.77375C34.3091 2.59641 34.0336 2.49987 33.7496 2.5H3.74961C3.49052 2.49988 3.23779 2.58027 3.02638 2.73005C2.81498 2.87984 2.65533 3.09161 2.56954 3.33609C2.48375 3.58056 2.47604 3.84566 2.54749 4.0947C2.61894 4.34375 2.76601 4.56444 2.96836 4.72625L8.87461 9.45375L22.4996 68.8913V76.25C22.4996 76.5815 22.6313 76.8995 22.8657 77.1339C23.1001 77.3683 23.4181 77.5 23.7496 77.5H56.2496C56.5811 77.5 56.8991 77.3683 57.1335 77.1339C57.3679 76.8995 57.4996 76.5815 57.4996 76.25V68.8025L58.0621 62.0525L76.8234 52.3575C77.0266 52.2525 77.1972 52.0937 77.3165 51.8984C77.4357 51.7031 77.4991 51.4788 77.4996 51.25V18.75C77.4996 18.4185 77.3679 18.1005 77.1335 17.8661C76.8991 17.6317 76.5811 17.5 76.2496 17.5ZM61.1496 25H69.9996V47.4388L58.7971 53.2388L61.1496 25ZM10.7809 7.77375L7.31336 5H33.3134L39.2209 9.72625C39.442 9.90305 39.7165 9.99957 39.9996 10H59.8909L55.0996 67.5H24.7496L11.2184 8.47C11.1546 8.19548 11.0005 7.95031 10.7809 7.77375ZM54.9996 75H24.9996V70H54.9996V75ZM74.9996 50.49L58.3071 59.115L58.5571 56.18L71.8309 49.305C72.0324 49.1992 72.2012 49.0403 72.319 48.8456C72.4369 48.6508 72.4993 48.4276 72.4996 48.2V23.75C72.4996 23.4185 72.3679 23.1005 72.1335 22.8661C71.8991 22.6317 71.5811 22.5 71.2496 22.5H61.3584L61.5659 20H74.9996V50.49Z" fill="#5CE1E6"/>
<path d="M40 62.5H50V65H40V62.5ZM40 52.5H50V55H40V52.5ZM40 57.5H47.5V60H40V57.5ZM40 42.5H50V45H40V42.5ZM40 47.5H47.5V50H40V47.5ZM40 32.5H50V35H40V32.5ZM40 37.5H47.5V40H40V37.5ZM40 22.5H50V25H40V22.5ZM40 12.5H50V15H40V12.5ZM40 27.5H47.5V30H40V27.5ZM40 17.5H47.5V20H40V17.5Z" fill="#5CE1E6"/>
</svg>
