<svg width="120" height="120" viewBox="0 0 120 120" fill="none" xmlns="http://www.w3.org/2000/svg">
<path d="M72.3077 12.3086H47.6923C45.6522 12.3086 43.6956 13.119 42.253 14.5616C40.8104 16.0042 40 17.9608 40 20.0009V100.001C40 100.409 40.1621 100.8 40.4506 101.089C40.7391 101.377 41.1304 101.539 41.5385 101.539H43.0769V106.155C43.0769 106.563 43.239 106.954 43.5275 107.243C43.816 107.531 44.2074 107.693 44.6154 107.693H50.7692C51.1773 107.693 51.5686 107.531 51.8571 107.243C52.1456 106.954 52.3077 106.563 52.3077 106.155V101.539H67.6923V106.155C67.6923 106.563 67.8544 106.954 68.1429 107.243C68.4314 107.531 68.8227 107.693 69.2308 107.693H75.3846C75.7926 107.693 76.184 107.531 76.4725 107.243C76.761 106.954 76.9231 106.563 76.9231 106.155V101.539H78.4615C78.8696 101.539 79.2609 101.377 79.5494 101.089C79.8379 100.8 80 100.409 80 100.001V20.0009C80 17.9608 79.1896 16.0042 77.747 14.5616C76.3044 13.119 74.3478 12.3086 72.3077 12.3086ZM49.2308 104.616H46.1538V101.539H49.2308V104.616ZM73.8462 104.616H70.7692V101.539H73.8462V104.616ZM76.9231 98.4624H43.0769V20.0009C43.0769 18.7768 43.5632 17.6029 44.4287 16.7373C45.2943 15.8718 46.4682 15.3855 47.6923 15.3855H72.3077C73.5318 15.3855 74.7057 15.8718 75.5713 16.7373C76.4368 17.6029 76.9231 18.7768 76.9231 20.0009V98.4624Z" fill="#5CE1E6"/>
<path d="M60.0005 30.7706C61.2176 30.7706 62.4074 30.4097 63.4194 29.7335C64.4314 29.0573 65.2202 28.0962 65.6859 26.9717C66.1517 25.8472 66.2736 24.6099 66.0361 23.4162C65.7987 22.2225 65.2126 21.1259 64.352 20.2653C63.4913 19.4047 62.3948 18.8186 61.2011 18.5811C60.0074 18.3437 58.77 18.4656 57.6455 18.9313C56.5211 19.3971 55.56 20.1859 54.8838 21.1978C54.2076 22.2098 53.8467 23.3996 53.8467 24.6167C53.8467 26.2488 54.495 27.8141 55.6491 28.9682C56.8032 30.1222 58.3684 30.7706 60.0005 30.7706ZM60.0005 21.5398C60.6091 21.5398 61.204 21.7203 61.71 22.0584C62.216 22.3965 62.6103 22.877 62.8432 23.4393C63.0761 24.0015 63.1371 24.6202 63.0183 25.217C62.8996 25.8139 62.6066 26.3621 62.1762 26.7925C61.7459 27.2228 61.1977 27.5158 60.6008 27.6345C60.0039 27.7533 59.3853 27.6923 58.823 27.4594C58.2608 27.2266 57.7803 26.8322 57.4422 26.3262C57.1041 25.8202 56.9236 25.2253 56.9236 24.6167C56.9236 23.8007 57.2478 23.0181 57.8248 22.441C58.4018 21.864 59.1845 21.5398 60.0005 21.5398Z" fill="#5CE1E6"/>
<path d="M46.1537 95.3855C47.0034 95.3855 47.6922 94.6967 47.6922 93.8471C47.6922 92.9974 47.0034 92.3086 46.1537 92.3086C45.304 92.3086 44.6152 92.9974 44.6152 93.8471C44.6152 94.6967 45.304 95.3855 46.1537 95.3855Z" fill="#5CE1E6"/>
<path d="M50.7699 95.3855C51.6196 95.3855 52.3084 94.6967 52.3084 93.8471C52.3084 92.9974 51.6196 92.3086 50.7699 92.3086C49.9202 92.3086 49.2314 92.9974 49.2314 93.8471C49.2314 94.6967 49.9202 95.3855 50.7699 95.3855Z" fill="#5CE1E6"/>
<path d="M55.3851 95.3855C56.2348 95.3855 56.9236 94.6967 56.9236 93.8471C56.9236 92.9974 56.2348 92.3086 55.3851 92.3086C54.5355 92.3086 53.8467 92.9974 53.8467 93.8471C53.8467 94.6967 54.5355 95.3855 55.3851 95.3855Z" fill="#5CE1E6"/>
<path d="M60.0004 95.3855C60.85 95.3855 61.5388 94.6967 61.5388 93.8471C61.5388 92.9974 60.85 92.3086 60.0004 92.3086C59.1507 92.3086 58.4619 92.9974 58.4619 93.8471C58.4619 94.6967 59.1507 95.3855 60.0004 95.3855Z" fill="#5CE1E6"/>
<path d="M64.6156 95.3855C65.4653 95.3855 66.1541 94.6967 66.1541 93.8471C66.1541 92.9974 65.4653 92.3086 64.6156 92.3086C63.7659 92.3086 63.0771 92.9974 63.0771 93.8471C63.0771 94.6967 63.7659 95.3855 64.6156 95.3855Z" fill="#5CE1E6"/>
<path d="M69.2308 95.3855C70.0805 95.3855 70.7693 94.6967 70.7693 93.8471C70.7693 92.9974 70.0805 92.3086 69.2308 92.3086C68.3812 92.3086 67.6924 92.9974 67.6924 93.8471C67.6924 94.6967 68.3812 95.3855 69.2308 95.3855Z" fill="#5CE1E6"/>
<path d="M73.8461 95.3855C74.6957 95.3855 75.3845 94.6967 75.3845 93.8471C75.3845 92.9974 74.6957 92.3086 73.8461 92.3086C72.9964 92.3086 72.3076 92.9974 72.3076 93.8471C72.3076 94.6967 72.9964 95.3855 73.8461 95.3855Z" fill="#5CE1E6"/>
<path d="M46.1537 90.7703C47.0034 90.7703 47.6922 90.0815 47.6922 89.2318C47.6922 88.3822 47.0034 87.6934 46.1537 87.6934C45.304 87.6934 44.6152 88.3822 44.6152 89.2318C44.6152 90.0815 45.304 90.7703 46.1537 90.7703Z" fill="#5CE1E6"/>
<path d="M50.7699 90.7703C51.6196 90.7703 52.3084 90.0815 52.3084 89.2318C52.3084 88.3822 51.6196 87.6934 50.7699 87.6934C49.9202 87.6934 49.2314 88.3822 49.2314 89.2318C49.2314 90.0815 49.9202 90.7703 50.7699 90.7703Z" fill="#5CE1E6"/>
<path d="M55.3851 90.7703C56.2348 90.7703 56.9236 90.0815 56.9236 89.2318C56.9236 88.3822 56.2348 87.6934 55.3851 87.6934C54.5355 87.6934 53.8467 88.3822 53.8467 89.2318C53.8467 90.0815 54.5355 90.7703 55.3851 90.7703Z" fill="#5CE1E6"/>
<path d="M60.0004 90.7703C60.85 90.7703 61.5388 90.0815 61.5388 89.2318C61.5388 88.3822 60.85 87.6934 60.0004 87.6934C59.1507 87.6934 58.4619 88.3822 58.4619 89.2318C58.4619 90.0815 59.1507 90.7703 60.0004 90.7703Z" fill="#5CE1E6"/>
<path d="M64.6156 90.7703C65.4653 90.7703 66.1541 90.0815 66.1541 89.2318C66.1541 88.3822 65.4653 87.6934 64.6156 87.6934C63.7659 87.6934 63.0771 88.3822 63.0771 89.2318C63.0771 90.0815 63.7659 90.7703 64.6156 90.7703Z" fill="#5CE1E6"/>
<path d="M69.2308 90.7703C70.0805 90.7703 70.7693 90.0815 70.7693 89.2318C70.7693 88.3822 70.0805 87.6934 69.2308 87.6934C68.3812 87.6934 67.6924 88.3822 67.6924 89.2318C67.6924 90.0815 68.3812 90.7703 69.2308 90.7703Z" fill="#5CE1E6"/>
<path d="M73.8461 90.7703C74.6957 90.7703 75.3845 90.0815 75.3845 89.2318C75.3845 88.3822 74.6957 87.6934 73.8461 87.6934C72.9964 87.6934 72.3076 88.3822 72.3076 89.2318C72.3076 90.0815 72.9964 90.7703 73.8461 90.7703Z" fill="#5CE1E6"/>
<path d="M46.1537 86.155C47.0034 86.155 47.6922 85.4663 47.6922 84.6166C47.6922 83.7669 47.0034 83.0781 46.1537 83.0781C45.304 83.0781 44.6152 83.7669 44.6152 84.6166C44.6152 85.4663 45.304 86.155 46.1537 86.155Z" fill="#5CE1E6"/>
<path d="M50.7699 86.155C51.6196 86.155 52.3084 85.4663 52.3084 84.6166C52.3084 83.7669 51.6196 83.0781 50.7699 83.0781C49.9202 83.0781 49.2314 83.7669 49.2314 84.6166C49.2314 85.4663 49.9202 86.155 50.7699 86.155Z" fill="#5CE1E6"/>
<path d="M55.3851 86.155C56.2348 86.155 56.9236 85.4663 56.9236 84.6166C56.9236 83.7669 56.2348 83.0781 55.3851 83.0781C54.5355 83.0781 53.8467 83.7669 53.8467 84.6166C53.8467 85.4663 54.5355 86.155 55.3851 86.155Z" fill="#5CE1E6"/>
<path d="M60.0004 86.155C60.85 86.155 61.5388 85.4663 61.5388 84.6166C61.5388 83.7669 60.85 83.0781 60.0004 83.0781C59.1507 83.0781 58.4619 83.7669 58.4619 84.6166C58.4619 85.4663 59.1507 86.155 60.0004 86.155Z" fill="#5CE1E6"/>
<path d="M64.6156 86.155C65.4653 86.155 66.1541 85.4663 66.1541 84.6166C66.1541 83.7669 65.4653 83.0781 64.6156 83.0781C63.7659 83.0781 63.0771 83.7669 63.0771 84.6166C63.0771 85.4663 63.7659 86.155 64.6156 86.155Z" fill="#5CE1E6"/>
<path d="M69.2308 86.155C70.0805 86.155 70.7693 85.4663 70.7693 84.6166C70.7693 83.7669 70.0805 83.0781 69.2308 83.0781C68.3812 83.0781 67.6924 83.7669 67.6924 84.6166C67.6924 85.4663 68.3812 86.155 69.2308 86.155Z" fill="#5CE1E6"/>
<path d="M73.8461 86.155C74.6957 86.155 75.3845 85.4663 75.3845 84.6166C75.3845 83.7669 74.6957 83.0781 73.8461 83.0781C72.9964 83.0781 72.3076 83.7669 72.3076 84.6166C72.3076 85.4663 72.9964 86.155 73.8461 86.155Z" fill="#5CE1E6"/>
<path d="M46.1537 81.5398C47.0034 81.5398 47.6922 80.851 47.6922 80.0014C47.6922 79.1517 47.0034 78.4629 46.1537 78.4629C45.304 78.4629 44.6152 79.1517 44.6152 80.0014C44.6152 80.851 45.304 81.5398 46.1537 81.5398Z" fill="#5CE1E6"/>
<path d="M50.7699 81.5398C51.6196 81.5398 52.3084 80.851 52.3084 80.0014C52.3084 79.1517 51.6196 78.4629 50.7699 78.4629C49.9202 78.4629 49.2314 79.1517 49.2314 80.0014C49.2314 80.851 49.9202 81.5398 50.7699 81.5398Z" fill="#5CE1E6"/>
<path d="M55.3851 81.5398C56.2348 81.5398 56.9236 80.851 56.9236 80.0014C56.9236 79.1517 56.2348 78.4629 55.3851 78.4629C54.5355 78.4629 53.8467 79.1517 53.8467 80.0014C53.8467 80.851 54.5355 81.5398 55.3851 81.5398Z" fill="#5CE1E6"/>
<path d="M60.0004 81.5398C60.85 81.5398 61.5388 80.851 61.5388 80.0014C61.5388 79.1517 60.85 78.4629 60.0004 78.4629C59.1507 78.4629 58.4619 79.1517 58.4619 80.0014C58.4619 80.851 59.1507 81.5398 60.0004 81.5398Z" fill="#5CE1E6"/>
<path d="M64.6156 81.5398C65.4653 81.5398 66.1541 80.851 66.1541 80.0014C66.1541 79.1517 65.4653 78.4629 64.6156 78.4629C63.7659 78.4629 63.0771 79.1517 63.0771 80.0014C63.0771 80.851 63.7659 81.5398 64.6156 81.5398Z" fill="#5CE1E6"/>
<path d="M69.2308 81.5398C70.0805 81.5398 70.7693 80.851 70.7693 80.0014C70.7693 79.1517 70.0805 78.4629 69.2308 78.4629C68.3812 78.4629 67.6924 79.1517 67.6924 80.0014C67.6924 80.851 68.3812 81.5398 69.2308 81.5398Z" fill="#5CE1E6"/>
<path d="M73.8461 81.5398C74.6957 81.5398 75.3845 80.851 75.3845 80.0014C75.3845 79.1517 74.6957 78.4629 73.8461 78.4629C72.9964 78.4629 72.3076 79.1517 72.3076 80.0014C72.3076 80.851 72.9964 81.5398 73.8461 81.5398Z" fill="#5CE1E6"/>
<path d="M46.1537 76.9246C47.0034 76.9246 47.6922 76.2358 47.6922 75.3861C47.6922 74.5364 47.0034 73.8477 46.1537 73.8477C45.304 73.8477 44.6152 74.5364 44.6152 75.3861C44.6152 76.2358 45.304 76.9246 46.1537 76.9246Z" fill="#5CE1E6"/>
<path d="M50.7699 76.9246C51.6196 76.9246 52.3084 76.2358 52.3084 75.3861C52.3084 74.5364 51.6196 73.8477 50.7699 73.8477C49.9202 73.8477 49.2314 74.5364 49.2314 75.3861C49.2314 76.2358 49.9202 76.9246 50.7699 76.9246Z" fill="#5CE1E6"/>
<path d="M55.3851 76.9246C56.2348 76.9246 56.9236 76.2358 56.9236 75.3861C56.9236 74.5364 56.2348 73.8477 55.3851 73.8477C54.5355 73.8477 53.8467 74.5364 53.8467 75.3861C53.8467 76.2358 54.5355 76.9246 55.3851 76.9246Z" fill="#5CE1E6"/>
<path d="M60.0004 76.9246C60.85 76.9246 61.5388 76.2358 61.5388 75.3861C61.5388 74.5364 60.85 73.8477 60.0004 73.8477C59.1507 73.8477 58.4619 74.5364 58.4619 75.3861C58.4619 76.2358 59.1507 76.9246 60.0004 76.9246Z" fill="#5CE1E6"/>
<path d="M64.6156 76.9246C65.4653 76.9246 66.1541 76.2358 66.1541 75.3861C66.1541 74.5364 65.4653 73.8477 64.6156 73.8477C63.7659 73.8477 63.0771 74.5364 63.0771 75.3861C63.0771 76.2358 63.7659 76.9246 64.6156 76.9246Z" fill="#5CE1E6"/>
<path d="M69.2308 76.9246C70.0805 76.9246 70.7693 76.2358 70.7693 75.3861C70.7693 74.5364 70.0805 73.8477 69.2308 73.8477C68.3812 73.8477 67.6924 74.5364 67.6924 75.3861C67.6924 76.2358 68.3812 76.9246 69.2308 76.9246Z" fill="#5CE1E6"/>
<path d="M73.8461 76.9246C74.6957 76.9246 75.3845 76.2358 75.3845 75.3861C75.3845 74.5364 74.6957 73.8477 73.8461 73.8477C72.9964 73.8477 72.3076 74.5364 72.3076 75.3861C72.3076 76.2358 72.9964 76.9246 73.8461 76.9246Z" fill="#5CE1E6"/>
<path d="M46.1537 72.3093C47.0034 72.3093 47.6922 71.6206 47.6922 70.7709C47.6922 69.9212 47.0034 69.2324 46.1537 69.2324C45.304 69.2324 44.6152 69.9212 44.6152 70.7709C44.6152 71.6206 45.304 72.3093 46.1537 72.3093Z" fill="#5CE1E6"/>
<path d="M50.7699 72.3093C51.6196 72.3093 52.3084 71.6206 52.3084 70.7709C52.3084 69.9212 51.6196 69.2324 50.7699 69.2324C49.9202 69.2324 49.2314 69.9212 49.2314 70.7709C49.2314 71.6206 49.9202 72.3093 50.7699 72.3093Z" fill="#5CE1E6"/>
<path d="M55.3851 72.3093C56.2348 72.3093 56.9236 71.6206 56.9236 70.7709C56.9236 69.9212 56.2348 69.2324 55.3851 69.2324C54.5355 69.2324 53.8467 69.9212 53.8467 70.7709C53.8467 71.6206 54.5355 72.3093 55.3851 72.3093Z" fill="#5CE1E6"/>
<path d="M60.0004 72.3093C60.85 72.3093 61.5388 71.6206 61.5388 70.7709C61.5388 69.9212 60.85 69.2324 60.0004 69.2324C59.1507 69.2324 58.4619 69.9212 58.4619 70.7709C58.4619 71.6206 59.1507 72.3093 60.0004 72.3093Z" fill="#5CE1E6"/>
<path d="M64.6156 72.3093C65.4653 72.3093 66.1541 71.6206 66.1541 70.7709C66.1541 69.9212 65.4653 69.2324 64.6156 69.2324C63.7659 69.2324 63.0771 69.9212 63.0771 70.7709C63.0771 71.6206 63.7659 72.3093 64.6156 72.3093Z" fill="#5CE1E6"/>
<path d="M69.2308 72.3093C70.0805 72.3093 70.7693 71.6206 70.7693 70.7709C70.7693 69.9212 70.0805 69.2324 69.2308 69.2324C68.3812 69.2324 67.6924 69.9212 67.6924 70.7709C67.6924 71.6206 68.3812 72.3093 69.2308 72.3093Z" fill="#5CE1E6"/>
<path d="M73.8461 72.3093C74.6957 72.3093 75.3845 71.6206 75.3845 70.7709C75.3845 69.9212 74.6957 69.2324 73.8461 69.2324C72.9964 69.2324 72.3076 69.9212 72.3076 70.7709C72.3076 71.6206 72.9964 72.3093 73.8461 72.3093Z" fill="#5CE1E6"/>
<path d="M46.1537 67.6941C47.0034 67.6941 47.6922 67.0053 47.6922 66.1556C47.6922 65.306 47.0034 64.6172 46.1537 64.6172C45.304 64.6172 44.6152 65.306 44.6152 66.1556C44.6152 67.0053 45.304 67.6941 46.1537 67.6941Z" fill="#5CE1E6"/>
<path d="M50.7699 67.6941C51.6196 67.6941 52.3084 67.0053 52.3084 66.1556C52.3084 65.306 51.6196 64.6172 50.7699 64.6172C49.9202 64.6172 49.2314 65.306 49.2314 66.1556C49.2314 67.0053 49.9202 67.6941 50.7699 67.6941Z" fill="#5CE1E6"/>
<path d="M55.3851 67.6941C56.2348 67.6941 56.9236 67.0053 56.9236 66.1556C56.9236 65.306 56.2348 64.6172 55.3851 64.6172C54.5355 64.6172 53.8467 65.306 53.8467 66.1556C53.8467 67.0053 54.5355 67.6941 55.3851 67.6941Z" fill="#5CE1E6"/>
<path d="M60.0004 67.6941C60.85 67.6941 61.5388 67.0053 61.5388 66.1556C61.5388 65.306 60.85 64.6172 60.0004 64.6172C59.1507 64.6172 58.4619 65.306 58.4619 66.1556C58.4619 67.0053 59.1507 67.6941 60.0004 67.6941Z" fill="#5CE1E6"/>
<path d="M64.6156 67.6941C65.4653 67.6941 66.1541 67.0053 66.1541 66.1556C66.1541 65.306 65.4653 64.6172 64.6156 64.6172C63.7659 64.6172 63.0771 65.306 63.0771 66.1556C63.0771 67.0053 63.7659 67.6941 64.6156 67.6941Z" fill="#5CE1E6"/>
<path d="M69.2308 67.6941C70.0805 67.6941 70.7693 67.0053 70.7693 66.1556C70.7693 65.306 70.0805 64.6172 69.2308 64.6172C68.3812 64.6172 67.6924 65.306 67.6924 66.1556C67.6924 67.0053 68.3812 67.6941 69.2308 67.6941Z" fill="#5CE1E6"/>
<path d="M73.8461 67.6941C74.6957 67.6941 75.3845 67.0053 75.3845 66.1556C75.3845 65.306 74.6957 64.6172 73.8461 64.6172C72.9964 64.6172 72.3076 65.306 72.3076 66.1556C72.3076 67.0053 72.9964 67.6941 73.8461 67.6941Z" fill="#5CE1E6"/>
<path d="M46.1537 63.0769C47.0034 63.0769 47.6922 62.3881 47.6922 61.5385C47.6922 60.6888 47.0034 60 46.1537 60C45.304 60 44.6152 60.6888 44.6152 61.5385C44.6152 62.3881 45.304 63.0769 46.1537 63.0769Z" fill="#5CE1E6"/>
<path d="M50.7699 63.0769C51.6196 63.0769 52.3084 62.3881 52.3084 61.5385C52.3084 60.6888 51.6196 60 50.7699 60C49.9202 60 49.2314 60.6888 49.2314 61.5385C49.2314 62.3881 49.9202 63.0769 50.7699 63.0769Z" fill="#5CE1E6"/>
<path d="M55.3851 63.0769C56.2348 63.0769 56.9236 62.3881 56.9236 61.5385C56.9236 60.6888 56.2348 60 55.3851 60C54.5355 60 53.8467 60.6888 53.8467 61.5385C53.8467 62.3881 54.5355 63.0769 55.3851 63.0769Z" fill="#5CE1E6"/>
<path d="M60.0004 63.0769C60.85 63.0769 61.5388 62.3881 61.5388 61.5385C61.5388 60.6888 60.85 60 60.0004 60C59.1507 60 58.4619 60.6888 58.4619 61.5385C58.4619 62.3881 59.1507 63.0769 60.0004 63.0769Z" fill="#5CE1E6"/>
<path d="M64.6156 63.0769C65.4653 63.0769 66.1541 62.3881 66.1541 61.5385C66.1541 60.6888 65.4653 60 64.6156 60C63.7659 60 63.0771 60.6888 63.0771 61.5385C63.0771 62.3881 63.7659 63.0769 64.6156 63.0769Z" fill="#5CE1E6"/>
<path d="M69.2308 63.0769C70.0805 63.0769 70.7693 62.3881 70.7693 61.5385C70.7693 60.6888 70.0805 60 69.2308 60C68.3812 60 67.6924 60.6888 67.6924 61.5385C67.6924 62.3881 68.3812 63.0769 69.2308 63.0769Z" fill="#5CE1E6"/>
<path d="M73.8461 63.0769C74.6957 63.0769 75.3845 62.3881 75.3845 61.5385C75.3845 60.6888 74.6957 60 73.8461 60C72.9964 60 72.3076 60.6888 72.3076 61.5385C72.3076 62.3881 72.9964 63.0769 73.8461 63.0769Z" fill="#5CE1E6"/>
<path d="M46.1537 58.4617C47.0034 58.4617 47.6922 57.7729 47.6922 56.9232C47.6922 56.0736 47.0034 55.3848 46.1537 55.3848C45.304 55.3848 44.6152 56.0736 44.6152 56.9232C44.6152 57.7729 45.304 58.4617 46.1537 58.4617Z" fill="#5CE1E6"/>
<path d="M50.7699 58.4617C51.6196 58.4617 52.3084 57.7729 52.3084 56.9232C52.3084 56.0736 51.6196 55.3848 50.7699 55.3848C49.9202 55.3848 49.2314 56.0736 49.2314 56.9232C49.2314 57.7729 49.9202 58.4617 50.7699 58.4617Z" fill="#5CE1E6"/>
<path d="M55.3851 58.4617C56.2348 58.4617 56.9236 57.7729 56.9236 56.9232C56.9236 56.0736 56.2348 55.3848 55.3851 55.3848C54.5355 55.3848 53.8467 56.0736 53.8467 56.9232C53.8467 57.7729 54.5355 58.4617 55.3851 58.4617Z" fill="#5CE1E6"/>
<path d="M60.0004 58.4617C60.85 58.4617 61.5388 57.7729 61.5388 56.9232C61.5388 56.0736 60.85 55.3848 60.0004 55.3848C59.1507 55.3848 58.4619 56.0736 58.4619 56.9232C58.4619 57.7729 59.1507 58.4617 60.0004 58.4617Z" fill="#5CE1E6"/>
<path d="M64.6156 58.4617C65.4653 58.4617 66.1541 57.7729 66.1541 56.9232C66.1541 56.0736 65.4653 55.3848 64.6156 55.3848C63.7659 55.3848 63.0771 56.0736 63.0771 56.9232C63.0771 57.7729 63.7659 58.4617 64.6156 58.4617Z" fill="#5CE1E6"/>
<path d="M69.2308 58.4617C70.0805 58.4617 70.7693 57.7729 70.7693 56.9232C70.7693 56.0736 70.0805 55.3848 69.2308 55.3848C68.3812 55.3848 67.6924 56.0736 67.6924 56.9232C67.6924 57.7729 68.3812 58.4617 69.2308 58.4617Z" fill="#5CE1E6"/>
<path d="M73.8461 58.4617C74.6957 58.4617 75.3845 57.7729 75.3845 56.9232C75.3845 56.0736 74.6957 55.3848 73.8461 55.3848C72.9964 55.3848 72.3076 56.0736 72.3076 56.9232C72.3076 57.7729 72.9964 58.4617 73.8461 58.4617Z" fill="#5CE1E6"/>
<path d="M33.8465 52.3077H18.4618C17.549 52.3077 16.6567 52.037 15.8977 51.5299C15.1387 51.0227 14.5471 50.3019 14.1978 49.4585C13.8485 48.6152 13.7571 47.6872 13.9351 46.7919C14.1132 45.8966 14.5528 45.0742 15.1983 44.4287C15.8437 43.7833 16.6661 43.3437 17.5614 43.1656C18.4567 42.9875 19.3847 43.0789 20.2281 43.4283C21.0714 43.7776 21.7922 44.3691 22.2994 45.1281C22.8065 45.8871 23.0772 46.7795 23.0772 47.6923C23.0772 48.1003 23.2393 48.4917 23.5278 48.7802C23.8163 49.0687 24.2077 49.2308 24.6157 49.2308C25.0237 49.2308 25.415 49.0687 25.7035 48.7802C25.9921 48.4917 26.1542 48.1003 26.1542 47.6923C26.1542 46.1709 25.703 44.6837 24.8578 43.4187C24.0125 42.1537 22.8111 41.1678 21.4056 40.5855C20 40.0033 18.4533 39.851 16.9611 40.1478C15.469 40.4446 14.0983 41.1772 13.0226 42.253C11.9468 43.3288 11.2141 44.6995 10.9173 46.1916C10.6205 47.6838 10.7729 49.2304 11.3551 50.636C11.9373 52.0416 12.9232 53.243 14.1882 54.0882C15.4532 54.9335 16.9404 55.3846 18.4618 55.3846H33.8465C34.2545 55.3846 34.6458 55.2225 34.9343 54.934C35.2228 54.6455 35.3849 54.2542 35.3849 53.8462C35.3849 53.4381 35.2228 53.0468 34.9343 52.7583C34.6458 52.4698 34.2545 52.3077 33.8465 52.3077ZM33.8465 64.6154H18.4618C16.9404 64.6154 15.4532 65.0665 14.1882 65.9118C12.9232 66.757 11.9373 67.9584 11.3551 69.364C10.7729 70.7696 10.6205 72.3162 10.9173 73.8084C11.2141 75.3006 11.9468 76.6712 13.0226 77.747C14.0983 78.8228 15.469 79.5554 16.9611 79.8522C18.4533 80.149 20 79.9967 21.4056 79.4145C22.8111 78.8322 24.0125 77.8463 24.8578 76.5813C25.703 75.3163 26.1542 73.8291 26.1542 72.3077C26.1542 71.8997 25.9921 71.5084 25.7035 71.2198C25.415 70.9313 25.0237 70.7692 24.6157 70.7692C24.2077 70.7692 23.8163 70.9313 23.5278 71.2198C23.2393 71.5084 23.0772 71.8997 23.0772 72.3077C23.0772 73.2205 22.8065 74.1129 22.2994 74.8719C21.7922 75.6309 21.0714 76.2224 20.2281 76.5718C19.3847 76.9211 18.4567 77.0125 17.5614 76.8344C16.6661 76.6563 15.8437 76.2167 15.1983 75.5713C14.5528 74.9258 14.1132 74.1034 13.9351 73.2081C13.7571 72.3128 13.8485 71.3848 14.1978 70.5415C14.5471 69.6981 15.1387 68.9773 15.8977 68.4701C16.6567 67.963 17.549 67.6923 18.4618 67.6923H33.8465C34.2545 67.6923 34.6458 67.5302 34.9343 67.2417C35.2228 66.9532 35.3849 66.5619 35.3849 66.1538C35.3849 65.7458 35.2228 65.3545 34.9343 65.066C34.6458 64.7775 34.2545 64.6154 33.8465 64.6154Z" fill="#5CE1E6"/>
<path d="M96.9232 89.2312C97.7729 89.2312 98.4617 88.5424 98.4617 87.6928C98.4617 86.8431 97.7729 86.1543 96.9232 86.1543C96.0736 86.1543 95.3848 86.8431 95.3848 87.6928C95.3848 88.5424 96.0736 89.2312 96.9232 89.2312Z" fill="#5CE1E6"/>
<path d="M87.6928 64.616C88.5424 64.616 89.2312 63.9272 89.2312 63.0775C89.2312 62.2279 88.5424 61.5391 87.6928 61.5391C86.8431 61.5391 86.1543 62.2279 86.1543 63.0775C86.1543 63.9272 86.8431 64.616 87.6928 64.616Z" fill="#5CE1E6"/>
<path d="M104.616 80.0008C105.465 80.0008 106.154 79.312 106.154 78.4623C106.154 77.6126 105.465 76.9238 104.616 76.9238C103.766 76.9238 103.077 77.6126 103.077 78.4623C103.077 79.312 103.766 80.0008 104.616 80.0008Z" fill="#5CE1E6"/>
<path d="M90.7699 84.616C91.6196 84.616 92.3084 83.9272 92.3084 83.0775C92.3084 82.2279 91.6196 81.5391 90.7699 81.5391C89.9202 81.5391 89.2314 82.2279 89.2314 83.0775C89.2314 83.9272 89.9202 84.616 90.7699 84.616Z" fill="#5CE1E6"/>
<path d="M101.538 73.8465C102.388 73.8465 103.077 73.1577 103.077 72.308C103.077 71.4583 102.388 70.7695 101.538 70.7695C100.689 70.7695 100 71.4583 100 72.308C100 73.1577 100.689 73.8465 101.538 73.8465Z" fill="#5CE1E6"/>
<path d="M96.9232 80.0008C97.7729 80.0008 98.4617 79.312 98.4617 78.4623C98.4617 77.6126 97.7729 76.9238 96.9232 76.9238C96.0736 76.9238 95.3848 77.6126 95.3848 78.4623C95.3848 79.312 96.0736 80.0008 96.9232 80.0008Z" fill="#5CE1E6"/>
<path d="M104.616 67.6941C105.465 67.6941 106.154 67.0053 106.154 66.1556C106.154 65.306 105.465 64.6172 104.616 64.6172C103.766 64.6172 103.077 65.306 103.077 66.1556C103.077 67.0053 103.766 67.6941 104.616 67.6941Z" fill="#5CE1E6"/>
<path d="M86.1537 76.9246C87.0034 76.9246 87.6922 76.2358 87.6922 75.3861C87.6922 74.5364 87.0034 73.8477 86.1537 73.8477C85.304 73.8477 84.6152 74.5364 84.6152 75.3861C84.6152 76.2358 85.304 76.9246 86.1537 76.9246Z" fill="#5CE1E6"/>
<path d="M101.538 61.5398C102.388 61.5398 103.077 60.851 103.077 60.0014C103.077 59.1517 102.388 58.4629 101.538 58.4629C100.689 58.4629 100 59.1517 100 60.0014C100 60.851 100.689 61.5398 101.538 61.5398Z" fill="#5CE1E6"/>
<path d="M89.2308 69.2312C90.0805 69.2312 90.7693 68.5424 90.7693 67.6928C90.7693 66.8431 90.0805 66.1543 89.2308 66.1543C88.3812 66.1543 87.6924 66.8431 87.6924 67.6928C87.6924 68.5424 88.3812 69.2312 89.2308 69.2312Z" fill="#5CE1E6"/>
<path d="M100 52.3093C100.85 52.3093 101.539 51.6206 101.539 50.7709C101.539 49.9212 100.85 49.2324 100 49.2324C99.1507 49.2324 98.4619 49.9212 98.4619 50.7709C98.4619 51.6206 99.1507 52.3093 100 52.3093Z" fill="#5CE1E6"/>
<path d="M92.308 75.3855C93.1577 75.3855 93.8465 74.6967 93.8465 73.8471C93.8465 72.9974 93.1577 72.3086 92.308 72.3086C91.4583 72.3086 90.7695 72.9974 90.7695 73.8471C90.7695 74.6967 91.4583 75.3855 92.308 75.3855Z" fill="#5CE1E6"/>
<path d="M104.616 55.3855C105.465 55.3855 106.154 54.6967 106.154 53.8471C106.154 52.9974 105.465 52.3086 104.616 52.3086C103.766 52.3086 103.077 52.9974 103.077 53.8471C103.077 54.6967 103.766 55.3855 104.616 55.3855Z" fill="#5CE1E6"/>
<path d="M95.3851 66.155C96.2348 66.155 96.9236 65.4663 96.9236 64.6166C96.9236 63.7669 96.2348 63.0781 95.3851 63.0781C94.5355 63.0781 93.8467 63.7669 93.8467 64.6166C93.8467 65.4663 94.5355 66.155 95.3851 66.155Z" fill="#5CE1E6"/>
<path d="M93.8461 52.3093C94.6957 52.3093 95.3845 51.6206 95.3845 50.7709C95.3845 49.9212 94.6957 49.2324 93.8461 49.2324C92.9964 49.2324 92.3076 49.9212 92.3076 50.7709C92.3076 51.6206 92.9964 52.3093 93.8461 52.3093Z" fill="#5CE1E6"/>
<path d="M83.0775 58.4617C83.9272 58.4617 84.616 57.7729 84.616 56.9232C84.616 56.0736 83.9272 55.3848 83.0775 55.3848C82.2279 55.3848 81.5391 56.0736 81.5391 56.9232C81.5391 57.7729 82.2279 58.4617 83.0775 58.4617Z" fill="#5CE1E6"/>
<path d="M89.2308 47.6941C90.0805 47.6941 90.7693 47.0053 90.7693 46.1556C90.7693 45.306 90.0805 44.6172 89.2308 44.6172C88.3812 44.6172 87.6924 45.306 87.6924 46.1556C87.6924 47.0053 88.3812 47.6941 89.2308 47.6941Z" fill="#5CE1E6"/>
<path d="M90.7699 60.0008C91.6196 60.0008 92.3084 59.312 92.3084 58.4623C92.3084 57.6126 91.6196 56.9238 90.7699 56.9238C89.9202 56.9238 89.2314 57.6126 89.2314 58.4623C89.2314 59.312 89.9202 60.0008 90.7699 60.0008Z" fill="#5CE1E6"/>
<path d="M93.8461 43.0769C94.6957 43.0769 95.3845 42.3881 95.3845 41.5385C95.3845 40.6888 94.6957 40 93.8461 40C92.9964 40 92.3076 40.6888 92.3076 41.5385C92.3076 42.3881 92.9964 43.0769 93.8461 43.0769Z" fill="#5CE1E6"/>
<path d="M96.9232 56.9246C97.7729 56.9246 98.4617 56.2358 98.4617 55.3861C98.4617 54.5364 97.7729 53.8477 96.9232 53.8477C96.0736 53.8477 95.3848 54.5364 95.3848 55.3861C95.3848 56.2358 96.0736 56.9246 96.9232 56.9246Z" fill="#5CE1E6"/>
<path d="M98.4623 46.155C99.312 46.155 100.001 45.4663 100.001 44.6166C100.001 43.7669 99.312 43.0781 98.4623 43.0781C97.6126 43.0781 96.9238 43.7669 96.9238 44.6166C96.9238 45.4663 97.6126 46.155 98.4623 46.155Z" fill="#5CE1E6"/>
<path d="M87.6928 53.8465C88.5424 53.8465 89.2312 53.1577 89.2312 52.308C89.2312 51.4583 88.5424 50.7695 87.6928 50.7695C86.8431 50.7695 86.1543 51.4583 86.1543 52.308C86.1543 53.1577 86.8431 53.8465 87.6928 53.8465Z" fill="#5CE1E6"/>
<path d="M104.616 43.0769C105.465 43.0769 106.154 42.3881 106.154 41.5385C106.154 40.6888 105.465 40 104.616 40C103.766 40 103.077 40.6888 103.077 41.5385C103.077 42.3881 103.766 43.0769 104.616 43.0769Z" fill="#5CE1E6"/>
<path d="M83.0775 44.616C83.9272 44.616 84.616 43.9272 84.616 43.0775C84.616 42.2279 83.9272 41.5391 83.0775 41.5391C82.2279 41.5391 81.5391 42.2279 81.5391 43.0775C81.5391 43.9272 82.2279 44.616 83.0775 44.616Z" fill="#5CE1E6"/>
<path d="M33.8469 58.4631H18.4623C18.0543 58.4631 17.663 58.6252 17.3744 58.9137C17.0859 59.2022 16.9238 59.5935 16.9238 60.0016C16.9238 60.4096 17.0859 60.8009 17.3744 61.0894C17.663 61.3779 18.0543 61.54 18.4623 61.54H33.8469C34.2549 61.54 34.6462 61.3779 34.9348 61.0894C35.2233 60.8009 35.3854 60.4096 35.3854 60.0016C35.3854 59.5935 35.2233 59.2022 34.9348 58.9137C34.6462 58.6252 34.2549 58.4631 33.8469 58.4631ZM72.6007 39.6631C70.9484 38.0043 68.9848 36.6882 66.8226 35.7901C64.6603 34.892 62.3421 34.4297 60.0008 34.4297C57.6594 34.4297 55.3412 34.892 53.1789 35.7901C51.0167 36.6882 49.0531 38.0043 47.4008 39.6631C47.1487 39.9574 47.017 40.336 47.032 40.7232C47.0469 41.1104 47.2074 41.4777 47.4814 41.7517C47.7554 42.0257 48.1227 42.1862 48.5099 42.2011C48.8971 42.2161 49.2757 42.0844 49.57 41.8323C50.9389 40.461 52.5648 39.3731 54.3546 38.6308C56.1445 37.8885 58.0631 37.5064 60.0008 37.5064C61.9384 37.5064 63.857 37.8885 65.6469 38.6308C67.4367 39.3731 69.0626 40.461 70.4315 41.8323C70.574 41.9777 70.7439 42.0933 70.9314 42.1726C71.1189 42.2518 71.3203 42.293 71.5238 42.2939C71.9296 42.2881 72.3167 42.1222 72.6007 41.8323C72.8873 41.5441 73.0481 41.1542 73.0481 40.7477C73.0481 40.3413 72.8873 39.9514 72.6007 39.6631Z" fill="#5CE1E6"/>
<path d="M68.0001 44.2777C66.951 43.2246 65.7042 42.3889 64.3314 41.8188C62.9585 41.2486 61.4866 40.9551 60.0001 40.9551C58.5136 40.9551 57.0417 41.2486 55.6688 41.8188C54.296 42.3889 53.0492 43.2246 52.0001 44.2777C51.7136 44.5659 51.5527 44.9559 51.5527 45.3623C51.5527 45.7687 51.7136 46.1587 52.0001 46.4469C52.2867 46.7311 52.6734 46.8914 53.077 46.8931C53.2795 46.8942 53.4802 46.8554 53.6677 46.7789C53.8551 46.7023 54.0256 46.5895 54.1693 46.4469C54.9324 45.6822 55.8389 45.0755 56.8368 44.6615C57.8346 44.2475 58.9044 44.0344 59.9847 44.0344C61.0651 44.0344 62.1348 44.2475 63.1327 44.6615C64.1306 45.0755 65.037 45.6822 65.8001 46.4469C65.9425 46.5904 66.1118 46.7043 66.2983 46.7824C66.4848 46.8604 66.6848 46.9009 66.887 46.9016C67.0891 46.9023 67.2894 46.8632 67.4765 46.7865C67.6635 46.7098 67.8336 46.597 67.977 46.4546C68.1205 46.3122 68.2345 46.1429 68.3125 45.9564C68.3905 45.7699 68.431 45.5699 68.4317 45.3677C68.4324 45.1656 68.3933 44.9653 68.3166 44.7782C68.2399 44.5912 68.1272 44.4211 67.9847 44.2777H68.0001ZM63.4001 48.8931C62.4897 48.0078 61.27 47.5125 60.0001 47.5125C58.7303 47.5125 57.5105 48.0078 56.6001 48.8931C56.4587 49.0375 56.3471 49.2084 56.2717 49.396C56.1963 49.5836 56.1586 49.7842 56.1608 49.9863C56.1629 50.1885 56.2049 50.3882 56.2842 50.5741C56.3635 50.7601 56.4787 50.9286 56.6232 51.07C56.7676 51.2114 56.9385 51.323 57.1261 51.3984C57.3137 51.4738 57.5143 51.5114 57.7164 51.5093C57.9186 51.5072 58.1183 51.4652 58.3042 51.3859C58.4902 51.3065 58.6587 51.1914 58.8001 51.0469C59.1216 50.7349 59.5521 50.5604 60.0001 50.5604C60.4482 50.5604 60.8786 50.7349 61.2001 51.0469C61.3426 51.1923 61.5125 51.3079 61.7 51.3871C61.8875 51.4664 62.0889 51.5076 62.2924 51.5085C62.6938 51.5109 63.0803 51.3563 63.3693 51.0777C63.5156 50.9367 63.6324 50.7682 63.7132 50.5818C63.7939 50.3954 63.837 50.1949 63.8399 49.9918C63.8427 49.7887 63.8053 49.587 63.7299 49.3984C63.6544 49.2099 63.5423 49.0381 63.4001 48.8931Z" fill="#5CE1E6"/>
</svg>
