<svg width="80" height="80" viewBox="0 0 80 80" fill="none" xmlns="http://www.w3.org/2000/svg">
<g clip-path="url(#clip0_376_8694)">
<path d="M41.5625 63.1094H21.0938C15.5 63.1094 10.9375 58.5469 10.9375 52.9531V17.3281C10.9375 11.7344 15.5 7.17188 21.0938 7.17188H23.8281V8.73438H21.0938C16.3594 8.73438 12.5 12.5938 12.5 17.3281V52.9531C12.5 57.6875 16.3594 61.5469 21.0938 61.5469H41.5625C46.2969 61.5469 50.1562 57.6875 50.1562 52.9531V17.3281C50.1562 12.5938 46.2969 8.73438 41.5625 8.73438H26.9531V7.17188H41.5625C47.1562 7.17188 51.7188 11.7344 51.7188 17.3281V52.9531C51.7188 58.5625 47.1562 63.1094 41.5625 63.1094Z" fill="#5CE1E6"/>
<path d="M40.9375 57.7969H21.7188C18.7031 57.7969 16.25 55.3438 16.25 52.3281V21.0781C16.25 20.6406 16.5938 20.2969 17.0312 20.2969H45.625C46.0625 20.2969 46.4062 20.6406 46.4062 21.0781V52.3281C46.4062 55.3438 43.9531 57.7969 40.9375 57.7969ZM17.8125 21.8594V52.3281C17.8125 54.4844 19.5625 56.2344 21.7188 56.2344H40.9375C43.0938 56.2344 44.8438 54.4844 44.8438 52.3281V21.8594H17.8125ZM35.7031 8.73438H26.9531C26.5156 8.73438 26.1719 8.39062 26.1719 7.95312V5.14062C26.1719 2.29688 28.4844 -0.015625 31.3281 -0.015625C34.1719 -0.015625 36.4844 2.29688 36.4844 5.14062V7.95312C36.4844 8.39062 36.1406 8.73438 35.7031 8.73438ZM27.7344 7.17188H34.9219V5.14062C34.9219 3.15625 33.3125 1.54688 31.3281 1.54688C29.3438 1.54688 27.7344 3.15625 27.7344 5.14062V7.17188ZM32.4219 67.4844H30.2344C27.3906 67.4844 25.0781 65.1719 25.0781 62.3281H26.6406C26.6406 64.3125 28.25 65.9219 30.2344 65.9219H32.4219C33.375 65.9219 34.2656 65.5625 34.9375 64.8906L36.0312 66C35.0625 66.9688 33.7812 67.4844 32.4219 67.4844ZM54.5312 80.0156H42.6562C42.2188 80.0156 41.875 79.6719 41.875 79.2344V74.5469C41.875 74.1094 42.2188 73.7656 42.6562 73.7656H54.5312C54.9688 73.7656 55.3125 74.1094 55.3125 74.5469V79.2344C55.3125 79.6562 54.9688 80.0156 54.5312 80.0156ZM43.4375 78.4531H53.75V75.3281H43.4375V78.4531ZM68.2812 29.6719H63.5938C63.1562 29.6719 62.8125 29.3281 62.8125 28.8906V21.0781C62.8125 20.6406 63.1562 20.2969 63.5938 20.2969H68.2812C68.7188 20.2969 69.0625 20.6406 69.0625 21.0781V28.8906C69.0625 29.3281 68.7188 29.6719 68.2812 29.6719ZM64.375 28.1094H67.5V21.8594H64.375V28.1094Z" fill="#5CE1E6"/>
<path d="M35.3125 32.8125H42.1875V34.375H35.3125V32.8125ZM37.1875 37.5H42.1875V39.0625H37.1875V37.5ZM35.3125 42.1875H42.1875V43.75H35.3125V42.1875ZM37.1875 46.875H42.1875V48.4375H37.1875V46.875ZM35.3125 51.5625H42.1875V53.125H35.3125V51.5625ZM65.1562 17.0156H66.7188V21.0781H65.1562V17.0156ZM55.7812 77.6406H54.5312V76.0781H55.7812C60.9531 76.0781 65.1562 71.875 65.1562 66.7031V28.8906H66.7188V66.7031C66.7188 72.7344 61.8125 77.6406 55.7812 77.6406ZM42.6562 77.6406H41.4062C35.375 77.6406 30.4688 72.7344 30.4688 66.7031H32.0312C32.0312 71.875 36.2344 76.0781 41.4062 76.0781H42.6562V77.6406ZM51.7188 75.3281H45.4688C45.0312 75.3281 44.6875 74.9844 44.6875 74.5469C44.6875 72.3906 46.4375 70.6406 48.5938 70.6406C50.75 70.6406 52.5 72.3906 52.5 74.5469C52.5 74.9688 52.1562 75.3281 51.7188 75.3281ZM46.375 73.7656H50.7969C50.4688 72.8594 49.6094 72.2031 48.5938 72.2031C47.5781 72.2031 46.7031 72.8594 46.375 73.7656Z" fill="#5CE1E6"/>
</g>
<defs>
<clipPath id="clip0_376_8694">
<rect width="80" height="80" fill="white"/>
</clipPath>
</defs>
</svg>
