<svg width="80" height="80" viewBox="0 0 80 80" fill="none" xmlns="http://www.w3.org/2000/svg">
<path d="M78.75 47.5003C77.2375 47.5003 76.525 46.7503 75.3875 45.4378C74.8345 44.5409 74.0612 43.8004 73.1412 43.2868C72.2211 42.7732 71.1849 42.5036 70.1312 42.5036C69.0776 42.5036 68.0414 42.7732 67.1213 43.2868C66.2013 43.8004 65.428 44.5409 64.875 45.4378C63.75 46.7503 63.025 47.5003 61.5125 47.5003C60.9869 47.5133 60.4665 47.3929 60 47.1503V27.5003H78.75C79.0815 27.5003 79.3995 27.3686 79.6339 27.1342C79.8683 26.8998 80 26.5819 80 26.2503C80 25.9188 79.8683 25.6009 79.6339 25.3664C79.3995 25.132 79.0815 25.0003 78.75 25.0003H72.4125C72.0926 22.598 70.9112 20.3936 69.0879 18.797C67.2646 17.2004 64.9235 16.3203 62.5 16.3203C60.0765 16.3203 57.7354 17.2004 55.9121 18.797C54.0888 20.3936 52.9074 22.598 52.5875 25.0003H49.9125C49.5926 22.598 48.4112 20.3936 46.5879 18.797C44.7646 17.2004 42.4235 16.3203 40 16.3203C37.5765 16.3203 35.2354 17.2004 33.4121 18.797C31.5888 20.3936 30.4074 22.598 30.0875 25.0003H1.25C0.918479 25.0003 0.600537 25.132 0.366117 25.3664C0.131696 25.6009 0 25.9188 0 26.2503C0 26.5819 0.131696 26.8998 0.366117 27.1342C0.600537 27.3686 0.918479 27.5003 1.25 27.5003H30V45.9253C29.6733 46.402 29.2374 46.7937 28.7285 47.0676C28.2197 47.3416 27.6528 47.49 27.075 47.5003C25.5625 47.5003 24.85 46.7503 23.7125 45.4378C23.1343 44.5658 22.3563 43.8443 21.4432 43.3334C20.5301 42.8225 19.5082 42.5369 18.4625 42.5003C17.4168 42.5369 16.3949 42.8225 15.4818 43.3334C14.5687 43.8443 13.7907 44.5658 13.2125 45.4378C12.075 46.7503 11.3625 47.5003 9.85 47.5003C8.3375 47.5003 7.6375 46.7503 6.5 45.4378C5.92178 44.5658 5.14378 43.8443 4.23067 43.3334C3.31755 42.8225 2.29569 42.5369 1.25 42.5003C0.918479 42.5003 0.600537 42.632 0.366117 42.8664C0.131696 43.1009 0 43.4188 0 43.7503C0 44.0819 0.131696 44.3998 0.366117 44.6342C0.600537 44.8686 0.918479 45.0003 1.25 45.0003C2.75 45.0003 3.475 45.7503 4.6 47.0628C5.17822 47.9349 5.95622 48.6563 6.86933 49.1672C7.78245 49.6782 8.80431 49.9638 9.85 50.0003C10.8957 49.9638 11.9176 49.6782 12.8307 49.1672C13.7438 48.6563 14.5218 47.9349 15.1 47.0628C16.25 45.7503 16.9625 45.0003 18.4625 45.0003C19.9625 45.0003 20.6875 45.7503 21.825 47.0628C22.4032 47.9349 23.1812 48.6563 24.0943 49.1672C25.0074 49.6782 26.0293 49.9638 27.075 50.0003C28.1207 49.9638 29.1426 49.6782 30.0557 49.1672C30.9688 48.6563 31.7468 47.9349 32.325 47.0628C33.4625 45.8128 34.175 45.0003 35.675 45.0003C37.175 45.0003 37.9 45.7503 39.0375 47.0628C39.6157 47.9349 40.3937 48.6563 41.3068 49.1672C42.2199 49.6782 43.2418 49.9638 44.2875 50.0003C45.3332 49.9638 46.3551 49.6782 47.2682 49.1672C48.1813 48.6563 48.9593 47.9349 49.5375 47.0628C50.675 45.8128 51.3875 45.0003 52.9 45.0003C54.4125 45.0003 55.125 45.7503 56.2625 47.0628C56.8139 47.9599 57.586 48.7007 58.505 49.2146C59.4241 49.7285 60.4595 49.9983 61.5125 49.9983C62.5655 49.9983 63.6009 49.7285 64.52 49.2146C65.439 48.7007 66.2111 47.9599 66.7625 47.0628C67.9 45.8128 68.625 45.0003 70.125 45.0003C71.625 45.0003 72.35 45.7503 73.4875 47.0628C74.0692 47.9344 74.8497 48.6553 75.7646 49.166C76.6796 49.6767 77.7028 49.9627 78.75 50.0003C79.0815 50.0003 79.3995 49.8686 79.6339 49.6342C79.8683 49.3998 80 49.0819 80 48.7503C80 48.4188 79.8683 48.1009 79.6339 47.8664C79.3995 47.632 79.0815 47.5003 78.75 47.5003ZM60.35 25.0003C60.5714 24.6273 60.886 24.3182 61.2629 24.1036C61.6399 23.8889 62.0662 23.7761 62.5 23.7761C62.9338 23.7761 63.3601 23.8889 63.7371 24.1036C64.114 24.3182 64.4286 24.6273 64.65 25.0003H60.35ZM52.5 27.5003V31.2503H37.5V27.5003H52.5ZM37.85 25.0003C38.0714 24.6273 38.386 24.3182 38.7629 24.1036C39.1399 23.8889 39.5662 23.7761 40 23.7761C40.4338 23.7761 40.8601 23.8889 41.2371 24.1036C41.614 24.3182 41.9286 24.6273 42.15 25.0003H37.85ZM37.5 33.7503H52.5V37.5003H37.5V33.7503ZM32.5 43.4503V26.2503C32.4925 24.3646 33.1957 22.5453 34.4694 21.1548C35.7431 19.7642 37.4938 18.9045 39.3729 18.7469C41.2521 18.5892 43.1216 19.1452 44.6092 20.3041C46.0967 21.463 47.0932 23.1398 47.4 25.0003H44.8375C44.5304 23.8253 43.8062 22.8023 42.8 22.1222C41.7938 21.4421 40.5745 21.1514 39.3697 21.3045C38.1649 21.4576 37.0571 22.0439 36.253 22.9541C35.4488 23.8642 35.0035 25.0359 35 26.2503V42.5003C34.1013 42.607 33.2427 42.9333 32.5 43.4503ZM47.65 45.4378C46.5125 46.6878 45.8 47.5003 44.2875 47.5003C42.775 47.5003 42.075 46.7503 40.9375 45.4378C40.0652 44.2444 38.8737 43.3215 37.5 42.7753V40.0003H52.5V42.5003C51.5271 42.6097 50.5896 42.929 49.7523 43.4362C48.9149 43.9434 48.1976 44.6263 47.65 45.4378ZM55 42.9378V26.2503C54.9925 24.3646 55.6957 22.5453 56.9694 21.1548C58.2431 19.7642 59.9938 18.9045 61.8729 18.7469C63.7521 18.5892 65.6216 19.1452 67.1092 20.3041C68.5967 21.463 69.5932 23.1398 69.9 25.0003H67.3375C67.0304 23.8253 66.3062 22.8023 65.3 22.1222C64.2938 21.4421 63.0745 21.1514 61.8697 21.3045C60.6649 21.4576 59.5571 22.0439 58.753 22.9541C57.9488 23.8642 57.5035 25.0359 57.5 26.2503V44.7003C56.8141 43.9183 55.9592 43.3027 55 42.9003V42.9378ZM71.25 56.2503C70.1969 56.2858 69.1669 56.5691 68.2439 57.0774C67.3208 57.5856 66.5306 58.3044 65.9375 59.1753C64.775 60.5003 64.0375 61.2503 62.5 61.2503C60.9625 61.2503 60.225 60.5003 59.0625 59.1753C58.502 58.2709 57.7198 57.5245 56.7902 57.007C55.8605 56.4894 54.814 56.2177 53.75 56.2177C52.686 56.2177 51.6395 56.4894 50.7098 57.007C49.7802 57.5245 48.998 58.2709 48.4375 59.1753C47.2625 60.5003 46.5375 61.2503 45 61.2503C43.4625 61.2503 42.725 60.5003 41.5625 59.1753C40.9701 58.3037 40.1801 57.5843 39.2569 57.076C38.3336 56.5677 37.3033 56.2848 36.25 56.2503C35.1973 56.2878 34.1681 56.5719 33.2453 57.08C32.3226 57.5881 31.5321 58.3058 30.9375 59.1753C29.775 60.5003 29.0375 61.2503 27.5 61.2503C25.9625 61.2503 25.225 60.5003 24.0625 59.1753C23.4694 58.3044 22.6792 57.5856 21.7561 57.0774C20.8331 56.5691 19.8031 56.2858 18.75 56.2503C18.4185 56.2503 18.1005 56.382 17.8661 56.6164C17.6317 56.8509 17.5 57.1688 17.5 57.5003C17.5 57.8319 17.6317 58.1498 17.8661 58.3842C18.1005 58.6186 18.4185 58.7503 18.75 58.7503C20.2875 58.7503 21.025 59.5003 22.1875 60.8253C22.7799 61.697 23.5699 62.4163 24.4931 62.9247C25.4164 63.433 26.4466 63.7159 27.5 63.7503C28.5531 63.7149 29.5831 63.4315 30.5061 62.9233C31.4292 62.4151 32.2194 61.6963 32.8125 60.8253C33.9625 59.5003 34.7 58.7503 36.25 58.7503C37.8 58.7503 38.525 59.5003 39.6875 60.8253C40.2806 61.6963 41.0708 62.4151 41.9939 62.9233C42.9169 63.4315 43.9469 63.7149 45 63.7503C46.0531 63.7149 47.0831 63.4315 48.0061 62.9233C48.9292 62.4151 49.7194 61.6963 50.3125 60.8253C51.4625 59.5003 52.1875 58.7503 53.75 58.7503C55.3125 58.7503 56.025 59.5003 57.1875 60.8253C57.7474 61.7326 58.53 62.4815 59.4609 63.0009C60.3919 63.5204 61.4402 63.793 62.5063 63.793C63.5723 63.793 64.6206 63.5204 65.5516 63.0009C66.4825 62.4815 67.2651 61.7326 67.825 60.8253C68.975 59.5003 69.7 58.7503 71.25 58.7503C71.5815 58.7503 71.8995 58.6186 72.1339 58.3842C72.3683 58.1498 72.5 57.8319 72.5 57.5003C72.5 57.1688 72.3683 56.8509 72.1339 56.6164C71.8995 56.382 71.5815 56.2503 71.25 56.2503Z" fill="#5CE1E6"/>
</svg>
