<svg width="120" height="120" viewBox="0 0 120 120" fill="none" xmlns="http://www.w3.org/2000/svg">
<path d="M106.585 81.6C98.8201 77.975 91.1651 76.23 83.7501 76.205V25C83.7501 21.555 86.5551 18.75 90.0001 18.75C93.4451 18.75 96.2501 21.555 96.2501 25C96.2501 25.9946 96.6452 26.9484 97.3485 27.6517C98.0518 28.3549 99.0056 28.75 100 28.75C100.995 28.75 101.949 28.3549 102.652 27.6517C103.355 26.9484 103.75 25.9946 103.75 25C103.75 17.415 97.5851 11.25 90.0001 11.25C82.4151 11.25 76.2501 17.415 76.2501 25V36.25H43.7501V25C43.7501 21.555 46.5551 18.75 50.0001 18.75C53.4451 18.75 56.2501 21.555 56.2501 25C56.2501 25.9946 56.6452 26.9484 57.3485 27.6517C58.0518 28.3549 59.0056 28.75 60.0001 28.75C60.9947 28.75 61.9485 28.3549 62.6518 27.6517C63.355 26.9484 63.7501 25.9946 63.7501 25C63.7501 17.415 57.5851 11.25 50.0001 11.25C42.4151 11.25 36.2501 17.415 36.2501 25V76.365C35.8851 76.335 35.5801 76.275 35.1951 76.25C27.8651 75.845 20.4951 77.715 13.2001 81.705C12.3269 82.1831 11.6794 82.9884 11.3999 83.9439C11.1205 84.8994 11.2321 85.9268 11.7101 86.8C12.1882 87.6732 12.9936 88.3208 13.949 88.6002C14.9045 88.8796 15.9319 88.7681 16.8051 88.29C22.8651 84.97 28.9401 83.455 34.8101 83.745C38.7251 83.945 40.9901 84.865 43.6201 85.93C46.4251 87.07 49.6001 88.355 54.7201 88.74C55.6401 88.81 56.5151 88.845 57.3451 88.845C62.6001 88.845 66.2001 87.555 69.6951 86.305C72.8251 85.185 75.7801 84.125 80.3201 83.735C87.6551 83.085 95.4301 84.675 103.41 88.4C103.856 88.6085 104.339 88.727 104.831 88.7489C105.323 88.7708 105.815 88.6955 106.277 88.5274C106.74 88.3594 107.166 88.1018 107.529 87.7693C107.892 87.4369 108.187 87.0362 108.395 86.59C108.604 86.1438 108.722 85.661 108.744 85.169C108.766 84.677 108.691 84.1855 108.523 83.7226C108.354 83.2597 108.097 82.8345 107.764 82.4711C107.432 82.1078 107.031 81.8085 106.585 81.6ZM76.2501 43.75V56.25H43.7501V43.75H76.2501ZM67.1701 79.245C63.4101 80.59 60.4401 81.675 55.2851 81.26C51.3301 80.96 49.0601 80.045 46.4301 78.98C45.5444 78.6204 44.6508 78.2803 43.7501 77.96V63.75H76.2501V76.715C72.5501 77.34 69.7151 78.33 67.1701 79.245ZM103.4 106.59C103.192 107.036 102.897 107.437 102.534 107.769C102.171 108.102 101.745 108.359 101.283 108.527C100.82 108.696 100.328 108.771 99.8361 108.749C99.3442 108.727 98.8613 108.608 98.4151 108.4C88.1351 103.6 85.3001 103.32 80.3251 103.735C75.7851 104.125 72.8251 105.185 69.7001 106.305C66.2051 107.555 62.6051 108.845 57.3501 108.845C56.5151 108.845 55.6451 108.81 54.7251 108.74C49.6051 108.355 46.4251 107.065 43.6251 105.93C41.0001 104.865 38.7301 103.95 34.8151 103.745C29.4601 103.485 27.6001 104.675 24.7701 106.495C23.8501 107.085 22.8951 107.695 21.8101 108.29C21.3778 108.527 20.903 108.676 20.4129 108.729C19.9229 108.782 19.4272 108.739 18.954 108.6C18.4809 108.462 18.0397 108.232 17.6556 107.923C17.2714 107.614 16.9518 107.232 16.7151 106.8C16.4784 106.368 16.3292 105.893 16.276 105.403C16.2228 104.913 16.2666 104.417 16.4049 103.944C16.6844 102.988 17.3319 102.183 18.2051 101.705C19.1251 101.2 19.9301 100.68 20.7101 100.18C24.0201 98.05 27.4651 95.855 35.2001 96.25C40.3751 96.52 43.5951 97.82 46.4401 98.975C49.0701 100.04 51.3351 100.955 55.2951 101.255C60.4501 101.67 63.4201 100.58 67.1801 99.24C70.4601 98.065 74.1801 96.735 79.6901 96.26C86.3301 95.685 90.4201 96.375 101.6 101.595C102.046 101.803 102.447 102.098 102.779 102.461C103.112 102.824 103.37 103.25 103.538 103.713C103.706 104.176 103.781 104.667 103.759 105.159C103.737 105.651 103.619 106.134 103.41 106.58L103.4 106.59Z" fill="#5CE1E6"/>
</svg>
