<svg width="120" height="120" viewBox="0 0 120 120" fill="none" xmlns="http://www.w3.org/2000/svg">
<path d="M118.125 71.2495C115.856 71.2495 114.788 70.1245 113.081 68.1558C112.252 66.8104 111.092 65.6997 109.712 64.9293C108.332 64.1588 106.777 63.7544 105.197 63.7544C103.616 63.7544 102.062 64.1588 100.682 64.9293C99.302 65.6997 98.142 66.8104 97.3125 68.1558C95.625 70.1245 94.5375 71.2495 92.2687 71.2495C91.4803 71.269 90.6998 71.0883 90 70.7245V41.2495H118.125C118.622 41.2495 119.099 41.052 119.451 40.7003C119.802 40.3487 120 39.8718 120 39.3745C120 38.8772 119.802 38.4003 119.451 38.0487C119.099 37.6971 118.622 37.4995 118.125 37.4995H108.619C108.139 33.896 106.367 30.5894 103.632 28.1946C100.897 25.7997 97.3853 24.4795 93.75 24.4795C90.1147 24.4795 86.6031 25.7997 83.8682 28.1946C81.1332 30.5894 79.3611 33.896 78.8812 37.4995H74.8688C74.3889 33.896 72.6168 30.5894 69.8818 28.1946C67.1469 25.7997 63.6353 24.4795 60 24.4795C56.3647 24.4795 52.8531 25.7997 50.1182 28.1946C47.3833 30.5894 45.6111 33.896 45.1312 37.4995H1.875C1.37772 37.4995 0.900806 37.6971 0.549175 38.0487C0.197544 38.4003 0 38.8772 0 39.3745C0 39.8718 0.197544 40.3487 0.549175 40.7003C0.900806 41.052 1.37772 41.2495 1.875 41.2495H45V68.887C44.5099 69.602 43.856 70.1895 43.0928 70.6005C42.3296 71.0114 41.4792 71.234 40.6125 71.2495C38.3438 71.2495 37.275 70.1245 35.5687 68.1558C34.7014 66.8477 33.5344 65.7655 32.1647 64.9992C30.7951 64.2328 29.2623 63.8044 27.6938 63.7495C26.1252 63.8044 24.5924 64.2328 23.2227 64.9992C21.8531 65.7655 20.6861 66.8477 19.8187 68.1558C18.1125 70.1245 17.0438 71.2495 14.775 71.2495C12.5063 71.2495 11.4562 70.1245 9.75 68.1558C8.88266 66.8477 7.71567 65.7655 6.346 64.9992C4.97633 64.2328 3.44354 63.8044 1.875 63.7495C1.37772 63.7495 0.900806 63.9471 0.549175 64.2987C0.197544 64.6503 0 65.1272 0 65.6245C0 66.1218 0.197544 66.5987 0.549175 66.9503C0.900806 67.302 1.37772 67.4995 1.875 67.4995C4.125 67.4995 5.2125 68.6245 6.9 70.5933C7.76734 71.9013 8.93433 72.9835 10.304 73.7499C11.6737 74.5162 13.2065 74.9447 14.775 74.9995C16.3435 74.9447 17.8763 74.5162 19.246 73.7499C20.6157 72.9835 21.7827 71.9013 22.65 70.5933C24.375 68.6245 25.4438 67.4995 27.6938 67.4995C29.9438 67.4995 31.0312 68.6245 32.7375 70.5933C33.6048 71.9013 34.7718 72.9835 36.1415 73.7499C37.5112 74.5162 39.044 74.9447 40.6125 74.9995C42.181 74.9447 43.7138 74.5162 45.0835 73.7499C46.4532 72.9835 47.6202 71.9013 48.4875 70.5933C50.1938 68.7183 51.2625 67.4995 53.5125 67.4995C55.7625 67.4995 56.85 68.6245 58.5562 70.5933C59.4236 71.9013 60.5906 72.9835 61.9603 73.7499C63.3299 74.5162 64.8627 74.9447 66.4313 74.9995C67.9998 74.9447 69.5326 74.5162 70.9023 73.7499C72.2719 72.9835 73.4389 71.9013 74.3063 70.5933C76.0125 68.7183 77.0813 67.4995 79.35 67.4995C81.6188 67.4995 82.6875 68.6245 84.3937 70.5933C85.2208 71.9389 86.379 73.0501 87.7576 73.8209C89.1362 74.5917 90.6893 74.9964 92.2687 74.9964C93.8482 74.9964 95.4013 74.5917 96.7799 73.8209C98.1585 73.0501 99.3166 71.9389 100.144 70.5933C101.85 68.7183 102.938 67.4995 105.188 67.4995C107.438 67.4995 108.525 68.6245 110.231 70.5933C111.104 71.9006 112.274 72.9819 113.647 73.748C115.019 74.5141 116.554 74.9431 118.125 74.9995C118.622 74.9995 119.099 74.802 119.451 74.4503C119.802 74.0987 120 73.6218 120 73.1245C120 72.6272 119.802 72.1503 119.451 71.7987C119.099 71.4471 118.622 71.2495 118.125 71.2495ZM90.525 37.4995C90.857 36.9399 91.329 36.4764 91.8944 36.1544C92.4598 35.8324 93.0993 35.6631 93.75 35.6631C94.4007 35.6631 95.0402 35.8324 95.6056 36.1544C96.171 36.4764 96.643 36.9399 96.975 37.4995H90.525ZM78.75 41.2495V46.8745H56.25V41.2495H78.75ZM56.775 37.4995C57.107 36.9399 57.579 36.4764 58.1444 36.1544C58.7098 35.8324 59.3493 35.6631 60 35.6631C60.6507 35.6631 61.2902 35.8324 61.8556 36.1544C62.421 36.4764 62.893 36.9399 63.225 37.4995H56.775ZM56.25 50.6245H78.75V56.2495H56.25V50.6245ZM48.75 65.1745V39.3745C48.7388 36.546 49.7935 33.817 51.7041 31.7312C53.6146 29.6454 56.2408 28.3558 59.0594 28.1194C61.8781 27.8829 64.6824 28.7169 66.9138 30.4552C69.1451 32.1936 70.6398 34.7086 71.1 37.4995H67.2562C66.7956 35.737 65.7093 34.2024 64.2 33.1823C62.6907 32.1621 60.8618 31.7261 59.0546 31.9558C57.2474 32.1854 55.5856 33.0649 54.3794 34.4301C53.1733 35.7953 52.5052 37.5528 52.5 39.3745V63.7495C51.152 63.9095 49.8641 64.3989 48.75 65.1745ZM71.475 68.1558C69.7687 70.0308 68.7 71.2495 66.4313 71.2495C64.1625 71.2495 63.1125 70.1245 61.4062 68.1558C60.0978 66.3656 58.3105 64.9812 56.25 64.162V59.9995H78.75V63.7495C77.2907 63.9136 75.8844 64.3926 74.6284 65.1533C73.3723 65.9141 72.2964 66.9385 71.475 68.1558ZM82.5 64.4058V39.3745C82.4888 36.546 83.5435 33.817 85.4541 31.7312C87.3646 29.6454 89.9908 28.3558 92.8094 28.1194C95.6281 27.8829 98.4324 28.7169 100.664 30.4552C102.895 32.1936 104.39 34.7086 104.85 37.4995H101.006C100.546 35.737 99.4593 34.2024 97.95 33.1823C96.4407 32.1621 94.6118 31.7261 92.8046 31.9558C90.9974 32.1854 89.3356 33.0649 88.1294 34.4301C86.9233 35.7953 86.2552 37.5528 86.25 39.3745V67.0495C85.2212 65.8765 83.9388 64.9531 82.5 64.3495V64.4058ZM106.875 84.3745C105.295 84.4277 103.75 84.8527 102.366 85.6151C100.981 86.3774 99.7959 87.4556 98.9062 88.762C97.1625 90.7495 96.0563 91.8745 93.75 91.8745C91.4437 91.8745 90.3375 90.7495 88.5938 88.762C87.753 87.4054 86.5798 86.2858 85.1852 85.5095C83.7907 84.7331 82.2211 84.3256 80.625 84.3256C79.0289 84.3256 77.4593 84.7331 76.0648 85.5095C74.6702 86.2858 73.497 87.4054 72.6562 88.762C70.8938 90.7495 69.8063 91.8745 67.5 91.8745C65.1937 91.8745 64.0875 90.7495 62.3438 88.762C61.4552 87.4545 60.2701 86.3755 58.8853 85.6131C57.5005 84.8506 55.955 84.4262 54.375 84.3745C52.7959 84.4306 51.2521 84.8569 49.868 85.619C48.4838 86.3811 47.2981 87.4577 46.4062 88.762C44.6625 90.7495 43.5563 91.8745 41.25 91.8745C38.9437 91.8745 37.8375 90.7495 36.0938 88.762C35.2041 87.4556 34.0188 86.3774 32.6342 85.6151C31.2496 84.8527 29.7047 84.4277 28.125 84.3745C27.6277 84.3745 27.1508 84.5721 26.7992 84.9237C26.4475 85.2753 26.25 85.7522 26.25 86.2495C26.25 86.7468 26.4475 87.2237 26.7992 87.5753C27.1508 87.927 27.6277 88.1245 28.125 88.1245C30.4312 88.1245 31.5375 89.2495 33.2812 91.237C34.1698 92.5445 35.3549 93.6235 36.7397 94.386C38.1245 95.1485 39.67 95.5728 41.25 95.6245C42.8297 95.5714 44.3746 95.1463 45.7592 94.384C47.1438 93.6216 48.3291 92.5435 49.2188 91.237C50.9437 89.2495 52.05 88.1245 54.375 88.1245C56.7 88.1245 57.7875 89.2495 59.5312 91.237C60.4209 92.5435 61.6062 93.6216 62.9908 94.384C64.3754 95.1463 65.9203 95.5714 67.5 95.6245C69.0797 95.5714 70.6246 95.1463 72.0092 94.384C73.3938 93.6216 74.5791 92.5435 75.4688 91.237C77.1937 89.2495 78.2812 88.1245 80.625 88.1245C82.9688 88.1245 84.0375 89.2495 85.7812 91.237C86.621 92.5978 87.7949 93.7212 89.1914 94.5004C90.5878 95.2796 92.1603 95.6886 93.7594 95.6886C95.3585 95.6886 96.931 95.2796 98.3274 94.5004C99.7238 93.7212 100.898 92.5978 101.737 91.237C103.462 89.2495 104.55 88.1245 106.875 88.1245C107.372 88.1245 107.849 87.927 108.201 87.5753C108.552 87.2237 108.75 86.7468 108.75 86.2495C108.75 85.7522 108.552 85.2753 108.201 84.9237C107.849 84.5721 107.372 84.3745 106.875 84.3745Z" fill="#5CE1E6"/>
</svg>
