<svg width="120" height="120" viewBox="0 0 120 120" fill="none" xmlns="http://www.w3.org/2000/svg">
<path d="M84.2968 70.5985C86.2231 70.5963 88.0698 69.8301 89.4319 68.468C90.794 67.1059 91.5602 65.2592 91.5624 63.3329V62.9719H97.3215C97.7565 62.9717 98.1737 62.7988 98.4813 62.4911C98.7889 62.1835 98.9619 61.7664 98.9621 61.3313V39.2626C98.9619 38.8275 98.7889 38.4104 98.4813 38.1027C98.1737 37.7951 97.7565 37.6222 97.3215 37.6219H91.5624V37.2629C91.5594 35.3371 90.7929 33.4911 89.4309 32.1296C88.0689 30.7681 86.2226 30.0023 84.2968 30.0001H64.4527V23.5585C66.494 22.5531 68.135 20.8864 69.1086 18.8298C70.0822 16.7732 70.3312 14.4476 69.815 12.2314C69.2988 10.0153 68.0479 8.03904 66.2657 6.62426C64.4836 5.20949 62.2751 4.43945 59.9996 4.43945C57.7242 4.43945 55.5157 5.20949 53.7335 6.62426C51.9513 8.03904 50.7004 10.0153 50.1842 12.2314C49.668 14.4476 49.917 16.7732 50.8906 18.8298C51.8643 20.8864 53.5052 22.5531 55.5465 23.5585V30.0001H35.7024C33.7761 30.0023 31.9294 30.7685 30.5673 32.1306C29.2052 33.4927 28.439 35.3394 28.4368 37.2657V37.6248H22.6777C22.2427 37.625 21.8255 37.7979 21.5179 38.1056C21.2103 38.4132 21.0374 38.8303 21.0371 39.2654V61.3313C21.0374 61.7664 21.2103 62.1835 21.5179 62.4911C21.8255 62.7988 22.2427 62.9717 22.6777 62.9719H28.4368V63.3329C28.439 65.2592 29.2052 67.1059 30.5673 68.468C31.9294 69.8301 33.7761 70.5963 35.7024 70.5985H47.109V75.5823H28.3046C26.3783 75.5845 24.5316 76.3507 23.1695 77.7128C21.8074 79.0749 21.0412 80.9216 21.039 82.8479V113.906C21.0392 114.341 21.2122 114.759 21.5198 115.066C21.8274 115.374 22.2446 115.547 22.6796 115.547H97.3196C97.7547 115.547 98.1718 115.374 98.4794 115.066C98.787 114.759 98.96 114.341 98.9602 113.906V82.8479C98.958 80.9216 98.1918 79.0749 96.8297 77.7128C95.4676 76.3507 93.6209 75.5845 91.6946 75.5823H72.8902V70.5985H84.2968ZM95.6809 40.9032V59.6907H91.5624V40.9032H95.6809ZM53.2027 14.5313C53.2027 13.187 53.6014 11.8729 54.3482 10.7552C55.0951 9.63743 56.1566 8.76626 57.3986 8.25182C58.6405 7.73738 60.0071 7.60278 61.3256 7.86504C62.6441 8.1273 63.8552 8.77464 64.8057 9.7252C65.7563 10.6758 66.4036 11.8868 66.6659 13.2053C66.9281 14.5238 66.7935 15.8904 66.2791 17.1324C65.7647 18.3743 64.8935 19.4359 63.7757 20.1827C62.658 20.9296 61.3439 21.3282 59.9996 21.3282C58.1976 21.3262 56.4699 20.6095 55.1957 19.3352C53.9215 18.061 53.2047 16.3333 53.2027 14.5313ZM58.8277 24.5354C59.6059 24.6341 60.3934 24.6341 61.1715 24.5354V30.0001H58.8277V24.5354ZM24.3184 59.6907V40.9032H28.4368V59.6907H24.3184ZM31.718 63.3329V37.2629C31.7193 36.2065 32.1395 35.1938 32.8864 34.4469C33.6334 33.6999 34.6461 33.2797 35.7024 33.2785H84.2968C85.3531 33.2797 86.3659 33.6999 87.1128 34.4469C87.8598 35.1938 88.2799 36.2065 88.2812 37.2629V63.3329C88.2799 64.3892 87.8598 65.4019 87.1128 66.1489C86.3659 66.8958 85.3531 67.316 84.2968 67.3172H71.2946C71.2796 67.3172 71.2655 67.3126 71.2496 67.3126C71.2337 67.3126 71.2196 67.3126 71.2046 67.3172H48.7984C48.7834 67.3172 48.7693 67.3126 48.7534 67.3126C48.7374 67.3126 48.7234 67.3126 48.7084 67.3172H35.7024C34.6461 67.316 33.6334 66.8958 32.8864 66.1489C32.1395 65.4019 31.7193 64.3892 31.718 63.3329ZM79.4518 112.266H40.5455V98.731H79.4518V112.266ZM95.679 82.8479V112.266H82.733V97.0904C82.733 96.6553 82.5602 96.238 82.2525 95.9303C81.9448 95.6226 81.5275 95.4498 81.0924 95.4498H38.9049C38.4699 95.45 38.0527 95.6229 37.7451 95.9306C37.4375 96.2382 37.2645 96.6553 37.2643 97.0904V112.266H24.3202V82.8479C24.3215 81.7915 24.7417 80.7788 25.4886 80.0319C26.2355 79.2849 27.2483 78.8647 28.3046 78.8635H91.6946C92.7509 78.8647 93.7637 79.2849 94.5106 80.0319C95.2576 80.7788 95.6777 81.7915 95.679 82.8479ZM69.609 75.5823H50.3902V70.5985H69.609V75.5823Z" fill="#5CE1E6"/>
<path d="M51.7975 46.545C51.7971 45.1081 51.3707 43.7036 50.5722 42.509C49.7736 41.3145 48.6388 40.3835 47.3112 39.8339C45.9836 39.2842 44.5229 39.1405 43.1136 39.421C41.7044 39.7015 40.4099 40.3935 39.394 41.4096C38.378 42.4257 37.6861 43.7203 37.4058 45.1295C37.1255 46.5388 37.2694 47.9996 37.8192 49.3271C38.3691 50.6546 39.3002 51.7893 40.4948 52.5877C41.6895 53.3861 43.0941 53.8123 44.5309 53.8125C46.4577 53.8105 48.305 53.0442 49.6673 51.6817C51.0297 50.3191 51.7958 48.4718 51.7975 46.545ZM44.5309 50.5313C43.7429 50.5313 42.9726 50.2976 42.3173 49.8598C41.6621 49.422 41.1514 48.7997 40.8499 48.0716C40.5483 47.3436 40.4694 46.5425 40.6231 45.7696C40.7769 44.9967 41.1563 44.2867 41.7136 43.7295C42.2708 43.1723 42.9807 42.7928 43.7536 42.6391C44.5265 42.4853 45.3276 42.5642 46.0557 42.8658C46.7837 43.1674 47.406 43.6781 47.8438 44.3333C48.2816 44.9885 48.5153 45.7588 48.5153 46.5469C48.5141 47.6032 48.0939 48.6159 47.3469 49.3629C46.6 50.1098 45.5873 50.53 44.5309 50.5313ZM75.4684 53.8125C76.9054 53.8125 78.3102 53.3864 79.505 52.588C80.6998 51.7897 81.6311 50.6549 82.181 49.3273C82.7309 47.9997 82.8748 46.5388 82.5945 45.1294C82.3141 43.72 81.6221 42.4254 80.606 41.4093C79.5899 40.3932 78.2953 39.7012 76.8859 39.4209C75.4765 39.1405 74.0156 39.2844 72.688 39.8343C71.3604 40.3842 70.2257 41.3155 69.4273 42.5103C68.6289 43.7051 68.2028 45.1099 68.2028 46.5469C68.205 48.4732 68.9712 50.3199 70.3333 51.682C71.6954 53.0441 73.5422 53.8103 75.4684 53.8125ZM75.4684 42.5625C76.2565 42.5625 77.0268 42.7962 77.682 43.234C78.3373 43.6718 78.848 44.2941 79.1495 45.0221C79.4511 45.7502 79.53 46.5513 79.3763 47.3242C79.2225 48.0971 78.843 48.807 78.2858 49.3643C77.7286 49.9215 77.0186 50.301 76.2457 50.4547C75.4729 50.6084 74.6717 50.5295 73.9437 50.228C73.2156 49.9264 72.5934 49.4157 72.1556 48.7605C71.7177 48.1053 71.4841 47.3349 71.4841 46.5469C71.4853 45.4905 71.9055 44.4778 72.6524 43.7309C73.3994 42.9839 74.4121 42.5637 75.4684 42.5625ZM48.6325 60.8203C48.6327 61.2554 48.8057 61.6725 49.1133 61.9801C49.4209 62.2878 49.8381 62.4607 50.2731 62.4609H69.7262C70.1614 62.4609 70.5787 62.2881 70.8863 61.9804C71.194 61.6727 71.3669 61.2554 71.3669 60.8203C71.3669 60.3852 71.194 59.9679 70.8863 59.6602C70.5787 59.3525 70.1614 59.1797 69.7262 59.1797H50.2731C49.8381 59.1799 49.4209 59.3529 49.1133 59.6605C48.8057 59.9681 48.6327 60.3853 48.6325 60.8203ZM88.8822 90.1134C89.7629 90.1134 90.6239 89.8523 91.3562 89.363C92.0885 88.8736 92.6593 88.1782 92.9963 87.3644C93.3334 86.5507 93.4216 85.6554 93.2497 84.7916C93.0779 83.9277 92.6538 83.1343 92.031 82.5115C91.4082 81.8887 90.6148 81.4646 89.7509 81.2928C88.8871 81.1209 87.9918 81.2091 87.1781 81.5462C86.3643 81.8832 85.6689 82.454 85.1796 83.1863C84.6902 83.9186 84.4291 84.7796 84.4291 85.6603C84.4305 86.8409 84.9002 87.9727 85.735 88.8075C86.5698 89.6423 87.7016 90.112 88.8822 90.1134ZM88.8822 84.4884C89.114 84.4884 89.3405 84.5572 89.5332 84.6859C89.726 84.8147 89.8762 84.9977 89.9649 85.2119C90.0536 85.426 90.0768 85.6616 90.0315 85.8889C89.9863 86.1163 89.8747 86.3251 89.7108 86.489C89.5469 86.6528 89.3381 86.7645 89.1108 86.8097C88.8835 86.8549 88.6479 86.8317 88.4337 86.743C88.2196 86.6543 88.0366 86.5041 87.9078 86.3114C87.779 86.1187 87.7103 85.8921 87.7103 85.6603C87.7106 85.3496 87.8341 85.0517 88.0538 84.832C88.2735 84.6122 88.5715 84.4887 88.8822 84.4884ZM26.6641 85.6603C26.6641 86.5411 26.9252 87.402 27.4145 88.1343C27.9039 88.8666 28.5993 89.4374 29.4131 89.7745C30.2268 90.1115 31.1221 90.1997 31.9859 90.0279C32.8498 89.8561 33.6432 89.4319 34.266 88.8092C34.8888 88.1864 35.3129 87.3929 35.4847 86.5291C35.6566 85.6653 35.5684 84.7699 35.2313 83.9562C34.8943 83.1425 34.3235 82.447 33.5912 81.9577C32.8589 81.4684 31.9979 81.2072 31.1172 81.2072C29.9366 81.2087 28.8048 81.6783 27.97 82.5131C27.1352 83.3479 26.6656 84.4797 26.6641 85.6603ZM31.1172 84.4884C31.349 84.4884 31.5755 84.5572 31.7682 84.6859C31.961 84.8147 32.1112 84.9977 32.1999 85.2119C32.2886 85.426 32.3118 85.6616 32.2665 85.8889C32.2213 86.1163 32.1097 86.3251 31.9458 86.489C31.7819 86.6528 31.5731 86.7645 31.3458 86.8097C31.1185 86.8549 30.8829 86.8317 30.6687 86.743C30.4546 86.6543 30.2716 86.5041 30.1428 86.3114C30.014 86.1187 29.9453 85.8921 29.9453 85.6603C29.9453 85.3495 30.0688 85.0514 30.2885 84.8317C30.5083 84.6119 30.8064 84.4884 31.1172 84.4884Z" fill="#5CE1E6"/>
</svg>
