<svg width="120" height="120" viewBox="0 0 120 120" fill="none" xmlns="http://www.w3.org/2000/svg">
<g clip-path="url(#clip0_140_1137)">
<path d="M0 112.969H120V120H0V112.969ZM66.0506 54.896C66.0506 49.0795 61.3193 44.3482 55.5028 44.3482C49.6875 44.3482 44.9559 49.0795 44.9559 54.896V59.5835H51.9872V54.896C51.9872 52.9568 53.5638 51.3795 55.5028 51.3795C57.4418 51.3795 59.0194 52.9568 59.0194 54.896V70.1313H31.1452V54.896C31.1452 49.0795 26.4138 44.3482 20.5976 44.3482C14.782 44.3482 10.0507 49.0795 10.0507 54.896V59.5835H17.082V54.896C17.082 52.9568 18.6593 51.3795 20.5976 51.3795C22.5366 51.3795 24.1141 52.9568 24.1141 54.896V83.8055H0V90.8367H24.1141V98.258H0V105.289H120V98.258H66.0506V90.8367H120V83.8055H66.0506V54.896ZM31.1452 77.1626H59.0194V83.8055H31.1452V77.1626ZM59.0194 98.258H31.1452V90.8358H59.0194V98.258ZM111.662 22.8708L115.749 18.4671L110.595 13.6845L102.07 22.8708H97.1585V17.8638L106.073 8.94937L101.102 3.97711L97.1585 7.92023V0H90.1273V7.91953L86.1851 3.97711L81.2128 8.94937L90.1273 17.8638V22.8708H85.1796L76.2352 13.9261L71.2638 18.8984L75.2363 22.8708H67.2867V29.902H75.1767L71.2638 33.8149L76.2349 38.7872L85.1201 29.902H90.1273V34.8504L81.2128 43.7648L86.1851 48.7362L90.1273 44.794V52.7135H97.1585V44.793L101.102 48.7362L106.073 43.7651L97.1585 34.8495V29.902H102.229L111.524 38.527L116.306 33.3729L112.566 29.902H120V22.8708H111.662Z" fill="#5CE1E6"/>
</g>
<defs>
<clipPath id="clip0_140_1137">
<rect width="120" height="120" fill="white"/>
</clipPath>
</defs>
</svg>
