<svg width="120" height="120" viewBox="0 0 120 120" fill="none" xmlns="http://www.w3.org/2000/svg">
<g clip-path="url(#clip0_149_5958)">
<path d="M108 56.0001H85.878C90.0902 51.0573 92.7987 45.0116 93.6832 38.578C94.5677 32.1444 93.5911 25.592 90.8691 19.6959C88.147 13.7998 83.7933 8.80659 78.3229 5.30686C72.8524 1.80712 66.4941 -0.0527344 60 -0.0527344C53.5059 -0.0527344 47.1476 1.80712 41.6772 5.30686C36.2067 8.80659 31.853 13.7998 29.1309 19.6959C26.4089 25.592 25.4323 32.1444 26.3168 38.578C27.2013 45.0116 29.9098 51.0573 34.122 56.0001H12C10.9391 56.0001 9.92172 56.4216 9.17157 57.1717C8.42143 57.9219 8 58.9393 8 60.0001V68.0001C8.00118 68.93 8.32628 69.8304 8.9194 70.5465C9.51253 71.2627 10.3366 71.7498 11.25 71.9241L46 97.0201V114C46.0021 114.952 46.2296 115.889 46.6638 116.735C47.098 117.582 47.7265 118.313 48.498 118.87C49.2655 119.432 50.157 119.8 51.097 119.944C52.037 120.087 52.9978 120.002 53.898 119.696L69.898 114.36C71.096 113.963 72.1377 113.197 72.8745 112.172C73.6112 111.148 74.0051 109.916 74 108.654V97.0201L108.75 71.9241C109.663 71.7498 110.487 71.2627 111.081 70.5465C111.674 69.8304 111.999 68.93 112 68.0001V60.0001C112 58.9393 111.579 57.9219 110.828 57.1717C110.078 56.4216 109.061 56.0001 108 56.0001ZM30 34.0001C29.9951 29.0155 31.2323 24.1082 33.5997 19.7217C35.9672 15.3352 39.3904 11.6077 43.5599 8.87613C47.7295 6.14455 52.5139 4.49495 57.481 4.0764C62.448 3.65785 67.441 4.48355 72.0089 6.47887C76.5767 8.4742 80.5754 11.5763 83.6435 15.5047C86.7117 19.4332 88.7526 24.0643 89.5819 28.9794C90.4112 33.8946 90.0027 38.9389 88.3933 43.6566C86.7839 48.3743 84.0243 52.6166 80.364 56.0001H62C62 55.4697 61.7893 54.961 61.4142 54.5859C61.0392 54.2109 60.5304 54.0001 60 54.0001C59.4696 54.0001 58.9609 54.2109 58.5858 54.5859C58.2107 54.961 58 55.4697 58 56.0001H39.636C36.6004 53.1952 34.1774 49.793 32.5191 46.007C30.8609 42.2211 30.0033 38.1333 30 34.0001ZM12 60.0001H108V68.0001H12V60.0001ZM70.83 94.3761C70.5728 94.5617 70.3634 94.8057 70.2191 95.088C70.0748 95.3704 69.9997 95.683 70 96.0002V108.658C70.001 109.08 69.8686 109.491 69.6218 109.833C69.375 110.175 69.0265 110.43 68.626 110.562L52.626 115.9C52.3255 115.999 52.0059 116.026 51.6932 115.977C51.3806 115.928 51.0839 115.806 50.8276 115.621C50.5713 115.436 50.3626 115.192 50.2188 114.91C50.0749 114.628 49.9999 114.317 50 114V96.0002C49.9997 95.6837 49.9243 95.3719 49.78 95.0902C49.6357 94.8086 49.4266 94.5653 49.17 94.3801L18.186 72.0001H101.814L70.83 94.3761Z" fill="#5CE1E6"/>
<path d="M60 14C60.5304 14 61.0391 13.7893 61.4142 13.4142C61.7893 13.0391 62 12.5304 62 12V10C62 9.46957 61.7893 8.96086 61.4142 8.58579C61.0391 8.21071 60.5304 8 60 8C59.4696 8 58.9609 8.21071 58.5858 8.58579C58.2107 8.96086 58 9.46957 58 10V12C58 12.5304 58.2107 13.0391 58.5858 13.4142C58.9609 13.7893 59.4696 14 60 14ZM44.444 15.616C44.0668 15.2517 43.5616 15.0501 43.0372 15.0547C42.5128 15.0592 42.0112 15.2695 41.6404 15.6404C41.2695 16.0112 41.0592 16.5128 41.0547 17.0372C41.0501 17.5616 41.2517 18.0668 41.616 18.444L43.03 19.858C43.2145 20.049 43.4352 20.2014 43.6792 20.3062C43.9232 20.411 44.1856 20.4662 44.4512 20.4685C44.7168 20.4708 44.9801 20.4202 45.2259 20.3196C45.4717 20.2191 45.695 20.0706 45.8828 19.8828C46.0706 19.695 46.2191 19.4717 46.3196 19.2259C46.4202 18.9801 46.4708 18.7168 46.4685 18.4512C46.4662 18.1856 46.411 17.9232 46.3062 17.6792C46.2014 17.4352 46.049 17.2145 45.858 17.03L44.444 15.616ZM38 32H36C35.4696 32 34.9609 32.2107 34.5858 32.5858C34.2107 32.9609 34 33.4696 34 34C34 34.5304 34.2107 35.0391 34.5858 35.4142C34.9609 35.7893 35.4696 36 36 36H38C38.5304 36 39.0391 35.7893 39.4142 35.4142C39.7893 35.0391 40 34.5304 40 34C40 33.4696 39.7893 32.9609 39.4142 32.5858C39.0391 32.2107 38.5304 32 38 32ZM43.03 48.142L41.616 49.556C41.425 49.7405 41.2726 49.9612 41.1678 50.2052C41.063 50.4492 41.0078 50.7116 41.0055 50.9772C41.0032 51.2428 41.0538 51.5061 41.1544 51.7519C41.2549 51.9977 41.4034 52.221 41.5912 52.4088C41.779 52.5966 42.0023 52.7451 42.2481 52.8456C42.4939 52.9462 42.7572 52.9968 43.0228 52.9945C43.2884 52.9922 43.5508 52.937 43.7948 52.8322C44.0388 52.7274 44.2595 52.575 44.444 52.384L45.858 50.97C46.049 50.7855 46.2014 50.5648 46.3062 50.3208C46.411 50.0768 46.4662 49.8144 46.4685 49.5488C46.4708 49.2832 46.4202 49.0199 46.3196 48.7741C46.2191 48.5283 46.0706 48.305 45.8828 48.1172C45.695 47.9294 45.4717 47.7809 45.2259 47.6804C44.9801 47.5798 44.7168 47.5292 44.4512 47.5315C44.1856 47.5338 43.9232 47.589 43.6792 47.6938C43.4352 47.7986 43.2145 47.951 43.03 48.142ZM75.556 52.384C75.9332 52.7483 76.4384 52.9499 76.9628 52.9454C77.4872 52.9408 77.9888 52.7305 78.3596 52.3596C78.7305 51.9888 78.9408 51.4872 78.9454 50.9628C78.9499 50.4384 78.7483 49.9332 78.384 49.556L76.97 48.142C76.7855 47.951 76.5648 47.7986 76.3208 47.6938C76.0768 47.589 75.8144 47.5338 75.5488 47.5315C75.2833 47.5292 75.0199 47.5798 74.7741 47.6804C74.5283 47.7809 74.305 47.9294 74.1172 48.1172C73.9294 48.305 73.7809 48.5283 73.6804 48.7741C73.5798 49.0199 73.5292 49.2832 73.5315 49.5488C73.5338 49.8144 73.589 50.0768 73.6938 50.3208C73.7986 50.5648 73.951 50.7855 74.142 50.97L75.556 52.384ZM82 36H84C84.5304 36 85.0392 35.7893 85.4142 35.4142C85.7893 35.0391 86 34.5304 86 34C86 33.4696 85.7893 32.9609 85.4142 32.5858C85.0392 32.2107 84.5304 32 84 32H82C81.4696 32 80.9609 32.2107 80.5858 32.5858C80.2107 32.9609 80 33.4696 80 34C80 34.5304 80.2107 35.0391 80.5858 35.4142C80.9609 35.7893 81.4696 36 82 36ZM75.556 20.444C76.0864 20.4439 76.595 20.2331 76.97 19.858L78.384 18.444C78.7483 18.0668 78.9499 17.5616 78.9454 17.0372C78.9408 16.5128 78.7305 16.0112 78.3596 15.6404C77.9888 15.2695 77.4872 15.0592 76.9628 15.0547C76.4384 15.0501 75.9332 15.2517 75.556 15.616L74.142 17.03C73.8624 17.3097 73.672 17.666 73.5948 18.0539C73.5177 18.4418 73.5573 18.8439 73.7086 19.2093C73.86 19.5747 74.1163 19.887 74.4451 20.1068C74.7739 20.3266 75.1605 20.4439 75.556 20.444ZM62 34V20C62 19.4696 61.7893 18.9609 61.4142 18.5858C61.0391 18.2107 60.5304 18 60 18C59.4696 18 58.9609 18.2107 58.5858 18.5858C58.2107 18.9609 58 19.4696 58 20V32.764L51.106 36.21C50.6313 36.4471 50.2702 36.8631 50.1021 37.3664C49.9341 37.8698 49.9729 38.4193 50.21 38.894C50.4471 39.3687 50.8631 39.7298 51.3664 39.8979C51.8698 40.0659 52.4193 40.0271 52.894 39.79L60.894 35.79C61.2265 35.6239 61.5061 35.3684 61.7014 35.0522C61.8968 34.736 62.0002 34.3717 62 34Z" fill="#5CE1E6"/>
</g>
<defs>
<clipPath id="clip0_149_5958">
<rect width="120" height="120" fill="white"/>
</clipPath>
</defs>
</svg>
