<svg width="100" height="120" viewBox="0 0 100 120" fill="none" xmlns="http://www.w3.org/2000/svg">
<path d="M90 0H10.0003C4.47961 0.00632813 0.0065625 4.47961 0 10.0003V106C0 109.314 2.68594 112 6.00047 112V118C6.00034 118.53 6.2109 119.039 6.58582 119.414C6.96074 119.789 7.46932 120 7.99969 120H92.0004C93.1045 120 93.9998 119.105 93.9998 118V112C97.3132 112 100 109.314 100 106V10.0003C99.993 4.47961 95.5207 0.0065625 90 0ZM10.0003 3.99984H90C93.3134 3.99984 96.0005 6.68602 96.0005 10.0003V24.0005H3.99984V10.0003C3.99984 6.68625 6.68602 3.99984 10.0003 3.99984ZM90 116H10.0003V112H90V116ZM93.9998 108H6.00047C5.73775 108 5.47758 107.949 5.23484 107.848C4.9921 107.748 4.77154 107.6 4.58576 107.414C4.39997 107.229 4.25261 107.008 4.15207 106.765C4.05154 106.523 3.99981 106.263 3.99984 106V27.9996H96.0005V106C96.0005 106.262 95.9488 106.523 95.8483 106.765C95.7478 107.008 95.6004 107.229 95.4146 107.414C95.2289 107.6 95.0083 107.748 94.7655 107.848C94.5228 107.949 94.2626 108 93.9998 108Z" fill="#5CE1E6"/>
<path d="M10.0004 19.9998H33.9999C34.2626 19.9999 34.5227 19.9482 34.7654 19.8478C35.0081 19.7473 35.2286 19.6001 35.4144 19.4144C35.6001 19.2287 35.7475 19.0083 35.8481 18.7657C35.9487 18.523 36.0005 18.263 36.0005 18.0003V10.0004C36.0006 9.73767 35.9489 9.47751 35.8483 9.23478C35.7478 8.99206 35.6004 8.77151 35.4146 8.58575C35.2288 8.39999 35.0083 8.25265 34.7655 8.15214C34.5228 8.05164 34.2626 7.99994 33.9999 8H10.0004C9.73769 7.99997 9.47755 8.05169 9.23484 8.15221C8.99213 8.25273 8.77159 8.40007 8.58583 8.58583C8.40007 8.77159 8.25273 8.99213 8.15221 9.23484C8.05169 9.47755 7.99997 9.73769 8 10.0004V18.0003C8 19.1042 8.89531 19.9998 10.0004 19.9998ZM11.9998 11.9998H32.0005V15.9999H12.0001L11.9998 11.9998ZM45.9999 19.9998C49.314 19.9998 52.0002 17.3138 52.0002 14.0002C52.0002 10.6862 49.3142 8 45.9999 8C42.6866 8 40.0004 10.6859 40.0004 14.0002C40.0004 17.3136 42.6863 19.9998 45.9999 19.9998ZM45.9999 11.9998C46.5304 11.9998 47.0392 12.2105 47.4143 12.5855C47.7895 12.9606 48.0003 13.4693 48.0003 13.9998C48.0004 14.5302 47.7897 15.039 47.4146 15.4142C47.0396 15.7893 46.5309 16.0001 46.0004 16.0002C45.4699 16.0002 44.9611 15.7895 44.586 15.4145C44.2109 15.0394 44.0001 14.5307 44 14.0002C43.9999 13.4698 44.2106 12.961 44.5857 12.5858C44.9607 12.2107 45.4694 11.9999 45.9999 11.9998ZM61.9995 19.9998C65.3136 19.9998 68 17.3138 68 14.0002C68 10.6862 65.3138 8 61.9995 8C58.6864 8 56.0002 10.6859 56.0002 14.0002C56.0002 17.3136 58.6862 19.9998 61.9995 19.9998ZM61.9995 11.9998C62.53 11.9998 63.0388 12.2104 63.414 12.5854C63.7891 12.9605 63.9999 13.4692 64 13.9996C64.0001 14.5301 63.7895 15.0389 63.4145 15.4141C63.0394 15.7892 62.5307 16.0001 62.0002 16.0002C61.4698 16.0002 60.961 15.7896 60.5858 15.4146C60.2106 15.0395 59.9998 14.5308 59.9997 14.0004C59.9996 13.4699 60.2103 12.9611 60.5853 12.5859C60.9603 12.2108 61.4691 11.9999 61.9995 11.9998ZM74.0002 15.9999H78.0003C79.1042 15.9999 79.9998 15.1046 79.9998 14.0002C79.9998 13.7376 79.9482 13.4775 79.8477 13.2349C79.7473 12.9922 79.6 12.7717 79.4143 12.5859C79.2287 12.4002 79.0082 12.2528 78.7656 12.1523C78.523 12.0517 78.2629 11.9999 78.0003 11.9998H74.0002C73.7358 11.997 73.4734 12.0466 73.2282 12.1458C72.983 12.2451 72.76 12.3919 72.5719 12.5779C72.3839 12.7639 72.2346 12.9854 72.1328 13.2295C72.0309 13.4735 71.9784 13.7354 71.9784 13.9999C71.9784 14.2644 72.0309 14.5262 72.1328 14.7703C72.2346 15.0144 72.3839 15.2358 72.5719 15.4218C72.76 15.6078 72.983 15.7547 73.2282 15.8539C73.4734 15.9532 73.7358 16.0028 74.0002 15.9999ZM86.0002 15.9999H90.0001C90.5305 15.9999 91.0392 15.7892 91.4143 15.4141C91.7894 15.039 92.0001 14.5303 92.0001 13.9999C92.0001 13.4694 91.7894 12.9607 91.4143 12.5856C91.0392 12.2106 90.5305 11.9998 90.0001 11.9998H86.0002C85.7358 11.997 85.4734 12.0466 85.2282 12.1458C84.983 12.2451 84.76 12.3919 84.5719 12.5779C84.3839 12.7639 84.2346 12.9854 84.1328 13.2295C84.0309 13.4735 83.9784 13.7354 83.9784 13.9999C83.9784 14.2644 84.0309 14.5262 84.1328 14.7703C84.2346 15.0144 84.3839 15.2358 84.5719 15.4218C84.76 15.6078 84.983 15.7547 85.2282 15.8539C85.4734 15.9532 85.7358 16.0028 86.0002 15.9999ZM49.9998 36.0005C32.3274 36.0005 18.0003 50.3267 18.0003 67.9998C18.0003 85.6728 32.3274 100 49.9998 100C67.673 100 82.0002 85.6733 82.0002 68C81.9791 50.3359 67.6648 36.0214 49.9998 36.0005ZM49.9998 96.0005C34.5364 96.0005 22.0002 83.4641 22.0002 67.9998C22.0002 52.5357 34.5364 40.0004 49.9998 40.0004C65.4638 40.0004 78.0003 52.5357 78.0003 68C77.9839 83.4568 65.4575 95.9839 49.9998 96.0005Z" fill="#5CE1E6"/>
<path d="M50.0002 42.0004C35.6557 41.9864 24.0148 53.6036 24 67.9481C23.9971 71.3476 24.6612 74.7147 25.9547 77.8586C25.9666 77.8989 25.9547 77.9402 25.9704 77.9805C25.9868 78.0208 26.0243 78.0583 26.0445 78.105C31.6146 91.3279 46.8499 97.5316 60.0729 91.9614C63.7239 90.4232 66.9748 88.0703 69.577 85.0828C72.1792 82.0954 74.0637 78.5524 75.0865 74.7248C75.0975 74.692 75.1057 74.658 75.1123 74.624C78.8264 60.8107 70.639 46.6017 56.8245 42.8882C54.5993 42.29 52.3043 41.9916 50.0002 42.0004ZM50.0002 46.0003C62.1218 45.9719 71.9719 55.7753 72.0002 67.896C72.0042 69.5322 71.8252 71.1637 71.4666 72.76C70.4239 73.1054 69.4004 73.5061 68.4005 73.9605C65.8056 75.3071 62.9239 76.0069 60.0005 76.0003C57.5111 76.0667 55.0518 75.4438 52.8942 74.2003C50.1782 72.6889 47.1081 71.9294 44.0006 72.0002C38.9206 72.207 33.8976 73.1501 29.0885 74.8C25.3184 63.2641 31.6137 50.857 43.1494 47.0878C45.3609 46.3646 47.6734 45.9975 50.0002 46.0003ZM50.0002 90.0004C41.9381 89.995 34.5232 85.582 30.6724 78.4987C34.9733 77.0348 39.4615 76.1935 44.0006 76.0003C46.4898 75.9341 48.9488 76.557 51.1062 77.8003C53.8224 79.3118 56.8928 80.0711 60.0005 79.9999C63.3594 80.0182 66.6762 79.252 69.6867 77.7623C65.9799 85.2478 58.3535 89.9892 50.0002 90.0002V90.0004Z" fill="#5CE1E6"/>
</svg>
