<svg width="120" height="120" viewBox="0 0 120 120" fill="none" xmlns="http://www.w3.org/2000/svg">
<g clip-path="url(#clip0_149_5942)">
<path d="M114.727 13.4766H97.422C96.9558 13.4766 96.5087 13.6618 96.179 13.9914C95.8494 14.3211 95.6642 14.7682 95.6642 15.2344C95.6642 15.7006 95.8494 16.1477 96.179 16.4773C96.5087 16.807 96.9558 16.9922 97.422 16.9922H114.727C115.696 16.9922 116.484 17.7806 116.484 18.75C116.484 19.2188 116.302 19.6589 115.966 19.9936C115.804 20.1572 115.611 20.2869 115.398 20.3752C115.185 20.4635 114.957 20.5086 114.727 20.5078H43.4766V16.9922H90C90.4662 16.9922 90.9133 16.807 91.243 16.4773C91.5726 16.1477 91.7578 15.7006 91.7578 15.2344C91.7578 14.7682 91.5726 14.3211 91.243 13.9914C90.9133 13.6618 90.4662 13.4766 90 13.4766H43.4766V10.5469C43.4766 8.28539 41.6365 6.44531 39.375 6.44531H22.9688C20.7073 6.44531 18.8672 8.28539 18.8672 10.5469V13.4766H5.27346C3.86323 13.4766 2.53877 14.0264 1.5483 15.0204C1.0559 15.5084 0.665435 16.0894 0.399633 16.7297C0.133831 17.37 -0.00200625 18.0567 2.23913e-05 18.75C2.23913e-05 21.6579 2.36557 24.0234 5.27346 24.0234H18.8672V26.9531C18.8672 29.2146 20.7073 31.0547 22.9688 31.0547H39.375C41.6365 31.0547 43.4766 29.2146 43.4766 26.9531V24.0234H114.727C116.137 24.0234 117.461 23.4736 118.452 22.4796C118.944 21.9916 119.335 21.4106 119.6 20.7703C119.866 20.13 120.002 19.4433 120 18.75C120 15.8421 117.634 13.4766 114.727 13.4766ZM18.8672 20.5078H5.27346C4.30408 20.5078 3.51565 19.7194 3.51565 18.75C3.51565 18.2812 3.69823 17.8411 4.03432 17.5064C4.19645 17.3428 4.3895 17.2131 4.60223 17.1248C4.81497 17.0365 5.04314 16.9914 5.27346 16.9922H18.8672V20.5078ZM39.961 26.9531C39.961 27.2707 39.6926 27.5391 39.375 27.5391H22.9688C22.6512 27.5391 22.3828 27.2707 22.3828 26.9531V10.5469C22.3828 10.2293 22.6512 9.96094 22.9688 9.96094H39.375C39.6926 9.96094 39.961 10.2293 39.961 10.5469V26.9531ZM114.727 63.6328H88.2954V56.1328H89.0625C91.324 56.1328 93.1641 54.2927 93.1641 52.0312V49.1016H114.727C116.137 49.1016 117.461 48.5517 118.452 47.5577C118.944 47.0697 119.335 46.4887 119.6 45.8484C119.866 45.2081 120.002 44.5214 120 43.8281C120 40.9202 117.634 38.5547 114.727 38.5547H93.1641V35.625C93.1641 33.3635 91.324 31.5234 89.0625 31.5234H72.6563C70.3948 31.5234 68.5547 33.3635 68.5547 35.625V38.5547H5.27346C3.86323 38.5547 2.53877 39.1045 1.5483 40.0985C1.0559 40.5865 0.665435 41.1676 0.399633 41.8078C0.133831 42.4481 -0.00200625 43.1349 2.23913e-05 43.8281C2.23913e-05 46.736 2.36557 49.1016 5.27346 49.1016H14.9707C15.4369 49.1016 15.884 48.9164 16.2137 48.5867C16.5433 48.2571 16.7285 47.81 16.7285 47.3438C16.7285 46.8775 16.5433 46.4304 16.2137 46.1008C15.884 45.7711 15.4369 45.5859 14.9707 45.5859H5.27346C4.30408 45.5859 3.51565 44.7975 3.51565 43.8281C3.51565 43.3594 3.69823 42.9192 4.03432 42.5845C4.19645 42.4209 4.3895 42.2912 4.60223 42.2029C4.81497 42.1147 5.04314 42.0696 5.27346 42.0703H68.5547V45.5859H22.5586C22.0924 45.5859 21.6453 45.7711 21.3157 46.1008C20.986 46.4304 20.8008 46.8775 20.8008 47.3438C20.8008 47.81 20.986 48.2571 21.3157 48.5867C21.6453 48.9164 22.0924 49.1016 22.5586 49.1016H68.5547V52.0312C68.5547 54.2927 70.3948 56.1328 72.6563 56.1328H74.7502L74.7181 63.6328H51.0413V60.7031C51.0413 58.4416 49.2012 56.6016 46.9397 56.6016H30.5335C28.272 56.6016 26.4319 58.4416 26.4319 60.7031V63.6328H5.27346C3.86323 63.6328 2.53877 64.1827 1.5483 65.1766C1.0559 65.6646 0.665435 66.2457 0.399633 66.886C0.133831 67.5262 -0.00200625 68.213 2.23913e-05 68.9062C2.23913e-05 71.8141 2.36557 74.1797 5.27346 74.1797H26.4319V77.1094C26.4319 79.3709 28.272 81.2109 30.5335 81.2109H46.9397C49.2012 81.2109 51.0413 79.3709 51.0413 77.1094V74.1797H65.8252C65.1572 75.3008 64.8046 76.5817 64.8049 77.8868V82.4611C64.8049 82.9273 64.9901 83.3744 65.3198 83.7041C65.6494 84.0337 66.0966 84.2189 66.5628 84.2189C67.029 84.2189 67.4761 84.0337 67.8057 83.7041C68.1354 83.3744 68.3206 82.9273 68.3206 82.4611V77.8868C68.3206 75.9258 69.8328 74.2955 71.7188 74.1797H72.2145C72.9778 74.2416 73.5699 74.5732 74.055 75.2037C74.3479 75.5839 74.7523 75.8632 75.2117 76.0023C75.6711 76.1415 76.1625 76.1335 76.6172 75.9797C77.0742 75.8255 77.4715 75.5323 77.7537 75.1411C78.0359 74.75 78.1888 74.2804 78.191 73.7981L78.1969 72.4336C78.1969 72.4296 78.1976 72.4259 78.1976 72.4219L78.1971 72.412L78.274 54.3942C78.274 54.3879 78.2749 54.3816 78.2749 54.375L78.2742 54.3588L78.2979 48.8306C78.2996 47.0414 79.7536 45.5859 81.5393 45.5859C82.4051 45.5859 83.2188 45.9232 83.8308 46.5359C84.133 46.8368 84.3725 47.1947 84.5355 47.5888C84.6985 47.9828 84.7818 48.4053 84.7805 48.8318V64.8668C84.7805 67.8879 87.2367 70.3455 90.256 70.3455H100.512C104.603 70.3455 107.93 73.677 107.93 77.7722V100.972C107.93 102.095 107.019 103.008 105.898 103.008H77.2585C72.3303 103.008 68.321 98.9944 68.321 94.0612V90C68.321 89.5338 68.1358 89.0867 67.8062 88.757C67.4765 88.4274 67.0294 88.2422 66.5632 88.2422C66.097 88.2422 65.6499 88.4274 65.3203 88.757C64.9906 89.0867 64.8054 89.5338 64.8054 90V94.061C64.8054 100.445 69.6274 105.72 75.817 106.437V110.899C75.817 112.363 77.0084 113.555 78.4732 113.555H104.802C106.266 113.555 107.458 112.363 107.458 110.899V106.299C109.76 105.622 111.446 103.491 111.446 100.972V77.7719C111.446 76.5138 111.23 75.3056 110.838 74.1797H114.727C116.137 74.1797 117.461 73.6298 118.452 72.6359C118.944 72.1479 119.335 71.5668 119.6 70.9265C119.866 70.2863 120.002 69.5995 120 68.9062C120 65.9984 117.634 63.6328 114.727 63.6328ZM93.1641 42.0703H114.727C115.696 42.0703 116.484 42.8587 116.484 43.8281C116.484 44.2969 116.302 44.737 115.966 45.0717C115.804 45.2353 115.611 45.365 115.398 45.4533C115.185 45.5416 114.957 45.5867 114.727 45.5859H93.1641V42.0703ZM26.4319 70.6641H5.27346C4.30408 70.6641 3.51565 69.8756 3.51565 68.9062C3.51565 68.4375 3.69823 67.9973 4.03432 67.6627C4.19645 67.4991 4.3895 67.3693 4.60223 67.2811C4.81497 67.1928 5.04314 67.1477 5.27346 67.1484H26.4319V70.6641ZM47.5256 77.1094C47.5256 77.427 47.2573 77.6953 46.9397 77.6953H30.5335C30.2159 77.6953 29.9475 77.427 29.9475 77.1094V72.4399C29.9475 72.4338 29.9485 72.428 29.9485 72.4219C29.9485 72.4158 29.9475 72.4099 29.9475 72.4038V65.4089C29.9475 65.4028 29.9485 65.397 29.9485 65.3909C29.9485 65.3848 29.9475 65.3789 29.9475 65.3728V60.7031C29.9475 60.3855 30.2159 60.1172 30.5335 60.1172H46.9397C47.2573 60.1172 47.5256 60.3855 47.5256 60.7031V77.1094ZM74.6883 70.6641H72.2843C72.1199 70.6552 71.9552 70.652 71.7905 70.6545C71.7202 70.6559 71.6506 70.6605 71.5807 70.6641H51.0413V67.1484H74.7033L74.6883 70.6641ZM86.3171 44.0513C85.0409 42.7737 83.3438 42.0703 81.5384 42.0703C77.8163 42.0703 74.7851 45.1015 74.7813 48.8215L74.7652 52.6172H72.6563C72.3387 52.6172 72.0703 52.3488 72.0703 52.0312V35.625C72.0703 35.3074 72.3387 35.0391 72.6563 35.0391H89.0625C89.3801 35.0391 89.6485 35.3074 89.6485 35.625V52.0312C89.6485 52.3488 89.3801 52.6172 89.0625 52.6172H88.2954V48.8318C88.2954 47.0257 87.5928 45.3279 86.3171 44.0513ZM103.941 110.039H79.332V106.523H103.941V110.039ZM115.966 70.1498C115.804 70.3134 115.611 70.4432 115.398 70.5314C115.185 70.6197 114.957 70.6648 114.727 70.6641H108.814C107.352 68.9562 105.376 67.7032 103.126 67.1484H114.727C115.696 67.1484 116.484 67.9369 116.484 68.9062C116.484 69.375 116.302 69.8152 115.966 70.1498Z" fill="#5CE1E6"/>
</g>
<defs>
<clipPath id="clip0_149_5942">
<rect width="120" height="120" fill="white"/>
</clipPath>
</defs>
</svg>
