<svg width="120" height="120" viewBox="0 0 120 120" fill="none" xmlns="http://www.w3.org/2000/svg">
<path d="M92.0767 78.9603C91.4235 77.5491 90.0517 76.6721 88.4969 76.6721H77.0995V50.2671C77.0995 46.9507 74.4013 44.2526 71.0849 44.2526H70.7188L83.0425 29.0079C83.2651 28.7326 83.4052 28.3999 83.4466 28.0483C83.488 27.6967 83.429 27.3405 83.2765 27.0211C83.1239 26.7016 82.884 26.4318 82.5846 26.243C82.2851 26.0542 81.9383 25.954 81.5842 25.954H63.8177L65.1044 3.85855C65.1275 3.45956 65.0226 3.06361 64.8048 2.72848C64.5871 2.39334 64.268 2.13654 63.894 1.99555C63.52 1.85456 63.1108 1.83675 62.726 1.94472C62.3412 2.05268 62.001 2.28078 61.7549 2.59573L35.3601 36.3919C35.1439 36.6688 35.0098 37.0008 34.9731 37.3502C34.9364 37.6996 34.9986 38.0522 35.1526 38.368C35.3066 38.6837 35.5462 38.9498 35.8442 39.136C36.1421 39.3222 36.4863 39.4209 36.8376 39.421H54.4851L53.9212 44.2524H48.9159C45.5995 44.2524 42.9011 46.9505 42.9011 50.2669V76.6721H31.5039C29.9486 76.6721 28.5768 77.5489 27.9238 78.9607C27.2709 80.3719 27.4905 81.9851 28.4969 83.1701L56.9934 116.733C57.7558 117.631 58.8236 118.125 60.0004 118.125C61.1772 118.125 62.245 117.631 63.0077 116.733L91.5039 83.1701C92.5101 81.9849 92.7299 80.3719 92.0767 78.9603ZM40.6811 35.671L61.0112 9.63988L59.9584 27.7203C59.9437 27.9752 59.9811 28.2305 60.0685 28.4705C60.1559 28.7104 60.2913 28.93 60.4666 29.1158C60.6418 29.3015 60.8532 29.4495 61.0876 29.5507C61.3221 29.6519 61.5748 29.7042 61.8302 29.7042H77.6573L56.3137 56.1068L58.4545 37.7635C58.4851 37.5007 58.4598 37.2343 58.3802 36.982C58.3006 36.7297 58.1685 36.497 57.9926 36.2994C57.8166 36.1018 57.6009 35.9436 57.3595 35.8353C57.1181 35.727 56.8565 35.671 56.5919 35.671H40.6811ZM88.6452 80.7432L60.1495 114.305C60.0984 114.365 60.0789 114.375 60.0004 114.375C59.9221 114.375 59.9027 114.366 59.852 114.306L31.3555 80.7429C31.2946 80.6712 31.2878 80.6208 31.3274 80.535C31.367 80.4497 31.4099 80.4223 31.5041 80.4223H44.7763C45.2736 80.4223 45.7505 80.2248 46.1022 79.8731C46.4538 79.5215 46.6513 79.0446 46.6513 78.5473V50.2671C46.6513 49.0184 47.6673 48.0026 48.9161 48.0026H53.4838L51.8383 62.1043C51.7914 62.5078 51.8768 62.9156 52.0817 63.2665C52.2866 63.6173 52.5999 63.8921 52.9744 64.0495C53.3489 64.207 53.7644 64.2386 54.1584 64.1395C54.5524 64.0405 54.9036 63.8162 55.1591 63.5004L67.6874 48.0026H71.0852C72.3339 48.0026 73.3497 49.0184 73.3497 50.2671V78.5473C73.3497 79.0446 73.5472 79.5215 73.8989 79.8731C74.2505 80.2248 74.7274 80.4223 75.2247 80.4223H88.4971C88.5913 80.4223 88.6342 80.4497 88.6738 80.535C88.7132 80.6206 88.7064 80.6712 88.6452 80.7432Z" fill="#5CE1E6"/>
</svg>
