<svg width="120" height="120" viewBox="0 0 120 120" fill="none" xmlns="http://www.w3.org/2000/svg">
<path fill-rule="evenodd" clip-rule="evenodd" d="M47.4996 12.5C41.8494 12.4997 36.283 13.8674 31.2763 16.4862C26.2696 19.105 21.9713 22.897 18.7487 27.5381C15.5262 32.1793 13.4752 37.5317 12.7709 43.1379C12.0667 48.7441 12.7303 54.4374 14.7049 59.7314C16.6795 65.0254 19.9064 69.7626 24.1099 73.5383C28.3134 77.314 33.3685 80.0159 38.8433 81.4131C44.3181 82.8102 50.0498 82.8612 55.5485 81.5616C61.0473 80.2619 66.1496 77.6504 70.4196 73.95L74.4546 77.99C73.7864 79.3895 73.5685 80.9618 73.8308 82.4903C74.0932 84.0188 74.8229 85.4284 75.9196 86.525L91.5196 102.125C92.2118 102.841 93.0397 103.412 93.9549 103.805C94.8701 104.197 95.8543 104.404 96.8502 104.412C97.846 104.42 98.8335 104.23 99.7551 103.852C100.677 103.475 101.514 102.917 102.218 102.213C102.921 101.508 103.478 100.671 103.855 99.7488C104.231 98.8269 104.421 97.8392 104.411 96.8434C104.402 95.8476 104.195 94.8635 103.801 93.9487C103.408 93.0338 102.836 92.2065 102.12 91.515L86.5246 75.915C85.428 74.8183 84.0184 74.0886 82.4899 73.8262C80.9614 73.5639 79.3891 73.7818 77.9896 74.45L73.9546 70.42C78.3487 65.3489 81.1924 59.1217 82.1472 52.48C83.1019 45.8383 82.1273 39.0622 79.3396 32.9587C76.5518 26.8553 72.0684 21.6818 66.4234 18.0546C60.7783 14.4274 54.2096 12.4993 47.4996 12.5ZM17.4996 47.5C17.4996 43.5603 18.2756 39.6593 19.7832 36.0195C21.2909 32.3797 23.5006 29.0726 26.2864 26.2868C29.0722 23.501 32.3793 21.2913 36.0191 19.7836C39.6589 18.276 43.56 17.5 47.4996 17.5C51.4393 17.5 55.3403 18.276 58.9801 19.7836C62.6199 21.2913 65.9271 23.501 68.7128 26.2868C71.4986 29.0726 73.7084 32.3797 75.216 36.0195C76.7236 39.6593 77.4996 43.5603 77.4996 47.5C77.4996 55.4565 74.3389 63.0871 68.7128 68.7132C63.0867 74.3393 55.4561 77.5 47.4996 77.5C39.5431 77.5 31.9125 74.3393 26.2864 68.7132C20.6603 63.0871 17.4996 55.4565 17.4996 47.5ZM98.5896 95.05L82.9896 79.45C82.7572 79.2179 82.4813 79.0338 82.1777 78.9083C81.8741 78.7829 81.5488 78.7184 81.2203 78.7186C80.8919 78.7188 80.5666 78.7838 80.2632 78.9097C79.9598 79.0356 79.6842 79.2201 79.4521 79.4525C79.22 79.6849 79.0359 79.9608 78.9105 80.2644C78.785 80.568 78.7205 80.8933 78.7207 81.2218C78.721 81.5503 78.7859 81.8755 78.9118 82.1789C79.0377 82.4823 79.2222 82.7579 79.4546 82.99L95.0546 98.59C95.287 98.8221 95.5629 99.0062 95.8665 99.1317C96.1701 99.2572 96.4954 99.3216 96.8239 99.3214C97.1524 99.3212 97.4776 99.2562 97.781 99.1303C98.0844 99.0044 98.36 98.82 98.5921 98.5875C98.8242 98.3551 99.0083 98.0792 99.1338 97.7756C99.2593 97.472 99.3237 97.1467 99.3235 96.8182C99.3233 96.4897 99.2583 96.1645 99.1324 95.8611C99.0065 95.5577 98.8221 95.2821 98.5896 95.05Z" fill="#5CE1E6"/>
</svg>
