<svg width="80" height="80" viewBox="0 0 80 80" fill="none" xmlns="http://www.w3.org/2000/svg">
<path fill-rule="evenodd" clip-rule="evenodd" d="M23.8222 50.4492C23.6683 50.4491 23.516 50.4187 23.3738 50.3597C23.2317 50.3007 23.1026 50.2143 22.9938 50.1054C22.8851 49.9965 22.7989 49.8672 22.7401 49.725C22.6813 49.5828 22.6511 49.4304 22.6512 49.2765C22.6513 49.1226 22.6817 48.9702 22.7407 48.8281C22.7997 48.686 22.8861 48.5568 22.995 48.4481C23.1039 48.3394 23.2332 48.2531 23.3754 48.1943C23.5176 48.1356 23.67 48.1054 23.8239 48.1055C24.1347 48.1057 24.4327 48.2294 24.6523 48.4493C24.8719 48.6692 24.9952 48.9674 24.995 49.2782C24.9947 49.589 24.871 49.887 24.6511 50.1066C24.4312 50.3262 24.133 50.4494 23.8222 50.4492ZM65.2816 61.3841H77.4996C78.5671 61.3841 79.1397 62.7488 78.1941 63.4997L70.5566 70.028L78.2594 76.612C79.0843 77.3173 78.5772 78.6683 77.4996 78.6688V78.6719H56.5683C56.2575 78.6719 55.9594 78.5484 55.7397 78.3286C55.5199 78.1089 55.3964 77.8108 55.3964 77.5V73.3858H24.6027V77.5C24.6027 77.8108 24.4792 78.1089 24.2595 78.3286C24.0397 78.5484 23.7416 78.6719 23.4308 78.6719H2.49956V78.6688C1.42191 78.6683 0.914877 77.3173 1.73972 76.612L9.44253 70.028L1.80503 63.4997C0.859408 62.7486 1.43206 61.3841 2.49956 61.3841H14.7175V59.2978C14.7175 57.4141 16.2544 55.877 18.1383 55.877H61.8608C63.7447 55.877 65.2816 57.4139 65.2816 59.2978V61.3841ZM57.7402 73.3856V76.3281H74.3297L67.8697 70.7878C67.7699 70.6712 67.6941 70.5361 67.6465 70.3901C67.5989 70.2442 67.5806 70.0903 67.5925 69.9373C67.6043 69.7843 67.6463 69.6351 67.7158 69.4982C67.7854 69.3614 67.8812 69.2396 67.9978 69.1398L74.3297 63.7277H65.2816V69.9648C65.2816 71.8487 63.7447 73.3856 61.8608 73.3856H57.7402ZM14.7175 63.7277H5.66941L12.0013 69.1398C12.5555 69.6137 12.5378 70.4633 11.9885 70.9269L5.66941 76.3281H22.2589V73.3858H18.1383C16.2544 73.3858 14.7175 71.8489 14.7175 69.965V63.7277ZM61.8608 58.2208H18.1383C17.5483 58.2208 17.0613 58.7078 17.0613 59.2978V69.965C17.0613 70.555 17.5483 71.042 18.1383 71.042H61.8608C62.4508 71.042 62.9378 70.555 62.9378 69.965V59.2978C62.9378 58.7078 62.4508 58.2208 61.8608 58.2208ZM64.4614 40.0295H64.5852C64.8533 40.0295 65.1133 39.9375 65.3218 39.7691C65.5303 39.6006 65.6748 39.3657 65.7311 39.1036L72.2272 15.1428C73.4202 15.1348 74.4997 14.648 75.2828 13.8648C78.0252 11.1225 76.0717 6.41625 72.1975 6.41625C69.263 6.41625 67.1764 9.25547 68.0207 12.0452L57.6352 18.6406L45.1505 7.60219C46.5543 4.72594 44.4603 1.32812 41.2268 1.32812C37.993 1.32812 35.8996 4.72594 37.3032 7.60234L24.7708 18.6828L12.0536 11.7638C12.2205 11.0422 12.201 10.29 11.9969 9.57812C11.7928 8.8662 11.4109 8.21794 10.8871 7.69438C8.14472 4.95203 3.43831 6.90531 3.43831 10.7797C3.43831 13.313 5.5891 15.3158 8.12206 15.1314L16.7699 39.2514C16.851 39.4778 17.0001 39.6736 17.1968 39.8121C17.3934 39.9505 17.628 40.0249 17.8685 40.025V40.0297H17.9922L19.0414 44.5072C17.8741 45.0463 17.0883 46.222 17.0883 47.5519V51.003C17.0883 52.8488 18.5939 54.3544 20.4397 54.3544H62.0139C63.8597 54.3544 65.3653 52.8486 65.3653 51.003V47.5519C65.3653 46.2222 64.5794 45.0463 63.4122 44.5072L64.4614 40.0295ZM61.08 44.2003H21.3738L20.3964 40.0295H62.0574L61.08 44.2003ZM38.85 9.35125C40.2922 10.29 42.1613 10.29 43.6035 9.35125L56.6797 20.9127C56.8671 21.1066 57.1156 21.23 57.3833 21.262C57.6511 21.2939 57.9217 21.2325 58.1494 21.0881L69.2767 14.0214C69.4898 14.2135 69.7212 14.3841 69.9677 14.5309L63.6902 37.6858H18.6882L10.3193 14.3438L10.9366 13.8145L24.3661 21.1211C24.5772 21.2378 24.8192 21.2863 25.0589 21.2599C25.2986 21.2334 25.5243 21.1334 25.7049 20.9736L38.85 9.35125ZM42.2022 17.9709L46.6816 24.4064C46.8203 24.6059 46.8935 24.8436 46.8911 25.0866C46.8886 25.3296 46.8107 25.5658 46.668 25.7625L42.1882 32.1986C41.7074 32.8898 40.7085 32.8506 40.2514 32.1784L35.7721 25.743C35.6334 25.5435 35.5602 25.3057 35.5626 25.0628C35.565 24.8198 35.643 24.5836 35.7857 24.3869L40.2655 17.9508C40.7419 17.2659 41.7528 17.2942 42.2022 17.9709ZM44.2938 25.0747L41.2268 29.4809L38.1599 25.0747L41.2268 20.6684L44.2938 25.0747ZM9.22988 9.35141C10.0185 10.14 10.0185 11.4192 9.22988 12.2078C7.96113 13.4766 5.78206 12.5739 5.78206 10.7797C5.78206 8.98547 7.96128 8.08281 9.22988 9.35141ZM42.655 4.26328C43.4436 5.05187 43.4436 6.33109 42.655 7.11969C41.3864 8.38828 39.2072 7.48578 39.2072 5.69156C39.2072 3.89719 41.3863 2.99469 42.655 4.26328ZM73.6257 9.35141C74.4143 10.14 74.4143 11.4192 73.6257 12.2078C72.3569 13.4766 70.1778 12.5739 70.1778 10.7797C70.1778 8.98547 72.3569 8.08281 73.6257 9.35141ZM62.0139 46.5441H20.4397C19.8878 46.5441 19.4321 47 19.4321 47.5517V51.0028C19.4321 51.5547 19.8878 52.0106 20.4397 52.0106H62.0139C62.5658 52.0106 63.0216 51.5548 63.0216 51.0028V47.5517C63.0216 47 62.5658 46.5441 62.0139 46.5441ZM58.6297 50.4492C58.4758 50.4491 58.3235 50.4187 58.1813 50.3597C58.0392 50.3007 57.9101 50.2143 57.8013 50.1054C57.6926 49.9965 57.6064 49.8672 57.5476 49.725C57.4888 49.5828 57.4586 49.4304 57.4587 49.2765C57.4588 49.1226 57.4892 48.9702 57.5482 48.8281C57.6072 48.686 57.6936 48.5568 57.8025 48.4481C57.9114 48.3394 58.0407 48.2531 58.1829 48.1943C58.3251 48.1356 58.4775 48.1054 58.6314 48.1055C58.9422 48.1057 59.2402 48.2294 59.4598 48.4493C59.6794 48.6692 59.8027 48.9674 59.8025 49.2782C59.8022 49.589 59.6785 49.887 59.4586 50.1066C59.2387 50.3262 58.9405 50.4494 58.6297 50.4492ZM51.6683 50.4492C51.3575 50.449 51.0595 50.3253 50.8399 50.1054C50.6203 49.8854 50.4971 49.5873 50.4973 49.2765C50.4975 48.9657 50.6212 48.6677 50.8411 48.4481C51.0611 48.2285 51.3592 48.1052 51.67 48.1055C51.8239 48.1056 51.9763 48.136 52.1184 48.195C52.2606 48.254 52.3897 48.3404 52.4984 48.4493C52.6072 48.5582 52.6934 48.6875 52.7522 48.8297C52.811 48.9719 52.8412 49.1243 52.841 49.2782C52.8409 49.4321 52.8105 49.5845 52.7515 49.7266C52.6925 49.8687 52.6061 49.9979 52.4972 50.1066C52.3883 50.2153 52.2591 50.3016 52.1168 50.3603C51.9746 50.4191 51.8222 50.4493 51.6683 50.4492ZM44.7068 50.4492C44.396 50.449 44.098 50.3253 43.8784 50.1054C43.6588 49.8854 43.5355 49.5873 43.5357 49.2765C43.536 48.9657 43.6596 48.6677 43.8796 48.4481C44.0995 48.2285 44.3977 48.1052 44.7085 48.1055C44.8624 48.1056 45.0147 48.136 45.1569 48.195C45.299 48.254 45.4281 48.3404 45.5369 48.4493C45.6456 48.5582 45.7318 48.6875 45.7906 48.8297C45.8494 48.9719 45.8796 49.1243 45.8795 49.2782C45.8794 49.4321 45.8489 49.5845 45.79 49.7266C45.731 49.8687 45.6445 49.9979 45.5356 50.1066C45.4267 50.2153 45.2975 50.3016 45.1553 50.3603C45.0131 50.4191 44.8606 50.4493 44.7068 50.4492ZM37.7452 50.4492C37.4344 50.449 37.1364 50.3253 36.9168 50.1054C36.6972 49.8854 36.5739 49.5873 36.5742 49.2765C36.5744 48.9657 36.6981 48.6677 36.918 48.4481C37.1379 48.2285 37.4361 48.1052 37.7469 48.1055C37.9008 48.1056 38.0532 48.136 38.1953 48.195C38.3374 48.254 38.4666 48.3404 38.5753 48.4493C38.684 48.5582 38.7703 48.6875 38.829 48.8297C38.8878 48.9719 38.918 49.1243 38.9179 49.2782C38.9178 49.4321 38.8874 49.5845 38.8284 49.7266C38.7694 49.8687 38.683 49.9979 38.5741 50.1066C38.4652 50.2153 38.3359 50.3016 38.1937 50.3603C38.0515 50.4191 37.8991 50.4493 37.7452 50.4492ZM30.7836 50.4492C30.6297 50.4491 30.4774 50.4187 30.3352 50.3597C30.1931 50.3007 30.064 50.2143 29.9552 50.1054C29.8465 49.9965 29.7603 49.8672 29.7015 49.725C29.6427 49.5828 29.6125 49.4304 29.6126 49.2765C29.6127 49.1226 29.6431 48.9702 29.7021 48.8281C29.7611 48.686 29.8476 48.5568 29.9565 48.4481C30.0654 48.3394 30.1946 48.2531 30.3368 48.1943C30.479 48.1356 30.6315 48.1054 30.7853 48.1055C31.0961 48.1057 31.3941 48.2294 31.6137 48.4493C31.8333 48.6692 31.9566 48.9674 31.9564 49.2782C31.9561 49.589 31.8324 49.887 31.6125 50.1066C31.3926 50.3262 31.0944 50.4494 30.7836 50.4492Z" fill="#5CE1E6"/>
</svg>
