<svg width="120" height="120" viewBox="0 0 120 120" fill="none" xmlns="http://www.w3.org/2000/svg">
<path d="M117 112.8C112.621 112.933 108.294 111.835 104.508 109.632C99.6245 106.89 94.0992 105.499 88.4998 105.6C82.9053 105.475 77.379 106.846 72.4918 109.572C68.7113 111.794 64.3837 112.913 59.9998 112.8C55.6228 112.913 51.3009 111.803 47.5198 109.596C42.6349 106.862 37.1085 105.482 31.5118 105.6C25.9134 105.474 20.383 106.845 15.4918 109.572C11.7096 111.79 7.38315 112.908 2.9998 112.8C2.68154 112.8 2.37632 112.926 2.15128 113.151C1.92623 113.376 1.7998 113.682 1.7998 114C1.7998 114.318 1.92623 114.623 2.15128 114.848C2.37632 115.073 2.68154 115.2 2.9998 115.2C7.751 115.319 12.4442 114.136 16.5718 111.78C21.1265 109.212 26.2841 107.907 31.5118 108C36.7344 107.885 41.8926 109.17 46.4518 111.72C50.5673 114.09 55.2514 115.293 59.9998 115.2C64.7474 115.321 69.4373 114.138 73.5598 111.78C78.114 109.211 83.2719 107.906 88.4998 108C93.7224 107.885 98.8806 109.17 103.44 111.72C107.559 114.092 112.247 115.296 117 115.2C117.318 115.2 117.623 115.073 117.848 114.848C118.073 114.623 118.2 114.318 118.2 114C118.2 113.682 118.073 113.376 117.848 113.151C117.623 112.926 117.318 112.8 117 112.8ZM2.9998 89.0038C7.74914 89.1195 12.4405 87.9415 16.5718 85.5958C21.1319 83.048 26.2894 81.7638 31.5118 81.8758C36.7338 81.7673 41.8904 83.0513 46.4518 85.5958C50.5745 87.9412 55.2581 89.1194 59.9998 89.0038C64.7456 89.1215 69.4336 87.9433 73.5598 85.5958C78.1161 83.0495 83.2694 81.7653 88.4878 81.8758C93.7104 81.7614 98.8686 83.0458 103.428 85.5958C107.554 87.9433 112.242 89.1215 116.988 89.0038C117.306 89.0038 117.611 88.8774 117.836 88.6523C118.061 88.4273 118.188 88.1221 118.188 87.8038C118.188 87.4855 118.061 87.1803 117.836 86.9553C117.611 86.7302 117.306 86.6038 116.988 86.6038C112.611 86.7338 108.285 85.6409 104.496 83.4478C99.6092 80.7206 94.0825 79.3493 88.4878 79.4758C82.8933 79.3511 77.367 80.7223 72.4798 83.4478C68.6954 85.6429 64.3727 86.736 59.9998 86.6038C55.6274 86.7316 51.3058 85.6387 47.5198 83.4478C42.6326 80.7223 37.1063 79.3511 31.5118 79.4758C25.9134 79.3501 20.383 80.7213 15.4918 83.4478C11.7023 85.6409 7.37626 86.7338 2.9998 86.6038C2.68154 86.6038 2.37632 86.7302 2.15128 86.9553C1.92623 87.1803 1.7998 87.4855 1.7998 87.8038C1.7998 88.1221 1.92623 88.4273 2.15128 88.6523C2.37632 88.8774 2.68154 89.0038 2.9998 89.0038ZM117 99.6718C112.623 99.8018 108.297 98.7089 104.508 96.5158C99.6196 93.7939 94.0932 92.4268 88.4998 92.5558C82.9066 92.4286 77.3806 93.7956 72.4918 96.5158C68.704 98.7131 64.3767 99.8063 59.9998 99.6718C55.6274 99.7996 51.3058 98.7067 47.5198 96.5158C42.631 93.7956 37.105 92.4286 31.5118 92.5558C25.9148 92.4287 20.385 93.7957 15.4918 96.5158C11.7023 98.7089 7.37626 99.8018 2.9998 99.6718C2.68154 99.6718 2.37632 99.7982 2.15128 100.023C1.92623 100.248 1.7998 100.554 1.7998 100.872C1.7998 101.19 1.92623 101.495 2.15128 101.72C2.37632 101.945 2.68154 102.072 2.9998 102.072C7.74934 102.189 12.4412 101.011 16.5718 98.6638C21.1335 96.1213 26.2907 94.8413 31.5118 94.9558C36.7325 94.8447 41.8889 96.1245 46.4518 98.6638C50.5745 101.009 55.2581 102.187 59.9998 102.072C64.7456 102.19 69.4336 101.011 73.5598 98.6638C78.1175 96.1222 83.2706 94.8423 88.4878 94.9558C93.713 94.8391 98.8746 96.1192 103.44 98.6638C107.566 101.011 112.254 102.19 117 102.072C117.318 102.072 117.623 101.945 117.848 101.72C118.073 101.495 118.2 101.19 118.2 100.872C118.2 100.554 118.073 100.248 117.848 100.023C117.623 99.7982 117.318 99.6718 117 99.6718ZM4.0678 19.0678H29.9998C30.2049 19.0669 30.4063 19.0136 30.5849 18.9127C30.7634 18.8119 30.9132 18.667 31.0198 18.4918C31.1251 18.3094 31.1806 18.1024 31.1806 17.8918C31.1806 17.6812 31.1251 17.4742 31.0198 17.2918C30.5136 16.2025 29.7125 15.2766 28.7073 14.6192C27.702 13.9617 26.5327 13.5989 25.3318 13.5718H25.0558C24.7861 13.5662 24.5235 13.4844 24.2983 13.3357C24.0732 13.1871 23.8948 12.9777 23.7838 12.7318C23.0543 11.1419 21.8944 9.78791 20.4354 8.82299C18.9764 7.85806 17.2764 7.32074 15.5278 7.2718C11.3158 7.2718 7.6318 10.4158 6.3478 15.0958C6.28991 15.4158 6.13417 15.71 5.90205 15.9379C5.66993 16.1657 5.37287 16.3159 5.0518 16.3678C4.51803 16.3969 3.99743 16.5444 3.5278 16.7998C3.28594 16.9221 3.09262 17.1228 2.97931 17.369C2.866 17.6152 2.83939 17.8925 2.9038 18.1558C2.96812 18.416 3.11768 18.6471 3.32864 18.8124C3.53959 18.9777 3.79981 19.0676 4.0678 19.0678ZM8.6638 15.7558C9.6598 12.1558 12.4198 9.75581 15.5278 9.75581C16.821 9.81529 18.0726 10.2312 19.1442 10.9576C20.2158 11.684 21.0656 12.6926 21.5998 13.8718C21.9106 14.5089 22.3933 15.0465 22.9933 15.4239C23.5934 15.8013 24.2869 16.0036 24.9958 16.0078H25.3558C26.0719 16.0286 26.7655 16.2626 27.3478 16.6798H8.3158C8.46448 16.3851 8.58114 16.0754 8.6638 15.7558ZM39.3718 28.8718H115.932C116.108 28.8721 116.282 28.8335 116.442 28.7589C116.602 28.6842 116.743 28.5753 116.856 28.4398C116.967 28.3042 117.048 28.1458 117.091 27.9758C117.135 27.8058 117.14 27.6283 117.108 27.4558C115.644 19.5358 109.584 13.7878 102.708 13.7878C101.286 13.7897 99.8747 14.029 98.5318 14.4958C98.4146 14.5158 98.294 14.4974 98.188 14.4434C98.0821 14.3893 97.9964 14.3025 97.9438 14.1958C96.7283 12.1575 95.0147 10.4616 92.9639 9.26721C90.9131 8.07286 88.5925 7.41926 86.2198 7.3678C83.2617 7.38903 80.3965 8.40327 78.0838 10.2478C78.0007 10.3299 77.8886 10.3759 77.7718 10.3759C77.655 10.3759 77.5429 10.3299 77.4598 10.2478C75.8616 8.56505 73.9448 7.21684 71.8208 6.28156C69.6969 5.34628 67.4082 4.84259 65.0878 4.7998C56.7358 4.7998 49.3918 11.1598 46.7998 20.5318C46.6918 20.9038 46.4518 21.1798 46.1998 21.1798C44.4381 21.3121 42.7515 21.948 41.3409 23.0118C39.9304 24.0756 38.8553 25.5223 38.2438 27.1798C38.1666 27.3622 38.1357 27.5609 38.1539 27.7581C38.1721 27.9553 38.2388 28.145 38.3481 28.3101C38.4574 28.4753 38.6059 28.6108 38.7804 28.7046C38.9548 28.7985 39.1497 28.8476 39.3478 28.8478L39.3718 28.8718ZM46.3078 23.5798C46.9741 23.534 47.6082 23.2763 48.1177 22.8446C48.6272 22.4128 48.9853 21.8295 49.1398 21.1798C51.4198 12.8398 57.8278 7.1998 65.0878 7.1998C67.0844 7.23169 69.055 7.65846 70.886 8.4555C72.7169 9.25255 74.372 10.4041 75.7558 11.8438C76.2433 12.3543 76.9045 12.6633 77.6088 12.71C78.3131 12.7566 79.0092 12.5375 79.5598 12.0958C81.4471 10.5703 83.7932 9.72483 86.2198 9.6958C88.2104 9.74755 90.1545 10.3086 91.8667 11.3253C93.5788 12.3421 95.0018 13.7807 95.9998 15.5038C96.3271 16.0594 96.8313 16.4891 97.4318 16.7241C98.0324 16.9591 98.6944 16.9858 99.3118 16.7998C100.403 16.4185 101.551 16.2237 102.708 16.2238C108 16.1878 112.8 20.3998 114.432 26.4718H41.3878C41.928 25.6418 42.6536 24.9485 43.5074 24.4466C44.3611 23.9448 45.3198 23.648 46.3078 23.5798ZM16.7998 51.5998C16.7443 51.8976 16.6 52.1716 16.3858 52.3858C16.1716 52.6 15.8976 52.7443 15.5998 52.7998C15.1915 52.8134 14.7873 52.8862 14.3998 53.0158C14.0815 53.0635 13.7953 53.2358 13.604 53.4946C13.4127 53.7534 13.3321 54.0775 13.3798 54.3958C13.4275 54.7141 13.5998 55.0003 13.8586 55.1916C14.1174 55.3829 14.4415 55.4635 14.7598 55.4158H58.6318C58.8284 55.4161 59.022 55.3681 59.1957 55.276C59.3693 55.184 59.5177 55.0507 59.6278 54.8878C59.7373 54.7232 59.8045 54.5341 59.8233 54.3374C59.8422 54.1406 59.8121 53.9422 59.7358 53.7598C59.1521 52.1563 58.1067 50.7615 56.7314 49.7514C55.3561 48.7413 53.7125 48.161 52.0078 48.0838C51.1902 48.0912 50.3793 48.2331 49.6078 48.5038C49.3503 48.5682 49.0787 48.5455 48.8355 48.4391C48.5923 48.3327 48.3912 48.1487 48.2638 47.9158C47.5531 46.7289 46.5527 45.7418 45.3564 45.0471C44.16 44.3524 42.8069 43.9728 41.4238 43.9438C39.6785 43.9487 37.9864 44.5452 36.6238 45.6358C36.4139 45.809 36.1446 45.8934 35.8734 45.871C35.6022 45.8485 35.3504 45.7211 35.1718 45.5158C34.2083 44.5197 33.0566 43.7246 31.7837 43.1767C30.5107 42.6288 29.1416 42.3389 27.7558 42.3238C22.7998 42.3118 18.3598 46.0558 16.7998 51.5998ZM38.0398 47.4838C38.974 46.7249 40.1363 46.3022 41.3398 46.2838C42.3175 46.3217 43.2698 46.6054 44.1088 47.1088C44.9478 47.6122 45.6463 48.319 46.1398 49.1638C46.5577 49.8795 47.2097 50.4292 47.9858 50.72C48.7619 51.0107 49.6145 51.0248 50.3998 50.7598C51.5449 50.4164 52.7699 50.4491 53.8951 50.8529C55.0203 51.2568 55.9864 52.0106 56.6518 53.0038H18.8758C18.9874 52.7635 19.0797 52.5147 19.1518 52.2598C20.3518 47.7478 23.8318 44.7118 27.7318 44.7118C28.8032 44.731 29.8602 44.9614 30.8424 45.3897C31.8246 45.818 32.7127 46.4358 33.4558 47.2078C34.0466 47.8304 34.8506 48.2071 35.707 48.2627C36.5635 48.3183 37.4094 48.0487 38.0758 47.5078L38.0398 47.4838Z" fill="#5CE1E6"/>
</svg>
