<svg width="80" height="80" viewBox="0 0 80 80" fill="none" xmlns="http://www.w3.org/2000/svg">
<path d="M14.4581 61.2578C14.4581 59.5969 13.1065 58.2453 11.4456 58.2453C9.78462 58.2453 8.43306 59.5969 8.43306 61.2578C8.43306 62.9187 9.78462 64.2703 11.4456 64.2703C13.1065 64.2703 14.4581 62.9187 14.4581 61.2578ZM10.0393 61.2578C10.0393 60.4828 10.6706 59.8516 11.4456 59.8516C12.2206 59.8516 12.8518 60.4828 12.8518 61.2578C12.8518 62.0328 12.2206 62.6641 11.4456 62.6641C10.669 62.6641 10.0393 62.0328 10.0393 61.2578ZM61.0346 53.7687H67.6471C68.0909 53.7687 68.4502 53.4094 68.4502 52.9656V45.9156C68.4502 45.4719 68.0909 45.1125 67.6471 45.1125H61.0346C60.5909 45.1125 60.2315 45.4719 60.2315 45.9156V52.9656C60.2315 53.4094 60.5909 53.7687 61.0346 53.7687ZM61.8378 46.7188H66.8456V52.1641H61.8378V46.7188ZM70.6581 25.9781H47.5315C47.0878 25.9781 46.7284 26.3375 46.7284 26.7812V37.1578C46.7284 37.6016 47.0878 37.9609 47.5315 37.9609H70.6581C71.1018 37.9609 71.4612 37.6016 71.4612 37.1578V26.7812C71.4596 26.3375 71.1003 25.9781 70.6581 25.9781ZM69.8549 36.3547H48.3331V27.5844H69.8534V36.3547H69.8549ZM13.3877 65.9578C12.0831 65.9578 11.0221 67.0187 11.0221 68.3234C11.0221 69.6281 12.0831 70.6891 13.3877 70.6891C14.6924 70.6891 15.7534 69.6281 15.7534 68.3234C15.7518 67.0187 14.6909 65.9578 13.3877 65.9578ZM13.3877 69.0828C12.969 69.0828 12.6284 68.7422 12.6284 68.3234C12.6284 67.9047 12.969 67.5641 13.3877 67.5641C13.8065 67.5641 14.1471 67.9047 14.1471 68.3234C14.1471 68.7422 13.8065 69.0828 13.3877 69.0828ZM16.1815 63.1922C16.1815 64.4969 17.2424 65.5578 18.5471 65.5578C19.8518 65.5578 20.9127 64.4969 20.9127 63.1922C20.9127 61.8875 19.8518 60.8266 18.5471 60.8266C17.2424 60.8266 16.1815 61.8875 16.1815 63.1922ZM18.5471 62.4328C18.9659 62.4328 19.3065 62.7734 19.3065 63.1922C19.3065 63.6109 18.9659 63.9516 18.5471 63.9516C18.1284 63.9516 17.7877 63.6109 17.7877 63.1922C17.7877 62.7734 18.1284 62.4328 18.5471 62.4328ZM60.8159 65.4641H67.8659C68.3096 65.4641 68.669 65.1047 68.669 64.6609V57.6109C68.669 57.1672 68.3096 56.8078 67.8659 56.8078H60.8159C60.3721 56.8078 60.0127 57.1672 60.0127 57.6109V64.6609C60.0127 65.1047 60.3721 65.4641 60.8159 65.4641ZM61.619 58.4141H67.0643V63.8594H61.619V58.4141ZM18.4487 69.2125C18.4487 70.8734 19.8002 72.225 21.4612 72.225C23.1221 72.225 24.4737 70.8734 24.4737 69.2125C24.4737 67.5516 23.1221 66.2 21.4612 66.2C19.8002 66.2 18.4487 67.5516 18.4487 69.2125ZM21.4612 67.8062C22.2362 67.8062 22.8674 68.4375 22.8674 69.2125C22.8674 69.9875 22.2362 70.6187 21.4612 70.6187C20.6862 70.6187 20.0549 69.9875 20.0549 69.2125C20.0534 68.4375 20.6846 67.8062 21.4612 67.8062ZM70.6581 42.0188H47.5315C47.0878 42.0188 46.7284 42.3781 46.7284 42.8219V68.3234C46.7284 68.7672 47.0878 69.1266 47.5315 69.1266H70.6581C71.1018 69.1266 71.4612 68.7672 71.4612 68.3234V42.8219C71.4596 42.3781 71.1003 42.0188 70.6581 42.0188ZM69.8549 67.5203H48.3331V43.625H69.8534V67.5203H69.8549ZM50.5315 31.9688C50.5315 31.525 50.8909 31.1656 51.3346 31.1656H56.3346C56.7784 31.1656 57.1377 31.525 57.1377 31.9688C57.1377 32.4125 56.7784 32.7719 56.3346 32.7719H51.3346C50.8909 32.7719 50.5315 32.4125 50.5315 31.9688ZM58.2909 31.9688C58.2909 31.525 58.6503 31.1656 59.094 31.1656H67.1081C67.5518 31.1656 67.9112 31.525 67.9112 31.9688C67.9112 32.4125 67.5518 32.7719 67.1081 32.7719H59.094C58.6503 32.7719 58.2909 32.4125 58.2909 31.9688ZM51.0877 65.4641H58.1377C58.5815 65.4641 58.9409 65.1047 58.9409 64.6609V57.6109C58.9409 57.1672 58.5815 56.8078 58.1377 56.8078H51.0877C50.644 56.8078 50.2846 57.1672 50.2846 57.6109V64.6609C50.2846 65.1047 50.644 65.4641 51.0877 65.4641ZM51.8909 58.4141H57.3362V63.8594H51.8909V58.4141ZM51.0877 53.7687H57.7003C58.144 53.7687 58.5034 53.4094 58.5034 52.9656V45.9156C58.5034 45.4719 58.144 45.1125 57.7003 45.1125H51.0877C50.644 45.1125 50.2846 45.4719 50.2846 45.9156V52.9656C50.2846 53.4094 50.644 53.7687 51.0877 53.7687ZM51.8909 46.7188H56.8987V52.1641H51.8909V46.7188ZM73.2221 19.2516H57.1377V12.825C57.1377 12.3813 56.7784 12.0219 56.3346 12.0219H53.6003C53.194 7.66094 49.5143 4.23438 45.0487 4.23438H22.9737C18.2362 4.23438 14.3831 8.0875 14.3831 12.825V17.0641H13.6643C10.8956 17.0641 8.64399 19.3156 8.64399 22.0844V30.3531C8.64399 30.7969 9.00337 31.1562 9.44712 31.1562H11.0221V42.5344H3.15806C2.82993 42.5344 2.53462 42.7344 2.41274 43.0391C2.29087 43.3438 2.36743 43.6922 2.60493 43.9187L5.06431 46.2609V74.9641C5.06431 75.4078 5.42368 75.7672 5.86743 75.7672H28.5877C29.0315 75.7672 29.3909 75.4078 29.3909 74.9641V45.7984L29.9627 44.8531C30.244 44.3875 30.2534 43.8281 29.9877 43.3563C29.7018 42.8484 29.1456 42.5344 28.5346 42.5344H19.3502V31.1562H20.9252C21.369 31.1562 21.7284 30.7969 21.7284 30.3531V22.0844C21.7284 19.3156 19.4768 17.0641 16.7081 17.0641H15.9893V12.825C15.9893 8.97344 19.1221 5.84063 22.9752 5.84063H45.0503C48.6299 5.84063 51.5877 8.54844 51.9878 12.0234H49.3409C48.8971 12.0234 48.5378 12.3828 48.5378 12.8266V19.2547H44.9674C42.5284 19.2547 40.5456 21.2391 40.5456 23.6766V72.5062C40.5456 74.3047 42.0096 75.7688 43.8081 75.7688H74.3862C76.1846 75.7688 77.6487 74.3047 77.6487 72.5062V23.6734C77.6456 21.2359 75.6612 19.2516 73.2221 19.2516ZM5.16431 44.1391H11.0221V52.6844C9.13306 52.5422 7.64868 53.0094 6.67056 53.4828V45.9172C6.67056 45.6969 6.57993 45.4875 6.42212 45.3359L5.16431 44.1391ZM27.7846 74.1609H6.67056V55.3203C7.26587 54.9187 8.79243 54.0906 11.0221 54.2938V56.4484C11.0221 56.8922 11.3815 57.2516 11.8252 57.2516H17.2893C17.7081 57.6016 18.1284 57.9813 18.544 58.3891C20.9049 60.7 24.0112 62.0437 27.7862 62.3922V74.1609H27.7846ZM12.6284 42.5328V31.1547H17.7456V42.5328H12.6284ZM17.744 44.1391V55.6469H15.9877V44.1391H17.744ZM14.3831 44.1391V55.6469H12.6284V44.1391H14.3831ZM28.5174 44.1391L27.9002 45.1594C27.8237 45.2844 27.7846 45.4281 27.7846 45.575V60.7781C24.4549 60.4422 21.7252 59.2562 19.6659 57.2422C19.5252 57.1047 19.3846 56.9703 19.244 56.8391C19.3081 56.7234 19.3487 56.5922 19.3487 56.45V44.1391H28.5174ZM20.1221 29.55H10.2502V26.4984H20.1221V29.55ZM16.7065 18.6688C18.5893 18.6688 20.1206 20.2 20.1206 22.0828V24.8922H10.2502V22.0828C10.2502 20.2 11.7815 18.6688 13.6643 18.6688H16.7065ZM50.1409 13.6266H55.5315V19.2516H50.1409V13.6266ZM76.0393 72.5047C76.0393 73.4187 75.2956 74.1609 74.3831 74.1609H43.8049C42.8909 74.1609 42.1487 73.4172 42.1487 72.5047V23.6734C42.1487 22.1203 43.4128 20.8562 44.9659 20.8562H73.2237C74.7768 20.8562 76.0409 22.1203 76.0409 23.6734V72.5047H76.0393Z" fill="#5CE1E6"/>
</svg>
