<svg width="120" height="120" viewBox="0 0 120 120" fill="none" xmlns="http://www.w3.org/2000/svg">
<path d="M61.0936 54.3778H49.3357C48.8384 54.3778 48.3615 54.5754 48.0099 54.927C47.6582 55.2786 47.4607 55.7555 47.4607 56.2528V102.97C47.4607 103.467 47.6582 103.944 48.0099 104.296C48.3615 104.647 48.8384 104.845 49.3357 104.845H61.0936C61.5909 104.845 62.0678 104.647 62.4194 104.296C62.771 103.944 62.9686 103.467 62.9686 102.97V56.2528C62.9686 55.7555 62.771 55.2786 62.4194 54.927C62.0678 54.5754 61.5909 54.3778 61.0936 54.3778ZM59.2186 101.095H51.2107V58.1278H59.2186V101.095ZM39.2609 66.7188H27.5027C27.0054 66.7188 26.5285 66.9164 26.1769 67.268C25.8253 67.6196 25.6277 68.0965 25.6277 68.5938V102.97C25.6277 103.467 25.8253 103.944 26.1769 104.296C26.5285 104.647 27.0054 104.845 27.5027 104.845H39.2609C39.7581 104.845 40.235 104.647 40.5867 104.296C40.9383 103.944 41.1359 103.467 41.1359 102.97V68.5938C41.1359 68.0965 40.9383 67.6196 40.5867 67.268C40.235 66.9164 39.7581 66.7188 39.2609 66.7188ZM37.3859 101.095H29.3777V70.4688H37.3859V101.095ZM17.4277 78.5374H5.66953C5.17224 78.5374 4.69533 78.735 4.3437 79.0866C3.99207 79.4382 3.79453 79.9151 3.79453 80.4124V102.97C3.79453 103.467 3.99207 103.944 4.3437 104.295C4.69533 104.647 5.17224 104.845 5.66953 104.845H17.4274C17.9247 104.845 18.4016 104.647 18.7532 104.295C19.1049 103.944 19.3024 103.467 19.3024 102.97V80.4124C19.3025 80.1662 19.254 79.9224 19.1598 79.6949C19.0656 79.4674 18.9276 79.2607 18.7535 79.0865C18.5794 78.9124 18.3727 78.7743 18.1452 78.6801C17.9177 78.5859 17.6739 78.5374 17.4277 78.5374ZM15.5527 101.095H7.54453V82.2874H15.5524L15.5527 101.095ZM4.43203 71.1523C3.98872 71.1526 3.55964 70.9958 3.22094 70.7098C2.88224 70.4238 2.65584 70.027 2.58192 69.5899C2.508 69.1528 2.59134 68.7037 2.81715 68.3222C3.04296 67.9407 3.39663 67.6516 3.81538 67.5061C32.0557 57.6712 56.9027 43.3718 77.7436 24.9787L73.6242 25.2023C73.1276 25.2293 72.6407 25.0579 72.2705 24.7258C71.9004 24.3937 71.6773 23.9282 71.6503 23.4316C71.6234 22.9351 71.7948 22.4481 72.1269 22.078C72.4589 21.7078 72.9244 21.4847 73.421 21.4577L82.8246 20.9473C83.1018 20.9322 83.3789 20.9789 83.6359 21.084C83.8929 21.1891 84.1233 21.35 84.3106 21.5549C84.4978 21.7599 84.6372 22.0039 84.7187 22.2693C84.8001 22.5348 84.8216 22.815 84.7816 23.0897L83.4246 32.4087C83.3528 32.9007 83.0885 33.3441 82.6899 33.6414C82.2913 33.9387 81.7909 34.0655 81.2988 33.994C80.8067 33.9223 80.3633 33.6582 80.066 33.2595C79.7687 32.8609 79.6419 32.3605 79.7135 31.8684L80.3194 27.7066C59.0927 46.4634 33.7941 61.0369 5.0482 71.0475C4.85017 71.1169 4.64185 71.1523 4.43203 71.1523ZM86.891 13.7576L91.7055 17.6273L90.0851 23.588C89.8214 24.5576 90.1765 25.5656 90.9893 26.1562C91.3979 26.4555 91.891 26.6171 92.3974 26.618C92.8521 26.618 93.308 26.4865 93.7111 26.2226L98.8791 22.8394L104.047 26.2226C104.888 26.7727 105.956 26.7469 106.769 26.1565C107.582 25.5659 107.937 24.558 107.673 23.588L106.053 17.6276L110.867 13.758C111.65 13.1287 111.956 12.1045 111.645 11.1488C111.335 10.193 110.486 9.54375 109.482 9.495L103.313 9.19406L101.121 3.41953C100.764 2.48109 99.8848 1.875 98.8795 1.875C97.8741 1.875 96.9944 2.48109 96.6384 3.4193L94.4461 9.19383L88.2766 9.49453C87.2728 9.54328 86.4237 10.1925 86.1134 11.1483C85.8026 12.1043 86.1082 13.1285 86.891 13.7576ZM95.5125 12.8965C95.9784 12.8739 96.4276 12.7159 96.805 12.4417C97.1824 12.1676 97.4716 11.7892 97.6371 11.3531L98.8793 8.08148L100.122 11.3536C100.287 11.7895 100.576 12.1677 100.954 12.4417C101.331 12.7158 101.78 12.8738 102.246 12.8965L105.741 13.0669L103.014 15.2592C102.65 15.5513 102.38 15.9433 102.236 16.3869C102.091 16.8305 102.08 17.3066 102.202 17.7567L103.12 21.1334L100.192 19.2162C99.8014 18.9609 99.3452 18.825 98.8789 18.8251C98.4126 18.8251 97.9564 18.9612 97.5663 19.2166L94.6385 21.1334L95.5566 17.7567C95.6791 17.3066 95.6676 16.8306 95.5235 16.3869C95.3793 15.9433 95.1088 15.5513 94.7451 15.2592L92.0175 13.0669L95.5125 12.8965ZM116.242 86.5383L113.059 85.3127C112.576 83.617 111.899 81.983 111.04 80.4431L112.426 77.3238C112.58 76.9776 112.625 76.5928 112.556 76.2202C112.487 75.8477 112.306 75.5049 112.038 75.237L107.325 70.5232C107.129 70.3285 106.893 70.1794 106.634 70.0866V34.0493C106.634 33.552 106.436 33.0751 106.084 32.7235C105.733 32.3718 105.256 32.1743 104.759 32.1743H93.0005C92.5032 32.1743 92.0263 32.3718 91.6746 32.7235C91.323 33.0751 91.1255 33.552 91.1255 34.0493V65.1173H87.6073C87.2284 65.1173 86.8583 65.2321 86.546 65.4466C86.2336 65.6611 85.9935 65.9651 85.8574 66.3187L84.8013 69.0626V45.1512C84.8013 44.6539 84.6038 44.177 84.2521 43.8253C83.9005 43.4737 83.4236 43.2762 82.9263 43.2762H71.1682C70.6709 43.2762 70.194 43.4737 69.8424 43.8253C69.4907 44.177 69.2932 44.6539 69.2932 45.1512V83.8533C69.1198 84.3344 68.9626 84.8211 68.8219 85.3127L65.6381 86.5383C65.2845 86.6743 64.9804 86.9144 64.7659 87.2268C64.5514 87.5392 64.4366 87.9092 64.4367 88.2881V94.9542C64.4367 95.3331 64.5515 95.7031 64.766 96.0155C64.9804 96.3279 65.2845 96.5679 65.6381 96.7041L68.8214 97.9294C68.9623 98.4216 69.1196 98.909 69.2932 99.3907V102.97C69.2932 103.269 69.3651 103.565 69.5029 103.831C69.6408 104.097 69.8405 104.326 70.0854 104.499L69.4547 105.919C69.3008 106.265 69.2555 106.65 69.3247 107.022C69.3939 107.395 69.5744 107.737 69.8423 108.005L74.5563 112.719C74.8242 112.987 75.1671 113.168 75.5396 113.237C75.9121 113.306 76.2969 113.261 76.6432 113.107L79.7639 111.721C81.3033 112.579 82.9368 113.256 84.6319 113.739L85.8574 116.923C85.9935 117.277 86.2335 117.581 86.5459 117.796C86.8583 118.01 87.2283 118.125 87.6073 118.125H94.2736C94.6525 118.125 95.0225 118.01 95.3349 117.796C95.6472 117.581 95.8873 117.277 96.0234 116.923L97.2485 113.74C98.9442 113.257 100.578 112.58 102.118 111.721L105.238 113.107C105.584 113.26 105.969 113.306 106.341 113.237C106.714 113.167 107.057 112.987 107.325 112.719L112.038 108.005C112.306 107.737 112.487 107.394 112.556 107.022C112.625 106.649 112.58 106.265 112.426 105.918L111.04 102.798C111.898 101.258 112.575 99.6247 113.058 97.9296L116.242 96.7041C116.596 96.568 116.9 96.3279 117.114 96.0156C117.329 95.7032 117.444 95.3331 117.444 94.9542V88.2881C117.444 87.9092 117.329 87.5392 117.115 87.2269C116.9 86.9145 116.596 86.6744 116.242 86.5383ZM102.883 35.9243V71.1809L102.117 71.5214C100.577 70.6632 98.9438 69.9859 97.2487 69.5032L96.0232 66.3187C95.9242 66.0625 95.7701 65.8312 95.5718 65.6412C95.3734 65.4512 95.1357 65.3072 94.8755 65.2193V35.9243H102.883ZM81.0511 47.0262V70.8581C80.615 71.0656 80.1855 71.2869 79.7634 71.5216L76.6427 70.1355C76.2964 69.9818 75.9117 69.9365 75.5391 70.0058C75.1666 70.075 74.8238 70.2555 74.5559 70.5234L73.043 72.0363V47.0262H81.0511ZM113.694 93.667L110.814 94.7754C110.53 94.8848 110.277 95.0617 110.076 95.291C109.876 95.5202 109.734 95.7949 109.664 96.0912C109.192 98.0716 108.408 99.9641 107.34 101.697C107.18 101.956 107.086 102.251 107.065 102.554C107.045 102.858 107.099 103.163 107.223 103.441L108.476 106.264L105.583 109.157L102.761 107.904C102.483 107.78 102.179 107.726 101.875 107.746C101.571 107.767 101.277 107.861 101.017 108.021C99.2841 109.089 97.3912 109.874 95.4103 110.345C95.114 110.416 94.8393 110.557 94.61 110.758C94.3807 110.958 94.2037 111.211 94.0943 111.496L92.9859 114.375H88.8944L87.7861 111.495C87.6767 111.211 87.4998 110.957 87.2705 110.757C87.0412 110.557 86.7666 110.415 86.4703 110.344C84.4899 109.873 82.5976 109.089 80.8648 108.02C80.6054 107.861 80.311 107.767 80.0071 107.746C79.7032 107.726 79.399 107.78 79.1205 107.903L76.2977 109.157L73.4044 106.264L74.6576 103.443C74.7812 103.164 74.8352 102.86 74.8148 102.556C74.7944 102.252 74.7003 101.958 74.5406 101.698C73.472 99.965 72.6872 98.072 72.2161 96.0909C72.1456 95.7947 72.004 95.52 71.8035 95.2908C71.6031 95.0615 71.3498 94.8845 71.0655 94.7752L68.1867 93.667V89.5755L71.0662 88.4672C71.3505 88.3578 71.6037 88.1808 71.8042 87.9516C72.0047 87.7223 72.1463 87.4477 72.2168 87.1514C72.688 85.1708 73.4727 83.2782 74.5411 81.5452C74.7008 81.2858 74.7949 80.9914 74.8152 80.6875C74.8356 80.3836 74.7817 80.0793 74.658 79.8009L73.4046 76.9786L76.2977 74.0852L79.1208 75.3391C79.3991 75.4627 79.7034 75.5166 80.0073 75.4962C80.3111 75.4758 80.6054 75.3817 80.8648 75.222C82.5977 74.1537 84.4901 73.3691 86.4705 72.8979C86.7668 72.8274 87.0414 72.6858 87.2707 72.4853C87.5 72.2849 87.6769 72.0316 87.7863 71.7473L88.8949 68.8673H92.9864L94.095 71.7473C94.2044 72.0316 94.3813 72.2849 94.6106 72.4854C94.8398 72.6858 95.1145 72.8274 95.4108 72.8979C97.3912 73.3691 99.2836 74.1537 101.017 75.222C101.276 75.3816 101.57 75.4756 101.874 75.496C102.178 75.5165 102.482 75.4626 102.761 75.3391L105.584 74.0852L108.477 76.9784L107.224 79.8C107.1 80.0784 107.046 80.3828 107.066 80.6867C107.087 80.9907 107.181 81.2851 107.341 81.5445C108.409 83.2778 109.194 85.1707 109.665 87.1516C109.736 87.4479 109.877 87.7226 110.078 87.9518C110.278 88.1811 110.532 88.3581 110.816 88.4674L113.695 89.5758V93.667H113.694ZM90.9401 78.1205C83.4956 78.1205 77.4391 84.177 77.4391 91.6214C77.4391 99.0656 83.4956 105.122 90.9401 105.122C98.3845 105.122 104.441 99.0656 104.441 91.6214C104.441 84.177 98.3845 78.1205 90.9401 78.1205ZM90.9401 101.372C85.5635 101.372 81.1891 96.998 81.1891 91.6214C81.1891 86.2448 85.5633 81.8705 90.9401 81.8705C96.3169 81.8705 100.691 86.2446 100.691 91.6214C100.691 96.9977 96.3169 101.372 90.9401 101.372Z" fill="#5CE1E6"/>
</svg>
