<svg width="80" height="80" viewBox="0 0 80 80" fill="none" xmlns="http://www.w3.org/2000/svg">
<path d="M33.7376 6.18187V3.67687C33.7376 2.29344 34.8591 1.17188 36.2426 1.17188H43.7577C45.1413 1.17188 46.2629 2.29344 46.2627 3.67687V6.18187H33.7376ZM33.7376 6.18187V7.96297C33.7376 8.57248 33.5893 9.17285 33.3055 9.71228C33.0218 10.2517 32.6111 10.714 32.1088 11.0594L20.2124 19.2381C18.2033 20.6194 16.5604 22.4686 15.4253 24.6264C14.2903 26.7841 13.6972 29.1857 13.6973 31.6237V73.8181C13.6973 76.5852 15.9404 78.8283 18.7074 78.8283H61.293C64.0601 78.8283 66.3032 76.5852 66.3032 73.8181V31.6236C66.3032 29.1855 65.7101 26.784 64.575 24.6263C63.44 22.4685 61.7971 20.6193 59.788 19.238L47.8916 11.0594C47.3894 10.7141 46.9786 10.2518 46.6949 9.71231C46.4111 9.17287 46.2629 8.57249 46.2629 7.96297V6.18203" stroke="#5CE1E6" stroke-width="2" stroke-miterlimit="10" stroke-linecap="round" stroke-linejoin="round"/>
<path d="M48.7676 29.9794V39.9995C48.7676 42.0748 50.4499 43.757 52.5251 43.757H57.5352C59.6105 43.757 61.2927 42.0747 61.2927 39.9995V31.6233C61.2927 29.9979 60.8973 28.3969 60.1406 26.9584C59.3839 25.5199 58.2887 24.2871 56.9493 23.3662L52.6918 20.4392C51.0298 19.2965 48.7676 20.4865 48.7676 22.5034V24.9692M61.2929 34.7501C63.1323 34.1237 63.6407 32.4844 66.3029 32.4844" stroke="#5CE1E6" stroke-width="2" stroke-miterlimit="10" stroke-linecap="round" stroke-linejoin="round"/>
<path d="M13.6973 32.4844C16.9838 32.4844 16.9838 34.9894 20.2704 34.9894C23.557 34.9894 23.557 32.4844 26.8435 32.4844C30.1301 32.4844 30.1301 34.9894 33.4168 34.9894C36.7043 34.9894 36.7043 32.4844 39.9916 32.4844C43.2773 32.4844 43.2773 34.9894 46.563 34.9894C47.5243 34.9894 48.2045 34.7753 48.768 34.4723M42.6095 52.1477C41.3689 51.3089 39.9052 50.8618 38.4077 50.8642C34.2573 50.8642 30.8926 54.2289 30.8926 58.3794C30.8926 62.5298 34.2573 65.8945 38.4077 65.8945C40.0934 65.8945 41.4799 65.3395 42.5323 64.4023C42.7505 64.2076 42.9544 63.9972 43.1423 63.773M47.911 50.8642V65.8944" stroke="#5CE1E6" stroke-width="2" stroke-miterlimit="10" stroke-linecap="round" stroke-linejoin="round"/>
</svg>
