<svg width="120" height="120" viewBox="0 0 120 120" fill="none" xmlns="http://www.w3.org/2000/svg">
<g clip-path="url(#clip0_149_5976)">
<path d="M59.1689 31.4078L54.4682 23.6968C53.2106 21.6336 50.2148 21.6336 48.9571 23.6968L22.7561 66.6772C20.4269 70.4982 18.9593 74.5013 18.2517 78.5155M17.8408 86.7186C19.0757 103.425 32.7839 118.242 51.7127 118.242C62.1482 118.242 70.9957 113.737 77.0432 106.896" stroke="#5CE1E6" stroke-width="4" stroke-miterlimit="10" stroke-linecap="round" stroke-linejoin="round"/>
<path d="M84.965 91.1179C86.6183 83.1939 85.4684 74.5499 80.6696 66.6777L74.9902 57.3613" stroke="#5CE1E6" stroke-width="4" stroke-miterlimit="10" stroke-linejoin="round"/>
<path d="M32.8252 100.362V72.7783" stroke="#5CE1E6" stroke-width="4" stroke-miterlimit="10" stroke-linecap="round" stroke-linejoin="round"/>
<path d="M41.3016 89.7311C45.983 89.7311 49.778 85.9361 49.778 81.2547C49.778 76.5733 45.983 72.7783 41.3016 72.7783C36.6202 72.7783 32.8252 76.5733 32.8252 81.2547C32.8252 85.9361 36.6202 89.7311 41.3016 89.7311Z" stroke="#5CE1E6" stroke-width="4" stroke-miterlimit="10" stroke-linecap="round" stroke-linejoin="round"/>
<path d="M55.8975 68.2988V89.7303M70.7285 68.2988V89.7303M55.8975 78.6472H70.7285" stroke="#5CE1E6" stroke-width="4" stroke-miterlimit="10" stroke-linecap="round" stroke-linejoin="round"/>
<path d="M18.1018 46.272C21.7323 46.272 24.6754 43.329 24.6754 39.6985C24.6754 36.0681 21.7323 33.125 18.1018 33.125C14.4714 33.125 11.5283 36.0681 11.5283 39.6985C11.5283 43.329 14.4714 46.272 18.1018 46.272Z" stroke="#5CE1E6" stroke-width="4" stroke-miterlimit="10" stroke-linecap="round" stroke-linejoin="round"/>
<path d="M101.898 75.1617C105.528 75.1617 108.471 72.2186 108.471 68.5882C108.471 64.9577 105.528 62.0146 101.898 62.0146C98.2673 62.0146 95.3242 64.9577 95.3242 68.5882C95.3242 72.2186 98.2673 75.1617 101.898 75.1617Z" stroke="#5CE1E6" stroke-width="4" stroke-miterlimit="10" stroke-linecap="round" stroke-linejoin="round"/>
<path d="M99.4458 99.3751C98.0605 94.3789 93.4829 90.71 88.0456 90.71C81.5108 90.71 76.2132 96.0076 76.2132 102.542C76.2132 109.077 81.5105 114.375 88.0456 114.375C92.7793 114.375 96.8619 111.594 98.754 107.578M65.4197 20.3241L60.9769 27.612C52.978 40.7335 62.4226 57.552 77.7898 57.552C93.1573 57.552 102.602 40.7335 94.603 27.612L79.3899 2.65623C78.6596 1.45834 76.9203 1.45834 76.19 2.65623L69.6908 13.3177" stroke="#5CE1E6" stroke-width="4" stroke-miterlimit="10" stroke-linecap="round" stroke-linejoin="round"/>
</g>
<defs>
<clipPath id="clip0_149_5976">
<rect width="120" height="120" fill="white"/>
</clipPath>
</defs>
</svg>
