<svg width="80" height="80" viewBox="0 0 80 80" fill="none" xmlns="http://www.w3.org/2000/svg">
<path d="M73.5881 26.9542C72.0761 25.9994 70.3702 25.3936 68.5947 25.1807C66.8191 24.9678 65.0184 25.1532 63.3235 25.7234C62.9933 24.4336 62.3662 23.2388 61.4922 22.2345C60.6182 21.2301 59.5215 20.444 58.2897 19.9388C57.1865 19.473 55.9984 19.2423 54.8011 19.2613C53.6038 19.2804 52.4236 19.5489 51.3358 20.0496C51.26 15.4417 49.5101 11.0189 46.4127 7.6065C44.6031 5.6248 42.3995 4.04286 39.9432 2.96197C37.4868 1.88109 34.8318 1.32509 32.1481 1.32957C29.0533 1.30775 26.0002 2.04462 23.256 3.47572C20.5118 4.90682 18.1601 6.98855 16.4066 9.5388C14.8465 11.7843 13.7836 14.3369 13.2891 17.0261C12.7946 19.7153 12.8797 22.479 13.5389 25.1327C10.5904 24.9494 7.6786 25.8659 5.36659 27.705C3.36206 29.2623 1.89454 31.4073 1.16938 33.8399C0.444218 36.2725 0.497705 38.871 1.32235 41.2717C2.147 43.6724 3.70155 45.7552 5.76848 47.2288C7.8354 48.7023 10.3113 49.4928 12.8497 49.4896H19.8897C20.063 49.7863 20.274 50.0593 20.5174 50.3019C20.1242 50.6965 19.8131 51.165 19.6019 51.6804C19.3906 52.1958 19.2835 52.748 19.2866 53.305V60.8619C19.2832 61.4208 19.3902 61.9748 19.6014 62.4923C19.8126 63.0097 20.1239 63.4804 20.5174 63.8773C20.1231 64.2711 19.8113 64.7394 19.5999 65.255C19.3886 65.7706 19.2821 66.3231 19.2866 66.8803V74.4373C19.2899 75.5613 19.7386 76.6382 20.5346 77.4318C21.3306 78.2254 22.4087 78.6711 23.5327 78.6711H56.6158C57.7398 78.6711 58.818 78.2254 59.614 77.4318C60.4099 76.6382 60.8587 75.5613 60.862 74.4373V66.8803C60.8665 66.3231 60.7599 65.7706 60.5486 65.255C60.3373 64.7394 60.0254 64.2711 59.6312 63.8773C60.0247 63.4804 60.336 63.0097 60.5472 62.4923C60.7584 61.9748 60.8654 61.4208 60.862 60.8619V53.305C60.8651 52.748 60.758 52.1958 60.5467 51.6804C60.3355 51.165 60.0243 50.6965 59.6312 50.3019C59.8746 50.0593 60.0855 49.7863 60.2589 49.4896H67.2004C70.431 49.4863 73.5283 48.2015 75.8127 45.9172C78.097 43.6328 79.3818 40.5355 79.3851 37.305C79.3926 35.2264 78.8628 33.1811 77.8471 31.3676C76.8315 29.5541 75.3644 28.0338 73.5881 26.9542ZM58.3389 66.8803V74.4373C58.336 74.898 58.155 75.3397 57.8339 75.67C57.5127 76.0004 57.0763 76.1937 56.6158 76.2096H23.4466C22.9754 76.2096 22.5233 76.0233 22.189 75.6912C21.8547 75.3592 21.6652 74.9084 21.662 74.4373V66.8803C21.662 66.6466 21.7082 66.4151 21.7981 66.1993C21.8879 65.9834 22.0195 65.7875 22.1854 65.6228C22.3513 65.458 22.5481 65.3277 22.7646 65.2394C22.981 65.1511 23.2128 65.1064 23.4466 65.108H56.6158C57.0773 65.1209 57.5155 65.3132 57.8373 65.6442C58.1591 65.9752 58.3391 66.4187 58.3389 66.8803ZM58.3389 53.3419V60.8988C58.3297 61.3552 58.146 61.7908 57.8255 62.1159C57.505 62.441 57.0721 62.6309 56.6158 62.6465H23.4466C22.9733 62.6465 22.5194 62.4585 22.1847 62.1238C21.85 61.7891 21.662 61.3352 21.662 60.8619V53.305C21.6652 52.8338 21.8547 52.383 22.189 52.051C22.5233 51.719 22.9754 51.5326 23.4466 51.5326H56.6158C57.0763 51.5485 57.5127 51.7419 57.8339 52.0722C58.155 52.4025 58.336 52.8443 58.3389 53.305V53.3419ZM23.4466 49.0711C23.2122 49.0711 22.9802 49.025 22.7636 48.9353C22.5471 48.8456 22.3504 48.7141 22.1847 48.5484C22.019 48.3827 21.8875 48.186 21.7978 47.9694C21.7081 47.7529 21.662 47.5209 21.662 47.2865V39.7419C21.662 39.2686 21.85 38.8146 22.1847 38.48C22.5194 38.1453 22.9733 37.9573 23.4466 37.9573H56.6158C57.0891 37.9573 57.5431 38.1453 57.8777 38.48C58.2124 38.8146 58.4004 39.2686 58.4004 39.7419V47.2865C58.4004 47.7598 58.2124 48.2137 57.8777 48.5484C57.5431 48.8831 57.0891 49.0711 56.6158 49.0711H23.4466ZM67.2004 47.028H60.8004V39.7419C60.7974 38.6273 60.3575 37.5583 59.5751 36.7644C58.7927 35.9705 57.7303 35.5151 56.6158 35.4957H23.4466C22.3214 35.499 21.2433 35.9474 20.4477 36.743C19.6521 37.5386 19.2037 38.6167 19.2004 39.7419V47.028H12.8004C10.7761 47.0261 8.80287 46.3923 7.15598 45.2152C5.50909 44.038 4.27067 42.3762 3.61347 40.4616C2.95627 38.5469 2.91307 36.4748 3.4899 34.5344C4.06672 32.594 5.23481 30.882 6.83121 29.6373C7.95843 28.738 9.27646 28.1085 10.6844 27.7971C12.0924 27.4856 13.5529 27.5004 14.9543 27.8403C15.1719 27.8949 15.4003 27.889 15.6148 27.8231C15.8293 27.7573 16.0217 27.6341 16.1713 27.4668C16.3208 27.2995 16.4218 27.0946 16.4632 26.8741C16.5047 26.6536 16.4851 26.4259 16.4066 26.2157C15.4922 23.6948 15.2016 20.9901 15.5595 18.3325C15.9174 15.6749 16.9133 13.1434 18.462 10.9542C19.9859 8.73442 22.0298 6.9212 24.4153 5.67265C26.8009 4.4241 29.4556 3.77814 32.1481 3.79111C34.4851 3.79412 36.7956 4.28501 38.9319 5.23236C41.0682 6.1797 42.9832 7.56264 44.5543 9.29265C46.1397 11.0334 47.3371 13.0913 48.067 15.3298C48.7969 17.5684 49.0427 19.9365 48.7881 22.2773C48.7609 22.5256 48.8099 22.7764 48.9286 22.9962C49.0473 23.2161 49.2301 23.3946 49.4527 23.508C49.6684 23.6281 49.9151 23.6805 50.1609 23.6586C50.4067 23.6367 50.6403 23.5413 50.8312 23.385C51.7015 22.6047 52.7761 22.0885 53.9291 21.8967C55.0821 21.7049 56.2659 21.8454 57.342 22.3019C58.418 22.7321 59.3469 23.4639 60.0172 24.4092C60.6875 25.3546 61.0706 26.4733 61.1204 27.6311C61.1341 27.8332 61.1974 28.0288 61.3047 28.2006C61.4121 28.3723 61.5602 28.5149 61.7358 28.6157C61.9229 28.7238 62.1352 28.7806 62.3512 28.7806C62.5673 28.7806 62.7795 28.7238 62.9666 28.6157C64.444 27.901 66.0783 27.572 67.7172 27.6592C69.3561 27.7463 70.9462 28.247 72.3395 29.1144C73.7327 29.9818 74.8837 31.1877 75.6853 32.6199C76.4868 34.052 76.9128 35.6638 76.9235 37.305C76.9203 39.8827 75.8948 42.3539 74.0721 44.1766C72.2494 45.9993 69.7782 47.0248 67.2004 47.028Z" fill="#5CE1E6"/>
<path d="M32.1483 7.38477C28.6598 7.388 25.3144 8.77273 22.8442 11.2361C20.3739 13.6994 18.9798 17.0408 18.9668 20.5294C18.9668 20.8558 19.0965 21.1689 19.3273 21.3997C19.5581 21.6305 19.8711 21.7602 20.1976 21.7602C20.524 21.7602 20.837 21.6305 21.0679 21.3997C21.2987 21.1689 21.4283 20.8558 21.4283 20.5294C21.4381 17.6927 22.5718 14.9755 24.5812 12.9731C26.5905 10.9706 29.3116 9.84629 32.1483 9.8463C32.4748 9.8463 32.7878 9.71663 33.0186 9.48582C33.2494 9.25501 33.3791 8.94196 33.3791 8.61553C33.3791 8.28911 33.2494 7.97606 33.0186 7.74525C32.7878 7.51444 32.4748 7.38477 32.1483 7.38477ZM28.4929 42.2894H27.8037C27.4773 42.2894 27.1642 42.4191 26.9334 42.6499C26.7026 42.8807 26.573 43.1937 26.573 43.5202C26.573 43.8466 26.7026 44.1596 26.9334 44.3904C27.1642 44.6213 27.4773 44.7509 27.8037 44.7509H28.4929C28.8194 44.7509 29.1324 44.6213 29.3632 44.3904C29.5941 44.1596 29.7237 43.8466 29.7237 43.5202C29.7237 43.1937 29.5941 42.8807 29.3632 42.6499C29.1324 42.4191 28.8194 42.2894 28.4929 42.2894ZM33.9822 42.2894H33.3053C32.9788 42.2894 32.6658 42.4191 32.435 42.6499C32.2042 42.8807 32.0745 43.1937 32.0745 43.5202C32.0745 43.8466 32.2042 44.1596 32.435 44.3904C32.6658 44.6213 32.9788 44.7509 33.3053 44.7509H33.9822C34.3086 44.7509 34.6217 44.6213 34.8525 44.3904C35.0833 44.1596 35.2129 43.8466 35.2129 43.5202C35.2129 43.1937 35.0833 42.8807 34.8525 42.6499C34.6217 42.4191 34.3086 42.2894 33.9822 42.2894ZM39.4714 42.2894H38.7945C38.4681 42.2894 38.155 42.4191 37.9242 42.6499C37.6934 42.8807 37.5637 43.1937 37.5637 43.5202C37.5637 43.8466 37.6934 44.1596 37.9242 44.3904C38.155 44.6213 38.4681 44.7509 38.7945 44.7509H39.4714C39.7978 44.7509 40.1109 44.6213 40.3417 44.3904C40.5725 44.1596 40.7022 43.8466 40.7022 43.5202C40.7022 43.1937 40.5725 42.8807 40.3417 42.6499C40.1109 42.4191 39.7978 42.2894 39.4714 42.2894ZM27.8037 58.314H28.4929C28.8194 58.314 29.1324 58.1843 29.3632 57.9535C29.5941 57.7227 29.7237 57.4096 29.7237 57.0832C29.7237 56.7568 29.5941 56.4438 29.3632 56.2129C29.1324 55.9821 28.8194 55.8525 28.4929 55.8525H27.8037C27.4773 55.8525 27.1642 55.9821 26.9334 56.2129C26.7026 56.4438 26.573 56.7568 26.573 57.0832C26.573 57.4096 26.7026 57.7227 26.9334 57.9535C27.1642 58.1843 27.4773 58.314 27.8037 58.314ZM33.3053 58.314H33.9822C34.3086 58.314 34.6217 58.1843 34.8525 57.9535C35.0833 57.7227 35.2129 57.4096 35.2129 57.0832C35.2129 56.7568 35.0833 56.4438 34.8525 56.2129C34.6217 55.9821 34.3086 55.8525 33.9822 55.8525H33.3053C32.9788 55.8525 32.6658 55.9821 32.435 56.2129C32.2042 56.4438 32.0745 56.7568 32.0745 57.0832C32.0745 57.4096 32.2042 57.7227 32.435 57.9535C32.6658 58.1843 32.9788 58.314 33.3053 58.314ZM38.7945 58.314H39.4714C39.7978 58.314 40.1109 58.1843 40.3417 57.9535C40.5725 57.7227 40.7022 57.4096 40.7022 57.0832C40.7022 56.7568 40.5725 56.4438 40.3417 56.2129C40.1109 55.9821 39.7978 55.8525 39.4714 55.8525H38.7945C38.4681 55.8525 38.155 55.9821 37.9242 56.2129C37.6934 56.4438 37.5637 56.7568 37.5637 57.0832C37.5637 57.4096 37.6934 57.7227 37.9242 57.9535C38.155 58.1843 38.4681 58.314 38.7945 58.314ZM27.8037 71.8894H28.4929C28.8194 71.8894 29.1324 71.7597 29.3632 71.5289C29.5941 71.2981 29.7237 70.985 29.7237 70.6586C29.7237 70.3322 29.5941 70.0191 29.3632 69.7883C29.1324 69.5575 28.8194 69.4278 28.4929 69.4278H27.8037C27.4773 69.4278 27.1642 69.5575 26.9334 69.7883C26.7026 70.0191 26.573 70.3322 26.573 70.6586C26.573 70.985 26.7026 71.2981 26.9334 71.5289C27.1642 71.7597 27.4773 71.8894 27.8037 71.8894ZM33.3053 71.8894H33.9822C34.3086 71.8894 34.6217 71.7597 34.8525 71.5289C35.0833 71.2981 35.2129 70.985 35.2129 70.6586C35.2129 70.3322 35.0833 70.0191 34.8525 69.7883C34.6217 69.5575 34.3086 69.4278 33.9822 69.4278H33.3053C32.9788 69.4278 32.6658 69.5575 32.435 69.7883C32.2042 70.0191 32.0745 70.3322 32.0745 70.6586C32.0745 70.985 32.2042 71.2981 32.435 71.5289C32.6658 71.7597 32.9788 71.8894 33.3053 71.8894ZM38.7945 71.8894H39.4714C39.7978 71.8894 40.1109 71.7597 40.3417 71.5289C40.5725 71.2981 40.7022 70.985 40.7022 70.6586C40.7022 70.3322 40.5725 70.0191 40.3417 69.7883C40.1109 69.5575 39.7978 69.4278 39.4714 69.4278H38.7945C38.4681 69.4278 38.155 69.5575 37.9242 69.7883C37.6934 70.0191 37.5637 70.3322 37.5637 70.6586C37.5637 70.985 37.6934 71.2981 37.9242 71.5289C38.155 71.7597 38.4681 71.8894 38.7945 71.8894Z" fill="#5CE1E6"/>
</svg>
