<svg width="120" height="120" viewBox="0 0 120 120" fill="none" xmlns="http://www.w3.org/2000/svg">
<g clip-path="url(#clip0_140_1141)">
<path d="M50.6064 9.27281V5.51531C50.6064 3.44016 52.2887 1.75781 54.3639 1.75781H65.6366C67.712 1.75781 69.3943 3.44016 69.3941 5.51531V9.27281H50.6064ZM50.6064 9.27281V11.9445C50.6064 12.8587 50.3839 13.7593 49.9583 14.5684C49.5327 15.3776 48.9166 16.0711 48.1632 16.5891L30.3186 28.8572C27.305 30.929 24.8406 33.7029 23.138 36.9396C21.4354 40.1762 20.5458 43.7785 20.5459 47.4356V110.727C20.5459 114.878 23.9106 118.242 28.0611 118.242H91.9396C96.0901 118.242 99.4548 114.878 99.4548 110.727V47.4354C99.4548 43.7783 98.5651 40.1761 96.8625 36.9394C95.16 33.7028 92.6956 30.9289 89.6821 28.857L71.8375 16.5891C71.0841 16.0711 70.4679 15.3776 70.0423 14.5685C69.6167 13.7593 69.3943 12.8587 69.3943 11.9445V9.27305" stroke="#5CE1E6" stroke-width="6" stroke-miterlimit="10" stroke-linecap="round" stroke-linejoin="round"/>
<path d="M73.1514 44.97V60.0002C73.1514 63.1132 75.6749 65.6365 78.7876 65.6365H86.3029C89.4158 65.6365 91.9391 63.113 91.9391 60.0002V47.4359C91.9391 44.9978 91.346 42.5963 90.2109 40.4386C89.0759 38.2808 87.433 36.4316 85.4239 35.0503L79.0377 30.6598C76.5446 28.9458 73.1514 30.7308 73.1514 33.7561V37.4548M91.9393 52.1262C94.6984 51.1866 95.4611 48.7275 99.4543 48.7275" stroke="#5CE1E6" stroke-width="6" stroke-miterlimit="10" stroke-linecap="round" stroke-linejoin="round"/>
<path d="M20.5459 48.7275C25.4757 48.7275 25.4757 52.485 30.4056 52.485C35.3354 52.485 35.3354 48.7275 40.2653 48.7275C45.1951 48.7275 45.1951 52.485 50.1252 52.485C55.0564 52.485 55.0564 48.7275 59.9875 48.7275C64.9159 48.7275 64.9159 52.485 69.8446 52.485C71.2864 52.485 72.3067 52.1639 73.1521 51.7095M63.9142 78.2225C62.0534 76.9643 59.8578 76.2937 57.6116 76.2973C51.3859 76.2973 46.3389 81.3443 46.3389 87.57C46.3389 93.7957 51.3859 98.8428 57.6116 98.8428C60.14 98.8428 62.2199 98.0103 63.7984 96.6045C64.1258 96.3123 64.4316 95.9968 64.7134 95.6604M71.8665 76.2973V98.8425" stroke="#5CE1E6" stroke-width="6" stroke-miterlimit="10" stroke-linecap="round" stroke-linejoin="round"/>
</g>
<defs>
<clipPath id="clip0_140_1141">
<rect width="120" height="120" fill="white"/>
</clipPath>
</defs>
</svg>
