<svg width="120" height="120" viewBox="0 0 120 120" fill="none" xmlns="http://www.w3.org/2000/svg">
<path d="M119.979 56.1543C119.8 52.8736 118.377 48.7272 115.676 47.3768C114.692 46.8841 113.249 44.5336 111.722 42.0447C106.25 33.1263 97.0919 18.1994 72.2835 16.7868C63.2507 16.2684 54.9726 18.4607 48.2863 21.6925C47.0317 21.6077 45.7746 21.5656 44.5171 21.5662C34.1927 21.5662 22.7561 26.9149 13.9249 35.8736C4.83392 45.0956 -0.745847 56.5003 0.0807932 67.9061C2.32775 98.9212 31.8419 102.91 42.307 103.266C52.7233 103.621 62.1245 99.9018 69.0421 94.1374C70.004 94.2893 74.0845 94.5792 75.1839 94.5792C97.5252 94.5792 106.578 79.5923 111.988 70.6375C113.803 67.6333 115.371 65.0386 116.71 64.1749C118.986 62.7079 120.176 59.7853 119.979 56.1543ZM3.5615 67.8567C3.41314 57.5128 8.09384 46.7461 16.4031 38.317C24.5948 30.0077 35.1044 25.0471 44.5169 25.0471C62.7428 25.0471 71.7264 33.6473 71.9807 51.34C72.3037 73.8011 56.1681 92.2823 34.4484 94.3284C33.1556 94.45 27.2493 95.0538 20.4906 92.9432C10.0478 89.6829 3.74056 80.3664 3.5615 67.8567ZM42.2866 99.7853C42.2866 99.7853 32.8572 100.227 27.4909 97.6886C28.0171 97.709 33.3738 97.9256 34.7749 97.7934C58.3195 95.5753 75.8106 75.5833 75.4617 51.2899C75.4249 48.727 75.2078 46.3361 74.8302 44.1018C77.6779 49.9031 79.6122 56.9578 79.3265 64.2262C78.4935 85.3715 63.6084 99.6614 42.2866 99.7853ZM114.825 61.2485C112.808 62.5481 111.131 65.3236 109.009 68.8378C103.653 77.7014 95.5617 91.0985 75.1844 91.0985C74.2654 91.0985 73.3145 91.061 72.3618 91.0068C78.6166 84.2932 82.3806 75.1439 82.8049 64.3633C83.3221 51.2186 77.1456 38.6704 70.7962 32.0657C69.7757 31.0036 63.895 24.3745 55.0977 22.6816C60.1966 20.9348 65.9727 19.9125 72.0857 20.2619C95.0777 21.5711 103.64 35.5265 108.756 43.8646C110.782 47.1665 112.245 49.5525 114.12 50.49C115.124 50.9922 116.35 53.5195 116.504 56.3435C116.63 58.657 116.001 60.49 114.825 61.2485ZM111.368 52.233C110.394 52.233 109.604 54.3487 109.604 56.958C109.604 59.5678 110.394 61.6832 111.368 61.6832C112.343 61.6832 113.133 59.5678 113.133 56.958C113.133 54.3489 112.343 52.233 111.368 52.233ZM54.8941 77.6979C60.0023 75.1561 62.6212 70.3853 63.9264 66.765C65.099 63.5123 65.6285 59.8992 65.3193 57.682C67.2574 54.5018 67.296 48.3164 65.2828 43.147C63.6541 38.9648 59.2961 31.8318 48.34 30.6288C46.4224 29.5928 43.2944 29.4731 41.9587 29.4731C34.8147 29.4731 25.3984 32.3852 20.1281 40.5157C17.7402 41.8919 14.1206 45.8196 11.6552 50.6369C9.25165 55.3335 7.04689 62.5216 9.97587 70.3345C9.32267 73.9978 10.4191 77.8335 13.097 81.2008C16.6176 85.6272 22.2766 88.601 27.1785 88.601C28.2084 88.601 29.1796 88.4674 30.0754 88.2025C31.1498 88.5082 32.5877 88.6732 34.2245 88.6729C41.2281 88.6727 50.2497 85.7765 54.8941 77.6979ZM60.3656 65.5842C59.3095 68.474 57.2477 72.2496 53.3847 74.2523L40.8916 60.2629L61.6567 59.2263C61.6284 60.6393 61.3183 62.9772 60.3656 65.5842ZM50.0324 34.6898C57.092 36.1654 60.3182 40.7325 61.7885 44.5078C63.6236 49.2196 63.1445 53.6545 62.2774 55.4409L39.6142 56.5722L50.0324 34.6898ZM41.9587 33.2228C44.1754 33.2228 45.6384 33.5528 46.2986 33.8085L36.2031 55.0134L24.0709 41.4288C28.6443 35.415 36.1577 33.2228 41.9587 33.2228ZM12.9449 67.3087C10.0977 56.5558 18.1413 46.5239 21.4445 44.1178L33.7059 57.8472L12.9449 67.3087ZM28.5027 84.7251C28.0665 84.8098 27.6231 84.8519 27.1788 84.851C23.478 84.851 18.7902 82.3343 16.0321 78.8664C14.6242 77.0962 13.1123 74.3472 13.6488 71.1089L33.8716 61.8925L28.5027 84.7251ZM32.3327 84.8205L37.6394 62.2516L50.8621 77.0575C45.6625 84.5186 36.1846 84.9229 34.2245 84.9229C33.4752 84.9229 32.8457 84.881 32.3327 84.8205Z" fill="#5CE1E6"/>
</svg>
