<svg width="120" height="120" viewBox="0 0 120 120" fill="none" xmlns="http://www.w3.org/2000/svg">
<path d="M27.86 47.5053C28.4782 47.5154 29.0924 47.4023 29.6665 47.1727C30.2407 46.9431 30.7634 46.6014 31.2042 46.1678C31.645 45.7341 31.9951 45.217 32.234 44.6467C32.473 44.0763 32.5961 43.4641 32.5961 42.8458C32.5961 42.2274 32.473 41.6152 32.234 41.0448C31.9951 40.4745 31.645 39.9574 31.2042 39.5238C30.7634 39.0901 30.2407 38.7485 29.6665 38.5188C29.0924 38.2892 28.4782 38.1761 27.86 38.1862C26.624 38.1862 25.4386 38.6772 24.5647 39.5511C23.6907 40.4251 23.1997 41.6104 23.1997 42.8464C23.1997 44.0823 23.6907 45.2677 24.5647 46.1416C25.4386 47.0156 26.624 47.5053 27.86 47.5053ZM15.1758 61.8299C16.4118 61.8299 17.5971 61.3389 18.4711 60.4649C19.3451 59.591 19.836 58.4056 19.836 57.1697C19.836 55.9337 19.3451 54.7484 18.4711 53.8744C17.5971 53.0004 16.4118 52.5095 15.1758 52.5095C13.9399 52.5095 12.7545 53.0004 11.8806 53.8744C11.0066 54.7484 10.5156 55.9337 10.5156 57.1697C10.5156 58.4056 11.0066 59.591 11.8806 60.4649C12.7545 61.3389 13.9399 61.8299 15.1758 61.8299Z" fill="#5CE1E6"/>
<path fill-rule="evenodd" clip-rule="evenodd" d="M95.766 12.2833C93.2333 10.9714 90.2832 10.7193 87.5647 11.5823C84.8461 12.4453 82.5817 14.3529 81.2695 16.8854L69.3375 39.9229C69.2744 40.0446 69.219 40.1702 69.1717 40.299C63.3276 40.0986 57.5379 42.6804 53.6336 47.2503C49.0315 52.6342 43.3717 58.5105 38.5358 61.5105C31.6402 65.7885 25.9396 67.3299 22.3989 67.8767C21.4197 68.0263 20.4918 68.4126 19.6957 69.002C18.8996 69.5914 18.2593 70.3661 17.8303 71.259C16.9742 73.0652 17.0385 75.4305 18.7012 77.2614C22.3136 81.2425 29.3565 87.7621 42.2744 95.979C51.2212 101.67 59.2426 104.816 63.5602 106.274C66.8694 107.391 70.4051 106.113 72.3029 103.271C74.7029 99.6755 78.9189 92.8961 82.5387 84.647C85.2158 78.5456 87.5218 72.2548 89.7301 65.9765C91.5919 60.6792 90.7544 55.0924 87.9239 50.6759L100.358 26.8008C101.011 25.5464 101.411 24.1754 101.533 22.7664C101.656 21.3574 101.5 19.9381 101.073 18.5896C100.647 17.2411 99.9583 15.99 99.0476 14.9079C98.1369 13.8258 97.0218 12.9339 95.766 12.2833ZM83.234 45.7546L94.6525 23.8293C94.9291 23.3244 95.1019 22.7693 95.161 22.1967C95.2202 21.6241 95.1643 21.0455 94.9967 20.4947C94.8292 19.944 94.5533 19.4323 94.1853 18.9896C93.8172 18.547 93.3645 18.1823 92.8537 17.917C92.3428 17.6516 91.7841 17.491 91.2103 17.4446C90.6365 17.3981 90.0592 17.4667 89.5123 17.6464C88.9654 17.8261 88.4599 18.1132 88.0255 18.4908C87.5911 18.8685 87.2364 19.3292 86.9824 19.8458L75.6455 41.7278C76.0253 41.8887 76.4014 42.0631 76.775 42.2524L80.9169 44.353C81.7334 44.7662 82.5053 45.2351 83.2327 45.7534L83.234 45.7546ZM83.6608 63.8425C83.2031 65.1464 82.7206 66.5023 82.2183 67.8829L56.1152 54.1831C56.9565 53.2466 57.7606 52.3225 58.5251 51.4293C62.4097 46.8816 68.7882 45.4157 73.8678 47.9913L78.0097 50.092C83.1127 52.6788 85.5264 58.5414 83.6633 63.8425H83.6608ZM41.9268 66.9773C45.1012 65.0078 48.413 62.1303 51.5206 59.0375L51.5626 59.0598L79.9544 73.9584C78.9139 76.6844 77.8118 79.3866 76.6488 82.0627C73.2307 89.8515 69.2299 96.2895 66.9548 99.6977C66.6307 100.184 66.1037 100.342 65.6187 100.18C62.9548 99.2716 60.3372 98.2324 57.7754 97.0664C59.2761 95.4829 61.4534 92.8973 63.5391 89.3419C64.441 87.8066 63.9202 85.8569 62.3763 84.9872C60.8323 84.1175 58.8492 84.6594 57.9474 86.1946C56.2699 89.0524 54.2224 91.8656 51.7111 94.0602C49.6753 92.962 47.6793 91.7914 45.7272 90.5505C44.1402 89.5422 42.5689 88.5095 41.0138 87.4528C41.8846 86.8633 42.7203 86.2235 43.5165 85.5365C44.8686 84.3773 45.0035 82.3707 43.8158 81.0582C42.6282 79.7456 40.5709 79.6194 39.2175 80.7798C37.2257 82.487 35.8365 83.1365 35.2748 83.3555C30.1532 79.508 26.7214 76.3472 24.5008 74.0437C28.8035 73.2433 34.8802 71.348 41.9268 66.9773Z" fill="#5CE1E6"/>
</svg>
