<svg width="120" height="120" viewBox="0 0 120 120" fill="none" xmlns="http://www.w3.org/2000/svg">
<path d="M107.812 17.1216V5.625C107.811 4.13369 107.218 2.70396 106.163 1.64944C105.109 0.594927 103.679 0.00173682 102.188 0L30.9375 0C29.4462 0.00173682 28.0165 0.594927 26.9619 1.64944C25.9074 2.70396 25.3142 4.13369 25.3125 5.625V19.7672C25.9313 19.7194 26.5556 19.6875 27.1875 19.6875C27.8194 19.6875 28.4437 19.7194 29.0625 19.7672V5.625C29.063 5.12787 29.2607 4.65125 29.6122 4.29972C29.9637 3.9482 30.4404 3.7505 30.9375 3.75H102.188C102.685 3.7505 103.161 3.9482 103.513 4.29972C103.864 4.65125 104.062 5.12787 104.062 5.625V17.1216C102.455 17.5379 101.03 18.4758 100.012 19.7884C98.9943 21.1009 98.4405 22.714 98.4375 24.375V86.2725C98.4404 88.4616 98.9196 90.6238 99.8419 92.6091L104.062 101.665V114.375C104.062 114.872 103.864 115.349 103.513 115.7C103.161 116.052 102.685 116.25 102.188 116.25H30.9375C30.4404 116.25 29.9637 116.052 29.6122 115.7C29.2607 115.349 29.063 114.872 29.0625 114.375V100.133C27.8239 100.372 26.5511 100.372 25.3125 100.133V114.375C25.3142 115.866 25.9074 117.296 26.9619 118.351C28.0165 119.405 29.4462 119.998 30.9375 120H102.188C103.679 119.998 105.109 119.405 106.163 118.351C107.218 117.296 107.811 115.866 107.812 114.375V101.664L112.033 92.6081C112.955 90.6234 113.434 88.4619 113.438 86.2734V24.375C113.435 22.714 112.881 21.1009 111.863 19.7884C110.845 18.4758 109.42 17.5379 107.812 17.1216ZM109.688 40.3125H102.188V24.375C102.188 23.3804 102.583 22.4266 103.286 21.7234C103.989 21.0201 104.943 20.625 105.938 20.625C106.932 20.625 107.886 21.0201 108.589 21.7234C109.292 22.4266 109.688 23.3804 109.688 24.375V40.3125Z" fill="#5CE1E6"/>
<path d="M33.75 89.9998V74.9998C33.7479 73.5874 33.2908 72.2133 32.4465 71.0811C31.6022 69.9489 30.4156 69.1188 29.0625 68.7138V64.5982C34.3482 64.1157 39.2443 61.6141 42.7326 57.6137C46.2208 53.6134 48.0327 48.4222 47.7912 43.1201C47.5497 37.818 45.2734 32.8131 41.4359 29.1464C37.5984 25.4797 32.4951 23.4336 27.1875 23.4336C21.8799 23.4336 16.7766 25.4797 12.9391 29.1464C9.10162 32.8131 6.82539 37.818 6.58388 43.1201C6.34238 48.4222 8.15419 53.6134 11.6425 57.6137C15.1307 61.6141 20.0269 64.1157 25.3125 64.5982V68.7138C23.9595 69.1188 22.7729 69.9489 21.9286 71.0811C21.0843 72.2133 20.6272 73.5874 20.625 74.9998V89.9998C20.625 91.7402 21.3164 93.4094 22.5471 94.6401C23.7778 95.8708 25.447 96.5623 27.1875 96.5623C28.928 96.5623 30.5972 95.8708 31.8279 94.6401C33.0586 93.4094 33.75 91.7402 33.75 89.9998ZM10.3125 44.0623C10.3125 40.7247 11.3022 37.4621 13.1565 34.687C15.0107 31.9119 17.6462 29.749 20.7297 28.4718C23.8132 27.1946 27.2062 26.8604 30.4797 27.5115C33.7531 28.1626 36.7599 29.7698 39.1199 32.1298C41.48 34.4898 43.0871 37.4967 43.7383 40.7701C44.3894 44.0435 44.0552 47.4365 42.778 50.52C41.5008 53.6035 39.3378 56.2391 36.5628 58.0933C33.7877 59.9476 30.5251 60.9373 27.1875 60.9373C22.712 60.9373 18.4198 59.1594 15.2551 55.9947C12.0904 52.83 10.3125 48.5378 10.3125 44.0623ZM24.375 89.9998V74.9998C24.375 74.2538 24.6713 73.5385 25.1988 73.011C25.7262 72.4836 26.4416 72.1873 27.1875 72.1873C27.9334 72.1873 28.6488 72.4836 29.1763 73.011C29.7037 73.5385 30 74.2538 30 74.9998V89.9998C30 90.7457 29.7037 91.4611 29.1763 91.9885C28.6488 92.5159 27.9334 92.8123 27.1875 92.8123C26.4416 92.8123 25.7262 92.5159 25.1988 91.9885C24.6713 91.4611 24.375 90.7457 24.375 89.9998ZM34.6875 102.187C34.6875 103.856 35.1824 105.487 36.1095 106.875C37.0366 108.262 38.3544 109.344 39.8961 109.982C41.4379 110.621 43.1344 110.788 44.7711 110.463C46.4078 110.137 47.9112 109.333 49.0912 108.153C50.2712 106.973 51.0748 105.47 51.4004 103.833C51.726 102.197 51.5589 100.5 50.9202 98.9584C50.2816 97.4166 49.2002 96.0989 47.8126 95.1717C46.4251 94.2446 44.7938 93.7498 43.125 93.7498C40.888 93.7522 38.7433 94.642 37.1615 96.2238C35.5797 97.8056 34.69 99.9503 34.6875 102.187ZM85.3125 98.4373C85.3125 97.94 85.115 97.4631 84.7634 97.1114C84.4117 96.7598 83.9348 96.5623 83.4375 96.5623H60C59.5027 96.5623 59.0258 96.7598 58.6742 97.1114C58.3226 97.4631 58.125 97.94 58.125 98.4373C58.125 98.9345 58.3226 99.4115 58.6742 99.7631C59.0258 100.115 59.5027 100.312 60 100.312H83.4375C83.9348 100.312 84.4117 100.115 84.7634 99.7631C85.115 99.4115 85.3125 98.9345 85.3125 98.4373ZM60 104.062C59.5027 104.062 59.0258 104.26 58.6742 104.611C58.3226 104.963 58.125 105.44 58.125 105.937C58.125 106.435 58.3226 106.911 58.6742 107.263C59.0258 107.615 59.5027 107.812 60 107.812H75C75.4973 107.812 75.9742 107.615 76.3259 107.263C76.6775 106.911 76.875 106.435 76.875 105.937C76.875 105.44 76.6775 104.963 76.3259 104.611C75.9742 104.26 75.4973 104.062 75 104.062H60Z" fill="#5CE1E6"/>
<path d="M83.4375 78.75H37.5V82.5H83.4375C83.9348 82.5 84.4117 82.3025 84.7633 81.9508C85.115 81.5992 85.3125 81.1223 85.3125 80.625C85.3125 80.1277 85.115 79.6508 84.7633 79.2992C84.4117 78.9475 83.9348 78.75 83.4375 78.75ZM83.4375 71.25H36.7753C37.2514 72.4431 37.4973 73.7155 37.5 75H83.4375C83.9348 75 84.4117 74.8025 84.7633 74.4508C85.115 74.0992 85.3125 73.6223 85.3125 73.125C85.3125 72.6277 85.115 72.1508 84.7633 71.7992C84.4117 71.4475 83.9348 71.25 83.4375 71.25ZM83.4375 63.75H41.5125C39.2876 65.3802 36.8015 66.6198 34.1606 67.4156C34.3313 67.469 34.5087 67.4974 34.6875 67.5H83.4375C83.9348 67.5 84.4117 67.3025 84.7633 66.9508C85.115 66.5992 85.3125 66.1223 85.3125 65.625C85.3125 65.1277 85.115 64.6508 84.7633 64.2992C84.4117 63.9475 83.9348 63.75 83.4375 63.75ZM83.4375 56.25H48.2672C47.4976 57.581 46.6043 58.8366 45.5991 60H83.4375C83.9348 60 84.4117 59.8025 84.7633 59.4508C85.115 59.0992 85.3125 58.6223 85.3125 58.125C85.3125 57.6277 85.115 57.1508 84.7633 56.7992C84.4117 56.4475 83.9348 56.25 83.4375 56.25ZM83.4375 45H51.5231C51.4767 46.2593 51.3326 47.5131 51.0919 48.75H83.4375C83.9348 48.75 84.4117 48.5525 84.7633 48.2008C85.115 47.8492 85.3125 47.3723 85.3125 46.875C85.3125 46.3777 85.115 45.9008 84.7633 45.5492C84.4117 45.1975 83.9348 45 83.4375 45ZM83.4375 37.5H50.6578C51.0023 38.7286 51.249 39.9825 51.3956 41.25H83.4375C83.9348 41.25 84.4117 41.0525 84.7633 40.7008C85.115 40.3492 85.3125 39.8723 85.3125 39.375C85.3125 38.8777 85.115 38.4008 84.7633 38.0492C84.4117 37.6975 83.9348 37.5 83.4375 37.5ZM83.4375 30H47.0784C47.9179 31.1824 48.6502 32.4374 49.2666 33.75H83.4375C83.9348 33.75 84.4117 33.5525 84.7633 33.2008C85.115 32.8492 85.3125 32.3723 85.3125 31.875C85.3125 31.3777 85.115 30.9008 84.7633 30.5492C84.4117 30.1975 83.9348 30 83.4375 30ZM83.4375 22.5H38.5359C40.4493 23.5118 42.22 24.7728 43.8019 26.25H83.4375C83.9348 26.25 84.4117 26.0525 84.7633 25.7008C85.115 25.3492 85.3125 24.8723 85.3125 24.375C85.3125 23.8777 85.115 23.4008 84.7633 23.0492C84.4117 22.6975 83.9348 22.5 83.4375 22.5ZM14.0625 44.0625C14.0614 47.2163 15.1989 50.2645 17.2658 52.6466C19.3327 55.0287 22.1901 56.5846 25.3125 57.0281V31.0969C22.1901 31.5404 19.3327 33.0963 17.2658 35.4784C15.1989 37.8605 14.0614 40.9087 14.0625 44.0625ZM39.4313 48.75H34.6875C34.1902 48.75 33.7133 48.5525 33.3617 48.2008C33.01 47.8492 32.8125 47.3723 32.8125 46.875C32.8125 46.3777 33.01 45.9008 33.3617 45.5492C33.7133 45.1975 34.1902 45 34.6875 45H40.2656C40.2938 44.6906 40.3125 44.3813 40.3125 44.0625C40.3116 43.116 40.2047 42.1727 39.9937 41.25H34.6875C34.1902 41.25 33.7133 41.0525 33.3617 40.7008C33.01 40.3492 32.8125 39.8723 32.8125 39.375C32.8125 38.8777 33.01 38.4008 33.3617 38.0492C33.7133 37.6975 34.1902 37.5 34.6875 37.5H38.5406C37.7091 36.0485 36.6007 34.7743 35.2781 33.75H34.6875C34.2537 33.7504 33.8333 33.6 33.4982 33.3247C33.163 33.0494 32.9339 32.6662 32.85 32.2406C31.6594 31.6509 30.3798 31.2613 29.0625 31.0875V57.0281C31.3723 56.6993 33.552 55.7582 35.3753 54.3025C37.1986 52.8468 38.5991 50.9297 39.4313 48.75Z" fill="#5CE1E6"/>
</svg>
