<svg width="120" height="120" viewBox="0 0 120 120" fill="none" xmlns="http://www.w3.org/2000/svg">
<path d="M91.875 116.25H28.125C24.6453 116.246 21.3092 114.862 18.8486 112.401C16.3881 109.941 15.004 106.605 15 103.125V16.875C15.004 13.3953 16.3881 10.0592 18.8486 7.59861C21.3092 5.13805 24.6453 3.75397 28.125 3.75H91.875C95.3548 3.75397 98.6908 5.13805 101.151 7.59861C103.612 10.0592 104.996 13.3953 105 16.875V103.125C104.996 106.605 103.612 109.941 101.151 112.401C98.6908 114.862 95.3548 116.246 91.875 116.25ZM28.125 7.5C25.6395 7.50298 23.2567 8.49165 21.4992 10.2492C19.7417 12.0067 18.753 14.3895 18.75 16.875V103.125C18.753 105.61 19.7417 107.993 21.4992 109.751C23.2567 111.508 25.6395 112.497 28.125 112.5H91.875C94.3605 112.497 96.7433 111.508 98.5008 109.751C100.258 107.993 101.247 105.61 101.25 103.125V16.875C101.247 14.3895 100.258 12.0067 98.5008 10.2492C96.7433 8.49165 94.3605 7.50298 91.875 7.5H28.125Z" fill="#5CE1E6"/>
<path d="M65.625 108.75H54.375C52.8832 108.75 51.4524 108.157 50.3975 107.102C49.3426 106.048 48.75 104.617 48.75 103.125V95.625C48.75 94.1332 49.3426 92.7024 50.3975 91.6475C51.4524 90.5926 52.8832 90 54.375 90H65.625C67.1168 90 68.5476 90.5926 69.6025 91.6475C70.6574 92.7024 71.25 94.1332 71.25 95.625V103.125C71.25 104.617 70.6574 106.048 69.6025 107.102C68.5476 108.157 67.1168 108.75 65.625 108.75ZM54.375 93.75C53.8777 93.75 53.4008 93.9475 53.0492 94.2992C52.6975 94.6508 52.5 95.1277 52.5 95.625V103.125C52.5 103.622 52.6975 104.099 53.0492 104.451C53.4008 104.802 53.8777 105 54.375 105H65.625C66.1223 105 66.5992 104.802 66.9508 104.451C67.3025 104.099 67.5 103.622 67.5 103.125V95.625C67.5 95.1277 67.3025 94.6508 66.9508 94.2992C66.5992 93.9475 66.1223 93.75 65.625 93.75H54.375ZM39.375 108.75H28.125C26.6332 108.75 25.2024 108.157 24.1475 107.102C23.0926 106.048 22.5 104.617 22.5 103.125V95.625C22.5 94.1332 23.0926 92.7024 24.1475 91.6475C25.2024 90.5926 26.6332 90 28.125 90H39.375C40.8668 90 42.2976 90.5926 43.3525 91.6475C44.4074 92.7024 45 94.1332 45 95.625V103.125C45 104.617 44.4074 106.048 43.3525 107.102C42.2976 108.157 40.8668 108.75 39.375 108.75ZM28.125 93.75C27.6277 93.75 27.1508 93.9475 26.7992 94.2992C26.4475 94.6508 26.25 95.1277 26.25 95.625V103.125C26.25 103.622 26.4475 104.099 26.7992 104.451C27.1508 104.802 27.6277 105 28.125 105H39.375C39.8723 105 40.3492 104.802 40.7008 104.451C41.0525 104.099 41.25 103.622 41.25 103.125V95.625C41.25 95.1277 41.0525 94.6508 40.7008 94.2992C40.3492 93.9475 39.8723 93.75 39.375 93.75H28.125ZM91.875 108.75H80.625C79.1332 108.75 77.7024 108.157 76.6475 107.102C75.5926 106.048 75 104.617 75 103.125V73.125C75 71.6332 75.5926 70.2024 76.6475 69.1475C77.7024 68.0926 79.1332 67.5 80.625 67.5H91.875C93.3668 67.5 94.7976 68.0926 95.8525 69.1475C96.9074 70.2024 97.5 71.6332 97.5 73.125V103.125C97.5 104.617 96.9074 106.048 95.8525 107.102C94.7976 108.157 93.3668 108.75 91.875 108.75ZM80.625 71.25C80.1277 71.25 79.6508 71.4475 79.2992 71.7992C78.9475 72.1508 78.75 72.6277 78.75 73.125V103.125C78.75 103.622 78.9475 104.099 79.2992 104.451C79.6508 104.802 80.1277 105 80.625 105H91.875C92.3723 105 92.8492 104.802 93.2008 104.451C93.5525 104.099 93.75 103.622 93.75 103.125V73.125C93.75 72.6277 93.5525 72.1508 93.2008 71.7992C92.8492 71.4475 92.3723 71.25 91.875 71.25H80.625ZM65.625 86.25H54.375C52.8832 86.25 51.4524 85.6574 50.3975 84.6025C49.3426 83.5476 48.75 82.1168 48.75 80.625V73.125C48.75 71.6332 49.3426 70.2024 50.3975 69.1475C51.4524 68.0926 52.8832 67.5 54.375 67.5H65.625C67.1168 67.5 68.5476 68.0926 69.6025 69.1475C70.6574 70.2024 71.25 71.6332 71.25 73.125V80.625C71.25 82.1168 70.6574 83.5476 69.6025 84.6025C68.5476 85.6574 67.1168 86.25 65.625 86.25ZM54.375 71.25C53.8777 71.25 53.4008 71.4475 53.0492 71.7992C52.6975 72.1508 52.5 72.6277 52.5 73.125V80.625C52.5 81.1223 52.6975 81.5992 53.0492 81.9508C53.4008 82.3025 53.8777 82.5 54.375 82.5H65.625C66.1223 82.5 66.5992 82.3025 66.9508 81.9508C67.3025 81.5992 67.5 81.1223 67.5 80.625V73.125C67.5 72.6277 67.3025 72.1508 66.9508 71.7992C66.5992 71.4475 66.1223 71.25 65.625 71.25H54.375ZM39.375 86.25H28.125C26.6332 86.25 25.2024 85.6574 24.1475 84.6025C23.0926 83.5476 22.5 82.1168 22.5 80.625V73.125C22.5 71.6332 23.0926 70.2024 24.1475 69.1475C25.2024 68.0926 26.6332 67.5 28.125 67.5H39.375C40.8668 67.5 42.2976 68.0926 43.3525 69.1475C44.4074 70.2024 45 71.6332 45 73.125V80.625C45 82.1168 44.4074 83.5476 43.3525 84.6025C42.2976 85.6574 40.8668 86.25 39.375 86.25ZM28.125 71.25C27.6277 71.25 27.1508 71.4475 26.7992 71.7992C26.4475 72.1508 26.25 72.6277 26.25 73.125V80.625C26.25 81.1223 26.4475 81.5992 26.7992 81.9508C27.1508 82.3025 27.6277 82.5 28.125 82.5H39.375C39.8723 82.5 40.3492 82.3025 40.7008 81.9508C41.0525 81.5992 41.25 81.1223 41.25 80.625V73.125C41.25 72.6277 41.0525 72.1508 40.7008 71.7992C40.3492 71.4475 39.8723 71.25 39.375 71.25H28.125ZM65.625 63.75H54.375C52.8832 63.75 51.4524 63.1574 50.3975 62.1025C49.3426 61.0476 48.75 59.6168 48.75 58.125V50.625C48.75 49.1332 49.3426 47.7024 50.3975 46.6475C51.4524 45.5926 52.8832 45 54.375 45H65.625C67.1168 45 68.5476 45.5926 69.6025 46.6475C70.6574 47.7024 71.25 49.1332 71.25 50.625V58.125C71.25 59.6168 70.6574 61.0476 69.6025 62.1025C68.5476 63.1574 67.1168 63.75 65.625 63.75ZM54.375 48.75C53.8777 48.75 53.4008 48.9475 53.0492 49.2992C52.6975 49.6508 52.5 50.1277 52.5 50.625V58.125C52.5 58.6223 52.6975 59.0992 53.0492 59.4508C53.4008 59.8025 53.8777 60 54.375 60H65.625C66.1223 60 66.5992 59.8025 66.9508 59.4508C67.3025 59.0992 67.5 58.6223 67.5 58.125V50.625C67.5 50.1277 67.3025 49.6508 66.9508 49.2992C66.5992 48.9475 66.1223 48.75 65.625 48.75H54.375ZM39.375 63.75H28.125C26.6332 63.75 25.2024 63.1574 24.1475 62.1025C23.0926 61.0476 22.5 59.6168 22.5 58.125V50.625C22.5 49.1332 23.0926 47.7024 24.1475 46.6475C25.2024 45.5926 26.6332 45 28.125 45H39.375C40.8668 45 42.2976 45.5926 43.3525 46.6475C44.4074 47.7024 45 49.1332 45 50.625V58.125C45 59.6168 44.4074 61.0476 43.3525 62.1025C42.2976 63.1574 40.8668 63.75 39.375 63.75ZM28.125 48.75C27.6277 48.75 27.1508 48.9475 26.7992 49.2992C26.4475 49.6508 26.25 50.1277 26.25 50.625V58.125C26.25 58.6223 26.4475 59.0992 26.7992 59.4508C27.1508 59.8025 27.6277 60 28.125 60H39.375C39.8723 60 40.3492 59.8025 40.7008 59.4508C41.0525 59.0992 41.25 58.6223 41.25 58.125V50.625C41.25 50.1277 41.0525 49.6508 40.7008 49.2992C40.3492 48.9475 39.8723 48.75 39.375 48.75H28.125ZM91.875 63.75H80.625C79.1332 63.75 77.7024 63.1574 76.6475 62.1025C75.5926 61.0476 75 59.6168 75 58.125V50.625C75 49.1332 75.5926 47.7024 76.6475 46.6475C77.7024 45.5926 79.1332 45 80.625 45H91.875C93.3668 45 94.7976 45.5926 95.8525 46.6475C96.9074 47.7024 97.5 49.1332 97.5 50.625V58.125C97.5 59.6168 96.9074 61.0476 95.8525 62.1025C94.7976 63.1574 93.3668 63.75 91.875 63.75ZM80.625 48.75C80.1277 48.75 79.6508 48.9475 79.2992 49.2992C78.9475 49.6508 78.75 50.1277 78.75 50.625V58.125C78.75 58.6223 78.9475 59.0992 79.2992 59.4508C79.6508 59.8025 80.1277 60 80.625 60H91.875C92.3723 60 92.8492 59.8025 93.2008 59.4508C93.5525 59.0992 93.75 58.6223 93.75 58.125V50.625C93.75 50.1277 93.5525 49.6508 93.2008 49.2992C92.8492 48.9475 92.3723 48.75 91.875 48.75H80.625ZM91.875 37.5H28.125C26.6332 37.5 25.2024 36.9074 24.1475 35.8525C23.0926 34.7976 22.5 33.3668 22.5 31.875V16.875C22.5 15.3832 23.0926 13.9524 24.1475 12.8975C25.2024 11.8426 26.6332 11.25 28.125 11.25H91.875C93.3668 11.25 94.7976 11.8426 95.8525 12.8975C96.9074 13.9524 97.5 15.3832 97.5 16.875V31.875C97.5 33.3668 96.9074 34.7976 95.8525 35.8525C94.7976 36.9074 93.3668 37.5 91.875 37.5ZM28.125 15C27.6277 15 27.1508 15.1975 26.7992 15.5492C26.4475 15.9008 26.25 16.3777 26.25 16.875V31.875C26.25 32.3723 26.4475 32.8492 26.7992 33.2008C27.1508 33.5525 27.6277 33.75 28.125 33.75H91.875C92.3723 33.75 92.8492 33.5525 93.2008 33.2008C93.5525 32.8492 93.75 32.3723 93.75 31.875V16.875C93.75 16.3777 93.5525 15.9008 93.2008 15.5492C92.8492 15.1975 92.3723 15 91.875 15H28.125Z" fill="#5CE1E6"/>
<path d="M86.25 31.875C84.7582 31.875 83.3274 31.2824 82.2725 30.2275C81.2176 29.1726 80.625 27.7418 80.625 26.25V22.5C80.625 21.0082 81.2176 19.5774 82.2725 18.5225C83.3274 17.4676 84.7582 16.875 86.25 16.875C87.7418 16.875 89.1726 17.4676 90.2275 18.5225C91.2824 19.5774 91.875 21.0082 91.875 22.5V26.25C91.875 27.7418 91.2824 29.1726 90.2275 30.2275C89.1726 31.2824 87.7418 31.875 86.25 31.875ZM86.25 20.625C85.7527 20.625 85.2758 20.8225 84.9242 21.1742C84.5725 21.5258 84.375 22.0027 84.375 22.5V26.25C84.375 26.7473 84.5725 27.2242 84.9242 27.5758C85.2758 27.9275 85.7527 28.125 86.25 28.125C86.7473 28.125 87.2242 27.9275 87.5758 27.5758C87.9275 27.2242 88.125 26.7473 88.125 26.25V22.5C88.125 22.0027 87.9275 21.5258 87.5758 21.1742C87.2242 20.8225 86.7473 20.625 86.25 20.625Z" fill="#5CE1E6"/>
</svg>
