<svg width="120" height="120" viewBox="0 0 120 120" fill="none" xmlns="http://www.w3.org/2000/svg">
<g clip-path="url(#clip0_140_1172)">
<path d="M105.412 3.74841H44.3009C43.7527 1.59793 41.8052 0 39.4859 0C36.7427 0 34.5114 2.23189 34.5114 4.97453V11.078C30.4183 11.7815 27.293 15.3535 27.293 19.6441V30.3601H7.48823C7.09236 30.3601 6.7127 30.5174 6.43278 30.7973C6.15286 31.0772 5.9956 31.4569 5.9956 31.8528C5.9956 31.8528 6.00157 39.399 6.00265 39.4229C6.00428 39.4435 6.36848 40.4514 6.81573 40.6783L24.9243 55.8375V60.6063H10.524C7.97076 60.6063 5.89355 62.6835 5.89355 65.2372C5.89374 65.9834 6.07416 66.7186 6.41946 67.3801C6.76477 68.0416 7.26474 68.6099 7.87685 69.0367L12.3206 72.1327V112.537C12.3206 116.653 15.6684 120.001 19.7837 120.001H50.933C55.0484 120.001 58.3962 116.653 58.3962 112.537V68.0694C58.3962 63.9541 55.0484 60.6063 50.933 60.6063H39.3871V55.8375L57.4957 40.6783C57.7213 40.5639 57.9139 40.3937 58.0552 40.184C58.1966 39.9742 58.282 39.7319 58.3034 39.4798C58.3056 39.463 58.3164 31.8528 58.3164 31.8528C58.3164 31.4569 58.1592 31.0772 57.8792 30.7973C57.5993 30.5174 57.2197 30.3601 56.8238 30.3601H37.4798V24.4591C38.1114 24.7398 38.7948 24.8849 39.4859 24.8852C41.8052 24.8852 43.7527 23.2878 44.3009 21.1368H105.412C110.206 21.1368 114.106 17.2364 114.106 12.4426C114.106 7.64879 110.206 3.74841 105.412 3.74841ZM30.2783 19.6441C30.2783 17.0127 32.0683 14.7912 34.4946 14.1333V30.3601H30.2783V19.6441ZM55.4109 112.537C55.4109 115.006 53.4021 117.015 50.933 117.015H19.7837C17.3146 117.015 15.3058 115.006 15.3058 112.537V91.4419H55.4109V112.537ZM50.933 63.5915C53.4021 63.5915 55.4109 65.6004 55.4109 68.0694V88.4566H15.3058V70.5738L9.58334 66.5871C9.29648 66.3866 9.08098 66.0999 8.96812 65.7687C8.85526 65.4374 8.85091 65.0788 8.9557 64.7449C9.06049 64.4109 9.26897 64.1191 9.55088 63.9117C9.83279 63.7043 10.1735 63.5922 10.5234 63.5915H50.933ZM36.937 53.9958C36.7696 54.1359 36.635 54.311 36.5426 54.5088C36.4502 54.7066 36.4024 54.9222 36.4024 55.1405V60.6063H27.9101V55.1405C27.9101 54.6987 27.7147 54.2797 27.3755 53.9958L11.666 40.8455H52.646L36.937 53.9958ZM55.3312 33.3454V37.8602H8.98086V33.3454H55.3312ZM41.4752 10.9499H41.4388V13.9352H41.4752V19.9106C41.4752 21.0076 40.5829 21.8999 39.4859 21.8999C38.389 21.8999 37.4966 21.0076 37.4966 19.9106V4.97453C37.4966 3.87759 38.389 2.98526 39.4859 2.98526C40.5829 2.98526 41.4752 3.87759 41.4752 4.97453V10.9499ZM105.412 18.152H44.4604V13.9358H110.916C110.257 16.3603 108.043 18.152 105.412 18.152ZM44.4604 10.9499V6.73367H105.412C108.043 6.73367 110.258 8.52483 110.916 10.9499H44.4604Z" fill="#5CE1E6"/>
<path d="M40.6744 101.976H50.9334V104.961H40.6744V101.976ZM40.6744 74.9375H50.9334V77.9228H40.6744V74.9375ZM35.0713 81.6972H50.9334V84.6825H35.0713V81.6972ZM35.0713 95.2161H50.9334V98.2014H35.0713V95.2161ZM35.0713 108.834H50.9334V111.819H35.0713V108.834Z" fill="#5CE1E6"/>
</g>
<defs>
<clipPath id="clip0_140_1172">
<rect width="120" height="120" fill="white"/>
</clipPath>
</defs>
</svg>
