<svg width="120" height="120" viewBox="0 0 120 120" fill="none" xmlns="http://www.w3.org/2000/svg">
<path d="M24.4404 13.1904C18.2361 13.1904 13.1904 18.2361 13.1904 24.4404C13.1904 30.6448 18.2361 35.6904 24.4404 35.6904C30.6448 35.6904 35.6904 30.6448 35.6904 24.4404C35.6904 18.2361 30.6448 13.1904 24.4404 13.1904ZM24.4404 31.9404C20.3042 31.9404 16.9404 28.5767 16.9404 24.4404C16.9404 20.3042 20.3042 16.9404 24.4404 16.9404C28.5767 16.9404 31.9404 20.3042 31.9404 24.4404C31.9404 28.5767 28.5767 31.9404 24.4404 31.9404ZM108.2 91.3254L105.549 88.6742L91.8748 102.349L89.4504 99.9242L86.7992 102.575L91.8748 107.651L108.2 91.3254ZM65.6248 22.4998H69.3748V26.2498H65.6248V22.4998ZM88.1248 22.4998H91.8748V26.2498H88.1248V22.4998ZM80.6248 22.4998H84.3748V26.2498H80.6248V22.4998ZM73.1248 22.4998H76.8748V26.2498H73.1248V22.4998Z" fill="#5CE1E6"/>
<path d="M45 69.3748H75C78.1012 69.3748 80.625 66.8511 80.625 63.7498V61.8748H105C112.236 61.8748 118.125 55.9873 118.125 48.7498V35.6248C118.125 28.3873 112.236 22.4998 105 22.4998H99.375V20.6248C99.375 17.5236 96.8512 14.9998 93.75 14.9998H63.75C60.6488 14.9998 58.125 17.5236 58.125 20.6248V22.4998H46.9406V19.2598L42.0187 17.9154C41.8575 17.4842 41.6775 17.0548 41.4825 16.6311L44.0156 12.1948L36.6881 4.8673L32.2537 7.39856C31.8281 7.20356 31.4006 7.02355 30.9694 6.8623L29.6231 1.94043H19.26L17.9137 6.8623C17.4795 7.02449 17.0517 7.20338 16.6312 7.39856L12.195 4.8673L4.8675 12.1948L7.39875 16.6311C7.20375 17.0548 7.02375 17.4842 6.8625 17.9154L1.94062 19.2598V29.6211L6.8625 30.9673C7.02375 31.3986 7.20375 31.8279 7.39875 32.2517L4.86563 36.6879L12.1931 44.0136L16.6294 41.4823C17.0531 41.6773 17.4806 41.8573 17.9119 42.0186L19.2581 46.9404H29.6213L30.9675 42.0186C31.3969 41.8573 31.8263 41.6773 32.2519 41.4823L36.6862 44.0117L44.0138 36.6861L41.4806 32.2498C41.6756 31.8261 41.8556 31.3967 42.0169 30.9654L46.9388 29.6192V26.2498H58.125V28.1248C58.125 31.2261 60.6488 33.7498 63.75 33.7498H93.75C96.8512 33.7498 99.375 31.2261 99.375 28.1248V26.2498H105C110.169 26.2498 114.375 30.4554 114.375 35.6248V48.7498C114.375 53.9192 110.169 58.1248 105 58.1248H80.625V56.2498C80.625 53.1486 78.1012 50.6248 75 50.6248H45C41.8988 50.6248 39.375 53.1486 39.375 56.2498V58.1248H15C7.76438 58.1248 1.875 64.0142 1.875 71.2498V86.2498C1.875 93.4854 7.76438 99.3748 15 99.3748H20.625V101.25C20.625 104.351 23.1488 106.875 26.25 106.875H56.25C59.3512 106.875 61.875 104.351 61.875 101.25V99.3748H76.9706C77.9212 109.871 86.76 118.125 97.5 118.125C108.872 118.125 118.125 108.872 118.125 97.4998C118.125 86.1279 108.872 76.8748 97.5 76.8748C86.76 76.8748 77.9212 85.1286 76.9706 95.6248H61.875V93.7498C61.875 90.6486 59.3512 88.1248 56.25 88.1248H26.25C23.1488 88.1248 20.625 90.6486 20.625 93.7498V95.6248H15C9.83063 95.6248 5.625 91.4192 5.625 86.2498V71.2498C5.625 66.0804 9.83063 61.8748 15 61.8748H39.375V63.7498C39.375 66.8511 41.8988 69.3748 45 69.3748ZM43.1906 26.7598L39.0787 27.8848L38.7769 28.8692C38.4993 29.7566 38.1402 30.6165 37.7044 31.4379L37.2206 32.3492L39.3394 36.0598L36.0619 39.3392L32.3494 37.2223L31.44 37.7042C30.6192 38.1409 29.7592 38.4993 28.8713 38.7748L27.8888 39.0786L26.7619 43.1904H22.125L20.9981 39.0786L20.0156 38.7748C19.1279 38.4988 18.2679 38.1404 17.4469 37.7042L16.5356 37.2223L12.825 39.3392L9.54375 36.0598L11.6625 32.3492L11.1788 31.4379C10.7421 30.6169 10.383 29.7569 10.1062 28.8692L9.80438 27.8848L5.6925 26.7598V22.1211L9.80438 20.9979L10.1081 20.0136C10.3762 19.1454 10.7362 18.2811 11.1788 17.4467L11.6625 16.5336L9.54375 12.8229L12.8212 9.54356L16.5319 11.6604L17.4431 11.1786C18.2643 10.7423 19.1243 10.3833 20.0119 10.1061L20.9944 9.80231L22.1213 5.69043H26.7581L27.885 9.80231L28.8675 10.1061C29.7337 10.3742 30.5981 10.7342 31.4363 11.1786L32.3456 11.6604L36.0581 9.54356L39.3356 12.8229L37.2169 16.5336L37.7006 17.4448C38.1431 18.2792 38.505 19.1436 38.7712 20.0117L39.075 20.9961L43.1869 22.1192V26.7598H43.1906ZM95.625 28.1248C95.625 29.1579 94.785 29.9998 93.75 29.9998H63.75C62.715 29.9998 61.875 29.1579 61.875 28.1248V20.6248C61.875 19.5917 62.715 18.7498 63.75 18.7498H93.75C94.785 18.7498 95.625 19.5917 95.625 20.6248V28.1248ZM97.5 80.6248C106.806 80.6248 114.375 88.1942 114.375 97.4998C114.375 106.805 106.806 114.375 97.5 114.375C88.1944 114.375 80.625 106.805 80.625 97.4998C80.625 88.1942 88.1944 80.6248 97.5 80.6248ZM24.375 93.7498C24.375 93.2525 24.5725 92.7756 24.9242 92.424C25.2758 92.0723 25.7527 91.8748 26.25 91.8748H56.25C56.7473 91.8748 57.2242 92.0723 57.5758 92.424C57.9275 92.7756 58.125 93.2525 58.125 93.7498V101.25C58.125 101.747 57.9275 102.224 57.5758 102.576C57.2242 102.927 56.7473 103.125 56.25 103.125H26.25C25.7527 103.125 25.2758 102.927 24.9242 102.576C24.5725 102.224 24.375 101.747 24.375 101.25V93.7498ZM43.125 56.2498C43.125 55.2167 43.965 54.3748 45 54.3748H75C76.035 54.3748 76.875 55.2167 76.875 56.2498V63.7498C76.875 64.2471 76.6775 64.724 76.3258 65.0756C75.9742 65.4273 75.4973 65.6248 75 65.6248H45C44.5027 65.6248 44.0258 65.4273 43.6742 65.0756C43.3225 64.724 43.125 64.2471 43.125 63.7498V56.2498Z" fill="#5CE1E6"/>
<path d="M61.875 58.125H65.625V61.875H61.875V58.125ZM54.375 58.125H58.125V61.875H54.375V58.125ZM46.875 58.125H50.625V61.875H46.875V58.125ZM69.375 58.125H73.125V61.875H69.375V58.125ZM35.625 95.625H39.375V99.375H35.625V95.625ZM50.625 95.625H54.375V99.375H50.625V95.625ZM43.125 95.625H46.875V99.375H43.125V95.625ZM28.125 95.625H31.875V99.375H28.125V95.625Z" fill="#5CE1E6"/>
</svg>
