<svg width="120" height="120" viewBox="0 0 120 120" fill="none" xmlns="http://www.w3.org/2000/svg">
<path d="M104.91 27.9788L94.3954 9.76504C93.9804 9.04584 93.3834 8.44857 92.6644 8.03331C91.9454 7.61804 91.1297 7.39941 90.2994 7.39941C89.4691 7.39941 88.6534 7.61804 87.9344 8.03331C87.2154 8.44857 86.6184 9.04584 86.2035 9.76504L75.6866 27.9788C75.651 28.0407 75.6285 28.1063 75.5929 28.17L69.0585 16.845C68.2678 15.5089 67.1427 14.4017 65.7939 13.6327C64.4451 12.8637 62.9193 12.4594 61.3667 12.4596C59.8141 12.4598 58.2884 12.8645 56.9398 13.6338C55.5912 14.4031 54.4663 15.5105 53.676 16.8469L36.1447 47.2088L29.4585 35.6307C29.101 35.025 28.5917 34.5231 27.9809 34.1744C27.3701 33.8257 26.679 33.6423 25.9757 33.6423C25.2724 33.6423 24.5812 33.8257 23.9705 34.1744C23.3597 34.5231 22.8504 35.025 22.4929 35.6307L14.5879 49.3275C9.44475 57.5775 16.0316 69.2175 25.7554 69.0394C21.0716 90.7782 38.8635 112.89 61.371 112.399C71.0048 112.387 80.2407 108.555 87.0529 101.743C93.865 94.931 97.6971 85.6951 97.7085 76.0613C97.9222 67.98 94.4141 60.0769 90.0885 53.2744C102.842 53.82 111.597 38.8482 104.91 27.9788ZM17.8335 60.6038C16.9987 59.1779 16.5587 57.5554 16.5587 55.9032C16.5587 54.2509 16.9987 52.6284 17.8335 51.2025L25.7422 37.5057C25.7659 37.4644 25.8 37.43 25.8411 37.4062C25.8823 37.3823 25.929 37.3697 25.9766 37.3697C26.0242 37.3697 26.0709 37.3823 26.1121 37.4062C26.1533 37.43 26.1874 37.4644 26.211 37.5057L34.1179 51.2025C40.0354 62.1375 24.3472 71.2013 17.8335 60.6038ZM89.5429 59.835C108.885 95.61 60.9379 127.361 35.4754 95.8313C32.5554 91.986 30.5242 87.5411 29.5279 82.8167C28.5316 78.0923 28.595 73.2058 29.7135 68.5088C31.4592 67.9926 33.0785 67.1193 34.4688 65.9441C35.8591 64.769 36.99 63.3177 37.7897 61.6823C38.5894 60.047 39.0404 58.2633 39.1142 56.4444C39.1881 54.6255 38.883 52.8111 38.2185 51.1163L56.9216 18.7238C57.379 17.952 58.0294 17.3125 58.8089 16.8683C59.5884 16.4242 60.4701 16.1906 61.3672 16.1906C62.2644 16.1906 63.1461 16.4242 63.9256 16.8683C64.7051 17.3125 65.3555 17.952 65.8129 18.7238L73.8566 32.6682C72.9337 36.8137 73.6002 41.1546 75.7244 44.8322C77.8486 48.5098 81.2758 51.2563 85.3279 52.5282L89.5429 59.835ZM101.663 42.9769C92.5691 57.7594 70.6785 45.12 78.936 29.8519L89.4529 11.64C89.5385 11.4913 89.6619 11.3677 89.8105 11.2818C89.9591 11.1959 90.1278 11.1506 90.2994 11.1506C90.4711 11.1506 90.6397 11.1959 90.7884 11.2818C90.937 11.3677 91.0603 11.4913 91.146 11.64L101.663 29.8538C102.828 31.8443 103.442 34.109 103.442 36.4153C103.442 38.7217 102.828 40.9864 101.663 42.9769Z" fill="#5CE1E6"/>
<path d="M96.4951 32.6904C96.2484 32.6904 96.0041 32.7391 95.7762 32.8337C95.5484 32.9283 95.3414 33.0669 95.1673 33.2416C94.9931 33.4163 94.8551 33.6237 94.7612 33.8518C94.6673 34.0799 94.6193 34.3244 94.6201 34.5711C94.6171 36.1993 93.9705 37.7604 92.8213 38.9139C91.672 40.0673 90.1133 40.7197 88.4851 40.7286C87.9878 40.7286 87.5109 40.9261 87.1593 41.2777C86.8076 41.6294 86.6101 42.1063 86.6101 42.6036C86.6101 43.1008 86.8076 43.5778 87.1593 43.9294C87.5109 44.281 87.9878 44.4786 88.4851 44.4786C91.1082 44.4642 93.6192 43.4135 95.4709 41.5555C97.3226 39.6976 98.3647 37.1829 98.3701 34.5598C98.3686 34.0635 98.1704 33.588 97.8189 33.2376C97.4675 32.8872 96.9914 32.6904 96.4951 32.6904ZM32.5088 54.5061C32.5071 54.0088 32.3079 53.5326 31.955 53.1822C31.6021 52.8318 31.1245 52.6359 30.6273 52.6376C30.13 52.6394 29.6538 52.8386 29.3034 53.1914C28.953 53.5443 28.7571 54.0219 28.7588 54.5192C28.7562 55.63 28.3148 56.6948 27.5307 57.4817C27.1495 57.8673 26.6946 58.1721 26.193 58.378C25.6914 58.5838 25.1535 58.6865 24.6113 58.6798C24.114 58.6798 23.6371 58.8774 23.2855 59.229C22.9339 59.5806 22.7363 60.0575 22.7363 60.5548C22.7363 61.0521 22.9339 61.529 23.2855 61.8806C23.6371 62.2323 24.114 62.4298 24.6113 62.4298C26.7072 62.4184 28.7136 61.5789 30.1931 60.0942C31.6725 58.6095 32.5049 56.602 32.5088 54.5061ZM68.5051 96.0167C68.5051 96.514 68.7026 96.9909 69.0543 97.3425C69.4059 97.6941 69.8828 97.8917 70.3801 97.8917C72.4616 97.9022 74.5244 97.4989 76.4487 96.7051C78.3729 95.9114 80.1202 94.743 81.5888 93.2679C84.5835 90.259 86.2671 86.1881 86.2726 81.9429C86.2706 81.4456 86.0711 80.9695 85.7181 80.6193C85.3651 80.2691 84.8874 80.0734 84.3901 80.0754C83.8928 80.0774 83.4167 80.2769 83.0664 80.6299C82.7162 80.9829 82.5206 81.4606 82.5226 81.9579C82.5167 85.1803 81.2368 88.2696 78.9621 90.5521C76.6874 92.8345 73.6024 94.1249 70.3801 94.1417C69.8828 94.1417 69.4059 94.3392 69.0543 94.6909C68.7026 95.0425 68.5051 95.5194 68.5051 96.0167ZM52.3201 60.9204C50.8209 60.9237 49.3547 61.3599 48.0976 62.1767C47.9472 61.7664 47.6578 61.4217 47.2796 61.2026C46.9015 60.9835 46.4586 60.9038 46.0278 60.9774C45.5971 61.0509 45.2057 61.273 44.9216 61.6052C44.6376 61.9373 44.479 62.3585 44.4732 62.7954V83.9923C44.4732 84.4896 44.6707 84.9665 45.0224 85.3181C45.374 85.6698 45.8509 85.8673 46.3482 85.8673C46.8455 85.8673 47.3224 85.6698 47.674 85.3181C48.0257 84.9665 48.2232 84.4896 48.2232 83.9923V75.4292C49.2562 76.072 50.4244 76.4659 51.6358 76.5797C52.8471 76.6934 54.0683 76.5239 55.2029 76.0846C56.3374 75.6452 57.3543 74.9481 58.1731 74.0482C58.992 73.1483 59.5903 72.0704 59.921 70.8995C60.2516 69.7286 60.3054 68.4969 60.0782 67.3017C59.851 66.1064 59.3489 64.9804 58.6117 64.0125C57.8745 63.0446 56.9223 62.2614 55.8304 61.7248C54.7385 61.1882 53.5367 60.9128 52.3201 60.9204ZM52.3201 72.8642C51.2335 72.8642 50.1915 72.4325 49.4232 71.6642C48.6548 70.8959 48.2232 69.8539 48.2232 68.7673C48.2232 67.6807 48.6548 66.6387 49.4232 65.8704C50.1915 65.1021 51.2335 64.6704 52.3201 64.6704C53.4066 64.6704 54.4487 65.1021 55.217 65.8704C55.9853 66.6387 56.417 67.6807 56.417 68.7673C56.417 69.8539 55.9853 70.8959 55.217 71.6642C54.4487 72.4325 53.4066 72.8642 52.3201 72.8642ZM74.5126 70.3911V79.1136C74.5126 79.6108 74.7101 80.0878 75.0618 80.4394C75.4134 80.791 75.8903 80.9886 76.3876 80.9886C76.8849 80.9886 77.3618 80.791 77.7134 80.4394C78.065 80.0878 78.2626 79.6108 78.2626 79.1136V57.9186C78.2626 57.4213 78.065 56.9444 77.7134 56.5927C77.3618 56.2411 76.8849 56.0436 76.3876 56.0436C75.8903 56.0436 75.4134 56.2411 75.0618 56.5927C74.7101 56.9444 74.5126 57.4213 74.5126 57.9186V66.6411H66.9882V57.9186C66.9882 57.4213 66.7907 56.9444 66.439 56.5927C66.0874 56.2411 65.6105 56.0436 65.1132 56.0436C64.6159 56.0436 64.139 56.2411 63.7874 56.5927C63.4357 56.9444 63.2382 57.4213 63.2382 57.9186V79.1136C63.2382 79.6108 63.4357 80.0878 63.7874 80.4394C64.139 80.791 64.6159 80.9886 65.1132 80.9886C65.6105 80.9886 66.0874 80.791 66.439 80.4394C66.7907 80.0878 66.9882 79.6108 66.9882 79.1136V70.3911H74.5126Z" fill="#5CE1E6"/>
</svg>
