<svg width="120" height="120" viewBox="0 0 120 120" fill="none" xmlns="http://www.w3.org/2000/svg">
<path d="M97.5537 87.6123C99.8524 84.8718 100.171 82.7139 100.452 80.8082C100.7 79.1242 100.897 77.7939 102.514 75.8652C104.132 73.9365 105.408 73.5135 107.023 72.9765C108.851 72.369 110.922 71.6807 113.221 68.9394C115.521 66.1982 115.838 64.041 116.119 62.1374L116.169 61.805C116.223 61.4537 116.25 61.0986 116.25 60.7431C116.249 59.7949 116.058 58.8565 115.687 57.9839C115.316 57.1113 114.773 56.3223 114.091 55.6639C113.408 55.0056 112.601 54.4914 111.715 54.152C110.83 53.8126 109.885 53.6549 108.938 53.6884C107.685 53.7178 106.465 54.0888 105.408 54.7613C104.351 55.4338 103.498 56.3823 102.941 57.5043C102.608 58.147 102.202 58.7492 101.73 59.2986C100.113 61.2252 98.8381 61.6494 97.2228 62.1866C95.3946 62.7943 93.3237 63.4834 91.0247 66.2242C88.7257 68.965 88.4063 71.124 88.125 73.0295C87.8768 74.7128 87.6797 76.0426 86.0637 77.9692C84.4477 79.8957 83.1689 80.3218 81.5534 80.8595C80.6122 81.1458 79.6995 81.5182 78.8267 81.9721C79.1208 81.7143 79.4304 81.4686 79.7571 81.2096C81.266 80.0143 82.9763 78.6585 84.2011 75.2971C85.426 71.9357 84.9849 69.7984 84.5972 67.9126C84.2546 66.2448 83.9838 64.9272 84.8456 62.5611C85.7074 60.1951 86.7598 59.3615 88.0938 58.3044C89.603 57.1091 91.3132 55.753 92.5376 52.3916C93.762 49.0302 93.3216 46.8929 92.9342 45.0069C92.5915 43.3391 92.3206 42.0217 93.1826 39.6543C93.852 37.8116 94.6442 36.9289 95.4005 36.25C96.2851 35.4615 96.9501 34.4571 97.3307 33.3349C97.7114 32.2127 97.7946 31.011 97.5723 29.8471C97.35 28.6831 96.8298 27.5967 96.0623 26.6938C95.2949 25.7908 94.3065 25.1023 93.1936 24.6953C91.842 24.1942 90.3672 24.1308 88.9775 24.5139C87.5879 24.897 86.354 25.7073 85.4501 26.8302C84.8831 27.4985 84.2386 28.0971 83.5303 28.6133C82.021 29.8086 80.3103 31.1645 79.0859 34.5278C77.8615 37.8911 78.3014 40.0272 78.6886 41.9132C79.031 43.5803 79.3017 44.8972 78.4414 47.2618C77.581 49.6264 76.5265 50.4627 75.1917 51.5202C73.6826 52.7155 71.9721 54.0721 70.7489 57.4335C69.5257 60.7949 69.9647 62.9324 70.3519 64.8184C70.6943 66.4857 70.9648 67.8027 70.1044 70.1666C69.2918 72.3995 68.306 73.2676 67.0746 74.2487C66.2543 72.9069 65.625 71.7533 65.625 69.3777C65.625 66.8614 66.3298 65.7165 67.2218 64.2664C68.231 62.6258 69.375 60.7677 69.375 57.1904C69.375 53.6132 68.231 51.7529 67.2218 50.1137C66.3298 48.6639 65.625 47.5187 65.625 45.0027C65.625 42.4867 66.3298 41.3411 67.2218 39.891C68.231 38.2501 69.375 36.3913 69.375 32.8126C69.375 29.234 68.231 27.3751 67.2218 25.7359C66.7328 25.0083 66.332 24.2252 66.0279 23.4029C65.5618 22.039 64.6789 20.8559 63.5039 20.021C62.329 19.1861 60.9213 18.7415 59.4799 18.7501C58.295 18.7517 57.1308 19.0605 56.1008 19.6463C55.0708 20.2321 54.2103 21.075 53.6033 22.0926C52.9963 23.1103 52.6635 24.2679 52.6374 25.4525C52.6113 26.6371 52.8928 27.8083 53.4544 28.8517C53.9325 29.7484 54.375 30.849 54.375 32.8126C54.375 35.3289 53.6702 36.4743 52.7782 37.9241C51.769 39.5647 50.625 41.4231 50.625 45.0011C50.625 48.579 51.769 50.4374 52.7782 52.0773C53.6702 53.5274 54.375 54.6723 54.375 57.1888C54.375 59.7053 53.6702 60.85 52.7782 62.2982C51.769 63.9388 50.625 65.7971 50.625 69.3749C50.6178 70.3271 50.7129 71.2773 50.9088 72.2092C50.4869 71.5726 50.1465 70.8856 49.8956 70.1643C49.0353 67.7999 49.3057 66.4829 49.6481 64.8156C50.0353 62.9296 50.4741 60.7921 49.2511 57.4307C48.0281 54.0693 46.3174 52.7136 44.8083 51.5174C43.4735 50.4599 42.4193 49.6243 41.5587 47.2588C40.6981 44.8932 40.969 43.5775 41.3114 41.9104C41.6986 40.0243 42.1376 37.8866 40.9142 34.5245C39.6907 31.1624 37.9791 29.8065 36.4697 28.6105C35.7615 28.0944 35.1172 27.4959 34.5504 26.8276C33.6467 25.7047 32.4129 24.8942 31.0233 24.511C29.6338 24.1278 28.1589 24.1912 26.8074 24.6922C25.6943 25.099 24.7058 25.7875 23.9382 26.6903C23.1706 27.5931 22.6502 28.6796 22.4277 29.8435C22.2052 31.0075 22.2883 32.2093 22.6688 33.3315C23.0493 34.4538 23.7143 35.4583 24.5988 36.2469C25.3559 36.9266 26.1481 37.809 26.8179 39.6533C27.6795 42.0191 27.4085 43.3365 27.0659 45.0043C26.6785 46.8904 26.2392 49.0279 27.4627 52.3895C28.6861 55.7511 30.397 57.1058 31.9062 58.3018C33.2403 59.3589 34.294 60.194 35.1546 62.559C36.0153 64.9241 35.7455 66.2422 35.4028 67.91C35.0152 69.7958 34.5757 71.9336 35.7992 75.2952C37.0226 78.6568 38.734 80.0115 40.2429 81.2071C40.5696 81.4649 40.8792 81.7117 41.1734 81.9695C40.3005 81.5166 39.3877 81.145 38.4467 80.8595C36.8311 80.3221 35.5547 79.8986 33.937 77.9692C32.3194 76.0398 32.1242 74.713 31.876 73.0297C31.5947 71.1243 31.2762 68.9647 28.9756 66.2251C26.6749 63.4855 24.6045 62.7946 22.7768 62.1868C21.1615 61.6497 19.886 61.2259 18.2707 59.301C17.7986 58.7506 17.3918 58.1475 17.0583 57.5036C16.5012 56.3818 15.6482 55.4336 14.5916 54.7612C13.5349 54.0889 12.3146 53.7179 11.0625 53.6884C10.1149 53.6549 9.17025 53.8125 8.28487 54.1519C7.39948 54.4913 6.5915 55.0055 5.9091 55.6639C5.2267 56.3222 4.68384 57.1112 4.3129 57.9839C3.94196 58.8565 3.75053 59.7949 3.75002 60.7431C3.74965 61.097 3.77637 61.4505 3.82994 61.8004L3.8801 62.1374C4.16135 64.0417 4.48103 66.2003 6.77838 68.9397C9.07572 71.679 11.149 72.369 12.9764 72.9765C14.592 73.5135 15.8677 73.9375 17.4851 75.8657C19.1025 77.7939 19.2999 79.1235 19.5476 80.8082C19.8288 82.7129 20.1471 84.8718 22.4461 87.6123C23.0875 88.39 23.8166 89.091 24.6188 89.7015C22.9273 89.7484 21.5862 89.781 19.4171 88.5297C17.7192 87.5497 16.9861 86.6157 16.448 85.7542C15.8254 84.7455 14.9519 83.9156 13.9127 83.3454C12.8735 82.7752 11.7042 82.4844 10.519 82.5012C9.33381 82.518 8.17323 82.8419 7.15064 83.4413C6.12804 84.0407 5.2784 84.8951 4.68471 85.9211C4.07327 86.9812 3.75096 88.1833 3.75002 89.4072C3.74612 91.0667 4.34809 92.6705 5.44291 93.9177C6.00328 94.5918 6.48141 95.3302 6.86721 96.1173C7.78267 97.8107 8.82072 99.7304 11.9185 101.518C15.0162 103.306 17.198 103.245 19.1227 103.192C20.8226 103.143 22.1681 103.106 24.3474 104.364C26.5266 105.621 27.1643 106.804 27.9736 108.301C28.6861 109.62 29.4774 111.075 31.2516 112.499H13.125V116.249H106.875V112.5H88.7492C90.5234 111.076 91.3146 109.621 92.0271 108.302C92.8364 106.805 93.4756 105.622 95.6531 104.365C97.8307 103.108 99.1767 103.145 100.878 103.193C102.803 103.247 104.985 103.309 108.082 101.52C111.179 99.7311 112.219 97.8114 113.133 96.1173C113.519 95.3293 113.997 94.5901 114.558 93.9154C115.652 92.6687 116.254 91.0658 116.25 89.4072C116.249 88.1827 115.926 86.9799 115.314 85.9194C114.721 84.8938 113.871 84.0397 112.849 83.4404C111.826 82.8411 110.666 82.5172 109.481 82.5003C108.296 82.4834 107.127 82.774 106.088 83.3438C105.049 83.9136 104.176 84.7431 103.553 85.7514C103.014 86.6148 102.28 87.5488 100.582 88.5289C98.4131 89.7812 97.0709 89.7491 95.3808 89.7008C96.1829 89.0904 96.912 88.3896 97.5537 87.6123ZM82.737 84.4178C84.5651 83.8098 86.636 83.1207 88.9355 80.3795C91.2349 77.6382 91.553 75.4811 91.834 73.5768C92.0824 71.8925 92.2793 70.5625 93.8965 68.635C95.5137 66.7075 96.7903 66.2823 98.4059 65.7449C100.233 65.1371 102.304 64.4483 104.604 61.7075C105.261 60.9373 105.827 60.0933 106.289 59.1925C106.547 58.675 106.942 58.2379 107.43 57.9285C107.919 57.619 108.483 57.4489 109.061 57.4365C109.548 57.4174 110.033 57.5061 110.482 57.6963C110.93 57.8864 111.331 58.1733 111.656 58.5364C111.981 58.8996 112.222 59.33 112.361 59.797C112.5 60.2639 112.535 60.7558 112.462 61.2376L112.409 61.5892C112.16 63.2732 111.964 64.6035 110.347 66.5298C108.73 68.4561 107.454 68.8818 105.839 69.4187C104.011 70.026 101.94 70.7146 99.6408 73.4551C97.3416 76.1957 97.0212 78.3561 96.7402 80.2614C96.4917 81.9451 96.2949 83.2752 94.6791 85.2022C93.0633 87.1293 91.7864 87.553 90.1711 88.0902C88.343 88.6979 86.2723 89.387 83.9728 92.128C81.6734 94.869 81.3546 97.0265 81.0734 98.9317C80.8245 100.616 80.6281 101.946 79.0109 103.873C77.3937 105.8 76.1173 106.226 74.5017 106.763C72.7409 107.349 70.7517 108.015 68.5526 110.515C69.1268 109.059 69.4063 107.503 69.375 105.938C69.3895 104.745 69.2347 103.557 68.9152 102.408C70.2584 101.822 71.7108 100.908 73.2678 99.0514C75.567 96.3107 75.8857 94.1516 76.167 92.2468C76.4159 90.5626 76.6123 89.2325 78.2295 87.3048C79.8467 85.3771 81.1219 84.955 82.737 84.4178ZM73.6282 71.4484C74.8514 68.0868 74.4127 65.9493 74.0255 64.0632C73.6831 62.3959 73.4126 61.0792 74.2728 58.7148C75.1329 56.3504 76.1867 55.5156 77.521 54.4583C79.0306 53.263 80.7417 51.906 81.9652 48.5427C83.1886 45.1794 82.7492 43.0438 82.362 41.1578C82.0196 39.4904 81.7493 38.1737 82.6097 35.8096C83.4701 33.4454 84.5248 32.6089 85.8591 31.5517C86.7921 30.8602 87.6394 30.0598 88.3828 29.1676C88.7974 28.6593 89.3614 28.2941 89.9949 28.1238C90.6283 27.9534 91.2993 27.9865 91.913 28.2184C92.4173 28.4039 92.8649 28.7171 93.2119 29.1274C93.5589 29.5377 93.7935 30.031 93.8927 30.5592C93.9919 31.0873 93.9524 31.6321 93.7779 32.1404C93.6034 32.6487 93.3 33.1029 92.8974 33.4588C91.8935 34.3602 90.6185 35.7322 89.6599 38.3727C88.4351 41.7362 88.8745 43.8747 89.2615 45.7616C89.6042 47.4285 89.8746 48.7452 89.0147 51.1084C88.1548 53.4716 87.0996 54.3079 85.7656 55.3651C84.2562 56.5604 82.5457 57.9165 81.3228 61.2782C80.0998 64.6398 80.5371 66.7804 80.9243 68.6671C81.2667 70.3342 81.5374 71.6509 80.6778 74.0139C79.8181 76.3768 78.7624 77.2131 77.4281 78.2704C75.919 79.4657 74.2085 80.822 72.9853 84.1834C71.8268 87.3636 72.1573 89.447 72.5238 91.2592C72.5004 91.4073 72.4791 91.5545 72.4575 91.6996C72.2089 93.3838 72.0122 94.7139 70.395 96.6423C69.281 97.9705 68.329 98.5841 67.3156 99.0142C67.2844 98.9636 67.2532 98.9122 67.2218 98.8621C66.3298 97.412 65.625 96.2668 65.625 93.7501C65.625 91.2334 66.3298 90.089 67.2218 88.6393C68.231 87.0001 69.375 85.1413 69.375 81.5626C69.3949 80.241 69.2018 78.9247 68.8031 77.6645C68.9295 77.5628 69.0572 77.4608 69.1878 77.3575C70.696 76.1626 72.4055 74.8077 73.6282 71.4484ZM55.9718 64.2658C56.981 62.6251 58.125 60.767 58.125 57.1897C58.125 53.6125 56.981 51.7522 55.9718 50.113C55.0798 48.6632 54.375 47.518 54.375 45.002C54.375 42.486 55.0798 41.3404 55.9718 39.8903C56.981 38.2501 58.125 36.3913 58.125 32.8126C58.125 30.0018 57.3985 28.2763 56.7633 27.0871C56.5047 26.6098 56.3753 26.0733 56.388 25.5306C56.4006 24.988 56.5548 24.458 56.8353 23.9933C57.1048 23.5329 57.4916 23.1522 57.9561 22.8899C58.4207 22.6276 58.9465 22.4931 59.4799 22.5001C60.1359 22.4922 60.7777 22.6905 61.3148 23.067C61.852 23.4436 62.2572 23.9794 62.4734 24.5987C62.8663 25.6913 63.3883 26.733 64.0282 27.7018C64.9203 29.1517 65.625 30.2971 65.625 32.8126C65.625 35.3282 64.9203 36.4743 64.0282 37.9241C63.019 39.5647 61.875 41.4231 61.875 45.0011C61.875 48.579 63.019 50.4374 64.0282 52.0773C64.9203 53.5274 65.625 54.6723 65.625 57.1888C65.625 59.7053 64.9203 60.85 64.0282 62.2982C63.019 63.9388 61.875 65.7971 61.875 69.3749C61.875 72.9526 63.019 74.8112 64.0282 76.4511C64.9203 77.9026 65.625 79.0478 65.625 81.5626C65.625 84.0775 64.9203 85.224 64.0282 86.6739C63.019 88.3145 61.875 90.1724 61.875 93.7499C61.875 97.3274 63.019 99.1862 64.0282 100.826C64.9203 102.277 65.625 103.422 65.625 105.938C65.625 108.453 64.9203 109.598 64.0285 111.048C63.7563 111.49 63.4636 111.967 63.1847 112.499H56.2847C57.203 110.973 58.1243 109.148 58.1243 105.937C58.1243 102.359 56.9803 100.501 55.9711 98.8607C55.0798 97.412 54.375 96.2668 54.375 93.7501C54.375 91.2334 55.0798 90.089 55.9718 88.6393C56.981 87.0001 58.125 85.1413 58.125 81.5626C58.125 77.984 56.981 76.1265 55.9718 74.4866C55.0798 73.037 54.375 71.8918 54.375 69.3758C54.375 66.8598 55.0798 65.7156 55.9718 64.2658ZM39.3228 74.0157C38.4628 71.6521 38.7335 70.3361 39.076 68.6682C39.4636 66.7815 39.9031 64.6429 38.6775 61.2798C37.452 57.9168 35.7438 56.5621 34.2345 55.3663C32.9004 54.309 31.8467 53.4737 30.9856 51.1098C30.1245 48.7459 30.3959 47.4301 30.7385 45.7628C31.1264 43.8758 31.5659 41.7374 30.3415 38.3753C29.3824 35.7343 28.1074 34.3614 27.1029 33.4595C26.7003 33.1036 26.397 32.6494 26.2225 32.1411C26.0481 31.6329 26.0085 31.0881 26.1077 30.56C26.2069 30.0319 26.4415 29.5386 26.7885 29.1283C27.1355 28.718 27.583 28.4048 28.0873 28.2193C28.7009 27.9876 29.3719 27.9546 30.0053 28.125C30.6387 28.2954 31.2025 28.6607 31.617 29.169C32.3598 30.0612 33.2065 30.8614 34.1391 31.5529C35.4734 32.6101 36.5271 33.445 37.3885 35.8103C38.2498 38.1756 37.9786 39.4916 37.6362 41.1589C37.249 43.045 36.8098 45.1825 38.033 48.5436C39.2562 51.9048 40.9676 53.2632 42.4772 54.4595C43.8115 55.5168 44.8653 56.3521 45.7254 58.716C46.5856 61.0799 46.3151 62.3971 45.9727 64.0644C45.5855 65.9504 45.1467 68.0879 46.3711 71.4496C47.5955 74.8112 49.305 76.1668 50.8146 77.3629C52.1489 78.4201 53.2029 79.255 54.0638 81.6203C54.1695 81.9109 54.2576 82.1987 54.338 82.4903C54.1847 84.3866 53.5521 85.4172 52.7775 86.676C51.7683 88.3166 50.6243 90.1745 50.6243 93.752C50.592 95.3269 50.8747 96.8924 51.4559 98.3565C50.7595 97.8774 50.1359 97.3004 49.6043 96.6432C47.9871 94.715 47.7907 93.3854 47.5418 91.7008C47.5203 91.5557 47.4982 91.4085 47.4755 91.2604C47.842 89.4482 48.1725 87.3648 47.0142 84.1853C45.7908 80.8232 44.0803 79.4678 42.5712 78.2715C41.2378 77.2131 40.1838 76.378 39.3228 74.0157ZM23.258 80.2609C22.9767 78.3557 22.6585 76.1964 20.3576 73.4551C18.0567 70.7139 15.987 70.0255 14.1593 69.4182C12.544 68.8813 11.2683 68.4573 9.65158 66.5296C8.03486 64.6018 7.83869 63.2718 7.58908 61.5887L7.53588 61.2329C7.51156 61.0708 7.49958 60.907 7.50002 60.7431C7.50062 60.2979 7.59094 59.8573 7.76561 59.4478C7.94027 59.0382 8.19568 58.6681 8.51659 58.3594C8.83749 58.0508 9.21731 57.81 9.63336 57.6514C10.0494 57.4929 10.4931 57.4198 10.9381 57.4365C11.5163 57.4486 12.0802 57.6185 12.5689 57.9278C13.0577 58.2371 13.4525 58.6741 13.711 59.1915C14.174 60.0934 14.7403 60.9383 15.3985 61.7094C17.6974 64.4483 19.7681 65.1371 21.5951 65.7449C23.2106 66.2823 24.4871 66.7058 26.1052 68.6357C27.7233 70.5655 27.9195 71.8935 28.1677 73.5768C28.4489 75.4815 28.767 77.6404 31.066 80.3793C33.3649 83.1182 35.437 83.8098 37.2647 84.4178C38.8798 84.955 40.1555 85.3787 41.7722 87.3053C43.3889 89.2318 43.5858 90.5631 43.8347 92.2475C44.116 94.1523 44.4347 96.3114 46.7339 99.0522C49.0331 101.793 51.1015 102.48 52.9282 103.088C53.3236 103.219 53.7042 103.348 54.0767 103.494C54.2891 104.291 54.3895 105.113 54.375 105.938C54.375 108.453 53.6703 109.598 52.7785 111.048C52.6517 111.254 52.5206 111.468 52.388 111.691C52.1676 111.385 51.9359 111.086 51.6933 110.797C49.3943 108.058 47.3234 107.369 45.4964 106.762C43.8809 106.224 42.6047 105.801 40.987 103.872C39.3694 101.942 39.1737 100.614 38.9245 98.9305C38.6433 97.0257 38.3245 94.8667 36.0253 92.1271C33.7261 89.3875 31.6542 88.6968 29.8266 88.089C28.2115 87.5518 26.9358 87.1281 25.3191 85.2013C23.7024 83.2745 23.5064 81.9447 23.258 80.2609ZM40.125 111.631C38.423 111.678 37.0781 111.716 34.9003 110.459C32.7225 109.203 32.0813 108.018 31.2717 106.52C30.3563 104.826 29.3189 102.906 26.2217 101.117C23.1244 99.3289 20.9417 99.3906 19.016 99.4443C17.3159 99.4911 15.9713 99.53 13.7925 98.2724C11.6138 97.0147 10.9742 95.8323 10.1649 94.3349C9.64607 93.2966 9.00504 92.3241 8.25541 91.438C7.76478 90.8756 7.49619 90.1535 7.50002 89.4072C7.50071 88.8411 7.65007 88.2851 7.93314 87.7949C8.1939 87.329 8.57354 86.9405 9.03336 86.6692C9.49318 86.3978 10.0167 86.2532 10.5506 86.2501H10.6043C11.1384 86.2493 11.6637 86.3858 12.1299 86.6464C12.5961 86.907 12.9875 87.283 13.2666 87.7384C13.981 88.8819 15.1125 90.3742 17.5428 91.7765C20.6405 93.5654 22.8223 93.5043 24.747 93.4496C26.4485 93.4014 27.7927 93.3641 29.9717 94.6215C32.1506 95.8789 32.7886 97.0623 33.5979 98.559C34.1366 99.6411 34.8105 100.65 35.6035 101.563C35.9564 102.949 36.6113 104.491 38.1143 106.282C40.414 109.024 42.4854 109.712 44.3128 110.32C45.7071 110.784 46.8488 111.166 48.1746 112.5H45.7193C43.4379 111.539 41.6822 111.586 40.125 111.631ZM102.456 91.7765C104.887 90.374 106.019 88.8817 106.734 87.7363C107.013 87.2813 107.405 86.9057 107.871 86.6455C108.337 86.3852 108.862 86.2491 109.396 86.2501H109.449C109.983 86.2531 110.507 86.3976 110.966 86.6688C111.426 86.94 111.806 87.3282 112.066 87.794C112.35 88.2844 112.499 88.8407 112.5 89.4072C112.504 90.1525 112.236 90.8737 111.746 91.4357C110.996 92.3223 110.354 93.2954 109.835 94.3344C109.026 95.8314 108.386 97.0138 106.207 98.2719C104.027 99.53 102.684 99.4907 100.984 99.4438C99.0574 99.3899 96.8768 99.328 93.7779 101.117C90.679 102.906 89.6435 104.826 88.7281 106.52C87.9185 108.017 87.2792 109.201 85.0995 110.459C82.9198 111.717 81.5771 111.678 79.8748 111.631C78.3183 111.587 76.5621 111.54 74.2807 112.5H71.8254C73.1513 111.166 74.2929 110.784 75.687 110.32C77.5151 109.712 79.586 109.023 81.8855 106.282C83.3888 104.491 84.0434 102.949 84.3966 101.563C85.1895 100.65 85.8634 99.6411 86.4021 98.559C87.2114 97.0616 87.8503 95.8787 90.0281 94.6215C92.206 93.3643 93.5529 93.4028 95.2531 93.4496C97.178 93.5038 99.36 93.5652 102.457 91.7765H102.456Z" fill="#5CE1E6"/>
<path d="M13.125 46.875C14.2375 46.875 15.3251 46.5451 16.2501 45.927C17.1751 45.3089 17.8961 44.4304 18.3218 43.4026C18.7476 42.3748 18.859 41.2438 18.6419 40.1526C18.4249 39.0615 17.8891 38.0592 17.1025 37.2725C16.3158 36.4859 15.3135 35.9501 14.2224 35.7331C13.1312 35.516 12.0002 35.6274 10.9724 36.0532C9.94457 36.4789 9.06607 37.1999 8.44798 38.1249C7.8299 39.0499 7.5 40.1375 7.5 41.25C7.50174 42.7413 8.09493 44.171 9.14944 45.2256C10.204 46.2801 11.6337 46.8733 13.125 46.875ZM13.125 39.375C13.4958 39.375 13.8584 39.485 14.1667 39.691C14.475 39.897 14.7154 40.1899 14.8573 40.5325C14.9992 40.8751 15.0363 41.2521 14.964 41.6158C14.8916 41.9795 14.713 42.3136 14.4508 42.5758C14.1886 42.8381 13.8545 43.0166 13.4908 43.089C13.1271 43.1613 12.7501 43.1242 12.4075 42.9823C12.0649 42.8404 11.772 42.6 11.566 42.2917C11.36 41.9834 11.25 41.6208 11.25 41.25C11.2506 40.7529 11.4483 40.2763 11.7998 39.9248C12.1513 39.5733 12.6279 39.3756 13.125 39.375ZM30 15C31.1125 15 32.2001 14.6701 33.1251 14.052C34.0501 13.4339 34.7711 12.5554 35.1968 11.5276C35.6226 10.4998 35.734 9.36876 35.5169 8.27762C35.2999 7.18648 34.7641 6.1842 33.9775 5.39753C33.1908 4.61086 32.1885 4.07513 31.0974 3.85809C30.0062 3.64104 28.8752 3.75244 27.8474 4.17818C26.8196 4.60392 25.9411 5.32489 25.323 6.24992C24.7049 7.17495 24.375 8.26248 24.375 9.375C24.3767 10.8663 24.9699 12.296 26.0244 13.3506C27.079 14.4051 28.5087 14.9983 30 15ZM30 7.5C30.3708 7.5 30.7334 7.60997 31.0417 7.816C31.35 8.02203 31.5904 8.31486 31.7323 8.65747C31.8742 9.00008 31.9113 9.37708 31.839 9.7408C31.7666 10.1045 31.5881 10.4386 31.3258 10.7008C31.0636 10.9631 30.7295 11.1416 30.3658 11.214C30.0021 11.2863 29.6251 11.2492 29.2825 11.1073C28.9399 10.9654 28.647 10.725 28.441 10.4167C28.235 10.1084 28.125 9.74584 28.125 9.375C28.1256 8.87789 28.3233 8.4013 28.6748 8.04979C29.0263 7.69828 29.5029 7.50056 30 7.5ZM76.875 24.375C77.9875 24.375 79.0751 24.0451 80.0001 23.427C80.9251 22.8089 81.6461 21.9304 82.0718 20.9026C82.4976 19.8748 82.609 18.7438 82.3919 17.6526C82.1749 16.5615 81.6391 15.5592 80.8525 14.7725C80.0658 13.9859 79.0635 13.4501 77.9724 13.2331C76.8812 13.016 75.7502 13.1274 74.7224 13.5532C73.6946 13.9789 72.8161 14.6999 72.198 15.6249C71.5799 16.5499 71.25 17.6375 71.25 18.75C71.2517 20.2413 71.8449 21.671 72.8994 22.7256C73.954 23.7801 75.3837 24.3733 76.875 24.375ZM76.875 16.875C77.2458 16.875 77.6084 16.985 77.9167 17.191C78.225 17.397 78.4654 17.6899 78.6073 18.0325C78.7492 18.3751 78.7863 18.7521 78.714 19.1158C78.6416 19.4795 78.4631 19.8136 78.2008 20.0758C77.9386 20.3381 77.6045 20.5166 77.2408 20.589C76.8771 20.6613 76.5001 20.6242 76.1575 20.4823C75.8149 20.3404 75.522 20.1 75.316 19.7917C75.11 19.4834 75 19.1208 75 18.75C75.0006 18.2529 75.1983 17.7763 75.5498 17.4248C75.9013 17.0733 76.3779 16.8756 76.875 16.875ZM105 48.75C106.113 48.75 107.2 48.4201 108.125 47.802C109.05 47.1839 109.771 46.3054 110.197 45.2776C110.623 44.2498 110.734 43.1188 110.517 42.0276C110.3 40.9365 109.764 39.9342 108.977 39.1475C108.191 38.3609 107.189 37.8251 106.097 37.6081C105.006 37.391 103.875 37.5024 102.847 37.9282C101.82 38.3539 100.941 39.0749 100.323 39.9999C99.7049 40.9249 99.375 42.0125 99.375 43.125C99.3767 44.6163 99.9699 46.046 101.024 47.1006C102.079 48.1551 103.509 48.7483 105 48.75ZM105 41.25C105.371 41.25 105.733 41.36 106.042 41.566C106.35 41.772 106.59 42.0649 106.732 42.4075C106.874 42.7501 106.911 43.1271 106.839 43.4908C106.767 43.8545 106.588 44.1886 106.326 44.4508C106.064 44.7131 105.73 44.8916 105.366 44.964C105.002 45.0363 104.625 44.9992 104.282 44.8573C103.94 44.7154 103.647 44.475 103.441 44.1667C103.235 43.8584 103.125 43.4958 103.125 43.125C103.126 42.6279 103.323 42.1513 103.675 41.7998C104.026 41.4483 104.503 41.2506 105 41.25ZM110.625 16.875C111.738 16.875 112.825 16.5451 113.75 15.927C114.675 15.3089 115.396 14.4304 115.822 13.4026C116.248 12.3748 116.359 11.2438 116.142 10.1526C115.925 9.06148 115.389 8.0592 114.602 7.27253C113.816 6.48586 112.814 5.95013 111.722 5.73309C110.631 5.51604 109.5 5.62744 108.472 6.05318C107.445 6.47892 106.566 7.19989 105.948 8.12492C105.33 9.04995 105 10.1375 105 11.25C105.002 12.7413 105.595 14.171 106.649 15.2256C107.704 16.2801 109.134 16.8733 110.625 16.875ZM110.625 9.375C110.996 9.375 111.358 9.48497 111.667 9.691C111.975 9.89703 112.215 10.1899 112.357 10.5325C112.499 10.8751 112.536 11.2521 112.464 11.6158C112.392 11.9795 112.213 12.3136 111.951 12.5758C111.689 12.8381 111.355 13.0166 110.991 13.089C110.627 13.1613 110.25 13.1242 109.907 12.9823C109.565 12.8404 109.272 12.6 109.066 12.2917C108.86 11.9834 108.75 11.6208 108.75 11.25C108.751 10.7529 108.948 10.2763 109.3 9.92479C109.651 9.57328 110.128 9.37556 110.625 9.375ZM9.375 18.75H13.125V22.5H9.375V18.75ZM43.125 18.75H46.875V22.5H43.125V18.75ZM60 7.5H63.75V11.25H60V7.5ZM90 7.5H93.75V11.25H90V7.5ZM105 24.375H108.75V28.125H105V24.375Z" fill="#5CE1E6"/>
</svg>
