<svg width="40" height="40" viewBox="0 0 40 40" fill="none" xmlns="http://www.w3.org/2000/svg">
<rect width="40" height="40" rx="20" fill="#CCF6F7"/>
<path fill-rule="evenodd" clip-rule="evenodd" d="M21.7068 15.293C21.8943 15.4806 21.9996 15.7349 21.9996 16C21.9996 16.2652 21.8943 16.5195 21.7068 16.707L18.4138 20L21.7068 23.293C21.8889 23.4816 21.9897 23.7342 21.9875 23.9964C21.9852 24.2586 21.88 24.5094 21.6946 24.6948C21.5092 24.8803 21.2584 24.9854 20.9962 24.9877C20.734 24.99 20.4814 24.8892 20.2928 24.707L16.2928 20.707C16.1053 20.5195 16 20.2652 16 20C16 19.7349 16.1053 19.4806 16.2928 19.293L20.2928 15.293C20.4803 15.1056 20.7346 15.0002 20.9998 15.0002C21.265 15.0002 21.5193 15.1056 21.7068 15.293Z" fill="#8A8A8A"/>
</svg>
