<svg width="25" height="24" viewBox="0 0 25 24" fill="none" xmlns="http://www.w3.org/2000/svg">
<path d="M18.4694 8.4C18.4694 6.70261 17.8208 5.07475 16.6662 3.87452C15.5117 2.67428 13.9457 2 12.3129 2C10.6801 2 9.11416 2.67428 7.95959 3.87452C6.80502 5.07475 6.15639 6.70261 6.15639 8.4C6.15639 15.8667 3.07812 18 3.07812 18H21.5477C21.5477 18 18.4694 15.8667 18.4694 8.4Z" stroke="#5CE1E6" stroke-width="2" stroke-linecap="round" stroke-linejoin="round"/>
<path d="M14.0883 21C13.9079 21.3031 13.649 21.5547 13.3375 21.7295C13.0259 21.9044 12.6727 21.9965 12.3132 21.9965C11.9537 21.9965 11.6005 21.9044 11.2889 21.7295C10.9774 21.5547 10.7185 21.3031 10.5381 21" stroke="#5CE1E6" stroke-width="2" stroke-linecap="round" stroke-linejoin="round"/>
</svg>
