<svg width="32" height="33" viewBox="0 0 32 33" fill="none" xmlns="http://www.w3.org/2000/svg">
<path d="M8.05733 20.7614H26.1081C26.6898 20.7626 27.2549 20.5678 27.7124 20.2084C28.1698 19.8491 28.4929 19.3462 28.6296 18.7808L31.2571 8.00068C31.284 7.8903 31.2854 7.77527 31.2614 7.66425C31.2373 7.55323 31.1883 7.44913 31.1181 7.3598C31.048 7.27046 30.9584 7.19824 30.8563 7.14856C30.7541 7.09889 30.642 7.07307 30.5284 7.07305H24.8306C24.0218 4.3513 21.4976 2.36036 18.5167 2.36036C15.5358 2.36036 13.0116 4.35124 12.2028 7.07305H6.34895L5.3062 2.69393C5.26711 2.52982 5.17383 2.38368 5.04144 2.27912C4.90905 2.17456 4.74528 2.11768 4.57658 2.11768H1.4707C1.05652 2.11768 0.720703 2.45349 0.720703 2.86768C0.720703 3.28186 1.05652 3.61768 1.4707 3.61768H3.9842L7.71445 19.2826C6.29089 19.4527 5.18333 20.6668 5.18333 22.1354C5.18333 23.7201 6.47258 25.0094 8.05727 25.0094H8.28802C7.14408 25.5094 6.34239 26.6512 6.34239 27.9774C6.34239 29.7626 7.79483 31.2151 9.58014 31.2151C11.3655 31.2151 12.818 29.7627 12.818 27.9774C12.818 26.6512 12.0163 25.5094 10.8723 25.0094H25.0185C23.8745 25.5094 23.0728 26.6512 23.0728 27.9774C23.0728 29.7626 24.5253 31.2151 26.3106 31.2151C28.0959 31.2151 29.5484 29.7627 29.5484 27.9774C29.5484 26.6512 28.7467 25.5094 27.6028 25.0094H28.6257C29.0399 25.0094 29.3757 24.6736 29.3757 24.2594C29.3757 23.8452 29.0399 23.5094 28.6257 23.5094H8.05733C7.2997 23.5094 6.68339 22.8931 6.68339 22.1354C6.68339 21.3778 7.29977 20.7614 8.05733 20.7614ZM18.5168 3.86036C21.321 3.86036 23.6025 6.1418 23.6025 8.94611C23.6025 11.7504 21.321 14.0318 18.5168 14.0318C15.7125 14.0318 13.431 11.7504 13.431 8.94611C13.431 6.1418 15.7125 3.86036 18.5168 3.86036ZM11.9418 8.57305C11.9347 8.69728 11.9311 8.82168 11.931 8.94611C11.931 12.5775 14.8854 15.5318 18.5168 15.5318C22.1481 15.5318 25.1025 12.5775 25.1025 8.94611C25.1025 8.82093 25.0986 8.69655 25.0916 8.57305H29.5736L27.1723 18.4256C27.0504 18.9256 26.6228 19.2614 26.1082 19.2614H9.25139L6.7062 8.57305H11.9418ZM9.5802 29.715C8.62202 29.715 7.84245 28.9355 7.84245 27.9773C7.84245 27.0191 8.62202 26.2395 9.5802 26.2395C10.5385 26.2395 11.318 27.0191 11.318 27.9773C11.318 28.9355 10.5385 29.715 9.5802 29.715ZM26.3106 29.715C25.3524 29.715 24.5728 28.9355 24.5728 27.9773C24.5728 27.0191 25.3524 26.2395 26.3106 26.2395C27.2688 26.2395 28.0484 27.0191 28.0484 27.9773C28.0484 28.9355 27.2688 29.715 26.3106 29.715ZM15.019 8.94611C15.019 8.53193 15.3548 8.19611 15.769 8.19611H17.7668V6.19824C17.7668 5.78405 18.1026 5.44824 18.5168 5.44824C18.931 5.44824 19.2668 5.78405 19.2668 6.19824V8.19605H21.2646C21.6788 8.19605 22.0146 8.53186 22.0146 8.94605C22.0146 9.36024 21.6788 9.69605 21.2646 9.69605H19.2668V11.6939C19.2668 12.1081 18.931 12.4439 18.5168 12.4439C18.1026 12.4439 17.7668 12.1081 17.7668 11.6939V9.69605H15.769C15.3547 9.69611 15.019 9.3603 15.019 8.94611Z" fill="#275F61"/>
</svg>
