<svg width="32" height="33" viewBox="0 0 32 33" fill="none" xmlns="http://www.w3.org/2000/svg">
<path d="M9.67601 11.3575L10.2031 10.4351L11.1293 10.9643L10.6023 11.8869L9.67601 11.3575ZM6.79395 16.4015L9.17361 12.2372L10.0997 12.7663L7.72001 16.9307L6.79395 16.4015Z" fill="#275F61"/>
<path d="M3.48242 28.3998H14.933V27.3332H3.48242C3.05901 27.3329 2.6431 27.2213 2.27633 27.0098C1.90957 26.7982 1.60481 26.494 1.39256 26.1276C1.18031 25.7612 1.06803 25.3455 1.06694 24.9221C1.06585 24.4987 1.176 24.0824 1.38636 23.715L4.19702 18.7998H14.933V17.7332H4.80396L9.52929 9.4665C9.57588 9.38539 9.60012 9.29338 9.59956 9.19984V1.73317H13.8662V9.19984C13.8665 9.29662 13.8928 9.39154 13.9426 9.47457L14.7426 10.8079L15.6568 10.2584L14.9329 9.05217V1.19984C14.9329 0.905304 14.6944 0.666504 14.3996 0.666504H9.06622C8.92478 0.666504 8.78912 0.722694 8.6891 0.822714C8.58908 0.922733 8.53289 1.05839 8.53289 1.19984V9.0579L0.459556 23.186C0.156656 23.7158 -0.00180956 24.3158 1.55895e-05 24.926C0.00184074 25.5362 0.163893 26.1352 0.469956 26.6631C0.775991 27.1911 1.21534 27.6294 1.74402 27.9342C2.2727 28.239 2.87217 28.3996 3.48242 28.3998ZM29.8663 9.19984H18.133C16.9548 9.19984 15.9996 10.155 15.9996 11.3332V30.5332C15.9996 31.7113 16.9548 32.6665 18.133 32.6665H29.8663C31.0447 32.6665 31.9996 31.7113 31.9996 30.5332V11.3332C31.9996 10.155 31.0447 9.19984 29.8663 9.19984ZM30.933 30.5332C30.933 31.1222 30.4556 31.5998 29.8663 31.5998H18.133C17.5439 31.5998 17.0663 31.1222 17.0663 30.5332V11.3332C17.0663 10.7441 17.5439 10.2665 18.133 10.2665H29.8663C30.4556 10.2665 30.933 10.7441 30.933 11.3332V30.5332Z" fill="#275F61"/>
<path d="M29.3328 12.3999H18.6661C18.5247 12.3999 18.389 12.4561 18.289 12.5561C18.189 12.6561 18.1328 12.7918 18.1328 12.9332V17.1999C18.1328 17.3414 18.189 17.477 18.289 17.577C18.389 17.677 18.5247 17.7332 18.6661 17.7332H29.3328C29.6276 17.7332 29.8661 17.4944 29.8661 17.1999V12.9332C29.8661 12.6387 29.6276 12.3999 29.3328 12.3999ZM28.7995 16.6666H19.1995V13.4666H28.7995V16.6666ZM20.7995 18.7999H18.6661C18.5247 18.7999 18.389 18.8561 18.289 18.9561C18.189 19.0561 18.1328 19.1918 18.1328 19.3332V21.4666C18.1328 21.608 18.189 21.7437 18.289 21.8437C18.389 21.9437 18.5247 21.9999 18.6661 21.9999H20.7995C21.0943 21.9999 21.3328 21.7611 21.3328 21.4666V19.3332C21.3328 19.0387 21.0943 18.7999 20.7995 18.7999ZM20.2661 20.9332H19.1995V19.8666H20.2661V20.9332ZM25.0661 18.7999H22.9328C22.7914 18.7999 22.6557 18.8561 22.5557 18.9561C22.4557 19.0561 22.3995 19.1918 22.3995 19.3332V21.4666C22.3995 21.608 22.4557 21.7437 22.5557 21.8437C22.6557 21.9437 22.7914 21.9999 22.9328 21.9999H25.0661C25.3609 21.9999 25.5995 21.7611 25.5995 21.4666V19.3332C25.5995 19.0387 25.3609 18.7999 25.0661 18.7999ZM24.5328 20.9332H23.4661V19.8666H24.5328V20.9332ZM29.3328 18.7999H27.1995C27.058 18.7999 26.9224 18.8561 26.8224 18.9561C26.7223 19.0561 26.6661 19.1918 26.6661 19.3332V21.4666C26.6661 21.608 26.7223 21.7437 26.8224 21.8437C26.9224 21.9437 27.058 21.9999 27.1995 21.9999H29.3328C29.6276 21.9999 29.8661 21.7611 29.8661 21.4666V19.3332C29.8661 19.0387 29.6276 18.7999 29.3328 18.7999ZM28.7995 20.9332H27.7328V19.8666H28.7995V20.9332ZM20.7995 23.0666H18.6661C18.5247 23.0666 18.389 23.1228 18.289 23.2228C18.189 23.3228 18.1328 23.4585 18.1328 23.5999V25.7332C18.1328 25.8747 18.189 26.0103 18.289 26.1104C18.389 26.2104 18.5247 26.2666 18.6661 26.2666H20.7995C21.0943 26.2666 21.3328 26.0278 21.3328 25.7332V23.5999C21.3328 23.3054 21.0943 23.0666 20.7995 23.0666ZM20.2661 25.1999H19.1995V24.1332H20.2661V25.1999ZM25.0661 23.0666H22.9328C22.7914 23.0666 22.6557 23.1228 22.5557 23.2228C22.4557 23.3228 22.3995 23.4585 22.3995 23.5999V25.7332C22.3995 25.8747 22.4557 26.0103 22.5557 26.1104C22.6557 26.2104 22.7914 26.2666 22.9328 26.2666H25.0661C25.3609 26.2666 25.5995 26.0278 25.5995 25.7332V23.5999C25.5995 23.3054 25.3609 23.0666 25.0661 23.0666ZM24.5328 25.1999H23.4661V24.1332H24.5328V25.1999ZM29.3328 23.0666H27.1995C27.058 23.0666 26.9224 23.1228 26.8224 23.2228C26.7223 23.3228 26.6661 23.4585 26.6661 23.5999V29.9999C26.6661 30.1414 26.7223 30.277 26.8224 30.377C26.9224 30.477 27.058 30.5332 27.1995 30.5332H29.3328C29.6276 30.5332 29.8661 30.2944 29.8661 29.9999V23.5999C29.8661 23.3054 29.6276 23.0666 29.3328 23.0666ZM28.7995 29.4666H27.7328V24.1332H28.7995V29.4666ZM20.7995 27.3332H18.6661C18.5247 27.3332 18.389 27.3894 18.289 27.4894C18.189 27.5895 18.1328 27.7251 18.1328 27.8666V29.9999C18.1328 30.1414 18.189 30.277 18.289 30.377C18.389 30.477 18.5247 30.5332 18.6661 30.5332H20.7995C21.0943 30.5332 21.3328 30.2944 21.3328 29.9999V27.8666C21.3328 27.572 21.0943 27.3332 20.7995 27.3332ZM20.2661 29.4666H19.1995V28.3999H20.2661V29.4666ZM25.0661 27.3332H22.9328C22.7914 27.3332 22.6557 27.3894 22.5557 27.4894C22.4557 27.5895 22.3995 27.7251 22.3995 27.8666V29.9999C22.3995 30.1414 22.4557 30.277 22.5557 30.377C22.6557 30.477 22.7914 30.5332 22.9328 30.5332H25.0661C25.3609 30.5332 25.5995 30.2944 25.5995 29.9999V27.8666C25.5995 27.572 25.3609 27.3332 25.0661 27.3332ZM24.5328 29.4666H23.4661V28.3999H24.5328V29.4666Z" fill="#275F61"/>
<path d="M26.6667 14.5332H27.7334V15.5999H26.6667V14.5332ZM24.5334 14.5332H25.6001V15.5999H24.5334V14.5332ZM22.4001 14.5332H23.4667V15.5999H22.4001V14.5332ZM13.8667 20.9332H14.9334V21.9999H13.8667V20.9332ZM3.7334 23.0665H4.80007V24.1332H3.7334V23.0665ZM9.60007 24.6665H10.6667V25.7332H9.60007V24.6665ZM6.9334 21.4665H8.00007V22.5332H6.9334V21.4665Z" fill="#275F61"/>
</svg>
