<svg width="20" height="16" viewBox="0 0 20 16" fill="none" xmlns="http://www.w3.org/2000/svg">
<path fill-rule="evenodd" clip-rule="evenodd" d="M3.70741 0.293041C3.5188 0.110883 3.2662 0.0100885 3.00401 0.0123669C2.74181 0.0146453 2.491 0.119814 2.30559 0.305222C2.12018 0.490631 2.01501 0.741443 2.01273 1.00364C2.01045 1.26584 2.11125 1.51844 2.29341 1.70704L16.2934 15.707C16.482 15.8892 16.7346 15.99 16.9968 15.9877C17.259 15.9854 17.5098 15.8803 17.6952 15.6949C17.8806 15.5095 17.9858 15.2586 17.9881 14.9964C17.9904 14.7342 17.8896 14.4816 17.7074 14.293L16.2344 12.82C17.7919 11.5782 18.9437 9.89997 19.5424 8.00004C18.2684 3.94304 14.4784 1.00004 10.0004 1.00004C8.43284 0.997915 6.88691 1.3659 5.48841 2.07404L3.70741 0.293041ZM7.96841 4.55304L9.48241 6.06804C9.8215 5.97799 10.1783 5.97859 10.5171 6.06977C10.8559 6.16095 11.1648 6.33952 11.4128 6.58761C11.6609 6.83569 11.8395 7.14458 11.9307 7.48337C12.0219 7.82216 12.0225 8.17895 11.9324 8.51804L13.4464 10.032C13.8974 9.26806 14.0816 8.37584 13.9701 7.49572C13.8585 6.6156 13.4575 5.79754 12.8302 5.17022C12.2029 4.5429 11.3848 4.14193 10.5047 4.03039C9.62461 3.91885 8.73239 4.10206 7.96841 4.55304Z" fill="#B0B0B0"/>
<path d="M12.454 14.697L9.75001 11.992C8.77769 11.9311 7.86103 11.5174 7.17206 10.8286C6.4831 10.1398 6.06918 9.2233 6.00801 8.251L2.33501 4.578C1.49022 5.58402 0.852357 6.74692 0.458008 8C1.73201 12.057 5.52301 15 10 15C10.847 15 11.669 14.895 12.454 14.697Z" fill="#B0B0B0"/>
</svg>
