<svg width="301" height="261" viewBox="0 0 301 261" fill="none" xmlns="http://www.w3.org/2000/svg">
<g clip-path="url(#clip0_30_3281)">
<path d="M285.999 182.467C285.999 182.467 266.019 227.493 215.873 241.988C165.727 256.484 112.442 236.545 68.882 221.545C25.3216 206.546 2.50653 168.603 12.4323 129.935C22.358 91.2672 59.131 94.2106 93.6057 59.9846C128.08 25.7585 132.065 11.4109 179.665 1.51874C227.264 -8.37341 279.083 31.8739 291.798 88.6261C304.513 145.378 285.999 182.467 285.999 182.467Z" fill="#54CDD1"/>
<path opacity="0.8" d="M285.999 182.467C285.999 182.467 266.019 227.493 215.873 241.988C165.727 256.484 112.442 236.545 68.882 221.545C25.3216 206.546 2.50653 168.603 12.4323 129.935C22.358 91.2672 59.131 94.2106 93.6057 59.9846C128.08 25.7585 132.065 11.4109 179.665 1.51874C227.264 -8.37341 279.083 31.8739 291.798 88.6261C304.513 145.378 285.999 182.467 285.999 182.467Z" fill="white"/>
<path d="M254.938 86.973L89.6209 84.836C83.1754 84.7315 76.7365 85.2968 70.4078 86.5227C63.2911 87.9138 57.2765 90.0777 65.7037 92.7725C81.0325 97.6783 113.417 93.6663 128.349 99.9027C143.282 106.139 137.543 117.295 118.269 123.087C98.9956 128.88 33.7154 143.597 16.1959 169.013C-1.32373 194.429 17.5399 241.592 102.08 252.747C186.62 263.903 251.437 227.882 265.455 214.489C292.235 188.952 279.03 165.431 254.031 157.421C229.032 149.41 229.704 130.896 256.222 127.099C284.258 123.067 295.199 117.738 295.199 106.146C295.239 96.3342 278.156 86.0859 254.938 86.973Z" fill="#54CDD1"/>
<mask id="mask0_30_3281" style="mask-type:luminance" maskUnits="userSpaceOnUse" x="10" y="84" width="286" height="171">
<path d="M254.938 86.973L89.6209 84.836C83.1754 84.7315 76.7365 85.2968 70.4078 86.5227C63.2911 87.9138 57.2765 90.0777 65.7037 92.7725C81.0325 97.6783 113.417 93.6663 128.349 99.9027C143.282 106.139 137.543 117.295 118.269 123.087C98.9956 128.88 33.7154 143.597 16.1959 169.013C-1.32373 194.429 17.5399 241.592 102.08 252.747C186.62 263.903 251.437 227.882 265.455 214.489C292.235 188.952 279.03 165.431 254.031 157.421C229.032 149.41 229.704 130.896 256.222 127.099C284.258 123.067 295.199 117.738 295.199 106.146C295.239 96.3342 278.156 86.0859 254.938 86.973Z" fill="white"/>
</mask>
<g mask="url(#mask0_30_3281)">
<path opacity="0.6" d="M254.938 86.973L89.6209 84.836C83.1754 84.7315 76.7365 85.2968 70.4078 86.5227C63.2911 87.9138 57.2765 90.0777 65.7037 92.7725C81.0325 97.6783 113.417 93.6663 128.349 99.9027C143.282 106.139 137.543 117.295 118.269 123.087C98.9956 128.88 33.7154 143.597 16.1959 169.013C-1.32373 194.429 17.5399 241.592 102.08 252.747C186.62 263.903 251.437 227.882 265.455 214.489C292.235 188.952 279.03 165.431 254.031 157.421C229.032 149.41 229.704 130.896 256.222 127.099C284.258 123.067 295.199 117.738 295.199 106.146C295.239 96.3342 278.156 86.0859 254.938 86.973Z" fill="white"/>
</g>
<path d="M254.938 86.973L89.6209 84.836C83.1754 84.7315 76.7365 85.2968 70.4078 86.5227C63.2911 87.9138 57.2765 90.0777 65.7037 92.7725C81.0325 97.6783 113.417 93.6663 128.349 99.9027C143.282 106.139 137.543 117.295 118.269 123.087C98.9956 128.88 33.7154 143.597 16.1959 169.013C-1.32373 194.429 17.5399 241.592 102.08 252.747C186.62 263.903 251.437 227.882 265.455 214.489C292.235 188.952 279.03 165.431 254.031 157.421C229.032 149.41 229.704 130.896 256.222 127.099C284.258 123.067 295.199 117.738 295.199 106.146C295.239 96.3342 278.156 86.0859 254.938 86.973Z" stroke="#333333" stroke-linecap="round" stroke-linejoin="round"/>
<path d="M257.915 129.835C273.795 127.603 282.269 125.251 289.056 121.098C296.449 116.618 300.145 111.076 300.145 104.472C300.145 88.3439 273.049 81.6237 246.504 81.6237C245.536 81.6237 244.548 81.6237 243.574 81.6775L106.945 80.2057C98.5586 80.1049 81.7311 80.2864 73.4182 81.5498C68.237 82.3293 62.9885 83.082 58.3986 85.7768C51.7725 89.6745 61.9939 93.579 64.3997 94.2241C74.9572 97.0802 100.87 98.1621 111.69 99.4927C119.72 100.487 128.349 102.107 129.639 105.541C129.68 105.662 130.312 111.401 106.677 116.891C74.4195 124.378 25.362 135.486 8.12469 160.008C-0.873674 172.837 -2.1371 189.033 4.65704 204.456C10.3356 217.338 21.4038 228.877 36.6721 237.828C53.4727 247.694 75.0781 254.387 100.817 257.72C111.879 259.148 123.021 259.866 134.176 259.871C204.341 259.871 257.465 231.357 272.195 217.533C290.34 200.524 291.482 185.243 289.251 175.418C286.126 161.675 274.077 150.257 256.994 144.868C253.742 143.839 244.226 142.18 247.586 135.936C249.73 131.951 254.938 130.258 257.915 129.835ZM254.064 154.296C279.03 162.179 292.235 185.256 265.489 210.37C251.47 223.508 186.661 258.91 102.114 247.956C17.5666 237.002 -1.32396 190.652 16.1956 165.687C33.7152 140.721 98.9886 126.259 118.262 120.567C137.536 114.875 143.234 103.921 128.342 97.7858C113.451 91.6503 81.0255 95.595 65.6967 90.7766C57.2629 88.1289 63.2774 86.0053 70.4009 84.6344C76.7325 83.4328 83.1701 82.8789 89.6139 82.9812L254.931 85.0846C278.149 84.2043 295.252 94.2846 295.252 103.901C295.252 115.285 284.305 120.547 256.275 124.485C229.737 128.235 229.092 146.413 254.064 154.296Z" fill="white" stroke="#333333" stroke-linecap="round" stroke-linejoin="round"/>
<path d="M192.607 225.047H208.554" stroke="#333333" stroke-linecap="round" stroke-linejoin="round"/>
<path d="M170.283 236.74H198.28" stroke="#333333" stroke-linecap="round" stroke-linejoin="round"/>
<path d="M231.948 221.505H222.022" stroke="#333333" stroke-linecap="round" stroke-linejoin="round"/>
<path d="M211.391 228.588H202.89" stroke="#333333" stroke-linecap="round" stroke-linejoin="round"/>
<path d="M225.57 204.14H243.641" stroke="#333333" stroke-linecap="round" stroke-linejoin="round"/>
<path d="M242.224 206.976H256.04" stroke="#333333" stroke-linecap="round" stroke-linejoin="round"/>
<path d="M264.904 169.766H253.211" stroke="#333333" stroke-linecap="round" stroke-linejoin="round"/>
<path d="M243.642 91.4486H264.904" stroke="#333333" stroke-linecap="round" stroke-linejoin="round"/>
<path d="M247.539 93.2228H236.907" stroke="#333333" stroke-linecap="round" stroke-linejoin="round"/>
<path d="M253.561 98.5385H278.015" stroke="#333333" stroke-linecap="round" stroke-linejoin="round"/>
<path d="M248.244 98.8879H239.743" stroke="#333333" stroke-linecap="round" stroke-linejoin="round"/>
<path d="M233.01 98.8879H226.276" stroke="#333333" stroke-linecap="round" stroke-linejoin="round"/>
<path d="M230.173 91.8048H220.96" stroke="#333333" stroke-linecap="round" stroke-linejoin="round"/>
<path d="M210.685 90.3868H204.308" stroke="#333333" stroke-linecap="round" stroke-linejoin="round"/>
<path d="M99.0557 89.3251H106.502" stroke="#333333" stroke-linecap="round" stroke-linejoin="round"/>
<path d="M107.207 91.8048H120.318" stroke="#333333" stroke-linecap="round" stroke-linejoin="round"/>
<path d="M109.688 89.3251H112.88" stroke="#333333" stroke-linecap="round" stroke-linejoin="round"/>
<path d="M147.609 106.69H161.07" stroke="#333333" stroke-linecap="round" stroke-linejoin="round"/>
<path d="M142.999 104.916H145.479" stroke="#333333" stroke-linecap="round" stroke-linejoin="round"/>
<path d="M165.68 103.854H169.221" stroke="#333333" stroke-linecap="round" stroke-linejoin="round"/>
<path d="M185.524 89.3251H177.017" stroke="#333333" stroke-linecap="round" stroke-linejoin="round"/>
<path d="M174.181 91.8048H181.983" stroke="#333333" stroke-linecap="round" stroke-linejoin="round"/>
<path d="M232.653 113.068H255.69" stroke="#333333" stroke-linecap="round" stroke-linejoin="round"/>
<path d="M275.179 108.814H265.966" stroke="#333333" stroke-linecap="round" stroke-linejoin="round"/>
<path d="M228.05 129.364H233.365" stroke="#333333" stroke-linecap="round" stroke-linejoin="round"/>
<path d="M257.458 172.602H247.539" stroke="#333333" stroke-linecap="round" stroke-linejoin="round"/>
<path d="M73.1895 150.277H60.4346" stroke="#333333" stroke-linecap="round" stroke-linejoin="round"/>
<path d="M63.62 155.943H37.7539" stroke="#333333" stroke-linecap="round" stroke-linejoin="round"/>
<path d="M29.6025 164.45H39.5216" stroke="#333333" stroke-linecap="round" stroke-linejoin="round"/>
<path d="M44.1318 164.807H65.0384" stroke="#333333" stroke-linecap="round" stroke-linejoin="round"/>
<path d="M179.497 154.525H171.701" stroke="#333333" stroke-linecap="round" stroke-linejoin="round"/>
<path d="M153.631 156.299H173.119" stroke="#333333" stroke-linecap="round" stroke-linejoin="round"/>
<path d="M156.822 168.348H171.701" stroke="#333333" stroke-linecap="round" stroke-linejoin="round"/>
<path d="M157.884 172.246H141.581" stroke="#333333" stroke-linecap="round" stroke-linejoin="round"/>
<path d="M161.07 183.583H170.996" stroke="#333333" stroke-linecap="round" stroke-linejoin="round"/>
<path d="M28.541 175.082H46.2555" stroke="#333333" stroke-linecap="round" stroke-linejoin="round"/>
<path d="M19.6836 195.276H26.0611" stroke="#333333" stroke-linecap="round" stroke-linejoin="round"/>
<path d="M24.2871 198.468H39.5218" stroke="#333333" stroke-linecap="round" stroke-linejoin="round"/>
<path d="M189.462 121.535C189.012 120.547 177.205 112.127 170.693 109.923C164.181 107.718 161.459 108.578 161.459 108.578L161.157 108.76C160.502 108.656 159.834 108.679 159.188 108.827C157.427 109.214 155.803 110.066 154.484 111.293C154.484 111.293 150.545 111.293 148.274 112.638C146.003 113.982 145.586 115.601 145.586 115.601C145.586 115.601 143.617 113.753 140.136 115.601C136.655 117.449 136.05 119.68 136.05 119.68C133.969 119.196 131.786 119.413 129.841 120.299C128.081 121.058 126.484 122.149 125.136 123.511C125.136 123.511 115.6 123.511 111.205 128.081C108.135 125.679 104.351 124.374 100.453 124.371C93.9411 124.371 88.4911 129.808 89.1026 134.377C89.3916 136.582 90.9909 138.04 93.0608 138.887L105.749 145.862C105.749 145.862 116.198 150.311 118.772 151.178C121.323 151.943 124.016 152.111 126.642 151.668C128.409 151.38 131.541 148.779 132.851 146.01C141.587 142.603 185.376 125.5 186.741 124.505C188.253 123.383 189.919 122.543 189.462 121.535Z" fill="#54CDD1" stroke="#333333" stroke-linecap="round" stroke-linejoin="round"/>
<path d="M86.8857 143.154C86.8857 143.154 117.866 159.954 124.411 159.518C130.957 159.081 143.833 152.972 143.833 152.972" stroke="#333333" stroke-linecap="round" stroke-linejoin="round"/>
<path d="M92.6445 141.413C92.6445 141.413 119.525 155.969 125.17 155.593C130.815 155.217 141.971 149.921 141.971 149.921" stroke="#333333" stroke-linecap="round" stroke-linejoin="round"/>
<path d="M145.357 148.826L155.828 144.028" stroke="#333333" stroke-linecap="round" stroke-linejoin="round"/>
<path d="M158.012 143.154L161.069 141.629" stroke="#333333" stroke-linecap="round" stroke-linejoin="round"/>
<path d="M116.776 160.613C119.63 161.505 122.552 162.161 125.513 162.575C129.444 163.012 134.027 161.05 134.027 161.05" stroke="#333333" stroke-linecap="round" stroke-linejoin="round"/>
<path d="M87.3223 133.773C87.3223 133.773 82.7392 134.445 82.9609 135.957C83.1827 137.469 87.3223 139.881 87.3223 139.881" stroke="#333333" stroke-linecap="round" stroke-linejoin="round"/>
<path d="M80.3398 138.141L83.6126 140.54" stroke="#333333" stroke-linecap="round" stroke-linejoin="round"/>
<path d="M100.467 124.371C93.9548 124.371 88.5047 129.808 89.1163 134.377C89.4052 136.582 91.0047 138.04 93.0745 138.887L105.762 145.862C105.762 145.862 116.212 150.311 118.786 151.178C120.091 151.598 121.448 151.836 122.818 151.884C124.76 150.109 129.424 145.835 130.136 144.753C131.044 143.409 131.649 137.092 131.649 137.092L111.219 128.081C108.149 125.679 104.364 124.374 100.467 124.371Z" fill="#54CDD1" stroke="#333333" stroke-linecap="round" stroke-linejoin="round"/>
<path d="M137.542 140.056C134.469 137.66 130.686 136.357 126.79 136.353C120.278 136.353 114.828 141.79 115.433 146.359C116.037 150.929 122.247 152.287 126.635 151.668C131.024 151.05 169.934 132.892 173.717 130.675C177.501 128.457 188.703 124.868 189.61 123.383C190.518 121.898 188.401 120.171 185.524 120.789C183.765 121.181 182.141 122.035 180.82 123.262C180.82 123.262 176.889 123.262 174.618 124.606C172.346 125.95 171.889 127.57 171.889 127.57C171.889 127.57 169.92 125.715 166.439 127.57C162.958 129.425 162.353 131.649 162.353 131.649C160.274 131.165 158.093 131.382 156.15 132.267C154.394 133.028 152.797 134.116 151.446 135.473C151.446 135.473 141.93 135.486 137.542 140.056Z" fill="#333333" stroke="#333333" stroke-linecap="round" stroke-linejoin="round"/>
<path d="M129.216 124.741C130.899 125.015 132.443 125.843 133.604 127.093C133.604 127.093 136.635 127.214 138.308 128.941" stroke="#333333" stroke-linecap="round" stroke-linejoin="round"/>
<path d="M127.704 128.322C127.704 128.322 131.185 126.226 133.604 127.093C134.181 126.319 134.907 125.669 135.739 125.181C136.572 124.693 137.493 124.376 138.45 124.25" stroke="#333333" stroke-linecap="round" stroke-linejoin="round"/>
<path d="M116.649 129.438C118.334 129.711 119.88 130.536 121.044 131.783C121.044 131.783 124.069 131.904 125.749 133.638" stroke="#333333" stroke-linecap="round" stroke-linejoin="round"/>
<path d="M119.096 131.609C119.75 131.52 120.416 131.58 121.045 131.783C121.045 131.783 122.389 129.559 125.883 128.941" stroke="#333333" stroke-linecap="round" stroke-linejoin="round"/>
<path d="M140.264 129.935C141.949 130.209 143.496 131.037 144.659 132.287C144.659 132.287 147.683 132.408 149.363 134.135" stroke="#333333" stroke-linecap="round" stroke-linejoin="round"/>
<path d="M138.772 133.51C138.772 133.51 142.254 131.414 144.68 132.281C144.68 132.281 146.024 130.056 149.518 129.438" stroke="#333333" stroke-linecap="round" stroke-linejoin="round"/>
<path d="M152.071 124.62C153.756 124.892 155.302 125.717 156.466 126.965C156.466 126.965 159.49 127.093 161.17 128.82" stroke="#333333" stroke-linecap="round" stroke-linejoin="round"/>
<path d="M150.56 128.201C150.56 128.201 154.041 126.105 156.467 126.965C156.467 126.965 157.811 124.741 161.312 124.129" stroke="#333333" stroke-linecap="round" stroke-linejoin="round"/>
<path d="M141.628 119.929C143.312 120.198 144.857 121.024 146.016 122.274C146.016 122.274 149.047 122.395 150.72 124.129" stroke="#333333" stroke-linecap="round" stroke-linejoin="round"/>
<path d="M140.116 123.511C140.116 123.511 143.597 121.407 146.017 122.274C146.593 121.501 147.319 120.851 148.152 120.363C148.984 119.874 149.905 119.558 150.862 119.432" stroke="#333333" stroke-linecap="round" stroke-linejoin="round"/>
<path d="M167.212 118.692C168.894 118.966 170.438 119.791 171.6 121.038C171.6 121.038 174.631 121.159 176.304 122.893" stroke="#333333" stroke-linecap="round" stroke-linejoin="round"/>
<path d="M165.7 122.274C165.7 122.274 169.181 120.171 171.601 121.038C172.177 120.264 172.903 119.614 173.736 119.126C174.568 118.638 175.489 118.321 176.446 118.195" stroke="#333333" stroke-linecap="round" stroke-linejoin="round"/>
<path d="M156.769 113.995C158.452 114.27 159.996 115.097 161.157 116.347C161.157 116.347 164.188 116.468 165.861 118.195" stroke="#333333" stroke-linecap="round" stroke-linejoin="round"/>
<path d="M155.25 117.577C155.25 117.577 158.738 115.48 161.157 116.347C161.734 115.574 162.46 114.924 163.292 114.435C164.124 113.947 165.046 113.631 166.002 113.504" stroke="#333333" stroke-linecap="round" stroke-linejoin="round"/>
<path d="M155.573 78.2233C155.573 78.2233 163.315 82.5511 167.67 86.5765C172.024 90.6019 170.405 94.3921 168.342 95.8369C166.279 97.2818 164.31 96.8987 162.294 95.8369C160.277 94.7751 147.334 92.04 145.896 91.7376C144.458 91.4352 143.39 92.8733 142.778 94.2443C142.167 95.6152 142.247 97.6581 141.797 97.9605C141.347 98.2629 140.809 97.8127 140.05 96.22C139.29 94.6273 140.426 93.4849 140.426 91.2806C140.426 89.0764 139.667 87.7929 140.654 86.6504C140.944 86.2833 141.345 86.0196 141.796 85.8986C142.248 85.7775 142.727 85.8055 143.161 85.9784C143.537 86.133 149.996 87.5778 149.996 87.5778C149.996 87.5778 144.451 84.8427 143.692 81.8791C142.933 78.9155 150.6 77.1749 152.879 77.2488C155.157 77.3228 155.573 78.2233 155.573 78.2233Z" fill="white" stroke="#333333" stroke-linecap="round" stroke-linejoin="round"/>
<path d="M149.962 87.5979C149.962 87.5979 144.418 84.8628 143.658 81.8992C142.899 78.9356 150.566 77.1951 152.845 77.269C155.123 77.3429 155.58 78.2569 155.58 78.2569C159.364 80.3938 162.979 82.8179 166.393 85.508C164.592 85.723 161.836 86.6571 159.222 89.95C159.085 90.1178 158.911 90.2525 158.715 90.3444C158.518 90.4363 158.303 90.4829 158.086 90.4809C157.327 90.4809 149.579 87.6719 149.579 87.6719C149.579 87.6719 149.256 87.5442 148.725 87.3157L149.962 87.5979Z" fill="#54CDD1" stroke="#333333" stroke-linecap="round" stroke-linejoin="round"/>
<path d="M149.881 79.8965C149.881 79.8965 157.475 83.7674 160.969 87.3358C164.464 90.9043 165.216 95.4606 163.55 97.8866C161.883 100.313 157.549 99.4053 155.486 99.1029C153.422 98.8005 147.744 95.6084 144.733 93.9418C142.364 92.7323 139.89 91.7403 137.341 90.9782C137.112 90.9043 135.674 92.7994 135.325 94.5466C134.975 96.2939 135.251 97.7387 134.794 97.9605C134.337 98.1822 132.825 96.2939 132.066 93.8612C131.306 91.4284 132.825 89.9903 133.275 87.8667C133.726 85.7431 134.115 84.4529 135.406 84.7553C136.696 85.0577 136.541 85.4273 137.684 86.274C138.826 87.1208 143.833 88.3237 143.833 88.3237C143.833 88.3237 139.579 86.4219 138.215 83.6935C137.624 82.6406 137.444 81.4064 137.71 80.2287C137.975 79.0511 138.667 78.0135 139.653 77.316C141.306 76.1736 149.881 79.8965 149.881 79.8965Z" fill="white" stroke="#333333" stroke-linecap="round" stroke-linejoin="round"/>
<path d="M143.013 87.9205C141.716 87.2485 139.189 85.6827 138.195 83.6935C137.604 82.6406 137.424 81.4064 137.69 80.2287C137.956 79.0511 138.648 78.0135 139.633 77.316C141.306 76.1736 149.881 79.8965 149.881 79.8965C149.881 79.8965 157.475 83.7674 160.97 87.3358C161.674 88.0539 162.294 88.8498 162.818 89.7081C161.701 89.7746 160.596 89.9708 159.525 90.2927C155.493 91.4351 153.833 93.1824 153.833 93.1824L143.813 88.3237L143.013 87.9205Z" fill="#54CDD1" stroke="#333333" stroke-linecap="round" stroke-linejoin="round"/>
<path d="M145.708 46.4904C145.708 46.4904 141.837 41.4771 141.676 41.2486C141.514 41.0201 140.614 37.7608 139.176 35.6305C137.738 33.5002 132.57 25.4629 131.884 24.3943C131.616 23.9007 131.255 23.4628 130.823 23.1041C131.555 22.5301 132.415 22.1406 133.329 21.9683C134.465 21.8944 134.001 20.6781 133.02 20.3757C132.281 20.2238 131.514 20.3036 130.823 20.6041C130.823 20.6041 134.31 16.6527 135.15 16.0478C135.99 15.443 135.755 15.06 135.298 15.1339C134.475 15.5102 133.688 15.9601 132.946 16.4779C133.636 15.5036 134.271 14.4918 134.848 13.4471C134.922 13.0641 134.848 12.6877 134.465 12.6877C134.082 12.6877 132.113 15.2683 132.113 15.2683L133.457 12.1568C133.457 12.1568 133.457 11.6192 132.852 12.0762C131.997 12.868 131.185 13.7048 130.419 14.5828C130.419 14.5828 131.333 12.6877 131.091 12.3786C130.849 12.0695 130.789 12.3047 130.487 12.7617C130.184 13.2186 128.659 15.947 128.128 16.7064C127.597 17.4658 126.078 19.5155 126.69 20.8058C127.301 22.096 127.825 22.7815 128.128 23.393C128.43 24.0046 132.079 33.3322 133.443 36.6789C134.808 40.0256 137.314 43.4327 137.395 43.6612C137.476 43.8897 141.723 52.9216 142.482 54.8974C143.242 56.8731 143.618 64.3863 143.389 66.7384C143.161 69.0905 139.142 75.4747 138.302 78.734C138.302 78.734 139.895 79.9503 147.489 80.4812C155.082 81.0121 156.299 78.5861 156.299 78.5861C158.537 75.3837 159.712 71.559 159.659 67.6524C159.634 63.7488 160.067 59.8559 160.949 56.0533C160.949 56.0533 165.425 50.0051 167.555 47.0213C169.686 44.0375 170.21 42.6196 171.124 41.5578C172.038 40.496 174.538 35.9397 176.211 33.8094C177.884 31.6791 180.613 27.6604 180.613 27.6604C181.78 26.919 182.902 26.1089 183.973 25.2344C184.961 24.3204 186.479 24.1659 186.553 23.7156C186.627 23.2654 186.553 23.2586 185.881 23.3326C185.209 23.4065 182.998 24.0046 182.998 24.0046C182.998 24.0046 183.381 20.1337 183.529 19.5222C183.677 18.9107 185.202 14.5896 184.974 14.2872C184.746 13.9847 184.215 13.9847 184.215 14.2132C184.215 14.4417 182.084 18.9174 182.084 18.9174L181.553 18.615C181.553 18.615 182.77 14.5828 182.897 13.9108C183.025 13.2388 182.669 13.0775 182.367 13.1514C182.064 13.2254 179.934 18.5276 179.934 18.5276L179.631 18.3058C179.631 18.3058 179.86 15.0398 179.934 14.5089C180.008 13.978 179.786 13.7495 179.477 14.0519C179.168 14.3544 178.57 18.4537 178.57 18.4537C178.57 18.4537 178.113 16.7871 178.039 16.4779C177.965 16.1688 177.508 16.0277 177.508 16.7871C177.508 17.5465 177.81 18.7561 177.81 19.8985C177.81 21.041 178.113 24.7572 178.113 24.7572C178.113 24.7572 171.13 31.4774 169.309 34.3201C167.488 37.1627 164.827 41.0806 163.933 42.3844C163.039 43.6881 159.383 46.4165 159.074 46.86C158.765 47.3036 157.253 48.6073 153.308 49.0642C152.166 49.2034 151.007 49.0849 149.916 48.7174C148.825 48.3499 147.83 47.7428 147.005 46.9407L145.708 46.4904Z" fill="white" stroke="#333333" stroke-linecap="round" stroke-linejoin="round"/>
<path d="M143.43 66.7652C143.658 64.4131 143.282 56.9 142.522 54.9242C142.059 53.728 140.325 49.9513 139.008 47.1019C140.573 45.8234 141.754 44.1373 142.422 42.2297C143.584 43.7485 145.708 46.4971 145.708 46.4971L146.998 46.954C147.824 47.7562 148.818 48.3633 149.909 48.7308C151 49.0982 152.159 49.2168 153.302 49.0776C157.246 48.6206 158.765 47.3304 159.068 46.8734C159.37 46.4164 162.481 44.0912 163.678 42.7136C164.209 43.2445 165.405 44.7767 166.487 48.5333C164.208 51.6716 160.969 56.0599 160.969 56.0599C160.086 59.8691 159.653 63.7689 159.679 67.6792C159.732 71.5858 158.557 75.4105 156.319 78.613C156.319 78.613 155.103 81.0389 147.509 80.5081C139.915 79.9772 138.322 78.7608 138.322 78.7608C139.182 75.5015 143.201 69.1106 143.43 66.7652Z" fill="#333333" stroke="#333333" stroke-linecap="round" stroke-linejoin="round"/>
<path d="M130.829 20.6041L129.458 20.9805" stroke="#333333" stroke-linecap="round" stroke-linejoin="round"/>
<path d="M130.527 23.2587C130.343 23.4981 130.073 23.6561 129.774 23.6988C129.475 23.7415 129.171 23.6655 128.928 23.4872" stroke="#333333" stroke-linecap="round" stroke-linejoin="round"/>
<path d="M155.351 54.306C155.351 54.306 155.049 59.0908 153.375 59.0908C151.702 59.0908 150.949 52.8679 150.949 52.8679C151.525 53.4266 152.221 53.8466 152.984 54.0958C153.747 54.345 154.556 54.4169 155.351 54.306Z" fill="white" stroke="#333333" stroke-linecap="round" stroke-linejoin="round"/>
<path d="M145.708 44.2122C145.708 44.2122 144.115 43.8292 144.115 40.1129C144.115 36.3966 146.998 36.0808 146.998 36.0808C146.998 36.0808 145.936 35.4759 146.77 34.0647C147.03 33.634 147.384 33.2673 147.805 32.9916C148.226 32.7159 148.704 32.5384 149.202 32.472C149.202 32.472 150.641 29.1119 152.69 28.3727C154.74 27.6335 157.327 28.749 156.87 29.7167C156.375 30.4803 155.696 31.1067 154.894 31.5379C154.894 31.5379 159.753 29.9452 161.346 31.9949C162.939 34.0445 160.949 34.5082 160.949 34.5082C160.949 34.5082 163.832 36.7125 163.684 38.3791C163.537 40.0457 161.48 39.2124 161.48 39.2124C161.48 39.2124 163.301 41.1142 162.085 42.0214C161.66 42.2873 161.182 42.4591 160.685 42.5251C160.188 42.5912 159.682 42.5501 159.202 42.4045C159.202 42.4045 158.745 38.6815 156.695 38.3724C154.646 38.0632 152.065 40.1935 150.701 40.3481C150.046 40.4493 149.38 40.4493 148.725 40.3481C148.725 40.3481 147.737 42.3642 148.423 43.9905C149.108 45.6167 148.497 46.571 147.59 46.2686C146.682 45.9662 145.708 44.2122 145.708 44.2122Z" fill="#333333" stroke="#333333" stroke-linecap="round" stroke-linejoin="round"/>
<path d="M160.137 40.2608C160.301 42.8667 160.274 45.4812 160.056 48.0831C159.68 50.8922 158.161 53.3988 156.111 54.6152C154.061 55.8315 153.074 55.4485 151.709 54.6891C150.345 53.9297 147.301 50.5898 147.005 49.528C146.71 48.4662 146.548 47.7807 146.548 47.7807C146.056 47.4399 145.64 47.0004 145.326 46.4903C145.013 45.9801 144.809 45.4103 144.727 44.8171C144.425 42.7675 144.653 42.129 145.789 42.7675C146.424 43.0772 146.974 43.5388 147.388 44.1115C147.388 44.1115 146.716 41.6788 147.234 40.0794C147.751 38.48 148.578 36.8134 149.512 36.9679C150.446 37.1225 150.802 37.7273 152.395 37.7273C153.988 37.7273 155.285 36.5849 154.411 36.5849C153.826 36.5757 153.242 36.5263 152.664 36.437C153.042 35.975 153.539 35.6247 154.101 35.4234C154.664 35.2222 155.27 35.1776 155.856 35.2946C156.693 35.4409 157.466 35.8421 158.067 36.4434C158.668 37.0448 159.07 37.817 159.216 38.6547C159.33 39.2797 159.655 39.8466 160.137 40.2608Z" fill="white" stroke="#333333" stroke-linecap="round" stroke-linejoin="round"/>
<path d="M155.808 46.1073C155.808 46.1073 156.11 46.8667 155.956 47.0952C155.741 47.3078 155.467 47.4504 155.169 47.5044C154.872 47.5584 154.565 47.5211 154.289 47.3976" stroke="#333333" stroke-linecap="round" stroke-linejoin="round"/>
<path d="M156.184 48.9971C155.882 49.1535 155.551 49.2473 155.212 49.2727C154.872 49.2981 154.531 49.2546 154.209 49.1449C153.305 48.8968 152.489 48.3982 151.856 47.7068" stroke="#333333" stroke-linecap="round" stroke-linejoin="round"/>
<path d="M155.352 49.2255C154.92 49.8636 154.314 50.3631 153.604 50.6636C152.617 50.966 152.469 48.3115 152.469 48.3115C152.469 48.3115 154.229 49.4472 155.352 49.2255Z" fill="#333333" stroke="#333333" stroke-linecap="round" stroke-linejoin="round"/>
<path d="M152.771 44.3669C152.4 44.1774 151.975 44.1268 151.57 44.2242C151.166 44.3216 150.81 44.5605 150.566 44.8978" stroke="#333333" stroke-linecap="round" stroke-linejoin="round"/>
<path d="M156.11 44.2123C156.268 44.0782 156.45 43.9774 156.648 43.9161C156.845 43.8548 157.053 43.8342 157.258 43.8556C157.464 43.877 157.663 43.9398 157.843 44.0404C158.023 44.141 158.182 44.2772 158.308 44.4407" stroke="#333333" stroke-linecap="round" stroke-linejoin="round"/>
<path d="M158.766 42.2365C158.766 42.2365 157.778 40.4154 156.037 41.2487" stroke="#333333" stroke-linecap="round" stroke-linejoin="round"/>
<path d="M153.073 41.5578C152.86 41.39 152.614 41.2698 152.351 41.2053C152.087 41.1408 151.814 41.1334 151.547 41.1837C151.281 41.234 151.029 41.3408 150.807 41.4969C150.586 41.6531 150.401 41.8548 150.264 42.0887" stroke="#333333" stroke-linecap="round" stroke-linejoin="round"/>
<path d="M240.287 175.485C243.352 177.689 245.119 180.276 245.119 183.038C245.078 184.761 244.455 186.419 243.352 187.743" stroke="#333333" stroke-linecap="round" stroke-linejoin="round"/>
<path d="M180.289 177.333C185.417 172.078 197.405 168.388 211.377 168.388C221.591 168.388 230.744 170.357 236.914 173.469" stroke="#333333" stroke-linecap="round" stroke-linejoin="round"/>
<path d="M240.664 190.316C234.851 194.718 223.91 197.709 211.377 197.709C192.749 197.709 177.642 191.15 177.642 183.059C177.645 182.163 177.826 181.277 178.172 180.451" stroke="#333333" stroke-linecap="round" stroke-linejoin="round"/>
<path d="M190.928 179.289C194.288 175.828 202.184 173.402 211.377 173.402C223.635 173.402 233.554 177.716 233.554 183.038C233.554 186.546 229.24 189.617 222.802 191.304" stroke="#333333" stroke-linecap="round" stroke-linejoin="round"/>
<path d="M218.326 192.198C216.023 192.519 213.701 192.679 211.377 192.675C199.119 192.675 189.2 188.361 189.2 183.038C189.2 182.582 189.27 182.129 189.409 181.694" stroke="#333333" stroke-linecap="round" stroke-linejoin="round"/>
<path d="M204.919 155.418C204.919 155.418 202.809 151.064 202.386 149.585C201.962 148.107 200.067 143.114 200.067 143.114L192.749 143.886C193.633 147.635 194.756 151.322 196.109 154.928C197.768 158.693 198.994 162.634 199.765 166.675C200.25 169.569 200.225 172.526 199.691 175.411C199.274 177.427 198.078 183.475 198.078 183.475C199.819 185.348 201.917 186.854 204.248 187.905C206.579 188.957 209.097 189.532 211.653 189.597C220.443 189.88 222.768 187.487 222.977 186.64C223.185 185.794 223.333 182.212 223.964 181.264C224.596 180.317 226.565 179.369 227.902 173.529C229.24 167.689 223.682 166.708 222.486 167.34C221.29 167.972 219.462 170.996 218.051 171.701C216.639 172.407 216.646 170.082 216.646 169.242C216.646 168.402 207.641 166.426 206.028 162.347C204.415 158.268 204.919 155.418 204.919 155.418Z" fill="white" stroke="#333333" stroke-linecap="round" stroke-linejoin="round"/>
<path d="M206.74 170.297C206.74 170.297 207.304 174 206.384 176.137" stroke="#333333" stroke-linecap="round" stroke-linejoin="round"/>
<path d="M211.351 176.137C211.351 176.137 214.267 175.465 215.974 174" stroke="#333333" stroke-linecap="round" stroke-linejoin="round"/>
<path d="M204.287 153.523C204.287 153.523 203.938 159.148 203.864 161.89C203.79 164.632 204.005 167.306 205.974 169.491C207.943 171.675 208.292 173.523 211.108 173.22C213.924 172.918 218.5 169.632 219.34 168.153C220.18 166.675 221.733 161.614 222.223 159.995C222.714 158.375 222.855 155.963 221.659 152.535C220.463 149.108 215.469 146.77 210.906 147.892C209.432 148.229 208.06 148.917 206.907 149.897C205.755 150.878 204.856 152.122 204.287 153.523Z" fill="white" stroke="#333333" stroke-linecap="round" stroke-linejoin="round"/>
<path d="M224.118 149.585C224.118 149.585 222.566 145.224 217.082 143.114C211.599 141.004 205.658 145.083 203.642 148.947C202.422 151.254 201.976 153.893 202.372 156.473L204.556 154.155C204.556 154.155 204.132 156.339 204.415 156.057C205.312 155.41 206.25 154.822 207.224 154.296C207.439 154.229 207.365 154.787 207.365 154.787C207.365 154.787 208.561 154.296 209.831 153.873C210.608 153.61 211.361 153.282 212.082 152.892L211.35 155.069C212.139 154.684 212.999 154.469 213.877 154.437C215.175 154.206 216.376 153.593 217.324 152.677C217.315 153.69 217.582 154.687 218.097 155.559C218.944 156.904 218.769 156.904 218.944 156.904C219.216 156.366 219.427 155.8 219.575 155.217C219.575 155.217 219.717 157.186 220.247 157.75C220.814 158.415 221.33 159.12 221.793 159.86L222.358 158.174L222.216 161.265C223.444 160.644 224.4 159.594 224.905 158.315C225.953 155.983 226.235 152.186 224.118 149.585Z" fill="#333333" stroke="#333333" stroke-linecap="round" stroke-linejoin="round"/>
<path d="M208.575 164.639C208.575 164.639 209.489 167.031 214.556 165.694C214.556 165.694 212.587 168.577 210.968 168.227C209.18 167.837 208.575 164.639 208.575 164.639Z" stroke="#333333" stroke-linecap="round" stroke-linejoin="round"/>
<path d="M220.457 160.848C220.578 162.515 219.113 163.98 217.197 164.114C215.282 164.249 213.629 163.012 213.508 161.346C213.387 159.679 214.852 158.221 216.767 158.08C218.683 157.938 220.336 159.202 220.457 160.848Z" fill="#54CDD1" stroke="#333333" stroke-linecap="round" stroke-linejoin="round"/>
<path d="M219.112 160.969C219.204 161.399 219.163 161.846 218.993 162.252C218.824 162.657 218.535 163.001 218.165 163.238C217.795 163.475 217.361 163.593 216.922 163.576C216.483 163.56 216.059 163.41 215.708 163.146C215.356 162.882 215.094 162.517 214.955 162.1C214.817 161.683 214.809 161.234 214.933 160.812C215.057 160.391 215.307 160.017 215.649 159.741C215.991 159.465 216.409 159.301 216.848 159.269C217.373 159.198 217.905 159.336 218.329 159.655C218.753 159.973 219.034 160.445 219.112 160.969Z" fill="#EFFCFD" stroke="#333333" stroke-linecap="round" stroke-linejoin="round"/>
<path d="M210.888 160.923C211.591 159.408 210.746 157.524 209.002 156.715C207.257 155.907 205.274 156.48 204.572 157.995C203.869 159.51 204.714 161.394 206.458 162.203C208.202 163.011 210.186 162.438 210.888 160.923Z" fill="#54CDD1" stroke="#333333" stroke-linecap="round" stroke-linejoin="round"/>
<path d="M209.636 160.331C209.508 160.751 209.254 161.122 208.91 161.394C208.565 161.666 208.145 161.827 207.707 161.854C207.268 161.881 206.832 161.774 206.456 161.546C206.08 161.318 205.783 160.982 205.604 160.581C205.424 160.179 205.372 159.733 205.453 159.301C205.535 158.87 205.746 158.473 206.058 158.165C206.371 157.856 206.771 157.651 207.204 157.575C207.636 157.5 208.082 157.559 208.48 157.744C208.975 157.936 209.373 158.316 209.59 158.8C209.806 159.284 209.823 159.834 209.636 160.331Z" fill="#EFFCFD" stroke="#333333" stroke-linecap="round" stroke-linejoin="round"/>
<path d="M210.618 159.43L214.133 159.995L213.898 161.292L210.336 160.7L210.618 159.43Z" fill="white" stroke="#333333" stroke-width="0.5" stroke-linecap="round" stroke-linejoin="round"/>
<path d="M219.972 161.258L219.663 162.562L221.518 163.16L221.874 161.823L219.972 161.258Z" fill="white" stroke="#333333" stroke-width="0.5" stroke-linecap="round" stroke-linejoin="round"/>
<path d="M204.778 158.308L203.514 158.167L203.373 159.78L204.636 159.854L204.778 158.308Z" fill="white" stroke="#333333" stroke-width="0.5" stroke-linecap="round" stroke-linejoin="round"/>
<path d="M211.391 161.614C211.391 161.614 209.986 162.528 210.477 163.368C210.968 164.208 212.164 164.423 212.587 164.074C212.708 163.982 212.808 163.865 212.881 163.732C212.953 163.599 212.998 163.452 213.011 163.301" stroke="#333333" stroke-linecap="round" stroke-linejoin="round"/>
<path d="M206.465 155.633C206.918 155.41 207.42 155.306 207.925 155.33C208.429 155.355 208.919 155.508 209.348 155.775" stroke="#333333" stroke-linecap="round" stroke-linejoin="round"/>
<path d="M216.055 157.253C216.682 156.962 217.397 156.924 218.052 157.147C218.706 157.37 219.25 157.836 219.569 158.449" stroke="#333333" stroke-linecap="round" stroke-linejoin="round"/>
<path d="M220.516 133.265C227.482 119.353 221.852 102.428 207.941 95.4618C194.029 88.4953 177.104 94.1256 170.137 108.037C163.171 121.949 168.801 138.874 182.713 145.84C196.624 152.807 213.55 147.177 220.516 133.265Z" fill="white"/>
<mask id="mask1_30_3281" style="mask-type:luminance" maskUnits="userSpaceOnUse" x="167" y="92" width="57" height="57">
<path d="M220.516 133.265C227.482 119.353 221.852 102.428 207.941 95.4618C194.029 88.4953 177.104 94.1256 170.137 108.037C163.171 121.949 168.801 138.874 182.713 145.84C196.624 152.807 213.55 147.177 220.516 133.265Z" fill="white"/>
</mask>
<g mask="url(#mask1_30_3281)">
<path d="M218.547 136.521C213.81 135.177 203.561 131.474 195.027 122.772C192.601 131.163 191.67 139.917 192.278 148.631C193.276 148.739 194.279 148.793 195.282 148.792C199.867 148.798 204.383 147.683 208.438 145.544C212.493 143.405 215.963 140.308 218.547 136.521Z" fill="white" stroke="#333333" stroke-linecap="round" stroke-linejoin="round"/>
<path d="M195.296 92.45C191.373 92.4457 187.493 93.2627 183.905 94.8483C180.317 96.4339 177.101 98.7531 174.463 101.657C177.635 106.065 185.807 116.67 195.047 122.772C195.047 122.772 196.344 105.575 202.547 93.3908C200.18 92.7652 197.743 92.4489 195.296 92.45Z" fill="#7DE7EB" stroke="#333333" stroke-linecap="round" stroke-linejoin="round"/>
<path d="M195.039 122.772C186.035 124.554 177.848 129.201 171.7 136.017C173.982 139.515 177.014 142.461 180.575 144.643C184.136 146.824 188.138 148.187 192.291 148.631C191.683 139.917 192.613 131.163 195.039 122.772Z" fill="#92EBEE" stroke="#333333" stroke-linecap="round" stroke-linejoin="round"/>
<path d="M223.446 120.621C223.445 117.043 222.76 113.499 221.43 110.178C211.722 112.139 202.648 116.465 195.013 122.772C203.534 131.508 213.776 135.184 218.533 136.521C221.742 131.84 223.455 126.296 223.446 120.621Z" fill="#B4F1F4" stroke="#333333" stroke-linecap="round" stroke-linejoin="round"/>
<path d="M199.227 124.548C201.397 122.378 201.397 118.859 199.227 116.688C197.057 114.518 193.538 114.518 191.367 116.688C189.197 118.859 189.197 122.377 191.367 124.548C193.538 126.718 197.057 126.718 199.227 124.548Z" fill="white" stroke="#333333" stroke-linecap="round" stroke-linejoin="round"/>
<path opacity="0.2" d="M206.773 137.704C201.85 137.703 197.013 136.411 192.745 133.958C188.476 131.504 184.925 127.975 182.446 123.721C179.967 119.467 178.647 114.638 178.616 109.715C178.585 104.792 179.846 99.9464 182.272 95.6622C178.385 97.6868 175.024 100.59 172.456 104.142C169.888 107.693 168.185 111.795 167.48 116.12C166.776 120.446 167.091 124.876 168.399 129.059C169.708 133.241 171.974 137.061 175.018 140.214C178.062 143.367 181.799 145.766 185.933 147.221C190.067 148.676 194.484 149.146 198.831 148.594C203.179 148.043 207.338 146.484 210.978 144.043C214.617 141.602 217.637 138.345 219.797 134.532C215.776 136.627 211.307 137.716 206.773 137.704Z" fill="#7DE7EB"/>
</g>
<path d="M220.516 133.265C227.482 119.353 221.852 102.428 207.941 95.4618C194.029 88.4953 177.104 94.1256 170.137 108.037C163.171 121.949 168.801 138.874 182.713 145.84C196.624 152.807 213.55 147.177 220.516 133.265Z" stroke="#333333" stroke-linecap="round" stroke-linejoin="round"/>
<path d="M193.717 148.752C193.247 148.752 192.769 148.691 192.306 148.644C192.769 148.685 193.247 148.752 193.717 148.752Z" stroke="#333333" stroke-linecap="round" stroke-linejoin="round"/>
<path d="M195.296 148.792C194.819 148.792 194.348 148.792 193.878 148.759C194.348 148.752 194.819 148.792 195.296 148.792Z" stroke="#333333" stroke-linecap="round" stroke-linejoin="round"/>
<path d="M195.296 148.792H196.129C195.854 148.752 195.571 148.792 195.296 148.792Z" stroke="#333333" stroke-linecap="round" stroke-linejoin="round"/>
<path d="M216.276 139.404L216.384 139.27C216.352 139.317 216.316 139.362 216.276 139.404Z" stroke="#333333" stroke-linecap="round" stroke-linejoin="round"/>
<path d="M216.68 138.94C216.922 138.667 217.157 138.385 217.385 138.094C217.157 138.38 216.922 138.663 216.68 138.94Z" stroke="#333333" stroke-linecap="round" stroke-linejoin="round"/>
<path d="M217.681 137.711C217.943 137.375 218.191 137.039 218.44 136.669C218.191 137.025 217.943 137.375 217.681 137.711Z" stroke="#333333" stroke-linecap="round" stroke-linejoin="round"/>
<path d="M221.028 171.668C221.028 171.668 222.432 158.658 224.542 154.155C224.542 154.155 222.929 146.279 222.856 141.286C222.782 136.293 221.377 128.833 221.377 128.833C221.377 128.833 214.489 125.95 214.274 125.95C214.059 125.95 209.489 127.845 208.649 127.919C207.809 127.993 207.52 127.146 207.943 126.931C209.022 126.573 210.079 126.151 211.109 125.668C211.881 125.177 212.795 124.472 212.795 124.472C212.795 124.472 209.845 124.19 208.091 124.116C206.337 124.042 206.075 124.048 206.075 123.625C206.075 123.202 206.633 123.135 206.915 123.135C207.197 123.135 210.571 122.926 211.351 122.785C211.847 122.692 212.338 122.573 212.822 122.429L213.32 121.589L208.111 119.895C207.688 119.761 206.767 119.338 206.707 119.123C206.646 118.907 206.707 118.632 207.056 118.706C207.406 118.78 211.351 119.62 212.332 119.687C213.313 119.754 213.81 119.828 213.81 119.828L214.583 119.055C213.747 118.084 212.849 117.168 211.895 116.313C211.404 116.031 208.871 115.957 208.535 115.608C208.199 115.258 208.743 114.902 209.166 114.902C209.59 114.902 213.037 115.184 213.387 115.467C213.736 115.749 216.27 117.926 217.325 118.209C218.38 118.491 219.294 118.632 219.294 118.632C219.076 117.926 218.958 117.193 218.944 116.455C218.944 115.326 220.073 113.289 220.564 113.095C221.055 112.9 221.128 113.726 220.913 114.439C220.539 115.329 220.465 116.318 220.705 117.254C221.094 118.333 221.561 119.382 222.103 120.393C222.452 121.233 223.864 125.809 224.562 126.864C225.261 127.919 228.648 138.329 230.759 144.518C232.869 150.708 232.586 151.554 232.371 153.664C232.156 155.775 229.488 164.356 228.648 168.718C227.808 173.079 227.479 174.625 226.807 175.888" fill="white"/>
<path d="M221.028 171.668C221.028 171.668 222.432 158.658 224.542 154.155C224.542 154.155 222.929 146.279 222.856 141.286C222.782 136.293 221.377 128.833 221.377 128.833C221.377 128.833 214.489 125.95 214.274 125.95C214.059 125.95 209.489 127.845 208.649 127.919C207.809 127.993 207.52 127.146 207.943 126.931C209.022 126.573 210.079 126.151 211.109 125.668C211.881 125.177 212.795 124.472 212.795 124.472C212.795 124.472 209.845 124.19 208.091 124.116C206.337 124.042 206.075 124.048 206.075 123.625C206.075 123.202 206.633 123.135 206.915 123.135C207.197 123.135 210.571 122.926 211.351 122.785C211.847 122.692 212.338 122.573 212.822 122.429L213.32 121.589L208.111 119.895C207.688 119.761 206.767 119.338 206.707 119.123C206.646 118.907 206.707 118.632 207.056 118.706C207.406 118.78 211.351 119.62 212.332 119.687C213.313 119.754 213.81 119.828 213.81 119.828L214.583 119.055C213.747 118.084 212.849 117.168 211.895 116.313C211.404 116.031 208.871 115.957 208.535 115.608C208.199 115.258 208.743 114.902 209.166 114.902C209.59 114.902 213.037 115.184 213.387 115.467C213.736 115.749 216.27 117.926 217.325 118.209C218.38 118.491 219.294 118.632 219.294 118.632C219.076 117.926 218.958 117.193 218.944 116.455C218.944 115.326 220.073 113.289 220.564 113.095C221.055 112.9 221.128 113.726 220.913 114.439C220.539 115.329 220.465 116.318 220.705 117.254C221.094 118.333 221.561 119.382 222.103 120.393C222.452 121.233 223.864 125.809 224.562 126.864C225.261 127.919 228.648 138.329 230.759 144.518C232.869 150.708 232.586 151.554 232.371 153.664C232.156 155.775 229.488 164.356 228.648 168.718C227.808 173.079 227.479 174.625 226.807 175.888" stroke="#333333" stroke-linecap="round" stroke-linejoin="round"/>
<path d="M172.858 201.546C177.38 205.403 179.927 209.744 179.927 214.314C179.927 230.288 149.135 243.211 111.146 243.211C104.18 243.226 97.2202 242.777 90.3135 241.867" stroke="#333333" stroke-linecap="round" stroke-linejoin="round"/>
<path d="M84.9638 241.074C59.9646 236.746 42.3711 226.404 42.3711 214.328C42.3711 198.36 73.1631 185.431 111.146 185.431C135.406 185.431 156.736 190.713 168.98 198.69" stroke="#333333" stroke-linecap="round" stroke-linejoin="round"/>
<path d="M59.2115 226.128C54.9576 222.6 52.5518 218.588 52.5518 214.328C52.5518 200.276 78.7606 188.885 111.145 188.885C143.53 188.885 169.746 200.276 169.746 214.328C169.736 216.056 169.351 217.762 168.616 219.327" stroke="#333333" stroke-linecap="round" stroke-linejoin="round"/>
<path d="M105.42 239.656C87.8196 238.91 72.4908 234.791 62.9414 228.803" stroke="#333333" stroke-linecap="round" stroke-linejoin="round"/>
<path d="M165.142 224.233C157.246 232.338 139.955 238.299 119.203 239.535" stroke="#333333" stroke-linecap="round" stroke-linejoin="round"/>
<path d="M111.145 236.686C139.586 236.686 162.642 226.676 162.642 214.328C162.642 201.98 139.586 191.969 111.145 191.969C82.7044 191.969 59.6484 201.98 59.6484 214.328C59.6484 226.676 82.7044 236.686 111.145 236.686Z" stroke="#333333" stroke-linecap="round" stroke-linejoin="round"/>
<path d="M78.7342 170.801C78.7342 170.801 77.1751 173.146 77.2289 174.967C77.2827 176.789 77.8539 176.674 78.8686 175.491C79.8834 174.309 80.1791 171.049 79.8565 170.001C79.534 168.953 78.7342 170.801 78.7342 170.801Z" fill="#333333" stroke="#333333" stroke-linecap="round" stroke-linejoin="round"/>
<path d="M77.4509 175.915C76.3711 176.822 75.6866 178.114 75.5423 179.517C75.4147 181.728 76.6579 181.688 77.209 180.807C77.76 179.927 78.4858 175.31 77.4509 175.915Z" fill="#333333" stroke="#333333" stroke-linecap="round" stroke-linejoin="round"/>
<path d="M76.0663 180.942C75.3298 182.086 74.8442 183.373 74.6416 184.718C74.5072 186.54 75.5556 186.513 76.2814 185.054C77.0071 183.596 77.2759 179.853 76.0663 180.942Z" fill="#333333" stroke="#333333" stroke-linecap="round" stroke-linejoin="round"/>
<path d="M99.0693 181.311C99.8141 181.711 100.638 181.94 101.482 181.983C102.212 181.957 102.938 182.106 103.597 182.42C104.257 182.733 104.832 183.201 105.272 183.784C106.273 185.196 107.853 186.963 107.853 186.963L101.603 189.261L99.0693 181.311Z" fill="white" stroke="#333333" stroke-linecap="round" stroke-linejoin="round"/>
<path d="M100.501 187.783C100.501 187.783 119.028 182.447 136.548 185.283C154.067 188.119 161.05 197.487 161.413 204.099C161.775 210.712 152.394 213.373 142.441 216.828C132.489 220.282 107.039 218.454 99.2439 213.891C91.4485 209.328 92.2683 201.553 92.7119 197.037C93.1554 192.521 97.8461 188.63 100.501 187.783Z" fill="#333333" stroke="#333333" stroke-linecap="round" stroke-linejoin="round"/>
<path d="M84.13 177.205C84.13 177.205 85.4069 180.31 83.7335 182.669C82.0602 185.027 80.743 185.411 78.4179 184.779C76.0927 184.147 72.0874 183.361 68.7206 185.276C65.3538 187.191 61.3283 192.83 57.1081 196.519C52.8878 200.208 49.158 201.573 47.189 205.874C45.22 210.175 44.931 216.908 45.0117 219.697C45.0923 222.486 44.5816 224.038 45.5291 225.476C46.6464 227.139 48.3548 228.314 50.3072 228.763C52.4913 229.253 53.1768 228.958 53.4388 228.252C53.7009 227.546 53.6875 227.197 53.1835 226.787C52.6795 226.377 50.5424 224.771 50.361 223.38C50.2512 222.571 50.2264 221.754 50.2871 220.94C50.2871 220.94 51.8528 221.8 52.2292 222.903C52.6055 224.005 53.4926 225.315 53.9496 224.394C54.4066 223.474 54.1445 221.525 52.9819 220.02C51.8193 218.514 50.2938 216.888 49.9309 215.92C49.568 214.953 52.8945 212.338 54.1848 211.115C55.4751 209.892 57.1417 207.043 58.2169 205.067C59.2921 203.091 65.421 198.428 67.4303 197.809C69.4397 197.191 73.875 196.015 74.6612 196.761C75.4475 197.507 76.0053 199.375 76.3144 200.692C76.6236 202.009 77.981 204.973 84.8222 207.144C91.6634 209.314 103.215 210.376 105.151 209.617C107.086 208.857 104.687 196.223 103.424 191.297C102.16 186.372 102.483 185.041 100.642 182.938C98.8003 180.834 97.4293 180.444 96.2197 179.645C95.01 178.845 85.0104 175.364 84.13 177.205Z" fill="white" stroke="#333333" stroke-linecap="round" stroke-linejoin="round"/>
<path d="M53.5198 227.889C52.6298 227.723 51.7553 227.483 50.9057 227.17C49.3533 226.612 48.8896 226.431 48.0361 224.657" fill="white"/>
<path d="M53.5198 227.889C52.6298 227.723 51.7553 227.483 50.9057 227.17C49.3533 226.612 48.8896 226.431 48.0361 224.657" stroke="#333333" stroke-linecap="round" stroke-linejoin="round"/>
<path d="M46.5918 225.497C47.4589 226.742 48.6354 227.74 50.0056 228.393C52.0217 229.199 52.8214 228.978 52.8214 228.978" fill="white"/>
<path d="M46.5918 225.497C47.4589 226.742 48.6354 227.74 50.0056 228.393C52.0217 229.199 52.8214 228.978 52.8214 228.978" stroke="#333333" stroke-linecap="round" stroke-linejoin="round"/>
<path d="M80.717 172.837C81.7575 174.776 82.9817 176.61 84.3728 178.314C86.1066 180.223 93.6064 183.489 95.945 182.306C98.2836 181.123 100.649 177.837 101.375 174.598C102.101 171.359 101.792 169.699 101.314 165.452C100.837 161.204 98.8011 156.097 96.2004 153.167C93.5997 150.237 86.8458 151.003 83.0422 152.3C79.2386 153.597 75.7642 158.94 76.154 162.636C76.5314 165.325 77.3896 167.925 78.6875 170.31C79.3179 171.189 79.9954 172.032 80.717 172.837Z" fill="white" stroke="#333333" stroke-linecap="round" stroke-linejoin="round"/>
<path d="M91.6373 154.632C92.3631 155.66 94.9033 158.798 94.9033 158.798C96.7045 158.884 98.4666 159.354 100.071 160.176C99.2285 157.619 97.9157 155.242 96.2004 153.167C93.5997 150.244 86.8458 151.003 83.0422 152.3C79.2386 153.597 75.7642 158.94 76.154 162.636C76.4399 164.833 77.0703 166.972 78.0222 168.973L79.7627 168.886C80.2104 168.863 80.6385 168.695 80.9827 168.408C81.3269 168.12 81.5685 167.729 81.6713 167.293C82.182 165.667 84.944 162.3 87.9009 160.606C89.7124 159.579 91.7122 158.928 93.7811 158.691C93.7811 158.691 90.8712 154.793 90.3538 153.899C89.8363 153.006 90.9048 153.604 91.6373 154.632Z" fill="#333333" stroke="#333333" stroke-linecap="round" stroke-linejoin="round"/>
<path d="M83.7138 167.79L78.0957 166.836L79.5204 167.703L84.2313 168.818L83.7138 167.79Z" fill="white" stroke="#333333" stroke-linecap="round" stroke-linejoin="round"/>
<path d="M94.076 166.365C92.0769 165.672 89.9397 165.471 87.8464 165.781C84.7148 166.359 84.1772 166.937 83.7673 167.3C83.3573 167.662 84.0764 168.408 84.231 168.818C84.3855 169.228 84.6678 171.883 86.247 173.233C87.8263 174.584 90.8907 174.282 92.6581 172.763C94.4255 171.244 94.533 167.535 94.533 167.535H95.0908C95.0908 167.535 96.2534 171.567 97.9536 172.34C98.779 172.757 99.7101 172.919 100.628 172.806C101.546 172.692 102.409 172.308 103.108 171.701C104.452 170.398 104.768 166.48 104.761 166.204C104.754 165.929 105.232 165.7 105.151 165.351C105.07 165.001 105.339 164.578 102.181 164.04C99.0221 163.503 95.5276 165.848 95.1244 166.345C94.7807 166.429 94.4227 166.436 94.076 166.365Z" fill="#333333" stroke="#333333" stroke-linecap="round" stroke-linejoin="round"/>
<path d="M88.9089 173.422C88.1117 173.465 87.3246 173.227 86.6845 172.75C85.569 171.789 85.1792 169.994 84.991 169.128C84.9576 168.955 84.9151 168.785 84.8634 168.617C84.7846 168.423 84.6855 168.238 84.5677 168.066C84.4914 167.949 84.4219 167.828 84.3594 167.703C84.7088 167.4 85.3943 166.943 87.9681 166.466C88.5358 166.364 89.1117 166.315 89.6885 166.319C91.0995 166.324 92.5009 166.551 93.8416 166.991H93.8752V167.508C93.8752 168.456 93.4988 171.157 92.2354 172.212C91.3018 172.991 90.125 173.419 88.9089 173.422ZM100.145 172.145C99.4853 172.142 98.834 171.995 98.2366 171.715C97.2084 171.238 96.1533 168.771 95.7367 167.333L95.5888 166.836L95.656 166.755C97.2485 165.491 99.1906 164.745 101.22 164.618C101.506 164.618 101.792 164.643 102.074 164.692C103.875 164.995 104.359 165.237 104.48 165.324L104.439 165.378C104.225 165.589 104.102 165.876 104.097 166.177C104.097 166.789 103.7 170.169 102.652 171.17C101.975 171.809 101.076 172.159 100.145 172.145Z" fill="#54CDD1" stroke="#333333" stroke-linecap="round" stroke-linejoin="round"/>
<path d="M93.7466 168.556C91.1417 169.518 88.6883 170.848 86.4619 172.508C86.5291 172.582 86.5963 172.656 86.6702 172.723C87.3103 173.2 88.0974 173.438 88.8947 173.395C90.1011 173.401 91.2721 172.987 92.2077 172.226C93.1553 171.453 93.5921 169.766 93.7466 168.556Z" fill="#333333" stroke="#333333" stroke-linecap="round" stroke-linejoin="round"/>
<path d="M102.644 171.197C103.404 170.472 103.82 168.509 103.988 167.239C100.675 166.695 96.9457 168.119 96.1191 168.462C96.6433 169.806 97.4632 171.345 98.236 171.715C98.8334 171.995 99.4847 172.142 100.145 172.145C101.069 172.164 101.965 171.825 102.644 171.197Z" fill="#333333" stroke="#333333" stroke-linecap="round" stroke-linejoin="round"/>
<path d="M81.0459 169.752C81.0459 169.752 79.1374 166.594 78.0958 166.836C77.0542 167.078 76.9466 170.431 78.1832 172.071C78.5413 172.625 79.0861 173.031 79.7187 173.218C80.3513 173.404 81.0296 173.357 81.6306 173.086" fill="white"/>
<path d="M81.0459 169.752C81.0459 169.752 79.1374 166.594 78.0958 166.836C77.0542 167.078 76.9466 170.431 78.1832 172.071C78.5413 172.625 79.0861 173.031 79.7187 173.218C80.3513 173.404 81.0296 173.357 81.6306 173.086" stroke="#333333" stroke-linecap="round" stroke-linejoin="round"/>
<path d="M96.3814 171.117C96.3814 171.117 97.4634 172.131 96.993 172.844C96.5226 173.556 94.6543 174.033 94.4863 173.2" fill="white"/>
<path d="M96.3814 171.117C96.3814 171.117 97.4634 172.131 96.993 172.844C96.5226 173.556 94.6543 174.033 94.4863 173.2" stroke="#333333" stroke-linecap="round" stroke-linejoin="round"/>
<path d="M97.0669 175.357C96.2138 175.826 95.2594 176.079 94.2863 176.095C93.3132 176.112 92.3508 175.891 91.4824 175.451" fill="white"/>
<path d="M97.0669 175.357C96.2138 175.826 95.2594 176.079 94.2863 176.095C93.3132 176.112 92.3508 175.891 91.4824 175.451" stroke="#333333" stroke-linecap="round" stroke-linejoin="round"/>
<path d="M92.1951 175.848C92.0002 175.767 93.0553 178.966 94.4397 178.576C95.8241 178.186 95.9651 175.948 95.9651 175.948C95.9651 175.948 93.6064 176.439 92.1951 175.848Z" fill="#333333" stroke="#333333" stroke-linecap="round" stroke-linejoin="round"/>
<path d="M100.642 182.938C100.288 182.514 99.9012 182.119 99.4863 181.755C99.5333 181.849 99.5804 181.95 99.6409 182.057C100.604 183.907 101.299 185.885 101.704 187.931C101.704 188.488 97.5039 192.46 92.625 192.81C87.7461 193.159 85.6695 191.465 85.6695 191.465C85.0911 189.807 84.3903 188.195 83.5728 186.64C83.0949 185.816 82.381 185.154 81.5232 184.739C81.1556 184.909 80.7586 185.007 80.3539 185.028C83.9962 188.388 83.4317 191.392 83.4317 191.392C83.4317 191.392 82.3229 196.398 80.2195 198.481C78.9225 199.772 77.1282 199.664 75.9521 199.389C76.0866 199.846 76.2075 200.296 76.3016 200.692C76.6241 202.036 77.9682 204.973 84.8094 207.144C91.6506 209.314 103.203 210.376 105.138 209.617C107.073 208.857 104.674 196.223 103.411 191.297C102.148 186.372 102.484 185.041 100.642 182.938Z" fill="#54CDD1" stroke="#333333" stroke-linecap="round" stroke-linejoin="round"/>
<path d="M140.412 195.309C139.184 195.246 137.983 194.918 136.892 194.347C135.802 193.776 134.848 192.977 134.095 192.003C131.266 188.596 129.687 187.104 127.597 187.165C125.507 187.225 120.783 195.33 120.554 197.084C120.326 198.838 127.348 200.498 130.393 201.405C133.437 202.312 133.605 201.405 135.802 202.574C138 203.743 139.277 204.288 140.359 205.302C141.441 206.317 141.488 208.064 143.242 206.122C144.996 204.18 145.984 199.476 144.66 197.279C143.336 195.081 140.412 195.309 140.412 195.309Z" fill="white" stroke="#333333" stroke-linecap="round" stroke-linejoin="round"/>
<path d="M116.596 193.986C114.221 195.603 112.151 197.628 110.481 199.967C108.008 203.602 105.152 208.575 105.105 209.624C105.058 210.672 117.604 209.624 119.976 209.328C122.349 209.032 126.206 205.02 125.124 201.626C124.042 198.233 119.748 193.549 116.596 193.986Z" fill="white" stroke="#333333" stroke-linecap="round" stroke-linejoin="round"/>
<path d="M153.88 194.839C153.88 194.839 153.302 198.912 142.24 202.87C131.179 206.828 112.967 209.812 98.9758 206.902C84.9843 203.992 78.5329 200.518 74.2521 197.494C69.9714 194.469 63.2579 194.187 59.6357 199.187C56.0135 204.187 54.6694 210.86 62.1423 217.836C69.6152 224.811 80.0248 229.811 99.8158 232.855C119.607 235.9 133.041 234.246 146.185 229.038C159.33 223.83 162.22 209.146 161.823 205.242C161.521 202.473 160.614 193.596 153.88 194.839Z" fill="#333333" stroke="#333333" stroke-linecap="round" stroke-linejoin="round"/>
<path d="M62.162 217.815C69.6281 224.784 80.0445 229.791 99.8355 232.835C119.626 235.879 133.06 234.226 146.205 229.018C155.015 225.524 159.215 217.755 160.915 211.848C159.914 212.455 158.759 212.761 157.589 212.728C154.229 212.728 155.156 214.523 153.463 218.884C151.769 223.245 149.263 222.654 145.398 221.135C141.534 219.616 138.974 224.2 136.918 225.893C134.861 227.587 131.111 227.116 127.099 224.267C123.087 221.417 122.738 225.927 117.503 227.042C112.268 228.158 111.878 224.717 108.867 223.272C105.857 221.827 104.802 225.114 102.221 225.288C99.6406 225.463 98.8946 222.99 96.2469 220.961C93.5991 218.931 91.583 221.962 89.3183 222.977C87.0536 223.991 85.1384 221.088 83.6398 218.83C82.1412 216.572 79.9705 217.983 77.3967 218.346C74.8228 218.709 73.9022 216.915 72.8874 214.838C71.8727 212.762 69.4198 214.368 67.5113 215C65.6027 215.631 65.4482 213.239 64.635 211.727C63.8219 210.215 62.5181 211.411 61.1808 211.451C59.8435 211.492 59.6822 209.482 59.0707 208.159C58.6204 207.191 57.3906 207.681 56.7656 208.017C56.9672 211.115 58.5129 214.428 62.162 217.815Z" fill="#54CDD1" stroke="#333333" stroke-linecap="round" stroke-linejoin="round"/>
<path d="M156.285 186.6C156.251 186.813 156.166 187.015 156.037 187.188C155.908 187.361 155.74 187.5 155.546 187.595" fill="white"/>
<path d="M156.285 186.6C156.251 186.813 156.166 187.015 156.037 187.188C155.908 187.361 155.74 187.5 155.546 187.595" stroke="#333333" stroke-linecap="round" stroke-linejoin="round"/>
<path d="M115.749 204.771C115.749 204.771 121.038 213.555 126.38 214.657C131.723 215.759 139.283 213.985 141.877 214.334C144.471 214.684 147.724 220.658 150.614 220.645C153.503 220.631 155.029 218.696 154.962 216.465C154.894 214.234 153.967 211.048 156.097 207.628C158.228 204.207 160.848 200.645 160.801 198.407C160.744 196.956 160.559 195.512 160.25 194.093C160.48 193.865 160.662 193.593 160.787 193.293C160.911 192.994 160.975 192.673 160.975 192.349C160.975 192.025 160.911 191.704 160.787 191.405C160.662 191.106 160.48 190.834 160.25 190.605C158.59 188.697 157.125 188.878 157.152 189.718C157.179 190.558 157.206 191.459 157.206 191.459C156.962 191.741 156.802 192.085 156.742 192.453C156.751 192.711 156.783 192.967 156.836 193.219C156.836 193.219 155.728 193.529 155.674 194.16C155.62 194.792 155.573 195.121 155.573 195.121C155.573 195.121 154.74 195.215 154.478 195.713C154.296 196.165 154.212 196.65 154.229 197.137C154.229 197.137 153.873 196.727 153.691 197.809C153.51 198.891 152.401 198.965 151.178 200.329C149.955 201.694 144.196 205.034 141.77 204.939C139.344 204.845 132.422 203.118 127.973 199.059C123.524 195 120.796 192.568 117.819 193.488C114.842 194.409 114.277 196.6 114.277 196.6" fill="white"/>
<path d="M115.749 204.771C115.749 204.771 121.038 213.555 126.38 214.657C131.723 215.759 139.283 213.985 141.877 214.334C144.471 214.684 147.724 220.658 150.614 220.645C153.503 220.631 155.029 218.696 154.962 216.465C154.894 214.234 153.967 211.048 156.097 207.628C158.228 204.207 160.848 200.645 160.801 198.407C160.744 196.956 160.559 195.512 160.25 194.093C160.48 193.865 160.662 193.593 160.787 193.293C160.911 192.994 160.975 192.673 160.975 192.349C160.975 192.025 160.911 191.704 160.787 191.405C160.662 191.106 160.48 190.834 160.25 190.605C158.59 188.697 157.125 188.878 157.152 189.718C157.179 190.558 157.206 191.459 157.206 191.459C156.962 191.741 156.802 192.085 156.742 192.453C156.751 192.711 156.783 192.967 156.836 193.219C156.836 193.219 155.728 193.529 155.674 194.16C155.62 194.792 155.573 195.121 155.573 195.121C155.573 195.121 154.74 195.215 154.478 195.713C154.296 196.165 154.212 196.65 154.229 197.137C154.229 197.137 153.873 196.727 153.691 197.809C153.51 198.891 152.401 198.965 151.178 200.329C149.955 201.694 144.196 205.034 141.77 204.939C139.344 204.845 132.422 203.118 127.973 199.059C123.524 195 120.796 192.568 117.819 193.488C114.842 194.409 114.277 196.6 114.277 196.6" stroke="#333333" stroke-linecap="round" stroke-linejoin="round"/>
<path d="M157.132 191.459C157.132 191.459 159.282 190.982 158.946 193.784L157.132 191.459Z" fill="white"/>
<path d="M157.132 191.459C157.132 191.459 159.282 190.982 158.946 193.784" stroke="#333333" stroke-linecap="round" stroke-linejoin="round"/>
<path d="M156.763 193.219C156.763 193.219 158.443 193.307 157.999 194.859L156.763 193.219Z" fill="white"/>
<path d="M156.763 193.219C156.763 193.219 158.443 193.307 157.999 194.859" stroke="#333333" stroke-linecap="round" stroke-linejoin="round"/>
<path d="M155.573 195.121C155.573 195.121 157.058 195.639 156.736 196.62L155.573 195.121Z" fill="white"/>
<path d="M155.573 195.121C155.573 195.121 157.058 195.639 156.736 196.62" stroke="#333333" stroke-linecap="round" stroke-linejoin="round"/>
<path d="M154.229 197.137C154.229 197.137 155.982 197.292 155.935 198.206C155.935 198.45 155.846 198.685 155.685 198.869C155.525 199.053 155.304 199.173 155.062 199.207" fill="white"/>
<path d="M154.229 197.137C154.229 197.137 155.982 197.292 155.935 198.206C155.935 198.45 155.846 198.685 155.685 198.869C155.525 199.053 155.304 199.173 155.062 199.207" stroke="#333333" stroke-linecap="round" stroke-linejoin="round"/>
<path d="M137.214 202.95C138.758 203.916 140.195 205.042 141.501 206.31C143.02 207.937 145.204 208.575 146.878 206.848C148.551 205.121 150.48 201.149 152.153 198.73C153.867 196.228 155.133 193.447 155.896 190.511L156.319 188.334C156.457 187.93 156.491 187.498 156.42 187.077C156.322 186.778 156.172 186.498 155.977 186.251C155.977 186.251 156.299 185.33 155.795 184.86C155.487 184.567 155.124 184.339 154.727 184.188C154.679 183.737 154.469 183.318 154.135 183.011C153.993 182.916 153.829 182.856 153.658 182.838C153.487 182.819 153.314 182.842 153.154 182.904C153.177 182.681 153.123 182.458 153.001 182.271C152.878 182.083 152.695 181.944 152.482 181.876C152.153 181.706 151.795 181.599 151.427 181.56C151.252 181.228 150.997 180.945 150.687 180.734C150.377 180.523 150.019 180.391 149.646 180.35C148.094 180.31 147.711 181.251 147.691 182.783C147.671 184.315 146.582 185.471 145.87 187.312C145.157 189.154 144.196 192.252 143.054 193.683C141.911 195.115 139.411 195.813 138.423 195.491" fill="white"/>
<path d="M137.214 202.95C138.758 203.916 140.195 205.042 141.501 206.31C143.02 207.937 145.204 208.575 146.878 206.848C148.551 205.121 150.48 201.149 152.153 198.73C153.867 196.228 155.133 193.447 155.896 190.511L156.319 188.334C156.457 187.93 156.491 187.498 156.42 187.077C156.322 186.778 156.172 186.498 155.977 186.251C155.977 186.251 156.299 185.33 155.795 184.86C155.487 184.567 155.124 184.339 154.727 184.188C154.679 183.737 154.469 183.318 154.135 183.011C153.993 182.916 153.829 182.856 153.658 182.838C153.487 182.819 153.314 182.842 153.154 182.904C153.177 182.681 153.123 182.458 153.001 182.271C152.878 182.083 152.695 181.944 152.482 181.876C152.153 181.706 151.795 181.599 151.427 181.56C151.252 181.228 150.997 180.945 150.687 180.734C150.377 180.523 150.019 180.391 149.646 180.35C148.094 180.31 147.711 181.251 147.691 182.783C147.671 184.315 146.582 185.471 145.87 187.312C145.157 189.154 144.196 192.252 143.054 193.683C141.911 195.115 139.411 195.813 138.423 195.491" stroke="#333333" stroke-linecap="round" stroke-linejoin="round"/>
<path d="M151.46 181.573C151.46 181.573 152.704 183.489 151.138 184.792L151.46 181.573Z" fill="white"/>
<path d="M151.46 181.573C151.46 181.573 152.704 183.489 151.138 184.792" stroke="#333333" stroke-linecap="round" stroke-linejoin="round"/>
<path d="M150.728 185.155C151.736 185.311 152.698 185.686 153.546 186.252C154.395 186.819 155.109 187.564 155.64 188.435" fill="white"/>
<path d="M150.728 185.155C151.736 185.311 152.698 185.686 153.546 186.252C154.395 186.819 155.109 187.564 155.64 188.435" stroke="#333333" stroke-linecap="round" stroke-linejoin="round"/>
<path d="M153.026 182.709C153.026 182.709 153.611 183.536 152.67 184.678L153.026 182.709Z" fill="white"/>
<path d="M153.026 182.709C153.026 182.709 153.611 183.536 152.67 184.678" stroke="#333333" stroke-linecap="round" stroke-linejoin="round"/>
<path d="M154.76 184.476C154.802 184.777 154.748 185.083 154.605 185.351C154.463 185.619 154.239 185.835 153.967 185.968" fill="white"/>
<path d="M154.76 184.476C154.802 184.777 154.748 185.083 154.605 185.351C154.463 185.619 154.239 185.835 153.967 185.968" stroke="#333333" stroke-linecap="round" stroke-linejoin="round"/>
</g>
<defs>
<clipPath id="clip0_30_3281">
<rect width="300.481" height="260.22" fill="white"/>
</clipPath>
</defs>
</svg>
