<svg width="32" height="32" viewBox="0 0 32 32" fill="none" xmlns="http://www.w3.org/2000/svg">
<path d="M28 4.5H26.5V3C26.5 2.86739 26.4473 2.74021 26.3536 2.64645C26.2598 2.55268 26.1326 2.5 26 2.5H24.5V1C24.5 0.867392 24.4473 0.740215 24.3536 0.646447C24.2598 0.552678 24.1326 0.5 24 0.5H4C3.86739 0.5 3.74021 0.552678 3.64645 0.646447C3.55268 0.740215 3.5 0.867392 3.5 1V27C3.5 27.1326 3.55268 27.2598 3.64645 27.3536C3.74021 27.4473 3.86739 27.5 4 27.5H5.5V29C5.5 29.1326 5.55268 29.2598 5.64645 29.3536C5.74021 29.4473 5.86739 29.5 6 29.5H7.5V31C7.5 31.1326 7.55268 31.2598 7.64645 31.3536C7.74021 31.4473 7.86739 31.5 8 31.5H24C24.1326 31.5 24.2598 31.4473 24.3535 31.3535L28.3535 27.3535C28.4473 27.2598 28.5 27.1326 28.5 27V5C28.5 4.86739 28.4473 4.74021 28.3536 4.64645C28.2598 4.55268 28.1326 4.5 28 4.5ZM5.5 3V26.5H4.5V1.5H23.5V2.5H6C5.86739 2.5 5.74021 2.55268 5.64645 2.64645C5.55268 2.74021 5.5 2.86739 5.5 3ZM7.5 5V28.5H6.5V3.5H25.5V4.5H8C7.86739 4.5 7.74021 4.55268 7.64645 4.64645C7.55268 4.74021 7.5 4.86739 7.5 5ZM8.5 5.5H27.5V26.5H24C23.8674 26.5 23.7402 26.5527 23.6464 26.6464C23.5527 26.7402 23.5 26.8674 23.5 27V30.5H8.5V5.5ZM26.793 27.5L24.5 29.793V27.5H26.793Z" fill="#275F61"/>
<path d="M11 18.793L10.3535 18.1465L9.64648 18.8535L10.6465 19.8535C10.7402 19.9472 10.8674 19.9999 11 19.9999C11.1326 19.9999 11.2597 19.9472 11.3535 19.8535L13.3535 17.8535L12.6465 17.1465L11 18.793ZM11 22.793L10.3535 22.1465L9.64648 22.8535L10.6465 23.8535C10.7402 23.9472 10.8674 23.9999 11 23.9999C11.1326 23.9999 11.2597 23.9472 11.3535 23.8535L13.3535 21.8535L12.6465 21.1465L11 22.793ZM12.6465 25.1465L11.5 26.293L10.3535 25.1465L9.64648 25.8535L10.793 27L9.64648 28.1465L10.3535 28.8535L11.5 27.707L12.6465 28.8535L13.3535 28.1465L12.207 27L13.3535 25.8535L12.6465 25.1465ZM14 17H21V18H14V17ZM14 19H24.5V20H14V19ZM25.5 19H26.5V20H25.5V19ZM14 21H21V22H14V21ZM14 23H24.5V24H14V23ZM25.5 23H26.5V24H25.5V23ZM14 25.5H21V26.5H14V25.5ZM14 27.5H20.5V28.5H14V27.5ZM21.5 27.5H22.5V28.5H21.5V27.5ZM13.9645 13.121C13.9645 13.2536 14.0172 13.3808 14.111 13.4745L15.5255 14.889C15.621 14.9793 15.7475 15.0297 15.879 15.0297C16.0105 15.0297 16.137 14.9793 16.2325 14.889L16.439 14.6825C16.459 14.6915 16.4795 14.6995 16.5 14.708V15C16.5 15.1326 16.5527 15.2598 16.6464 15.3536C16.7402 15.4473 16.8674 15.5 17 15.5H19C19.1326 15.5 19.2598 15.4473 19.3535 15.3536C19.4473 15.2598 19.5 15.1326 19.5 15V14.708C19.5205 14.6995 19.541 14.6915 19.561 14.6825L19.7675 14.889C19.8612 14.9827 19.9884 15.0354 20.121 15.0354C20.2536 15.0354 20.3807 14.9827 20.4745 14.889L21.889 13.4745C21.9827 13.3807 22.0354 13.2536 22.0354 13.121C22.0354 12.9884 21.9827 12.8613 21.889 12.7675L21.6825 12.561C21.6915 12.541 21.6995 12.5205 21.708 12.5H22C22.1326 12.5 22.2598 12.4473 22.3535 12.3536C22.4473 12.2598 22.5 12.1326 22.5 12V10C22.5 9.86739 22.4473 9.74021 22.3535 9.64645C22.2598 9.55268 22.1326 9.5 22 9.5H21.708C21.6995 9.4795 21.6915 9.459 21.6825 9.439L21.889 9.2325C21.9827 9.13874 22.0354 9.01158 22.0354 8.879C22.0354 8.74642 21.9827 8.61926 21.889 8.5255L20.4745 7.111C20.379 7.02066 20.2525 6.97033 20.121 6.97033C19.9895 6.97033 19.863 7.02066 19.7675 7.111L19.561 7.3175C19.541 7.3085 19.5205 7.3005 19.5 7.292V7C19.5 6.86739 19.4473 6.74021 19.3535 6.64645C19.2598 6.55268 19.1326 6.5 19 6.5H17C16.8674 6.5 16.7402 6.55268 16.6464 6.64645C16.5527 6.74021 16.5 6.86739 16.5 7V7.292C16.4795 7.3005 16.459 7.3085 16.439 7.3175L16.2325 7.111C16.1387 7.01726 16.0116 6.96461 15.879 6.96461C15.7464 6.96461 15.6192 7.01726 15.5255 7.111L14.111 8.5255C14.0172 8.61926 13.9646 8.74642 13.9646 8.879C13.9646 9.01158 14.0172 9.13874 14.111 9.2325L14.3175 9.439C14.3085 9.459 14.3005 9.4795 14.292 9.5H14C13.8674 9.5 13.7402 9.55268 13.6464 9.64645C13.5527 9.74021 13.5 9.86739 13.5 10V12C13.5 12.1326 13.5527 12.2598 13.6464 12.3536C13.7402 12.4473 13.8674 12.5 14 12.5H14.292C14.3005 12.5205 14.3085 12.541 14.3175 12.561L14.111 12.7675C14.0172 12.8612 13.9645 12.9884 13.9645 13.121ZM14.5 10.5H14.647C14.7546 10.5 14.8594 10.4652 14.9457 10.4009C15.032 10.3366 15.0952 10.2461 15.126 10.143C15.1843 9.94559 15.2629 9.75473 15.3605 9.5735C15.4119 9.47874 15.4313 9.3699 15.4158 9.26322C15.4003 9.15654 15.3507 9.05772 15.2745 8.9815L15.1745 8.879L15.8815 8.172L15.984 8.272C16.0602 8.34824 16.159 8.3978 16.2657 8.4133C16.3724 8.4288 16.4812 8.4094 16.576 8.358C16.7572 8.2604 16.9481 8.18181 17.1455 8.1235C17.2477 8.0924 17.3373 8.02934 17.4011 7.94359C17.4649 7.85783 17.4996 7.75388 17.5 7.647V7.5H18.5V7.647C18.5 7.75463 18.5348 7.85938 18.5991 7.94568C18.6634 8.03198 18.7538 8.09522 18.857 8.126C19.0544 8.18431 19.2452 8.2629 19.4265 8.3605C19.5212 8.4119 19.6301 8.4313 19.7368 8.4158C19.8434 8.4003 19.9423 8.35074 20.0185 8.2745L20.1185 8.1745L20.8255 8.8815L20.7255 8.984C20.6492 9.06022 20.5997 9.15904 20.5842 9.26572C20.5687 9.3724 20.5881 9.48124 20.6395 9.576C20.7371 9.75724 20.8157 9.94809 20.874 10.1455C20.9048 10.2486 20.968 10.3391 21.0543 10.4034C21.1406 10.4677 21.2454 10.5025 21.353 10.5025H21.5V11.5025H21.353C21.2454 11.5025 21.1406 11.5373 21.0543 11.6016C20.968 11.6659 20.9048 11.7564 20.874 11.8595C20.8157 12.0569 20.7371 12.2478 20.6395 12.429C20.5881 12.5238 20.5687 12.6326 20.5842 12.7393C20.5997 12.846 20.6492 12.9448 20.7255 13.021L20.8255 13.1235L20.1185 13.8305L20.0185 13.7305C19.9423 13.6543 19.8434 13.6047 19.7368 13.5892C19.6301 13.5737 19.5212 13.5931 19.4265 13.6445C19.2452 13.7421 19.0544 13.8207 18.857 13.879C18.7538 13.9098 18.6634 13.973 18.5991 14.0593C18.5348 14.1456 18.5 14.2504 18.5 14.358V14.5H17.5V14.353C17.5 14.2454 17.4652 14.1406 17.4009 14.0543C17.3366 13.968 17.2461 13.9048 17.143 13.874C16.9456 13.8157 16.7547 13.7371 16.5735 13.6395C16.4787 13.5881 16.3699 13.5687 16.2632 13.5842C16.1565 13.5997 16.0577 13.6493 15.9815 13.7255L15.879 13.8255L15.172 13.1185L15.272 13.016C15.3482 12.9398 15.3978 12.841 15.4133 12.7343C15.4288 12.6276 15.4094 12.5188 15.358 12.424C15.2604 12.2428 15.1818 12.0519 15.1235 11.8545C15.0924 11.7522 15.0293 11.6626 14.9436 11.5988C14.8578 11.535 14.7539 11.5004 14.647 11.5H14.5V10.5Z" fill="#275F61"/>
<path d="M18 13C18.3956 13 18.7822 12.8827 19.1111 12.6629C19.44 12.4432 19.6964 12.1308 19.8478 11.7654C19.9991 11.3999 20.0387 10.9978 19.9616 10.6098C19.8844 10.2219 19.6939 9.86549 19.4142 9.58579C19.1345 9.30608 18.7781 9.1156 18.3902 9.03843C18.0022 8.96126 17.6001 9.00087 17.2346 9.15224C16.8692 9.30362 16.5568 9.55996 16.3371 9.88886C16.1173 10.2178 16 10.6044 16 11C16 11.5304 16.2107 12.0391 16.5858 12.4142C16.9609 12.7893 17.4696 13 18 13ZM18 10C18.1978 10 18.3911 10.0587 18.5556 10.1685C18.72 10.2784 18.8482 10.4346 18.9239 10.6173C18.9996 10.8 19.0194 11.0011 18.9808 11.1951C18.9422 11.3891 18.847 11.5673 18.7071 11.7071C18.5673 11.847 18.3891 11.9422 18.1951 11.9808C18.0011 12.0194 17.8 11.9996 17.6173 11.9239C17.4346 11.8482 17.2784 11.72 17.1685 11.5556C17.0586 11.3911 17 11.1978 17 11C17 10.7348 17.1054 10.4804 17.2929 10.2929C17.4804 10.1054 17.7348 10 18 10Z" fill="#275F61"/>
</svg>
