<svg width="70" height="48" viewBox="0 0 70 48" fill="none" xmlns="http://www.w3.org/2000/svg">
<rect width="70" height="47.9945" rx="4" fill="white"/>
<path fill-rule="evenodd" clip-rule="evenodd" d="M18.2471 18.125H14.8182C14.5836 18.125 14.384 18.2955 14.3475 18.527L12.9606 27.3188C12.9331 27.4923 13.0674 27.6487 13.2434 27.6487H14.8804C15.1151 27.6487 15.3146 27.4781 15.3512 27.2461L15.7252 24.8749C15.7613 24.6427 15.9614 24.4724 16.1955 24.4724H17.281C19.5397 24.4724 20.8432 23.3795 21.1839 21.2138C21.3372 20.2663 21.1903 19.5218 20.7465 19.0003C20.2592 18.428 19.3947 18.125 18.2471 18.125ZM18.6427 21.3361C18.4553 22.5663 17.5152 22.5663 16.6062 22.5663H16.0887L16.4517 20.2686C16.4733 20.1299 16.5936 20.0276 16.734 20.0276H16.9712C17.5904 20.0276 18.1745 20.0276 18.4764 20.3805C18.6562 20.5911 18.7114 20.9038 18.6427 21.3361ZM28.497 21.2966H26.8549C26.715 21.2966 26.5941 21.3989 26.5726 21.5379L26.4999 21.997L26.3851 21.8307C26.0296 21.3147 25.237 21.1423 24.4459 21.1423C22.6312 21.1423 21.0815 22.5164 20.7797 24.4441C20.6228 25.4055 20.8458 26.3249 21.3913 26.9661C21.8918 27.5556 22.6078 27.8013 23.4595 27.8013C24.9215 27.8013 25.7324 26.8613 25.7324 26.8613L25.6591 27.3176C25.6315 27.4921 25.7658 27.6484 25.9408 27.6484H27.4199C27.6552 27.6484 27.8536 27.4779 27.8907 27.2459L28.7782 21.6265C28.8062 21.4537 28.6724 21.2966 28.497 21.2966ZM26.2081 24.4921C26.0496 25.4301 25.305 26.0597 24.3556 26.0597C23.8788 26.0597 23.4976 25.9068 23.253 25.6171C23.0103 25.3294 22.918 24.9197 22.9952 24.4636C23.1433 23.5335 23.9004 22.8835 24.8354 22.8835C25.3016 22.8835 25.6807 23.0382 25.9303 23.3305C26.1805 23.6258 26.2798 24.0379 26.2081 24.4921ZM35.592 21.2964H37.2421C37.4732 21.2964 37.608 21.5555 37.4767 21.7451L31.9887 29.6659C31.8998 29.7941 31.7534 29.8705 31.597 29.8705H29.949C29.7169 29.8705 29.5814 29.6092 29.7158 29.4192L31.4246 27.0074L29.6072 21.6743C29.5443 21.4889 29.6812 21.2964 29.8784 21.2964H31.4998C31.7105 21.2964 31.8963 21.4346 31.9571 21.6363L32.9216 24.8573L35.1975 21.5054C35.2866 21.3746 35.4347 21.2964 35.592 21.2964Z" fill="#253B80"/>
<path fill-rule="evenodd" clip-rule="evenodd" d="M53.4835 27.3182L54.8907 18.3658C54.9123 18.2268 55.0327 18.1245 55.1726 18.124H56.7568C56.9318 18.124 57.0661 18.2809 57.0385 18.4544L55.6508 27.2456C55.6146 27.4776 55.415 27.6481 55.18 27.6481H53.7651C53.5902 27.6481 53.4558 27.4918 53.4835 27.3182ZM42.7063 18.1245H39.2767C39.0426 18.1245 38.8431 18.295 38.8064 18.5265L37.4196 27.3182C37.392 27.4918 37.5264 27.6481 37.7015 27.6481H39.4612C39.6248 27.6481 39.7647 27.5289 39.7902 27.3665L40.1837 24.8744C40.2199 24.6422 40.4199 24.4719 40.654 24.4719H41.739C43.9982 24.4719 45.3014 23.379 45.6423 21.2133C45.7961 20.2658 45.6483 19.5213 45.2047 18.9998C44.7177 18.4275 43.8538 18.1245 42.7063 18.1245ZM43.1019 21.3355C42.9148 22.5658 41.9747 22.5658 41.0652 22.5658H40.5482L40.9118 20.2681C40.9334 20.1294 41.0526 20.0271 41.1935 20.0271H41.4306C42.0494 20.0271 42.6341 20.0271 42.9357 20.3799C43.1158 20.5906 43.1705 20.9033 43.1019 21.3355ZM52.9551 21.2961H51.3143C51.1732 21.2961 51.0535 21.3984 51.0324 21.5374L50.9598 21.9965L50.8444 21.8302C50.489 21.3142 49.6969 21.1418 48.9057 21.1418C47.091 21.1418 45.5418 22.5159 45.2399 24.4436C45.0836 25.405 45.3056 26.3244 45.8511 26.9656C46.3525 27.5551 47.0676 27.8008 47.9193 27.8008C49.3813 27.8008 50.192 26.8607 50.192 26.8607L50.1189 27.3171C50.0913 27.4915 50.2256 27.6479 50.4017 27.6479H51.8802C52.1143 27.6479 52.3138 27.4774 52.3505 27.2454L53.2384 21.626C53.2656 21.4532 53.1312 21.2961 52.9551 21.2961ZM50.6665 24.4916C50.5089 25.4296 49.7634 26.0592 48.8138 26.0592C48.3379 26.0592 47.956 25.9063 47.7112 25.6166C47.4685 25.3289 47.3773 24.9192 47.4537 24.4631C47.6024 23.533 48.3585 22.8829 49.2936 22.8829C49.76 22.8829 50.1389 23.0377 50.3887 23.33C50.6398 23.6253 50.7391 24.0374 50.6665 24.4916Z" fill="#179BD7"/>
</svg>
