<svg width="24" height="24" viewBox="0 0 24 24" fill="none" xmlns="http://www.w3.org/2000/svg">
<path d="M4.50098 11.9993C4.50098 16.1414 7.85884 19.4993 12.001 19.4993C16.1431 19.4993 19.501 16.1414 19.501 11.9993M4.50098 11.9993C4.50098 7.85712 7.85884 4.49925 12.001 4.49925C16.1431 4.49926 19.501 7.85712 19.501 11.9993M4.50098 11.9993L3.00098 11.9993M19.501 11.9993L21.001 11.9993M19.501 11.9993L12.001 11.9993M3.54354 15.0774L4.95308 14.5644M19.0485 9.43411L20.458 8.92108M5.10645 17.785L6.25551 16.8208M17.7462 7.17897L18.8952 6.21479M7.50088 19.7943L8.25088 18.4952M15.7509 5.50484L16.5009 4.2058M10.4381 20.8633L10.6985 19.386M13.3032 4.61393L13.5637 3.13672M13.5637 20.8633L13.3033 19.3861M10.6985 4.61397L10.4381 3.13676M16.5009 19.7941L15.7509 18.4951M7.50092 4.20565L12.001 11.9993M18.8954 17.7843L17.7463 16.8202M6.25566 7.17835L5.1066 6.21417M20.4583 15.0776L19.0487 14.5646M4.95332 9.43426L3.54379 8.92123M12.001 11.9993L8.25098 18.4944" stroke="#333333" stroke-width="1.5" stroke-linecap="round" stroke-linejoin="round"/>
</svg>
