<svg width="227" height="219" viewBox="0 0 227 219" fill="none" xmlns="http://www.w3.org/2000/svg">
<circle cx="116.542" cy="110.108" r="85.775" fill="#5CE1E6"/>
<circle cx="217.484" cy="33.4583" r="9.125" fill="#5CE1E6"/>
<circle cx="24.7243" cy="12.1667" r="12.1667" fill="#5CE1E6"/>
<circle cx="12.557" cy="161.817" r="6.08333" fill="#5CE1E6"/>
<circle cx="201.749" cy="195.275" r="3.04167" fill="#5CE1E6"/>
<path d="M129.521 80.1982C139.66 80.1982 146.45 87.3165 146.45 97.9043V122.344C146.45 132.899 139.66 140.018 129.521 140.018H103.589C93.4497 140.017 86.6309 132.899 86.6309 122.344V97.9043C86.631 87.3166 93.4498 80.1984 103.589 80.1982H129.521ZM129.042 101.135C128.025 100.118 126.351 100.118 125.334 101.135L112.98 113.488L107.747 108.254C106.73 107.237 105.055 107.237 104.038 108.254C103.021 109.271 103.021 110.915 104.038 111.962L111.156 119.051C111.665 119.559 112.323 119.799 112.98 119.799C113.668 119.799 114.327 119.559 114.835 119.051L129.042 104.844C130.059 103.827 130.059 102.182 129.042 101.135Z" fill="#275F61"/>
<circle cx="129.965" cy="5.47502" r="3.04167" fill="#5CE1E6"/>
<circle cx="76.4322" cy="214.742" r="4.25833" fill="#5CE1E6"/>
<circle cx="148.824" cy="208.05" r="1.21667" fill="#5CE1E6"/>
<circle cx="207.833" cy="134.442" r="3.04167" fill="#5CE1E6"/>
<circle cx="1.60729" cy="91.2501" r="1.21667" fill="#5CE1E6"/>
</svg>
