<svg width="32" height="33" viewBox="0 0 32 33" fill="none" xmlns="http://www.w3.org/2000/svg">
<path d="M29.4399 21.6034C28.8585 21.6807 28.2672 21.626 27.7099 21.4434C27.2373 21.2847 26.8066 21.0215 26.4499 20.6734C26.101 20.3118 25.6485 20.0672 25.1549 19.9734C25.1166 19.9709 25.0782 19.9709 25.0399 19.9734L24.5799 19.2784C24.8426 19.3366 25.1108 19.3668 25.3799 19.3684C26.0921 19.3822 26.7933 19.1909 27.3998 18.8174C28.0064 18.4438 28.4928 17.9038 28.801 17.2616C29.1093 16.6193 29.2264 15.902 29.1384 15.1951C29.0504 14.4882 28.761 13.8215 28.3047 13.2745C27.8484 12.7275 27.2444 12.3231 26.5648 12.1097C25.8852 11.8963 25.1585 11.8828 24.4714 12.0708C23.7843 12.2588 23.1657 12.6404 22.6894 13.1701C22.2131 13.6998 21.8991 14.3553 21.7849 15.0584L19.1949 11.1384C19.1725 11.1042 19.1606 11.0643 19.1606 11.0234C19.1606 10.9825 19.1725 10.9426 19.1949 10.9084C19.21 10.8759 19.2339 10.8483 19.264 10.8289C19.2941 10.8094 19.3291 10.7988 19.3649 10.7984H23.7049C24.2937 10.7984 24.8583 10.5645 25.2747 10.1482C25.691 9.73184 25.9249 9.16718 25.9249 8.5784C25.9249 7.98962 25.691 7.42495 25.2747 7.00862C24.8583 6.59229 24.2937 6.3584 23.7049 6.3584H15.0999C14.7911 6.35879 14.4872 6.43462 14.2144 6.57927C13.9417 6.72392 13.7084 6.93303 13.5349 7.1884C13.3559 7.45264 13.2446 7.75677 13.2106 8.0741C13.1766 8.39142 13.221 8.71224 13.3399 9.0084L15.7399 15.0384C15.8189 15.2303 15.8318 15.4431 15.7766 15.6431C15.7214 15.8432 15.6011 16.0192 15.4349 16.1434L10.1199 20.1434C9.96858 20.1286 9.81618 20.1286 9.66488 20.1434C9.294 20.1901 8.93938 20.3238 8.62988 20.5334C8.32042 20.7257 7.99605 20.8929 7.65988 21.0334C6.84469 21.3662 5.98274 21.5703 5.10488 21.6384C4.97301 21.6498 4.85105 21.7131 4.76576 21.8143C4.68047 21.9156 4.63879 22.0465 4.64988 22.1784C4.65493 22.2441 4.67293 22.3082 4.70284 22.367C4.73275 22.4257 4.77399 22.478 4.82418 22.5207C4.87437 22.5635 4.93252 22.5959 4.99528 22.6161C5.05804 22.6363 5.12418 22.6439 5.18988 22.6384C6.16894 22.558 7.13001 22.3287 8.03988 21.9584C8.41863 21.8058 8.78477 21.6236 9.13488 21.4134C9.32676 21.2744 9.55007 21.1851 9.78488 21.1534C10.3799 21.0784 10.7449 21.3634 11.2499 21.7534C11.7921 22.2429 12.4639 22.5658 13.1849 22.6834C13.609 22.7139 14.0347 22.6538 14.4338 22.5073C14.8329 22.3607 15.1963 22.131 15.4999 21.8334C15.988 21.3736 16.6208 21.0979 17.2899 21.0534C18.029 21.0629 18.7395 21.34 19.2899 21.8334C19.8768 22.3416 20.6149 22.6421 21.3899 22.6884C21.5373 22.6886 21.6844 22.6769 21.8299 22.6534C22.5964 22.5083 23.2969 22.1231 23.8299 21.5534C24.2999 21.1234 24.5649 20.9034 24.9899 20.9684C25.2934 21.0413 25.5673 21.2053 25.7749 21.4384C26.2339 21.8723 26.7814 22.2015 27.3799 22.4034C28.0775 22.6312 28.8169 22.7012 29.5449 22.6084C29.6125 22.6029 29.6784 22.5837 29.7383 22.5519C29.7983 22.5202 29.8512 22.4765 29.8938 22.4237C29.9363 22.3708 29.9677 22.3098 29.9859 22.2444C30.0042 22.1791 30.0089 22.1107 29.9999 22.0434C29.9925 21.9775 29.972 21.9138 29.9398 21.8559C29.9075 21.7981 29.864 21.7472 29.8119 21.7062C29.7598 21.6653 29.7001 21.6351 29.6362 21.6175C29.5724 21.5998 29.5056 21.595 29.4399 21.6034ZM25.3799 12.9334C25.9196 12.9195 26.4513 13.0668 26.9068 13.3565C27.3624 13.6463 27.7213 14.0653 27.9376 14.56C28.1538 15.0547 28.2177 15.6027 28.121 16.1339C28.0242 16.665 27.7713 17.1553 27.3946 17.5421C27.0178 17.9288 26.5343 18.1944 26.0058 18.305C25.4773 18.4155 24.9279 18.366 24.4277 18.1627C23.9275 17.9595 23.4993 17.6117 23.1978 17.1638C22.8962 16.7159 22.7351 16.1883 22.7349 15.6484C22.7303 15.2964 22.795 14.947 22.9254 14.6201C23.0559 14.2932 23.2494 13.9952 23.495 13.743C23.7406 13.4909 24.0335 13.2897 24.3569 13.1507C24.6803 13.0118 25.0279 12.938 25.3799 12.9334ZM23.1699 20.8334C22.7862 21.264 22.2744 21.5602 21.7099 21.6784C20.9699 21.7934 20.4949 21.4584 19.8949 21.0334C19.1658 20.4075 18.2358 20.0649 17.2749 20.0684C16.3941 20.1221 15.558 20.4749 14.9049 21.0684C14.3749 21.4784 13.9899 21.7784 13.3049 21.6934C12.7635 21.5957 12.2618 21.344 11.8599 20.9684C11.6712 20.816 11.4742 20.6741 11.2699 20.5434L16.0349 16.9734C16.3757 16.7164 16.6225 16.3545 16.7373 15.9433C16.852 15.5322 16.8283 15.0947 16.6699 14.6984L14.2699 8.6684C14.2105 8.5247 14.188 8.3684 14.2046 8.2138C14.2212 8.05919 14.2763 7.91121 14.3649 7.7834C14.4374 7.65069 14.5434 7.5393 14.6723 7.46035C14.8013 7.38139 14.9487 7.33762 15.0999 7.3334H23.6949C24.0184 7.3334 24.3288 7.46193 24.5576 7.69073C24.7863 7.91952 24.9149 8.22983 24.9149 8.5534C24.9149 8.87696 24.7863 9.18727 24.5576 9.41607C24.3288 9.64486 24.0184 9.7734 23.6949 9.7734H19.3549C19.1381 9.77406 18.9255 9.83345 18.7397 9.94526C18.554 10.0571 18.402 10.2171 18.2999 10.4084C18.1962 10.6037 18.147 10.8233 18.1575 11.0441C18.1681 11.265 18.238 11.4789 18.3599 11.6634L23.9999 20.1784C23.6971 20.3615 23.4183 20.5815 23.1699 20.8334ZM27.2849 25.2484C26.7034 25.3208 26.1132 25.2663 25.5549 25.0884C25.0846 24.9321 24.6545 24.6744 24.2949 24.3334C23.9485 23.9647 23.4959 23.713 22.9999 23.6134C22.0849 23.4734 21.4999 23.9934 20.9999 24.4484C20.6134 24.8791 20.1006 25.1766 19.5349 25.2984C18.7949 25.4084 18.3249 25.0734 17.7249 24.6534C16.9945 24.0292 16.0657 23.6853 15.1049 23.6834C14.2235 23.7348 13.3866 24.0879 12.7349 24.6834C12.2049 25.0934 11.8149 25.3884 11.1349 25.3034C10.5935 25.2057 10.0918 24.954 9.68988 24.5784C9.40411 24.2942 9.06083 24.0744 8.6831 23.9339C8.30537 23.7933 7.90193 23.7352 7.49988 23.7634C7.129 23.8101 6.77438 23.9438 6.46488 24.1534C6.15657 24.3477 5.83202 24.515 5.49488 24.6534C4.68202 24.98 3.82355 25.1791 2.94988 25.2434C2.81727 25.254 2.69431 25.3169 2.60804 25.4181C2.52178 25.5194 2.47927 25.6508 2.48988 25.7834C2.50049 25.916 2.56334 26.039 2.66461 26.1252C2.76588 26.2115 2.89727 26.254 3.02988 26.2434C4.01085 26.1649 4.97384 25.9355 5.88488 25.5634C6.27046 25.4117 6.64331 25.2294 6.99988 25.0184C7.19001 24.8796 7.41165 24.7903 7.64488 24.7584C8.24488 24.6834 8.60988 24.9684 9.11488 25.3584C9.65513 25.8508 10.3279 26.1742 11.0499 26.2884C11.4748 26.3273 11.9031 26.2736 12.3053 26.1312C12.7075 25.9888 13.0741 25.761 13.3799 25.4634C13.8632 25.0085 14.488 24.7332 15.1499 24.6834C15.8899 24.6929 16.601 24.972 17.1499 25.4684C17.7407 25.9813 18.484 26.2853 19.2649 26.3334C19.4123 26.3336 19.5594 26.3219 19.7049 26.2984C20.4709 26.155 21.1714 25.7715 21.7049 25.2034C22.1749 24.7734 22.4349 24.5484 22.8649 24.6184C23.1685 24.6881 23.4428 24.8506 23.6499 25.0834C24.1084 25.5191 24.656 25.85 25.2549 26.0534C25.9516 26.2773 26.6889 26.3456 27.4149 26.2534C27.4805 26.2458 27.5441 26.2254 27.6018 26.1933C27.6596 26.1612 27.7105 26.1181 27.7516 26.0663C27.7927 26.0145 27.8232 25.9552 27.8413 25.8916C27.8595 25.8281 27.8649 25.7616 27.8574 25.6959C27.8498 25.6302 27.8294 25.5667 27.7973 25.5089C27.7652 25.4512 27.722 25.4003 27.6703 25.3592C27.6185 25.3181 27.5592 25.2876 27.4956 25.2695C27.432 25.2513 27.3655 25.2458 27.2999 25.2534L27.2849 25.2484ZM6.41488 10.9434H10.3549C10.4875 10.9434 10.6147 10.8907 10.7084 10.797C10.8022 10.7032 10.8549 10.576 10.8549 10.4434C10.8549 10.3108 10.8022 10.1836 10.7084 10.0898C10.6147 9.99608 10.4875 9.9434 10.3549 9.9434H6.41488C6.28227 9.9434 6.1551 9.99608 6.06133 10.0898C5.96756 10.1836 5.91488 10.3108 5.91488 10.4434C5.91488 10.576 5.96756 10.7032 6.06133 10.797C6.1551 10.8907 6.28227 10.9434 6.41488 10.9434ZM4.46488 12.9084H8.38488C8.51749 12.9084 8.64467 12.8557 8.73843 12.762C8.8322 12.6682 8.88488 12.541 8.88488 12.4084C8.88488 12.2758 8.8322 12.1486 8.73843 12.0548C8.64467 11.9611 8.51749 11.9084 8.38488 11.9084H4.46488C4.33227 11.9084 4.20509 11.9611 4.11133 12.0548C4.01756 12.1486 3.96488 12.2758 3.96488 12.4084C3.96488 12.541 4.01756 12.6682 4.11133 12.762C4.20509 12.8557 4.33227 12.9084 4.46488 12.9084Z" fill="#275F61"/>
<path d="M9.855 12.4082C9.855 12.5408 9.90768 12.668 10.0014 12.7618C10.0952 12.8555 10.2224 12.9082 10.355 12.9082H11.96C12.0926 12.9082 12.2198 12.8555 12.3136 12.7618C12.4073 12.668 12.46 12.5408 12.46 12.4082C12.46 12.2756 12.4073 12.1484 12.3136 12.0547C12.2198 11.9609 12.0926 11.9082 11.96 11.9082H10.355C10.2224 11.9082 10.0952 11.9609 10.0014 12.0547C9.90768 12.1484 9.855 12.2756 9.855 12.4082ZM9.43 14.8682C9.56261 14.8682 9.68979 14.8155 9.78355 14.7218C9.87732 14.628 9.93 14.5008 9.93 14.3682C9.93 14.2356 9.87732 14.1084 9.78355 14.0147C9.68979 13.9209 9.56261 13.8682 9.43 13.8682H2.5C2.36739 13.8682 2.24021 13.9209 2.14645 14.0147C2.05268 14.1084 2 14.2356 2 14.3682C2 14.5008 2.05268 14.628 2.14645 14.7218C2.24021 14.8155 2.36739 14.8682 2.5 14.8682H9.43Z" fill="#275F61"/>
</svg>
