<svg width="32" height="33" viewBox="0 0 32 33" fill="none" xmlns="http://www.w3.org/2000/svg">
<path d="M8.23626 30.8334C8.23626 30.966 8.28894 31.0932 8.3827 31.187C8.47647 31.2807 8.60365 31.3334 8.73626 31.3334H23.2638C23.3964 31.3334 23.5235 31.2807 23.6173 31.187C23.7111 31.0932 23.7638 30.966 23.7638 30.8334V17.7124C24.2325 17.6426 24.6607 17.407 24.9706 17.0484C25.2804 16.6897 25.4513 16.2319 25.4523 15.7579C25.454 15.4981 25.4037 15.2406 25.3042 15.0006C25.2048 14.7605 25.0582 14.5429 24.8733 14.3604C24.6911 14.1739 24.4733 14.0258 24.2328 13.9252C23.9923 13.8245 23.734 13.7732 23.4733 13.7744H8.52676C8.00139 13.7756 7.49796 13.9852 7.12694 14.3571C6.75592 14.7291 6.54762 15.2331 6.54776 15.7584C6.54776 16.2939 6.75626 16.7929 7.12676 17.1559C7.42521 17.4588 7.81515 17.6549 8.23626 17.7139V30.8344V30.8334ZM22.7638 17.7414V19.8234H9.23626V17.7414H22.7638ZM9.23626 30.3334V20.8234H22.7638V30.3334H9.23626ZM7.54776 15.7574C7.54776 15.2149 7.98676 14.7734 8.52676 14.7734H23.4733C23.7343 14.7734 23.9783 14.8749 24.1663 15.0664C24.3508 15.2474 24.4523 15.4929 24.4523 15.7569C24.4527 16.0172 24.3498 16.2669 24.1663 16.4514C23.9827 16.6359 23.7335 16.74 23.4733 16.7409H23.2698L23.2638 16.7399H8.73626L8.73026 16.7409H8.52676C8.39742 16.7413 8.26936 16.7154 8.15026 16.665C8.03117 16.6146 7.92351 16.5405 7.83376 16.4474C7.74227 16.3573 7.66981 16.2498 7.62068 16.1312C7.57155 16.0126 7.54675 15.8858 7.54776 15.7574ZM12.7218 7.56092C12.7338 7.57392 12.7393 7.59692 12.7373 7.61892L12.5268 9.71992C12.4873 10.1049 12.6508 10.4704 12.9648 10.6984C13.1548 10.8359 13.3753 10.9064 13.5988 10.9064C13.7468 10.9064 13.8963 10.8754 14.0378 10.8124L15.9658 9.97042H15.9743C15.9918 9.97042 16.0318 9.97142 16.0333 9.97042L17.9603 10.8119C18.1336 10.8898 18.3245 10.9202 18.5134 10.9002C18.7023 10.8802 18.8826 10.8104 19.0358 10.6979C19.1882 10.5884 19.3089 10.4404 19.3854 10.269C19.462 10.0977 19.4918 9.90905 19.4718 9.72242L19.2643 7.61042C19.2633 7.60139 19.2643 7.59228 19.2672 7.58366C19.27 7.57504 19.2746 7.56713 19.2808 7.56042L19.2838 7.55742L20.6858 5.98292C20.9443 5.69492 21.0273 5.30292 20.9073 4.93392C20.8503 4.75407 20.7466 4.59254 20.6069 4.46579C20.4672 4.33904 20.2963 4.25162 20.1118 4.21242L18.0568 3.76242C18.0444 3.76035 18.0326 3.75573 18.022 3.74884C18.0115 3.74195 18.0026 3.73296 17.9958 3.72242L16.9323 1.90392C16.8389 1.74043 16.7039 1.60458 16.5409 1.51017C16.378 1.41576 16.193 1.36617 16.0048 1.36642H16.0008C15.6138 1.36642 15.2648 1.56592 15.0673 1.90192L14.0043 3.71992C13.9924 3.7396 13.9737 3.7542 13.9518 3.76092L11.8878 4.21242C11.703 4.25146 11.532 4.33881 11.392 4.46557C11.2521 4.59233 11.1483 4.75394 11.0913 4.93392C11.0321 5.11251 11.0214 5.30358 11.0601 5.48767C11.0989 5.67176 11.1857 5.8423 11.3118 5.98192L12.7213 7.56142L12.7218 7.56092ZM12.1008 5.18942L14.1743 4.73592C14.4673 4.66592 14.7128 4.48592 14.8663 4.22692L15.9298 2.40792C15.9367 2.39507 15.947 2.3844 15.9596 2.37707C15.9723 2.36975 15.9867 2.36606 16.0013 2.36642C16.0453 2.36642 16.0618 2.39542 16.0683 2.40692L17.1343 4.22942C17.2873 4.48792 17.5348 4.66742 17.8373 4.73792L19.8993 5.18942C19.9098 5.19192 19.9423 5.19892 19.9563 5.24142C19.9609 5.25408 19.9618 5.2678 19.959 5.28098C19.9562 5.29416 19.9497 5.30627 19.9403 5.31592L18.5383 6.89042C18.4377 7.00138 18.3617 7.13243 18.3155 7.27491C18.2693 7.41738 18.2539 7.56804 18.2703 7.71692L18.4768 9.82192C18.4788 9.83474 18.4771 9.84788 18.4719 9.85977C18.4666 9.87165 18.4581 9.88177 18.4473 9.88892C18.4218 9.90742 18.3943 9.90992 18.3623 9.89592L16.4413 9.05742C16.3042 8.99372 16.1551 8.96034 16.004 8.95957C15.8529 8.95879 15.7034 8.99063 15.5658 9.05292L13.6333 9.89692C13.6202 9.90326 13.6057 9.90582 13.5913 9.90432C13.5769 9.90282 13.5632 9.89731 13.5518 9.88842C13.5173 9.86342 13.5203 9.83242 13.5213 9.82042L13.7323 7.71492C13.7469 7.56659 13.7306 7.41684 13.6845 7.2751C13.6384 7.13337 13.5634 7.00273 13.4643 6.89142L12.0568 5.31442C12.0478 5.30482 12.0417 5.29289 12.0391 5.27999C12.0365 5.26709 12.0376 5.25373 12.0423 5.24142C12.0459 5.22807 12.0533 5.21606 12.0636 5.20683C12.0738 5.1976 12.0871 5.19155 12.1008 5.18942ZM23.8498 3.52442C23.9154 3.52449 23.9805 3.51158 24.0411 3.48644C24.1018 3.4613 24.1569 3.42442 24.2033 3.37792L25.3943 2.18692C25.4407 2.1405 25.4775 2.08539 25.5026 2.02473C25.5278 1.96408 25.5407 1.89907 25.5407 1.83342C25.5407 1.76777 25.5278 1.70276 25.5026 1.64211C25.4775 1.58145 25.4407 1.52634 25.3943 1.47992C25.3478 1.4335 25.2927 1.39667 25.2321 1.37155C25.1714 1.34643 25.1064 1.3335 25.0408 1.3335C24.9751 1.3335 24.9101 1.34643 24.8494 1.37155C24.7888 1.39667 24.7337 1.4335 24.6873 1.47992L23.4963 2.67092C23.4261 2.74075 23.3783 2.82985 23.3589 2.92691C23.3394 3.02397 23.3493 3.12461 23.3872 3.21606C23.425 3.30751 23.4892 3.38564 23.5716 3.44054C23.654 3.49544 23.7508 3.52464 23.8498 3.52442ZM24.6873 10.7919C24.7336 10.8385 24.7887 10.8755 24.8493 10.9007C24.91 10.9259 24.9751 10.9389 25.0408 10.9389C25.1065 10.9389 25.1715 10.9259 25.2322 10.9007C25.2929 10.8755 25.3479 10.8385 25.3943 10.7919C25.4407 10.7455 25.4776 10.6904 25.5028 10.6298C25.5279 10.5691 25.5409 10.5041 25.5409 10.4384C25.5409 10.3728 25.5279 10.3077 25.5028 10.2471C25.4776 10.1864 25.4407 10.1313 25.3943 10.0849L24.2033 8.89392C24.1095 8.80017 23.9823 8.7475 23.8498 8.7475C23.7172 8.7475 23.59 8.80017 23.4963 8.89392C23.4025 8.98767 23.3498 9.11483 23.3498 9.24742C23.3498 9.38001 23.4025 9.50717 23.4963 9.60092L24.6873 10.7919ZM24.6383 6.13592C24.6383 6.26853 24.6909 6.39571 24.7847 6.48947C24.8785 6.58324 25.0056 6.63592 25.1383 6.63592H26.8223C26.9549 6.63592 27.082 6.58324 27.1758 6.48947C27.2696 6.39571 27.3223 6.26853 27.3223 6.13592C27.3223 6.00331 27.2696 5.87614 27.1758 5.78237C27.082 5.6886 26.9549 5.63592 26.8223 5.63592H25.1383C25.0056 5.63592 24.8785 5.6886 24.7847 5.78237C24.6909 5.87614 24.6383 6.00331 24.6383 6.13592ZM7.31226 10.7919L8.50326 9.60092C8.54968 9.5545 8.5865 9.49939 8.61163 9.43873C8.63675 9.37808 8.64968 9.31307 8.64968 9.24742C8.64968 9.18177 8.63675 9.11676 8.61163 9.05611C8.5865 8.99545 8.54968 8.94034 8.50326 8.89392C8.45684 8.8475 8.40172 8.81067 8.34107 8.78555C8.28042 8.76043 8.21541 8.7475 8.14976 8.7475C8.08411 8.7475 8.0191 8.76043 7.95845 8.78555C7.89779 8.81067 7.84268 8.8475 7.79626 8.89392L6.60526 10.0849C6.55884 10.1313 6.52201 10.1865 6.49689 10.2471C6.47176 10.3078 6.45883 10.3728 6.45883 10.4384C6.45883 10.5041 6.47176 10.5691 6.49689 10.6297C6.52201 10.6904 6.55884 10.7455 6.60526 10.7919C6.65168 10.8383 6.70679 10.8752 6.76745 10.9003C6.8281 10.9254 6.89311 10.9383 6.95876 10.9383C7.02441 10.9383 7.08942 10.9254 7.15007 10.9003C7.21072 10.8752 7.26584 10.8383 7.31226 10.7919ZM7.79626 3.37792C7.84258 3.42451 7.89766 3.46149 7.95833 3.48672C8.019 3.51195 8.08405 3.52494 8.14976 3.52494C8.21546 3.52494 8.28052 3.51195 8.34118 3.48672C8.40185 3.46149 8.45693 3.42451 8.50326 3.37792C8.54973 3.33153 8.5866 3.27642 8.61175 3.21577C8.63691 3.15511 8.64986 3.09009 8.64986 3.02442C8.64986 2.95875 8.63691 2.89373 8.61175 2.83307C8.5866 2.77242 8.54973 2.71731 8.50326 2.67092L7.31226 1.47992C7.26584 1.4335 7.21072 1.39667 7.15007 1.37155C7.08942 1.34643 7.02441 1.3335 6.95876 1.3335C6.89311 1.3335 6.8281 1.34643 6.76745 1.37155C6.70679 1.39667 6.65168 1.4335 6.60526 1.47992C6.55884 1.52634 6.52201 1.58145 6.49689 1.64211C6.47176 1.70276 6.45883 1.76777 6.45883 1.83342C6.45883 1.89907 6.47176 1.96408 6.49689 2.02473C6.52201 2.08539 6.55884 2.1405 6.60526 2.18692L7.79626 3.37792ZM5.17676 6.63592H6.86076C6.99337 6.63592 7.12054 6.58324 7.21431 6.48947C7.30808 6.39571 7.36076 6.26853 7.36076 6.13592C7.36076 6.00331 7.30808 5.87614 7.21431 5.78237C7.12054 5.6886 6.99337 5.63592 6.86076 5.63592H5.17676C5.04415 5.63592 4.91697 5.6886 4.8232 5.78237C4.72944 5.87614 4.67676 6.00331 4.67676 6.13592C4.67676 6.26853 4.72944 6.39571 4.8232 6.48947C4.91697 6.58324 5.04415 6.63592 5.17676 6.63592Z" fill="#275F61"/>
</svg>
