<svg width="32" height="32" viewBox="0 0 32 32" fill="none" xmlns="http://www.w3.org/2000/svg">
<path d="M31.5877 25.3998L18.4618 3.63152C17.9447 2.77396 17.0014 2.24121 16 2.24121C14.9985 2.24121 14.0552 2.77396 13.538 3.63159L0.412215 25.3998C-0.122222 26.2861 -0.138035 27.3966 0.370903 28.2979C0.879965 29.1991 1.83909 29.759 2.87409 29.759H29.1258C30.1608 29.759 31.12 29.1991 31.6291 28.2978C32.138 27.3965 32.1222 26.286 31.5877 25.3998ZM29.815 27.2734C29.7459 27.3954 29.6458 27.4969 29.5247 27.5675C29.4036 27.6382 29.266 27.6755 29.1258 27.6756H2.87409C2.73393 27.6755 2.59631 27.6382 2.47526 27.5676C2.35421 27.4969 2.25406 27.3954 2.18503 27.2735C2.11621 27.1514 2.081 27.0132 2.08299 26.873C2.08497 26.7329 2.12409 26.5958 2.19634 26.4756L15.3223 4.7074C15.393 4.5909 15.4925 4.49452 15.6112 4.4275C15.7298 4.36048 15.8637 4.32507 16 4.32465C16.2757 4.32465 16.5353 4.47134 16.6777 4.7074L29.8035 26.4756C29.8758 26.5957 29.915 26.7328 29.917 26.873C29.919 27.0131 29.8838 27.1513 29.815 27.2734Z" fill="#275F61"/>
<path d="M16.01 10.813C15.2175 10.813 14.599 11.2382 14.599 11.9921C14.599 14.2922 14.8695 17.5975 14.8695 19.8977C14.8696 20.4969 15.3915 20.7481 16.01 20.7481C16.4739 20.7481 17.1311 20.4969 17.1311 19.8977C17.1311 17.5976 17.4016 14.2923 17.4016 11.9921C17.4016 11.2383 16.7638 10.813 16.01 10.813ZM16.0294 22.0818C15.179 22.0818 14.541 22.7583 14.541 23.5702C14.541 24.3627 15.1789 25.0586 16.0294 25.0586C16.8219 25.0586 17.4985 24.3627 17.4985 23.5702C17.4985 22.7583 16.8218 22.0818 16.0294 22.0818Z" fill="#275F61"/>
</svg>
