<svg width="20" height="14" viewBox="0 0 20 14" fill="none" xmlns="http://www.w3.org/2000/svg">
<g clip-path="url(#clip0_260_8486)">
<path d="M7.95454 9.95453V4.04546L13.1818 7.00014L7.95454 9.95453ZM19.582 2.18614C19.352 1.3256 18.6743 0.647951 17.8139 0.417968C16.2542 0 10 -9.53674e-07 10 -9.53674e-07C10 -9.53674e-07 3.74583 0 2.18612 0.417968C1.32564 0.647951 0.647904 1.3256 0.417924 2.18614C0 3.74582 0 7 0 7C0 7 0 10.2541 0.417924 11.8139C0.647904 12.6744 1.32564 13.352 2.18612 13.5821C3.74583 14 10 14 10 14C10 14 16.2542 14 17.8139 13.5821C18.6743 13.352 19.352 12.6744 19.582 11.8139C20 10.2541 20 7 20 7C20 7 20 3.74582 19.582 2.18614Z" fill="white"/>
</g>
<defs>
<clipPath id="clip0_260_8486">
<rect width="20" height="14" fill="white"/>
</clipPath>
</defs>
</svg>
